<svg xmlns="http://www.w3.org/2000/svg" width="800" height="480" style="enable-background:new 0 0 800 480" xml:space="preserve"><path style="fill:#00b140" d="M0 0h800v480H0z"/><path style="fill:#fff" d="M0 0h800v240H0z"/><path style="fill:#c8102e;stroke:#000;stroke-width:1.15651" d="M247 114c-26 4-92 10-118 6l5 12c43-4 83 10 121-5l-8-13z"/><path style="fill:#c8102e;stroke:#000;stroke-width:1.15651" d="M146 143c-16-4-43-32-48-49 13 9 44 20 54 19-3 2-12 9-19 10l13 20zM198 135c5 6 30 4 42-4l-3-6-3 5-4-4-1 7-7-6-1 7-4-6-2 7-6-5-3 7-3-9c-2 1-4 5-5 7zM200 114c0 2 2 7 6 8 0-2-2-7-1-9l4 3 1-6 4 3 1-7 5 3v-7c-8 1-18 9-20 12zM679 191c-2-5-8-10-13-14l9-21c-9 2-26 3-36 2 19-18 59-55 71-72-4 23-1 75 9 93-10-4-22-12-28-21-4 13-9 27-12 32"/><path style="fill:#c8102e;stroke:#000;stroke-width:1.15651" d="M311 92c1 6 1 10 6 12 4 2 14 5 20 15-7-2-18-5-19 2 0 7 3 6 7 7 7 2 13 9 13 20-5-4-12-6-17-6s-6 1-7 6c-2 10 1 10 6 11 4 0 14 5 14 20-5-4-15-7-21-8-3 0-4 2-4 7-1 6 0 8 6 10s13 6 14 15c-5-3-14-2-17-1-2 2-4 8 2 20 12-4 24-7 37-8 28-3 21-21 21-50 0-30 62-62 155-114-23 55 8 49 25 43l89-35c-43 28-65 57-27 70-49 15-71 55-45 80-18-6-43 5-53 22 19-2 55 2 78 8 21 6 56-1 60-19v-3c0-6-2-11-4-14-6-8-15-9-21-9-7 0-15 3-15 8s4 8 14 8c5 0 13 0 22-7a24 24 0 0 1 4 17c-9 5-18 7-27 7-19 0-37-7-37-27s21-31 38-31c24 0 57 9 57 45 0 46-63 67-100 67 6 5 13 10 21 12 26 10 50 22 58 41-10 0-27-8-34-16 21 25-5 70-2 86s23 6 23 18-12 10-16 5c-5-5-19-10-26-5s-17 7-21 3c-5-5-21-3-28 3s-16 7-19 2-2-11 10-13c-5-6-22 4-25-7-2-8 2-11 17-10-2-4-13-5-11-13 1-8 10-12 20-1 27 30 39 13 48 0-3-7 1-11 6-15-3-5-1-12 1-16-4-3-7-14-2-18-4 0-10-4-10-12-5 4-12 3-16-1-6 3-21 3-27-3-9 3-25 2-29-4-8 2-22-5-25-12-5 0-9-1-13-4-12 9-28 25-12 37 16 13 49 3 50 34-8-7-22-5-27-11-16 22-39 43-73 51 5 3 14 4 18 3 7 0 14 6 8 13s-17 1-24-5c-10-8-16-4-19-2s-6 3-11-1c-5-5-9-1-11 1-4 5-13-6-27 7-7 6-23-2-17-11-7 2-19-7-9-16s27 10 41 5c-3-4-10-11-23-13-8-1-9-8-5-14 4-7 16-2 25 9 7 8 16 8 25 7 6-4 16-5 21-3 0-4 6-8 12-8-1-6 1-11 10-12h2c-6 0-12-3-16-7-12 3-25-3-27-13-18-2-20-20-16-27l2-1c-6 4-13 6-22 3-8 11-22 16-36 12-4 6-9 10-16 12 1 7-1 14-10 23 3-12-14-16-10-36-1 14-46 39-53 71 6 2 13 4 18 4 11-3 15 9 11 13s-12 7-16 3-12 1-16-6c-3-7-14-5-18 0-5 5-20-6-30 5-4 4-18 8-26 6s-12-10-10-14c-5-5-5-11 0-16-2-7 4-21 15-16 7 4 30 20 51 1 17-16 7-30 18-31-1-7 3-16 8-17l-1-9-7-2c-9 2-18 4-28 4 0 7-8 23-15 31-2-62-61-68-69-117-1 7-9 14-9 20-1 7-5 11-12 9-7-3-9-15-2-17 7-1 6-13 10-14s5-6 4-12c-2-5 0-12 2-16s-1-12-7-14c-6-3-8-9-6-14-6-5-4-14 4-16 11-2 11 15 17 17-1-4 0-10 3-14-3-8 1-14 8-14 13 0 8 20 5 26 5-5 11-12 16-7 5 4 4 14-1 18-5 3-14 8-11 14 5 9 9 20 9 34 7 5 12 11 12 16 5 1 14 5 16 10 6-1 14 1 17 6 2-1 7-2 10-1 0-5 2-9 4-12-10-11-9-28 1-35-3-7-2-20 8-26 0-7 2-17 12-23-2-7 3-18 9-18-1-7 0-16 8-21-2-2-3-5-2-8-15 4-21 12-26 20l-4-11c0 9-6 12-7 24-5-5-7-13-6-19 0-4-8-8-6-16 12 10 36-13 57-5-21-41-35-21-46-14-10 7-17-4-16-11-14-3-31-2-49 1 14-16 45-24 68-22 10-18 22-15 34-13h26c5-15 38-16 41-28 3 2 1 11-1 18 8-2 15-5 18-10 1 5-1 18-4 22l10-2-25 16c-2 1-4 4 2 7-6 1-23 7-29 2"/><g><path style="fill:#c8102e;stroke:#000;stroke-width:1.15651" d="M86 168c8-5 19-1 21 6 2 5-7 9-8 4-1-6-5-10-13-10zM117 152c9-3 18 3 18 11 0 6-10 7-9 2 1-6-2-11-9-13zM151 166c9 4 10 15 4 20-4 4-12-2-8-4 6-4 7-10 4-16zM82 280c7 5 18 2 21-6 2-5-7-9-8-4-2 6-6 10-13 10zM135 393c3-8 14-11 21-6 4 4-1 12-4 8-5-4-11-5-17-2zM125 417c1-9 14-15 21-12 5 2 3 11-1 9-6-4-15-3-20 3zM139 438c-3-8 4-17 12-17 6 0 7 9 2 9-7-1-12 2-14 8zM278 431c1-10-8-17-16-15-5 2-5 11 0 9 7-2 12 0 16 6zM331 433c-2-8 6-16 15-15 5 1 5 10 0 9-6-2-12 0-15 6zM464 431c1-9-8-16-17-13-5 1-4 10 1 9 6-3 12-1 16 4zM315 414c-1-9 8-16 17-15 5 1 4 11-1 10-6-2-12-1-16 5zM328 388c0-9 11-15 19-11 5 2 2 11-3 9-6-4-11-3-16 2zM531 438c-2-9 6-16 15-15 5 0 5 10 0 9-6-2-12 0-15 6zM663 434c2-9-6-17-14-16-6 1-6 10-1 9 6-1 12 1 15 7zM514 417c-1-9 7-16 16-14 5 1 4 10 0 9-7-2-12-1-16 5zM519 393c0-9 10-15 18-12 5 2 3 11-2 8-6-3-11-2-16 4z"/></g><g><path style="fill:none;stroke:#000;stroke-width:1.15651" d="m552 93-125 45c-16 5-24 6-34 27"/><path style="fill:none;stroke:#000;stroke-width:1.15651" d="M510 69c-56 35-102 65-115 94s-13 46-44 51M260 268c14-16 44-35 72-36-6 9-10 18-14 27M317 270c7-9 25-28 36-36-5 15-14 51-9 76 3-24 16-60 29-81 10 23 24 56 24 76 3-24-3-67-12-86 24 12 54 46 67 67-8-30-39-65-54-76 39 6 96 31 118 49-35-31-78-55-108-67 47-4 136 6 161 16-37-20-114-31-160-28 49-20 135-42 205-52-53 3-122 16-192 32 31-21 128-59 151-66M274 80c4-13 22-17 36-21M297 90c-11-1-13-5-7-10 4-2 13-7 19-8l-8-1c6-3 17-6 20-10M284 68l-14 1M253 134l-8 1M205 278c0 8 3 16 8 22 5 5 34 6 35-3M209 266c11 10 43 4 43-4M210 231c4 9 41 16 42 7M218 205c0 9 35 16 36 9M230 182c1 8 24 15 27 12M239 164c1 5 18 10 23 8M247 143c4 4 10 8 22 10M191 103c0-5 6-6 5-12M253 128c2 3 7 9 8 14 3-2 5-7 6-9 3 2 5 5 6 9l3-13 12 5c1-3-1-8-4-10l9-2-8-8 9-6-11-5 4-7M204 82c-2 0-3 4 1 7 2 2 2 10-2 12"/><path style="fill:none;stroke:#000;stroke-width:1.15651" d="M273 142c-13 28-25 83-21 122M266 318c0 6 10 7 10-7"/><path style="fill:none;stroke:#000;stroke-width:1.15651" d="M275 318c1 5 11 6 9-9"/><path style="fill:none;stroke:#000;stroke-width:1.15651" d="M271 322c0 11 8 10 8 0M284 314c3 7 11 4 9-11"/><path style="fill:none;stroke:#000;stroke-width:1.15651" d="M293 309c4 6 11 1 12-8M255 278c-5 5-11 17-4 28 4 7 16 11 17 7"/><path style="fill:none;stroke:#000;stroke-width:1.15651" d="M251 306c-4 1-11 10-8 19 2 7 16 11 18 6M390 314c15 2 34-8 35-27"/><path style="fill:none;stroke:#000;stroke-width:1.15651" d="M424 296c8 5 25 7 32-6M431 300c-7 17-14 35 1 48 13 11 23-5 39 11 4 5-1 14-49 40M195 279c3 6 3 18-3 17M148 419c10-15 22-3 31-6"/><path style="fill:#fff;stroke:#000;stroke-width:1.15651" d="M227 84c-2 5 3 10 7 11 5 0 13-3 11-8"/><path style="fill:none;stroke:#000;stroke-width:1.15651" d="M222 85c2-4 33 7 46 0M121 190c-1 2-1 10 4 14M340 416c3-2 11-5 18-4 6 2 18 0 25-3M273 142c-3 27 4 70 21 88M264 166c1 25 7 54 19 70M257 193c3 18 8 37 17 49M253 221c3 11 7 21 12 29M251 248l6 10"/><path style="fill:none;stroke:#000;stroke-width:1.15651" d="M272 159c-1 9-6 15-11 19M273 171c-1 9-7 16-15 20M275 183c-1 9-10 19-20 24M277 195c-1 9-12 22-24 26M281 207c-4 12-17 26-29 29M286 219c-1 9-19 27-35 32M178 273c2 8-5 15-8 13"/><path style="fill:none;stroke:#000;stroke-width:1.15651" d="M212 301c-31-6-54-17-67-41-3-6 6-8 5-13M141 213c-5-9-7-18-4-25"/><path style="fill:none;stroke:#000;stroke-width:1.15651" d="M162 263c0 5-6 12-8 10M213 300c-3 8 4 24 19 29M243 325l-4 6M255 342c-2 4-13 1-15-2M214 388c-13 12-26 13-41 14-15 2-19-5-25 1M314 300c1 8 1 16-6 28-4 6 0 13 0 22M382 323c6-5 11-13 13-20M360 326c8-10 9-24 3-35M324 338c5-6 7-16 7-28M232 357c2 5 11 8 12 5"/><path style="fill:none;stroke:#000;stroke-width:1.15651" d="M306 289c0 5-6 10-11 6 1 8-5 11-10 7 1 11-9 13-15 4-8 34-32 60-34 77-1 4-17 3-13-9M413 321c-9-2-25-4-31 2M416 347c-8 3-14 4-20 4M439 371c8-1 17-6 20-19M423 364c7-2 13-6 16-12"/><path style="fill:none;stroke:#000;stroke-width:1.15651" d="M463 373c-5-1-16-3-24-2M434 392c3-1-2-9-7-9M372 405l22-11M415 391c4 1 9 6 7 8M452 286c5 8 14 13 26 8 1 2 3 4 7 6M518 284c6 4-5 21-20 20"/><path style="fill:none;stroke:#000;stroke-width:1.15651" d="M600 385c2 5 10 4 13 0 3-5 10-19 6-49s-34-34-69-41c-34-7-43-17-50-37"/><path style="fill:none;stroke:#000;stroke-width:1.15651" d="M606 370c3 4 11 3 13-1M607 354c5 2 13 1 13-4M605 336c4 0 14 1 13-4M595 324c3-2 12-11 7-14M579 323c5-3 11-19 5-21M552 320c9-4 17-21 11-22M523 316c14-4 19-22 13-24M543 399c15 1 23 9 29 12M539 246c14-1 27 19 46 34M691 158l5-22M551 416l11-1M685 129l-10 27M314 222c-26 8-53 25-71 55 10 2 28 0 36-3l1 23c8-6 18-15 26-17l-1 25c12-11 33-12 39 5 5-25 43-26 53-5 11-19 38-27 55-19 8-21 42-32 64-27-8-10-6-20 0-29"/></g><path style="stroke:#000;stroke-width:1.69161;stroke-linejoin:round" d="m230 85 12 2s-8 11-12-2z"/><path style="fill:#c8102e;fill-opacity:1;stroke:#000;stroke-width:1px;stroke-linecap:butt;stroke-linejoin:miter;stroke-opacity:1" d="M469 295c-7 16-24 11-37 13 20 12 40 15 61-5-5-1-10-3-15-9l-9 1z"/></svg>