<svg width="512" height="336" viewBox="0 0 512 336" xmlns="http://www.w3.org/2000/svg">
  <g fill="none">
    <path d="M503.172 335.724H8.828A8.829 8.829 0 0 1 0 326.896V9.103A8.829 8.829 0 0 1 8.828.275h494.345a8.829 8.829 0 0 1 8.828 8.828v317.793a8.83 8.83 0 0 1-8.829 8.828z" fill="#F5F5F5"/>
    <path d="M305.009 94.532c-40.563-27.041-95.35-15.986-122.374 24.506-13.555 20.211-8.045 47.674 12.235 61.195 20.265 13.521 47.64 8.03 61.161-12.252 13.521-20.281 40.914-25.704 61.178-12.254 20.298 13.521 25.757 40.984 12.217 61.195 27.042-40.56 16.111-95.348-24.417-122.39" fill="#FF4B55"/>
    <path d="M182.634 119.039c-13.555 20.211-8.045 47.674 12.235 61.195 20.265 13.521 47.64 8.03 61.161-12.252 13.521-20.281 40.914-25.704 61.178-12.254 20.298 13.521 25.757 40.984 12.217 61.195-27.006 40.632-81.775 51.549-122.338 24.507-40.526-27.04-51.494-81.828-24.453-122.391" fill="#41479B"/>
    <path d="M349.92 61.19l16.035 24.102a4.414 4.414 0 0 1-1.219 6.112l-4.066 2.723a4.414 4.414 0 0 1-6.129-1.22l-16.055-24.096a4.415 4.415 0 0 1 1.223-6.119l4.086-2.728a4.413 4.413 0 0 1 6.125 1.226zm24.74 37.161l16.087 24.087a4.415 4.415 0 0 1-1.237 6.134l-4.084 2.699a4.413 4.413 0 0 1-6.103-1.23l-16.078-24.062a4.414 4.414 0 0 1 1.217-6.122l4.074-2.724a4.415 4.415 0 0 1 6.124 1.218zm-7.571-48.619l40.829 61.273a4.413 4.413 0 0 1-1.225 6.12l-4.102 2.734a4.413 4.413 0 0 1-6.121-1.224l-40.843-61.269a4.413 4.413 0 0 1 1.227-6.122l4.115-2.739a4.416 4.416 0 0 1 6.12 1.227zm17.122-11.44l16.07 24.149a4.412 4.412 0 0 1-1.241 6.127l-4.086 2.7a4.412 4.412 0 0 1-6.105-1.234l-16.082-24.117a4.413 4.413 0 0 1 1.224-6.121l4.099-2.732a4.411 4.411 0 0 1 6.121 1.228zm24.756 37.239l16.045 24.099a4.413 4.413 0 0 1-1.22 6.115l-4.075 2.724a4.413 4.413 0 0 1-6.127-1.223l-16.045-24.099a4.414 4.414 0 0 1 1.22-6.115l4.075-2.724a4.413 4.413 0 0 1 6.127 1.223zM132.721 205.982l40.824 61.207a4.413 4.413 0 0 1-1.222 6.12l-4.088 2.73a4.414 4.414 0 0 1-6.123-1.222l-40.824-61.207a4.413 4.413 0 0 1 1.222-6.12l4.088-2.73a4.415 4.415 0 0 1 6.123 1.222zm-17.139 11.449l16.028 24.041a4.413 4.413 0 0 1-1.217 6.116l-4.066 2.722a4.414 4.414 0 0 1-6.126-1.217l-16.047-24.035a4.413 4.413 0 0 1 1.22-6.122l4.086-2.728a4.414 4.414 0 0 1 6.122 1.223zm24.769 37.174l16.046 24.102a4.412 4.412 0 0 1-1.222 6.115l-4.078 2.726a4.414 4.414 0 0 1-6.126-1.221l-16.056-24.097a4.415 4.415 0 0 1 1.222-6.119l4.088-2.73a4.414 4.414 0 0 1 6.126 1.224zm-41.909-25.729l40.798 61.21a4.416 4.416 0 0 1-1.219 6.118l-4.077 2.726a4.413 4.413 0 0 1-6.125-1.22l-40.822-61.202a4.415 4.415 0 0 1 1.224-6.122l4.102-2.734a4.412 4.412 0 0 1 6.119 1.224zm22.852-106.434l40.818-61.257a4.414 4.414 0 0 1 6.124-1.224l4.087 2.729a4.415 4.415 0 0 1 1.222 6.12l-40.834 61.223a4.414 4.414 0 0 1-6.108 1.231l-4.071-2.695a4.413 4.413 0 0 1-1.238-6.127zm-17.147-11.433l40.825-61.269a4.414 4.414 0 0 1 6.126-1.222l4.077 2.726a4.413 4.413 0 0 1 1.22 6.116l-40.814 61.272a4.413 4.413 0 0 1-6.124 1.224l-4.088-2.729a4.413 4.413 0 0 1-1.222-6.118zM86.99 99.625l40.829-61.33a4.415 4.415 0 0 1 6.127-1.224l4.077 2.726a4.413 4.413 0 0 1 1.222 6.114L98.441 107.25a4.414 4.414 0 0 1-6.123 1.228l-4.102-2.734a4.416 4.416 0 0 1-1.226-6.119zm251.503 167.564l16.047-24.035a4.414 4.414 0 0 1 6.126-1.217l4.066 2.723a4.414 4.414 0 0 1 1.217 6.116l-16.028 24.04a4.414 4.414 0 0 1-6.123 1.223l-4.086-2.728a4.414 4.414 0 0 1-1.219-6.122zm24.75-37.048l16.073-24.154a4.415 4.415 0 0 1 6.123-1.227l4.096 2.73a4.415 4.415 0 0 1 1.223 6.124l-16.107 24.116a4.412 4.412 0 0 1-6.109 1.227l-4.062-2.692a4.414 4.414 0 0 1-1.237-6.124zm-7.617 48.557l16.057-24.098a4.414 4.414 0 0 1 6.122-1.225l4.104 2.737a4.415 4.415 0 0 1 1.225 6.119l-16.047 24.1a4.414 4.414 0 0 1-6.12 1.228l-4.115-2.739a4.416 4.416 0 0 1-1.226-6.122zm24.777-37.235l16.066-24.042a4.415 4.415 0 0 1 6.119-1.22l4.102 2.734a4.413 4.413 0 0 1 1.221 6.124l-16.065 24.042a4.414 4.414 0 0 1-6.118 1.22l-4.103-2.734a4.41 4.41 0 0 1-1.222-6.124zm-7.632 48.618l16.075-24.056a4.414 4.414 0 0 1 6.103-1.23l4.086 2.7a4.415 4.415 0 0 1 1.239 6.131l-16.063 24.088a4.415 4.415 0 0 1-6.121 1.224l-4.099-2.732a4.414 4.414 0 0 1-1.22-6.125zm24.783-37.112l16.035-24.085a4.414 4.414 0 0 1 6.127-1.223l4.072 2.722a4.414 4.414 0 0 1 1.218 6.119l-16.049 24.053a4.413 4.413 0 0 1-6.11 1.229l-4.06-2.69a4.414 4.414 0 0 1-1.233-6.125z" fill="#464655"/>
  </g>
</svg>
