<svg xmlns="http://www.w3.org/2000/svg" data-name="Layer 1" viewBox="0 0 114.83 21.64"><path d="M114.34 5.82l-1.58.18-.43-3a5.42 5.42 0 00-2.86-.7 3.44 3.44 0 00-3.57 3.53c0 2.17 1.65 2.9 3.66 3.87s4 2.11 4 5.49a6.38 6.38 0 01-6.46 6.43 8.06 8.06 0 01-5.45-2.07V15.7l1.55-.19.76 3.08a5.87 5.87 0 003.17.89 3.86 3.86 0 003.75-3.81c0-2.56-1.83-3.3-3.72-4.18s-4-2.29-4-5.45c0-3.81 2.62-6 6.31-6a7.73 7.73 0 015.3 1.86zM85 10.68c-1.48 7 .24 8.42 3.53 8.42s5.7-1.47 7.18-8.42-.27-8.42-3.6-8.42-5.65 1.45-7.11 8.42m-3.21 0C83.5 2.53 88.07 0 92.57 0s8.06 2.53 6.33 10.68-6.37 10.68-10.84 10.68S80 19 81.77 10.68M71 21.28l4.45-21h3.18l-4.45 21zm-5.72-10.45c1.49-7-.27-8.42-3.59-8.42H59l-3.59 16.77h2.71c3.36 0 5.7-1.47 7.16-8.35m-7.57 10.45h-5.92l4.46-21h5.88C66.7.32 70.19 2.85 68.45 11c-1.68 7.92-6.33 10.28-10.74 10.28m-14.85-3.63c1-1 1.41-1.64 2.32-5.94L47.6.32h3.18L48.55 10.8c-1.07 5-1.44 5.65-2.38 6.88a9.54 9.54 0 01-7.36 3.77h-.27a5.76 5.76 0 01-5.76-3.77c-.41-1.23-.51-1.85.56-6.88L35.57.32h3.2l-2.45 11.39c-.91 4.3-.8 4.89-.2 5.94A3.16 3.16 0 0039 19.18h.26a5.08 5.08 0 003.57-1.53M18 .32h13.68l-.44 2.09h-5.12l-4 18.87h-3.19L23 2.24h-5.44zm-5.29 5.5L11.09 6l-.42-3a5.48 5.48 0 00-2.87-.7 3.43 3.43 0 00-3.56 3.55c0 2.17 1.64 2.9 3.65 3.87s4 2.11 4 5.49a6.38 6.38 0 01-6.46 6.43A8.07 8.07 0 010 19.57V15.7l1.55-.19.77 3.08a5.85 5.85 0 003.17.89 3.86 3.86 0 003.75-3.81c0-2.56-1.83-3.3-3.72-4.18s-4-2.29-4-5.45c0-3.81 2.63-6 6.31-6a7.77 7.77 0 015.31 1.86z"></path></svg>