<?xml version="1.0" encoding="UTF-8"?>
<svg width="1772px" height="1164px" viewBox="0 0 1772 1164" version="1.1" xmlns="http://www.w3.org/2000/svg" xmlns:xlink="http://www.w3.org/1999/xlink">
    <!-- Generator: Sketch 53.2 (72643) - https://sketchapp.com -->
    <title>Illustration 2</title>
    <desc>Created with Sketch.</desc>
    <defs>
        <path d="M78.1,86.3254989 C71.51,90.7054989 59.51,91.2454989 49.28,90.6554989 L46.94,119.705499 L13.56,105.965499 C13.56,105.965499 16.77,73.9054989 18.161,61.6154989 C11.451,55.5354989 0.02,52.7154989 2.91322522e-13,42.3854989 C2.91322522e-13,38.8054989 2.09,32.6154989 9.81,32.5954989 C20.17,32.5854989 18.69,45.0054989 18.69,45.0054989 C30.411,49.5554989 42.4,10.1754989 49.31,1.25549894 C53.09,-3.62450106 82.11,7.29549894 82.11,7.29549894 L98.58,25.7154989 C98.9,27.9854989 97.74,73.2654989 78.1,86.3254989" id="path-1"></path>
        <path d="M222.8018,243.5708 L199.9908,246.4298 L163.2518,188.9698 L161.9108,169.8708 L105.9418,169.0408 L82.0518,168.6908 L82.0018,168.6908 C79.7918,168.5598 77.4908,168.4208 75.1118,168.2508 C45.0218,166.1508 3.3318,160.2998 0.4718,144.0998 C-4.7182,114.7598 34.5418,57.8208 39.1818,51.2208 C39.4718,50.8108 39.6208,50.5908 39.6208,50.5908 C46.2008,41.1908 52.8218,33.8808 59.0018,29.9908 C71.0218,22.4208 82.2918,20.7598 93.0018,20.7908 L95.8708,0.0008 L139.5618,6.0298 L137.1818,23.3108 C150.0118,24.5408 158.7408,27.0498 166.9108,34.5498 C193.1418,58.6308 195.0718,148.8208 195.0718,148.8208 L222.8018,243.5708 Z" id="path-3"></path>
        <path d="M125.405423,107.62048 C130.6491,113.792088 137.035137,121.463305 137.9654,123.2904 C139.5794,126.4614 142.5644,142.1584 142.4224,145.2604 C142.2804,148.3604 132.9784,162.2974 132.9784,162.2974 C127.2074,160.8834 130.9764,153.6864 130.9764,153.6864 C130.9764,153.6864 125.8074,158.0574 123.6584,157.9834 C103.4184,157.2934 104.5024,147.0464 104.9814,145.7624 C106.0564,142.8804 111.4594,146.1764 111.4594,146.1764 C111.4594,146.1764 101.072004,125.102638 103.572013,110.356954 L125.405423,107.62048 Z M63.8311,29.0454 C63.8311,29.0454 67.4221,29.9604 67.4901,32.2174 C67.4901,32.8584 45.6121,36.9964 45.6121,36.9964 L50.3741,37.2784 L55.3241,37.0394 C55.3241,37.0394 57.8971,37.5184 58.0431,39.6554 C58.0941,40.5014 53.5371,41.4074 48.2361,42.1004 C39.9951,43.1864 34.0701,42.2294 28.2731,40.6474 C27.7861,40.5104 27.3161,40.3904 26.8631,40.2714 C20.8951,38.7064 18.2361,38.4154 10.5601,34.2344 C7.1561,32.3794 2.1381,28.7034 0.0441,26.8394 L5.5751,6.3724 L13.2011,3.7654 C13.2011,3.7654 16.7401,2.3794 22.7171,1.2764 C26.4701,0.5844 30.1331,0.8584 34.0061,0.4394 L31.8061,8.5024 C31.5581,8.6814 31.2741,9.2874 31.0601,9.5194 C31.2241,9.6554 31.3861,9.8094 31.5741,9.9804 C33.1551,11.4254 36.1471,13.9894 49.0231,17.2044 C51.6051,17.8464 60.2741,17.9654 60.2741,17.9654 C62.8221,18.3324 68.1741,18.8284 68.5421,21.8294 C68.6361,22.5734 67.7041,23.3774 67.7041,23.3774 C67.7041,23.3774 71.0631,23.6084 71.2681,26.6514 C71.3541,27.8484 63.8311,29.0454 63.8311,29.0454 Z" id="path-5"></path>
        <path d="M26.6969,104.7139 L24.1159,127.2419 C24.1159,127.2419 72.1359,139.8309 90.1889,158.5539 L0.6709,158.7089 L4.0219,94.1869 L26.6969,104.7139 Z M129.7336,-1.13686838e-13 L140.0446,20.292 C140.0446,20.292 187.2216,4.248 212.7016,9.932 L138.6716,59.064 L104.9206,3.738 L129.7336,-1.13686838e-13 Z" id="path-7"></path>
        <path d="M0.9372,97.5974 L24.7222,107.0504 L24.5192,125.7524 L0.2062,124.8594 L0.9372,97.5974 Z M105.1974,5.8708 L130.3454,0.6188 L140.5284,16.3908 L119.6774,29.1008 L105.1974,5.8708 Z" id="path-9"></path>
        <path d="M234.667445,201.10015 L222.35702,334.7238 L165.33802,334.7238 L167.86902,140.7098 L59.0340203,141.4598 C27.9862203,141.4595 -2.04377972,114.7955 0.109220281,83.8065 L3.49422028,52.2565 L169.70022,3.1545 C200.46922,-3.8025 211.13722,5.3885 231.08522,40.8985 L319.16122,221.4375 L270.77722,253.7705 L234.667445,201.10015 Z" id="path-11"></path>
        <path d="M174.950374,16.3229859 L174.675738,41.4556269 C174.675738,41.4556269 227.665076,50.3302414 245.628752,71.8471218 L140.057228,71.8471218 L144.479248,2.13162821e-14 L174.950374,16.3229859 Z M44.3172815,10.5670962 L44.0263212,40.4599314 C44.0263212,40.4599314 67.6622815,43.7432522 77.2822152,71.6080135 L0.763506623,71.6080135 L8.41585762,38.8072852 L11.4099636,8.90680773 L44.3172815,10.5670962 Z" id="path-13"></path>
        <path d="M136.797225,6.33068576 L167.268351,16.0679243 L166.993715,41.2005653 L134.341828,39.6396266 L136.797225,6.33068576 Z M4.36642053,-7.10542736e-15 L36.6351623,10.3123212 L36.344202,40.2051564 L0.733738411,38.5525102 L4.36642053,-7.10542736e-15 Z" id="path-15"></path>
        <path d="M188.905196,77.6297271 L168.265298,275.889954 L112.760066,275.889954 L122.154338,77.6297271 L53.9832119,77.6297271 C24.1689073,77.6297271 -4.26325641e-13,53.8545487 -4.26325641e-13,24.5272433 L-4.26325641e-13,0.925927131 L79.6830695,0.925927131 L263.743765,0.925927131 C302.337772,0.925927131 332.20201,34.5042589 327.427573,72.5304061 L300.763897,275.889954 L244.309924,275.889954 L246.909361,77.6297271 L188.905196,77.6297271 Z" id="path-17"></path>
        <path d="M72.1341716,118.030352 L71.2909763,88.8035934 C71.2909763,88.8035934 107.589201,91.6314725 115.164645,87.6847253 C115.164645,87.6847253 120.922337,52.1702308 115.447781,26.9899121 L85.6430473,0 L37.5418639,3.55153846 L32.0823964,47.2132088 C29.5652367,39.7665495 6.65251479,30.431967 1.15221893,47.1366593 C-5.94038462,68.6773187 34.9403846,79.9968462 34.9403846,79.9968462 L30.6684911,118.381945" id="path-19"></path>
        <path d="M219.863122,162.905782 L221.145,171.093399 C223.129,183.768619 212.437,195.117663 198.511,195.117663 L68.664,195.117663 C54.479,195.117663 43.717,183.364006 46.131,170.510836 L47.6826204,162.251116 C27.8250677,155.220879 2.39222658,140.425949 0.1599,110.486065 C-2.6010048,73.4462909 31.0009436,39.7650446 53.9813282,21.2587214 C58.9766274,15.6648461 65.0625581,10.7395878 72.459,7.29038886 C100.664,-5.86300997 156.367,3.1637349 156.367,3.1637349 C176.987695,9.38891257 190.854902,12.6884001 200.200388,22.7485523 C223.400797,39.8065795 267.033708,77.0610732 268.1387,116.661432 C268.853266,142.276977 240.395542,156.205322 219.863122,162.905782 Z" id="path-21"></path>
        <path d="M62.5490509,22.2577227 L80.977,42.5345587 L92.872,11.3236935 L116.767,31.770066 L80.537,54.6311921 C80.537,54.6311921 42.7416571,30.9077667 30.3047254,23.5277018 L0.1516,32.7873642 C0.1516,32.7873642 6.8496,-0.0856944282 49.5726,-0.000198826979 C69.6115112,0.0399003832 73.7995106,11.0956461 72.5972423,22.8250838 C72.5549864,23.237336 70.6916213,22.8894307 70.0759533,22.8250838 C66.4781494,22.4490571 65.4831638,22.4263676 62.7741699,22.2699809 C62.6993331,22.2656606 62.6243123,22.261578 62.5490509,22.2577227 Z M141.6897,201.253862 L89.9892578,201.253862 L27.2647,201.253862 L28.2647,186.69575 C43.9997,181.164384 52.9037,162.261903 52.6347,122.057099 C68.5988385,122.291544 80.5719423,122.467378 88.5540116,122.5846 C95.6150535,122.688296 106.206616,122.843841 120.3287,123.051234 C120.6417,158.224721 127.0817,174.130879 140.6897,185.701615 L141.6897,201.253862 Z" id="path-23"></path>
    </defs>
    <g id="Scene" stroke="none" stroke-width="1" fill="none" fill-rule="evenodd">
        <g id="Illustration-2" transform="translate(-253.000000, -105.000000)">
            <g id="Background-Object-/-Pluteus-/-5" transform="translate(577.000000, 445.000000)">
                <g id="Group-42" transform="translate(213.000000, 33.000000)">
                    <polygon id="Fill-1" fill="#DCEEFF" points="265.1696 205.894 417.4236 205.894 437.9836 0.5 285.7306 0.5"></polygon>
                    <polygon id="Stroke-2" stroke="#DCEEFF" stroke-width="5" points="265.1696 205.894 417.4236 205.894 437.9836 0.5 285.7306 0.5"></polygon>
                    <polygon id="Fill-4" fill="#FFFFFF" points="256.9518 205.894 412.0378 205.894 432.5978 0.5 277.5118 0.5"></polygon>
                    <polygon id="Stroke-5" stroke="#DCEEFF" stroke-width="5" points="256.9518 205.894 412.0378 205.894 432.5978 0.5 277.5118 0.5"></polygon>
                    <polygon id="Fill-7" fill="#DCEEFF" points="286.6549 178.7738 387.7639 178.7738 402.8949 27.6208 301.7859 27.6208"></polygon>
                    <path d="M167.4322,166.2729 L160.5832,166.2729 C128.6452,166.2729 102.7532,140.3809 102.7532,108.4419 L225.2622,108.4419 C225.2622,140.3809 199.3702,166.2729 167.4322,166.2729" id="Fill-8" fill="#ECF6FF"></path>
                    <path d="M104.6686,166.2729 L104.6686,166.2729 C104.6686,173.1769 110.2656,178.7739 117.1686,178.7739 L229.6376,178.7739 L229.6376,153.7729 L117.1686,153.7729 C110.2656,153.7729 104.6686,159.3699 104.6686,166.2729" id="Fill-10" fill="#DCEEFF"></path>
                    <path d="M180.3131,166.2729 L180.3131,166.2729 C180.3131,170.2699 183.5531,173.5099 187.5501,173.5099 L229.3361,173.5099 C229.5021,173.5099 229.6371,173.3759 229.6371,173.2089 L229.6371,159.3369 C229.6371,159.1709 229.5021,159.0369 229.3361,159.0369 L187.5501,159.0369 C183.5531,159.0369 180.3131,162.2759 180.3131,166.2729" id="Fill-12" fill="#ECF6FF"></path>
                    <path d="M88.9713,178.7738 L88.9713,203.7748 L211.7303,203.7748 C218.6333,203.7748 224.2303,198.1778 224.2303,191.2738 C224.2303,184.3708 218.6333,178.7738 211.7303,178.7738 L88.9713,178.7738 Z" id="Fill-14" fill="#DCEEFF"></path>
                    <path d="M88.9713,184.1069 L88.9713,198.4419 L139.4453,198.4419 C143.4033,198.4419 146.6123,195.2329 146.6123,191.2739 C146.6123,187.3159 143.4033,184.1069 139.4453,184.1069 L88.9713,184.1069 Z" id="Fill-16" fill="#ECF6FF"></path>
                    <polygon id="Fill-18" fill="#CCE3FF" points="88.971 653.705 424.932 653.705 424.932 307.934 88.971 307.934"></polygon>
                    <polygon id="Fill-20" fill="#DCEEFF" points="403.301 653.705 451.21 653.705 451.21 317.781 403.301 317.781"></polygon>
                    <polygon id="Fill-21" fill="#DCEEFF" points="47.476 323.118 451.211 323.118 451.211 233.58 47.476 233.58"></polygon>
                    <polygon id="Fill-22" fill="#CCE3FF" points="0 233.581 503.818 233.581 503.818 202.895 0 202.895"></polygon>
                    <polygon id="Fill-23" fill="#B6D4FF" points="451.211 653.705 474.586 653.705 474.586 233.581 451.211 233.581"></polygon>
                    <polygon id="Fill-24" fill="#B6D4FF" points="95.384 653.705 110.602 653.705 110.602 323.454 95.384 323.454"></polygon>
                    <polygon id="Fill-25" fill="#B6D4FF" points="469.846 233.581 518.256 233.581 518.256 202.895 469.846 202.895"></polygon>
                    <polygon id="Fill-26" fill="#DCEEFF" points="47.475 653.705 95.384 653.705 95.384 307.524 47.475 307.524"></polygon>
                    <polygon id="Fill-27" fill="#DCEEFF" points="34.073 653.705 95.385 653.705 95.385 569.047 34.073 569.047"></polygon>
                    <polygon id="Fill-28" fill="#DCEEFF" points="403.301 653.705 465.117 653.705 465.117 569.047 403.301 569.047"></polygon>
                    <path d="M195.6871,640.6518 C195.6871,640.6518 140.5351,608.3158 206.9961,514.2438 C206.9961,514.2438 241.2081,554.1938 254.3801,506.8588 C254.3801,506.8588 291.6671,565.9718 267.4591,601.6718" id="Fill-29" fill="#ECF6FF"></path>
                    <path d="M317.9547,643.934 C317.9547,643.934 367.6107,604.089 327.4057,523.884 C327.4057,523.884 269.7657,585.423 255.2007,471.372 C255.2007,471.372 213.1097,557.481 239.5537,598.808" id="Fill-30" fill="#ECF6FF"></path>
                    <polygon id="Fill-31" fill="#DCEEFF" points="182.637 653.705 332.867 653.705 332.867 622.561 182.637 622.561"></polygon>
                    <polygon id="Fill-32" fill="#DCEEFF" points="325.5143 604.9272 315.2093 575.6862 192.2573 622.5372 202.5633 651.7802"></polygon>
                    <polygon id="Fill-33" fill="#DCEEFF" points="318.027 653.1205 328.814 620.5205 208.567 577.5005 197.781 610.0995"></polygon>
                    <polygon id="Fill-34" fill="#B6D4FF" points="461.522 653.705 488.377 653.705 488.377 569.047 461.522 569.047"></polygon>
                    <polygon id="Stroke-35" stroke="#B6D4FF" stroke-width="5" points="145.033 646.806 182.984 646.806 182.984 391.67 145.033 391.67"></polygon>
                    <polygon id="Stroke-36" stroke="#B6D4FF" stroke-width="5" points="182.984 646.806 220.935 646.806 220.935 391.67 182.984 391.67"></polygon>
                    <polygon id="Stroke-37" stroke="#B6D4FF" stroke-width="5" points="220.935 646.806 258.886 646.806 258.886 391.67 220.935 391.67"></polygon>
                    <polygon id="Stroke-38" stroke="#B6D4FF" stroke-width="5" points="258.887 646.806 296.838 646.806 296.838 391.67 258.887 391.67"></polygon>
                    <polygon id="Stroke-39" stroke="#B6D4FF" stroke-width="5" points="296.838 646.806 334.789 646.806 334.789 391.67 296.838 391.67"></polygon>
                    <polygon id="Stroke-40" stroke="#B6D4FF" stroke-width="5" points="334.789 646.806 372.74 646.806 372.74 391.67 334.789 391.67"></polygon>
                </g>
            </g>
            <g id="Background-Object-/-Chair-/-2" transform="translate(189.000000, 675.000000)">
                <g id="Group-14" transform="translate(343.000000, 123.000000)">
                    <path d="M259.6459,231.9397 L259.6459,233.5997 C259.6459,247.4497 248.9009,258.6687 235.6579,258.6687 L47.7539,258.6687 C18.7699,258.6687 -3.5351,230.8597 0.4649,199.6997 L21.6789,26.0797 C23.5159,11.6997 34.8359,0.9997 48.2129,0.9997 L103.9039,0.9997 C117.2719,0.9997 128.5909,11.6997 130.4389,26.0797 L151.6529,199.6997 C151.8149,200.9397 151.9299,202.1797 151.9979,203.4097 L152.1119,203.3897 C152.1119,203.3897 156.0359,231.9397 192.5109,231.9397 L259.6459,231.9397 Z" id="Fill-1" fill="#DCEEFF"></path>
                    <path d="M59.6068,454.2415 C59.6068,463.0965 52.4268,470.2755 43.5718,470.2755 C34.7158,470.2755 27.5378,463.0965 27.5378,454.2415 C27.5378,445.3865 34.7158,438.2065 43.5718,438.2065 C52.4268,438.2065 59.6068,445.3865 59.6068,454.2415" id="Fill-4" fill="#B6D4FF"></path>
                    <path d="M205.9232,457.4563 L47.4622,457.4563 C41.3932,457.4563 36.4272,452.4903 36.4272,446.4213 C36.4272,440.3523 41.3932,435.3853 47.4622,435.3853 L205.9232,435.3853 C211.9922,435.3853 216.9582,440.3523 216.9582,446.4213 C216.9582,452.4903 211.9922,457.4563 205.9232,457.4563" id="Fill-6" fill="#CCE3FF"></path>
                    <polygon id="Fill-8" fill="#CCE3FF" points="118.562 452.208 134.824 452.208 134.824 258 118.562 258"></polygon>
                    <polygon id="Fill-10" fill="#CCE3FF" points="182.4135 258.0003 126.6925 283.3763 70.9725 258.0003"></polygon>
                    <path d="M127.9252,457.4563 L107.3632,457.4563 C101.2932,457.4563 96.3272,452.4903 96.3272,446.4213 C96.3272,440.3523 101.2932,435.3853 107.3632,435.3853 L127.9252,435.3853 C133.9942,435.3853 138.9602,440.3523 138.9602,446.4213 C138.9602,452.4903 133.9942,457.4563 127.9252,457.4563" id="Fill-11" fill="#B6D4FF"></path>
                    <path d="M114.4369,454.2415 C114.4369,463.0965 107.2579,470.2755 98.4029,470.2755 C89.5459,470.2755 82.3679,463.0965 82.3679,454.2415 C82.3679,445.3865 89.5459,438.2065 98.4029,438.2065 C107.2579,438.2065 114.4369,445.3865 114.4369,454.2415" id="Fill-12" fill="#B6D4FF"></path>
                    <path d="M226.9096,454.2415 C226.9096,463.0965 219.7306,470.2755 210.8746,470.2755 C202.0186,470.2755 194.8406,463.0965 194.8406,454.2415 C194.8406,445.3865 202.0186,438.2065 210.8746,438.2065 C219.7306,438.2065 226.9096,445.3865 226.9096,454.2415" id="Fill-13" fill="#B6D4FF"></path>
                </g>
            </g>
            <g id="Person-/-Girl-/-3" transform="translate(540.000000, 612.000000)">
                <g id="Girl-/-Head-/-3" transform="translate(-6.000000, -18.000000)">
                    <g id="Group-23" transform="translate(38.000000, 54.000000)">
                        <path d="M185.796,63.8685 C185.796,100.2995 157.606,129.8325 122.83,129.8325 C88.055,129.8325 59.864,100.2995 59.864,63.8685 C59.864,27.4375 85.002,0.0005 119.777,0.0005 C154.552,0.0005 185.796,27.4375 185.796,63.8685" id="Fill-1" fill="#19141E"></path>
                        <path d="M74.2911,29.9026 C81.3421,29.7086 83.3211,20.1856 77.0361,16.9836 C71.2501,14.0346 63.9411,11.7346 55.0101,11.4256 C37.1181,10.8066 8.8001,23.9346 3.5831,53.0316 C-2.2329,85.4686 21.3921,100.6196 0.0001,127.8246 L58.2861,148.5186 C58.2861,148.5186 69.1831,130.0646 56.7431,102.5406 C45.6011,77.8886 28.7121,31.1526 74.2911,29.9026" id="Fill-3" fill="#19141E"></path>
                        <path d="M128.9816,131.5745 C128.9816,131.5745 116.0506,131.9565 110.5396,128.9465 L128.2946,140.0935 L128.9816,131.5745 Z" id="Fill-5" fill="#CF3E83"></path>
                        <g id="Face-color" transform="translate(79.698900, 40.915501)">
                            <mask id="mask-2" fill="white">
                                <use xlink:href="#path-1"></use>
                            </mask>
                            <use id="Mask" fill="#ED4848" xlink:href="#path-1"></use>
                            <g id="Colors-/-Skin-/-Light-Red" mask="url(#mask-2)" fill="#ED4848" fill-rule="nonzero">
                                <g transform="translate(0.301100, 0.084499)" id="Color">
                                    <rect x="0" y="0" width="101" height="120"></rect>
                                </g>
                            </g>
                        </g>
                        <polygon id="Fill-9" fill="#405FD3" points="157.0909 85.8938 164.4909 103.8338 155.9059 103.6618"></polygon>
                        <path d="M149.212,86.6717 C149.028,90.2557 146.92,93.0477 144.504,92.9087 C142.089,92.7697 140.279,89.7517 140.464,86.1677 C140.649,82.5837 142.756,79.7917 145.172,79.9307 C147.588,80.0697 149.397,83.0887 149.212,86.6717" id="Fill-11" fill="#0D0B6D"></path>
                        <path d="M171.8995,86.0994 C171.7145,89.6834 169.6075,92.4754 167.1915,92.3364 C164.7755,92.1974 162.9665,89.1794 163.1505,85.5954 C163.3355,82.0114 165.4425,79.2184 167.8585,79.3574 C170.2745,79.4964 172.0835,82.5154 171.8995,86.0994" id="Fill-13" fill="#0D0B6D"></path>
                        <path d="M153.7999,112.2547 C153.7999,112.2547 148.2059,114.0607 142.5999,107.8277" id="Stroke-15" stroke="#1C295E" stroke-width="3"></path>
                        <path d="M128.9601,131.5745 C128.9601,131.5745 116.0301,131.9565 110.5181,128.9455 L128.2731,140.0925 L128.9601,131.5745 Z" id="Fill-17" fill="#000000" opacity="0.402785528"></path>
                        <path d="M98.3937,85.9163 C98.3937,85.9163 142.9677,89.6543 166.0797,36.9363 L115.0017,28.0133" id="Fill-19" fill="#19141E"></path>
                        <path d="M158.335099,29.6541 C158.335099,29.6541 158.2841,66.3721 179.1051,84.6291 L181.4641,61.2441" id="Fill-21" fill="#19141E"></path>
                    </g>
                </g>
                <g id="Girl-/-Body-/-3" transform="translate(3.000000, 161.000000)">
                    <g id="Group-24" transform="translate(24.000000, 1.000000)">
                        <path d="M82.002,168.6909 L75.092,168.5899 C75.092,168.5899 75.102,168.4809 75.111,168.2509 C77.491,168.4199 79.792,168.5599 82.002,168.6909" id="Fill-6" fill="#C83820"></path>
                        <g id="Sweater-color">
                            <mask id="mask-4" fill="white">
                                <use xlink:href="#path-3"></use>
                            </mask>
                            <use id="Mask" fill="#C83820" xlink:href="#path-3"></use>
                            <g id="Colors-/-Wear-/-Dark-Plum" mask="url(#mask-4)" fill="#0D0B6D" fill-rule="nonzero">
                                <g transform="translate(0.000000, -1.000000)" id="Color">
                                    <rect x="0" y="0" width="242" height="247"></rect>
                                </g>
                            </g>
                        </g>
                        <path d="M105.9415,169.0405 L105.9415,169.4405 C105.9415,169.4405 95.9215,169.4605 82.0515,168.6905 L105.9415,169.0405 Z" id="Fill-10" fill="#C83820"></path>
                        <path d="M161.1075,169.6391 C164.3155,128.8961 186.5205,120.2811 170.5205,74.5881" id="Stroke-12" stroke="#000000" stroke-width="3" opacity="0.201148624"></path>
                        <path d="M198.8839,220.0434 L115.4459,210.4264 C112.7129,210.1104 110.9139,207.4244 111.6629,204.7784 L144.6309,88.3004 C145.2269,86.1954 147.2609,84.8334 149.4349,85.0834 L232.8729,94.7004 C235.6049,95.0154 237.4049,97.7024 236.6549,100.3484 L203.6879,216.8254 C203.0919,218.9314 201.0569,220.2934 198.8839,220.0434" id="Fill-14" fill="#18181C"></path>
                        <path d="M124.791276,176.515343 C124.949991,176.557865 125.110599,176.601686 125.2731,176.6474 C131.0701,178.2294 136.9951,179.1864 145.2361,178.1004 C150.5371,177.4074 155.0941,176.5014 155.0431,175.6554 C154.8971,173.5184 152.3241,173.0394 152.3241,173.0394 L147.3741,173.2784 L142.6121,172.9964 C142.6121,172.9964 164.4901,168.8584 164.4901,168.2174 C164.4221,165.9604 160.8311,165.0454 160.8311,165.0454 C160.8311,165.0454 168.3541,163.8484 168.2681,162.6514 C168.0631,159.6084 164.7041,159.3774 164.7041,159.3774 C164.7041,159.3774 165.6361,158.5734 165.5421,157.8294 C165.1741,154.8284 159.8221,154.3324 157.2741,153.9654 C157.2741,153.9654 148.6051,153.8464 146.0231,153.2044 C139.232561,151.508875 135.191051,149.994412 132.655753,148.729657 L149.5977,88.8727 C150.1937,86.7677 152.2287,85.4057 154.4017,85.6557 L237.8397,95.2737 C240.5717,95.5877 242.3717,98.2747 241.6217,100.9207 L208.6547,217.3977 C208.0587,219.5037 206.0247,220.8657 203.8507,220.6157 L120.4127,210.9987 C117.6807,210.6827 115.8807,207.9967 116.6297,205.3507 L124.791276,176.515343 Z" id="Combined-Shape" fill="#FCBDA4"></path>
                        <g id="Skin-color" transform="translate(97.000000, 136.000000)">
                            <mask id="mask-6" fill="white">
                                <use xlink:href="#path-5"></use>
                            </mask>
                            <use id="Mask" fill="#E576C6" xlink:href="#path-5"></use>
                            <g id="Colors-/-Skin-/-Light-Red" mask="url(#mask-6)" fill="#ED4848" fill-rule="nonzero">
                                <g transform="translate(-3.000000, 0.000000)" id="Color">
                                    <rect x="0" y="0" width="148" height="162"></rect>
                                </g>
                            </g>
                        </g>
                        <path d="M212.5919,254.0512 C212.5919,254.0512 215.4319,264.7802 225.1789,268.1232 C228.5879,269.2922 227.7369,283.0922 236.0899,281.4422" id="Stroke-4" stroke="#000000" stroke-width="3" opacity="0.148065476"></path>
                        <path d="M158.0753,96.5068 C157.4183,98.5708 156.0163,99.9678 154.9433,99.6268 C153.8703,99.2858 153.5333,97.3348 154.1903,95.2708 C154.8473,93.2058 156.2493,91.8088 157.3223,92.1498 C158.3953,92.4918 158.7323,94.4418 158.0753,96.5068" id="Fill-20" fill="#020101"></path>
                        <polyline id="Stroke-22" stroke="#000000" stroke-width="3" opacity="0.200497582" points="74.0294 82.667 52.9694 117.539 105.3324 138.258"></polyline>
                    </g>
                </g>
                <g id="Girl-/-Legs-/-3" transform="translate(-95.000000, 278.000000)">
                    <g id="Group-15" transform="translate(195.000000, 0.000000)">
                        <g id="Shoes" transform="translate(172.000000, 219.740900)">
                            <mask id="mask-8" fill="white">
                                <use xlink:href="#path-7"></use>
                            </mask>
                            <use id="Mask" fill="#0D0B6D" xlink:href="#path-7"></use>
                            <g id="Colors-/-Wear-/-Dark-Plum" mask="url(#mask-8)" fill="#0D0B6D" fill-rule="nonzero">
                                <g transform="translate(-5.000000, 3.259100)" id="Color">
                                    <rect x="0" y="0" width="218" height="155"></rect>
                                </g>
                            </g>
                        </g>
                        <g id="Skin-color" transform="translate(174.000000, 222.000000)">
                            <mask id="mask-10" fill="white">
                                <use xlink:href="#path-9"></use>
                            </mask>
                            <use id="Mask" fill="#CF3E83" xlink:href="#path-9"></use>
                            <g id="Colors-/-Skin-/-Pink" mask="url(#mask-10)" fill="#CF3E83" fill-rule="nonzero">
                                <g transform="translate(-8.000000, -12.000000)" id="Color">
                                    <rect x="0" y="0" width="176" height="149"></rect>
                                </g>
                            </g>
                        </g>
                        <g id="Pants" transform="translate(-0.000420, 0.000000)">
                            <mask id="mask-12" fill="white">
                                <use xlink:href="#path-11"></use>
                            </mask>
                            <use id="Mask" fill="#2F2F3D" xlink:href="#path-11"></use>
                            <g id="Colors-/-Wear-/-Dark-Grey" mask="url(#mask-12)" fill="#2F2F3D" fill-rule="nonzero">
                                <g transform="translate(0.000420, 0.000000)" id="Color">
                                    <rect x="0" y="0" width="319" height="340"></rect>
                                </g>
                            </g>
                        </g>
                        <g id="Overlay" transform="translate(59.033600, 63.744800)" fill="#18181C" opacity="0.150483631">
                            <path d="M124.552,2.84217094e-14 L124.552,2.84217094e-14 L4.8316906e-13,77.715 L108.835,76.965 L106.304,270.979 L163.323,270.979 L182.871,58.795 C187.694,20.188 163.532,2.84217094e-14 124.552,2.84217094e-14" id="Fill-13"></path>
                        </g>
                    </g>
                </g>
            </g>
            <g id="Background-Object-/-Window-/-1" transform="translate(1274.000000, 203.000000)">
                <g id="Group-47" transform="translate(194.000000, 137.000000)">
                    <path d="M472.0708,338.5782 C472.0708,365.1222 441.0098,386.6412 402.6948,386.6412 C364.3798,386.6412 333.3178,365.1222 333.3178,338.5782 C333.3178,312.0342 364.3798,290.5162 402.6948,290.5162 C441.0098,290.5162 472.0708,312.0342 472.0708,338.5782" id="Fill-1" fill="#D2E9FC"></path>
                    <path d="M405.1909,287.4356 C407.1649,300.8686 400.4549,312.3266 400.4549,312.3266 C400.4549,312.3266 390.5459,302.0046 388.5729,288.5716 C386.5989,275.1376 393.3079,263.6806 393.3079,263.6806 C393.3079,263.6806 403.2169,274.0026 405.1909,287.4356" id="Fill-3" fill="#CCE3FF"></path>
                    <path d="M402.3032,296.211 C411.1292,308.295 410.8102,320.63 410.8102,320.63 C410.8102,320.63 396.1802,313.373 387.3532,301.288 C378.5272,289.204 378.8472,276.869 378.8472,276.869 C378.8472,276.869 393.4772,284.127 402.3032,296.211" id="Fill-5" fill="#CCE3FF"></path>
                    <path d="M413.3843,288.8966 C411.0393,302.3026 400.8473,312.4956 400.8473,312.4956 C400.8473,312.4956 394.4553,300.9536 396.8003,287.5476 C399.1443,274.1426 409.3373,263.9496 409.3373,263.9496 C409.3373,263.9496 415.7283,275.4916 413.3843,288.8966" id="Fill-7" fill="#CCE3FF"></path>
                    <path d="M420.7339,298.608 C413.3479,311.133 399.6129,319.163 399.6129,319.163 C399.6129,319.163 397.8519,306.884 405.2389,294.359 C412.6259,281.833 426.3609,273.804 426.3609,273.804 C426.3609,273.804 428.1209,286.083 420.7339,298.608" id="Fill-9" fill="#CCE3FF"></path>
                    <path d="M440.1274,424.2545 L365.2624,424.2545 C352.0334,424.2545 341.3114,413.5315 341.3114,400.3035 C341.3114,387.0765 352.0334,376.3535 365.2624,376.3535 L440.1274,376.3535 C453.3554,376.3535 464.0784,387.0765 464.0784,400.3035 C464.0784,413.5315 453.3554,424.2545 440.1274,424.2545" id="Fill-11" fill="#CCE3FF"></path>
                    <path d="M363.0513,304.6612 L350.2633,294.6952" id="Stroke-13" stroke="#B6D4FF" stroke-width="9"></path>
                    <path d="M344.8276,356.2281 L333.3176,364.1541" id="Stroke-15" stroke="#B6D4FF" stroke-width="9"></path>
                    <path d="M378.2778,351.9044 L398.1398,355.1454" id="Stroke-17" stroke="#B6D4FF" stroke-width="9"></path>
                    <path d="M429.0669,303.0401 L441.0599,288.2221" id="Stroke-19" stroke="#B6D4FF" stroke-width="9"></path>
                    <path d="M450.9702,319.1632 L464.0782,310.7692" id="Stroke-21" stroke="#B6D4FF" stroke-width="9"></path>
                    <path d="M453.5278,362.5289 L465.9968,370.5669" id="Stroke-23" stroke="#B6D4FF" stroke-width="9"></path>
                    <path d="M384.0435,322.483 L378.1095,308.69" id="Stroke-25" stroke="#B6D4FF" stroke-width="9"></path>
                    <path d="M440.8022,337.525 L426.5442,344.313" id="Stroke-27" stroke="#B6D4FF" stroke-width="9"></path>
                    <path d="M371.8335,329.6363 L358.2595,320.6063" id="Stroke-29" stroke="#B6D4FF" stroke-width="9"></path>
                    <path d="M546.3765,1.0001 L546.3765,442.0771" id="Stroke-31" stroke="#B6D4FF" stroke-width="20"></path>
                    <path d="M28.4751,4.6051 L28.4751,438.1431" id="Stroke-34" stroke="#ECF6FF" stroke-width="22"></path>
                    <path d="M290.2798,15.2384 L290.2798,439.6494" id="Stroke-36" stroke="#ECF6FF" stroke-width="22"></path>
                    <path d="M0.001,442.077 L537.153,442.077 L537.153,1 L0.001,1 L0.001,442.077 Z M19.001,423.077 L518.153,423.077 L518.153,20 L19.001,20 L19.001,423.077 Z" id="Fill-38" fill="#DCEEFF"></path>
                    <path d="M272.8022,2.8849 L272.8022,441.0119" id="Stroke-40" stroke="#DCEEFF" stroke-width="22"></path>
                    <path d="M0.0005,221.5387 L537.1525,221.5387" id="Stroke-41" stroke="#DCEEFF" stroke-width="22"></path>
                    <polygon id="Fill-42" fill="#CCE3FF" points="31.414 36.577 518.222 36.577 518.222 19.824 31.414 19.824"></polygon>
                    <polygon id="Fill-43" fill="#CCE3FF" points="31.414 66.214 518.222 66.214 518.222 49.461 31.414 49.461"></polygon>
                    <polygon id="Fill-44" fill="#CCE3FF" points="31.414 95.852 518.222 95.852 518.222 79.099 31.414 79.099"></polygon>
                    <polygon id="Fill-45" fill="#CCE3FF" points="31.414 125.489 518.222 125.489 518.222 108.736 31.414 108.736"></polygon>
                    <polygon id="Fill-46" fill="#CCE3FF" points="31.414 155.127 518.222 155.127 518.222 138.374 31.414 138.374"></polygon>
                </g>
            </g>
            <g id="Background-Object-/-Clock" transform="translate(774.000000, 0.000000)">
                <g id="Group-14" transform="translate(172.000000, 104.000000)">
                    <path d="M155.4015,71.763 C155.4015,110.844 123.7195,142.526 84.6375,142.526 C45.5565,142.526 13.8755,110.844 13.8755,71.763 C13.8755,32.681 45.5565,1 84.6375,1 C123.7195,1 155.4015,32.681 155.4015,71.763" id="Fill-1" fill="#CCE3FF"></path>
                    <path d="M141.5265,71.763 C141.5265,110.844 109.8435,142.526 70.7625,142.526 C31.6815,142.526 0.0005,110.844 0.0005,71.763 C0.0005,32.681 31.6815,1 70.7625,1 C109.8435,1 141.5265,32.681 141.5265,71.763" id="Fill-4" fill="#DCEEFF"></path>
                    <path d="M124.3869,71.7577 C124.3869,99.3797 103.5099,122.1177 76.6849,125.0647 C74.7379,125.2797 72.7689,125.3867 70.7689,125.3867 C41.1469,125.3867 17.1389,101.3797 17.1389,71.7577 C17.1389,42.1467 41.1469,18.1387 70.7689,18.1387 C72.7689,18.1387 74.7379,18.2467 76.6849,18.4617 C103.5099,21.4087 124.3869,44.1467 124.3869,71.7577" id="Fill-6" fill="#CCE3FF"></path>
                    <path d="M124.3869,71.7577 C124.3869,99.3797 103.5099,122.1177 76.6849,125.0647 C49.8479,122.1177 28.9709,99.3797 28.9709,71.7577 C28.9709,44.1467 49.8479,21.4087 76.6849,18.4617 C103.5099,21.4087 124.3869,44.1467 124.3869,71.7577" id="Fill-8" fill="#ECF6FF"></path>
                    <path d="M73.089,41.9427 L90.464,79.8377" id="Stroke-10" stroke="#CCE3FF" stroke-width="8"></path>
                    <path d="M92.1193,63.951 L54.0593,105.321" id="Stroke-12" stroke="#CCE3FF" stroke-width="8"></path>
                </g>
            </g>
            <g id="Person-/-Man-/-8" transform="translate(1495.500000, 969.500000) scale(-1, 1) translate(-1495.500000, -969.500000) translate(1156.000000, 455.000000)">
                <g id="Man-/-Legs-/-8" transform="translate(53.000000, 249.000000)">
                    <g id="Group-33" transform="translate(0.000000, 0.995810)">
                        <path d="M289.817838,355.881482 C276.549858,355.881482 265.79393,371.413491 265.79393,390.572723 C265.79393,409.732911 276.549858,425.264919 289.817838,425.264919 C303.085818,425.264919 313.841745,409.732911 313.841745,390.572723 C313.841745,371.413491 303.085818,355.881482 289.817838,355.881482" id="Fill-1" fill="#202128"></path>
                        <path d="M289.969752,392.383852 L289.969752,8.55629392" id="Stroke-3" stroke="#202128" stroke-width="20"></path>
                        <polygon id="Fill-5" fill="#3D3E44" points="119.546258 197.69143 309.913974 197.69143 309.913974 0.432343741 119.546258 0.432343741"></polygon>
                        <polyline id="Stroke-7" stroke="#202128" stroke-width="20" stroke-linejoin="round" points="118.26056 392.383852 118.26056 8.55629392 48.0776788 29.7283157"></polyline>
                        <path d="M206.643821,284.168674 L372.99147,496.977919" id="Stroke-8" stroke="#202128" stroke-width="7"></path>
                        <path d="M372.991374,284.168674 L206.643725,496.977919" id="Stroke-9" stroke="#202128" stroke-width="7"></path>
                        <path d="M189.950288,390.573105 L389.685387,390.573105" id="Stroke-10" stroke="#202128" stroke-width="7"></path>
                        <path d="M289.817838,235.522794 L289.817838,545.623226" id="Stroke-11" stroke="#202128" stroke-width="7"></path>
                        <path d="M289.969752,221.607704 C224.656374,221.607704 171.709288,298.065996 171.709288,392.384329 C171.709288,486.700752 224.656374,563.159044 289.969752,563.159044 C355.283129,563.159044 408.230215,486.700752 408.230215,392.384329 C408.230215,298.065996 355.283129,221.607704 289.969752,221.607704 M289.969752,248.355735 C312.447632,248.355735 334.282136,262.008694 351.450712,286.801253 C360.679818,300.12846 367.971109,315.803761 373.12293,333.392502 C378.577235,352.014863 381.342798,371.861902 381.342798,392.384329 C381.342798,412.904845 378.577235,432.751884 373.12293,451.374246 C367.971109,468.962987 360.679818,484.639243 351.450712,497.965495 C334.282136,522.758053 312.447632,536.411013 289.969752,536.411013 C267.490911,536.411013 245.657368,522.758053 228.488791,497.965495 C219.259685,484.639243 211.968394,468.962987 206.816573,451.374246 C201.362268,432.751884 198.596705,412.904845 198.596705,392.384329 C198.596705,371.861902 201.362268,352.014863 206.816573,333.392502 C211.968394,315.803761 219.259685,300.12846 228.488791,286.801253 C245.657368,262.008694 267.490911,248.355735 289.969752,248.355735" id="Fill-12" fill="#868B9B"></path>
                        <path d="M118.108166,235.522794 L118.108166,545.623226" id="Stroke-13" stroke="#202128" stroke-width="7"></path>
                        <path d="M442.481232,473.367719 L442.481232,190.208286" id="Stroke-14" stroke="#202128" stroke-width="20"></path>
                        <path d="M446.943487,462.443536 C427.683454,462.443536 412.071467,484.98926 412.071467,512.801481 C412.071467,540.612746 427.683454,563.159426 446.943487,563.159426 C466.20352,563.159426 481.815507,540.612746 481.815507,512.801481 C481.815507,484.98926 466.20352,462.443536 446.943487,462.443536 M446.943487,484.415133 C450.65395,484.415133 459.729414,494.361579 459.729414,512.801481 C459.729414,531.240427 450.65395,541.187829 446.943487,541.187829 C443.233023,541.187829 434.15756,531.240427 434.15756,512.801481 C434.15756,494.361579 443.233023,484.415133 446.943487,484.415133" id="Fill-15" fill="#202128"></path>
                        <polygon id="Fill-16" fill="#202128" points="164.643179 297.689899 442.481424 297.689899 442.481424 254.782236 164.643179 254.782236"></polygon>
                        <polygon id="Fill-17" fill="#3D3E44" points="122.391523 297.689899 273.010993 297.689899 273.010993 254.782236 122.391523 254.782236"></polygon>
                        <g id="Shoes" transform="translate(325.529801, 429.196784)">
                            <mask id="mask-14" fill="white">
                                <use xlink:href="#path-13"></use>
                            </mask>
                            <use id="Mask" fill="#0D0B6D" xlink:href="#path-13"></use>
                            <g id="Colors-/-Wear-/-Dark-Plum" mask="url(#mask-14)" fill="#0D0B6D" fill-rule="nonzero">
                                <g transform="translate(-4.801325, 6.373483)" id="Color">
                                    <rect x="0" y="0" width="251" height="67"></rect>
                                </g>
                            </g>
                        </g>
                        <g id="Skin-legs" transform="translate(333.211921, 429.451559)">
                            <mask id="mask-16" fill="white">
                                <use xlink:href="#path-15"></use>
                            </mask>
                            <use id="Mask" fill="#CF3E83" xlink:href="#path-15"></use>
                            <g id="Colors-/-Skin-/-Pink" mask="url(#mask-16)" fill="#CF3E83" fill-rule="nonzero">
                                <g transform="translate(-5.761589, 20.448010)" id="Color">
                                    <rect x="0" y="0" width="173" height="24"></rect>
                                </g>
                            </g>
                        </g>
                        <polygon id="Fill-24" fill="#202128" points="316.739536 524.5581 579.178974 524.5581 579.178974 501.043715 316.739536 501.043715"></polygon>
                        <polygon id="Fill-25" fill="#3D3E44" points="306.367715 524.559056 394.21947 524.559056 394.21947 501.044671 306.367715 501.044671"></polygon>
                        <path d="M118.26056,221.607704 C52.9471821,221.607704 9.60264897e-05,298.065996 9.60264897e-05,392.384329 C9.60264897e-05,486.700752 52.9471821,563.159044 118.26056,563.159044 C183.573937,563.159044 236.521023,486.700752 236.521023,392.384329 C236.521023,298.065996 183.573937,221.607704 118.26056,221.607704 M118.26056,248.355735 C140.73844,248.355735 162.572944,262.008694 179.74152,286.801253 C188.969666,300.12846 196.261917,315.803761 201.413738,333.392502 C206.868043,352.014863 209.633606,371.861902 209.633606,392.384329 C209.633606,412.904845 206.868043,432.751884 201.413738,451.374246 C196.261917,468.962987 188.969666,484.639243 179.74152,497.965495 C162.572944,522.758053 140.73844,536.411013 118.26056,536.411013 C95.7817185,536.411013 73.9481755,522.758053 56.7795993,497.965495 C47.5504934,484.639243 40.259202,468.962987 35.1073808,451.374246 C29.6530762,432.751884 26.8875132,412.904845 26.8875132,392.384329 C26.8875132,371.861902 29.6530762,352.014863 35.1073808,333.392502 C40.259202,315.803761 47.5504934,300.12846 56.7795993,286.801253 C73.9481755,262.008694 95.7817185,248.355735 118.26056,248.355735" id="Fill-26" fill="#BFC4D6"></path>
                        <path d="M263.08656,473.367719 L262.806162,257.871252" id="Stroke-27" stroke="#3D3E44" stroke-width="20"></path>
                        <path d="M275.234295,462.443536 C255.974262,462.443536 240.362275,484.98926 240.362275,512.801481 C240.362275,540.612746 255.974262,563.159426 275.234295,563.159426 C294.493368,563.159426 310.106315,540.612746 310.106315,512.801481 C310.106315,484.98926 294.493368,462.443536 275.234295,462.443536 M275.234295,484.415133 C278.944758,484.415133 288.020222,494.361579 288.020222,512.801481 C288.020222,531.240427 278.944758,541.187829 275.234295,541.187829 C271.523831,541.187829 262.448368,531.240427 262.448368,512.801481 C262.448368,494.361579 271.523831,484.415133 275.234295,484.415133" id="Fill-28" fill="#3D3E44"></path>
                        <path d="M117.219152,354.743354 C103.951172,354.743354 93.195245,370.276317 93.195245,389.434595 C93.195245,408.594782 103.951172,424.127746 117.219152,424.127746 C130.487132,424.127746 141.24306,408.594782 141.24306,389.434595 C141.24306,370.276317 130.487132,354.743354 117.219152,354.743354" id="Fill-29" fill="#202128"></path>
                        <path d="M45.5040728,297.69009 L188.93404,481.180627" id="Stroke-30" stroke="#202128" stroke-width="7"></path>
                        <path d="M187.879765,301.314448 L42.8644007,486.832104" id="Stroke-31" stroke="#202128" stroke-width="7"></path>
                        <path d="M21.9325464,390.573105 L209.061288,390.573105" id="Stroke-32" stroke="#202128" stroke-width="7"></path>
                        <g id="Pants" transform="translate(216.508526, 180.241620)">
                            <mask id="mask-18" fill="white">
                                <use xlink:href="#path-17"></use>
                            </mask>
                            <use id="Mask" fill="#18181C" xlink:href="#path-17"></use>
                            <g id="Colors-/-Wear-/-Blue" mask="url(#mask-18)" fill="#2437A8" fill-rule="nonzero">
                                <g transform="translate(0.491474, -24.895251)" id="Color">
                                    <rect x="0" y="0" width="327" height="309"></rect>
                                </g>
                            </g>
                        </g>
                        <g id="Overlay" transform="translate(216.508526, 181.167547)" fill="#FFFFFF" fill-opacity="0.1">
                            <path d="M-4.26325641e-13,5.68434189e-14 L149.979934,5.68434189e-14 C175.012119,5.68434189e-14 194.583278,21.2417578 192.127881,45.7477306 L168.265298,274.964027 L112.760066,274.964027 L122.154338,76.7038 L53.9832119,76.7038 C24.1689073,76.7038 -4.26325641e-13,52.9286216 -4.26325641e-13,23.6013162 L-4.26325641e-13,5.68434189e-14 Z" id="Mask"></path>
                        </g>
                    </g>
                </g>
                <g id="Man-/-Head-/-8" transform="translate(245.000000, 69.000000)">
                    <g id="Head" transform="translate(36.000000, 31.000000)">
                        <path d="M120.06645,46.2797505 C120.06645,46.2797505 145.429763,79.4265527 110.993669,88.225289 L120.06645,46.2797505 Z" id="Fill-1" fill="#19141E"></path>
                        <g id="Face-color" transform="translate(0.674556, 42.195214)">
                            <mask id="mask-20" fill="white">
                                <use xlink:href="#path-19"></use>
                            </mask>
                            <use id="Mask" fill="#5E93D1" xlink:href="#path-19"></use>
                            <g id="Colors-/-Skin-/-Rose" mask="url(#mask-20)" fill="#E576C6" fill-rule="nonzero">
                                <g transform="translate(-5.000000, 12.101489)" id="Color">
                                    <rect x="0" y="0" width="129" height="111"></rect>
                                </g>
                            </g>
                        </g>
                        <path d="M13.9415385,80.0226593 C13.9415385,80.0226593 -9.41053254,70.494033 17.7962722,42.2633077 C45.0039645,14.0325824 69.2498225,28.682011 69.2498225,28.682011 C69.2498225,28.682011 76.0876923,-0.0818901099 95.0160947,0.00089010989 C121.981479,0.117494505 126.143314,41.901033 126.143314,41.901033 C126.143314,41.901033 139.733846,19.1774176 147.461953,22.4254286 C155.190059,25.6743297 155.403077,101.148527 48.1131361,64.3674066 C48.1131361,64.3674066 57.3385799,85.1817363 32.7572189,89.4088681 C32.7572189,89.4088681 28.4702367,80.5246813 13.9415385,80.0226593" id="Fill-6" fill="#19141E"></path>
                        <polyline id="Stroke-8" stroke="#19141E" stroke-width="9" points="24.1997633 19.9641857 27.5787574 38.8167132 20.5376331 42.1955703 7.52579882 28.9017791"></polyline>
                        <polygon id="Fill-10" fill="#000000" opacity="0.400000006" points="71.965355 130.998452 48.0869527 125.863408 71.850858 141.963715"></polygon>
                        <polygon id="Fill-12" fill="#125475" points="92.1169231 87.0214154 100.367811 107.253613 90.4793491 107.380009"></polygon>
                        <path d="M82.2539349,88.986778 C82.7456509,91.7114044 80.941213,94.3194264 78.2252367,94.8116571 C75.5083728,95.304778 72.9077811,93.4960747 72.4169527,90.7714484 C71.9252367,88.046822 73.728787,85.4388 76.4456509,84.9465692 C79.1625148,84.4534484 81.7622189,86.2621516 82.2539349,88.986778" id="Fill-14" fill="#0D0B6D"></path>
                        <path d="M108.205976,88.986778 C108.697692,91.7114044 106.893254,94.3194264 104.176391,94.8116571 C101.460414,95.304778 98.8598225,93.4960747 98.3689941,90.7714484 C97.8772781,88.046822 99.6808284,85.4388 102.397692,84.9465692 C105.114556,84.4534484 107.71426,86.2621516 108.205976,88.986778" id="Fill-16" fill="#0D0B6D"></path>
                        <g id="Group-21" transform="translate(79.106509, 109.840451)">
                            <path d="M0.229881657,0.733717582 C0.229881657,0.733717582 3.40473373,6.51943187 10.266568,6.38235495" id="Fill-18" fill="#FFFFFF"></path>
                            <path d="M0.229881657,0.733717582 C0.229881657,0.733717582 3.40473373,6.51943187 10.266568,6.38235495" id="Stroke-20" stroke="#252535" stroke-width="4"></path>
                        </g>
                    </g>
                </g>
                <g id="Man-/-Body-/-8" transform="translate(186.000000, 212.000000)">
                    <g id="Group-32" transform="translate(8.000000, 20.876833)">
                        <g id="Hoody" transform="translate(0.000000, 21.870968)">
                            <mask id="mask-22" fill="white">
                                <use xlink:href="#path-21"></use>
                            </mask>
                            <use id="Mask" fill="#1E9DBC" xlink:href="#path-21"></use>
                            <g id="Colors-/-Wear-/-Dark-Cyan" mask="url(#mask-22)" fill="#1E9DBC" fill-rule="nonzero">
                                <rect id="Color" x="0" y="0" width="268" height="195"></rect>
                            </g>
                        </g>
                        <path d="M201.342224,110.394374 L184.6414,75.420044 L201.342224,110.394374 L205.7029,106.424129 L201.342224,110.394374 Z M201.342224,110.394374 L201.5204,110.767504 L201.342224,110.394374 L184.6414,125.599898 L201.342224,110.394374 Z" id="Combined-Shape" stroke="#000000" stroke-width="5" opacity="0.199009487"></path>
                        <path d="M79.0832453,106.603125 L67.844,101.022895 L79.0832453,106.603125 L98.9368,66.7646085 L79.0832453,106.603125 Z M79.0832453,106.603125 L78.0778,108.62067 L79.0832453,106.603125 L117.345,125.599898 L79.0832453,106.603125 Z" id="Combined-Shape" stroke="#000000" stroke-width="5" opacity="0.199637277"></path>
                        <path d="M151.8181,62.4312739 C151.8181,65.8670041 149.0171,68.6505818 145.5621,68.6505818 C142.1061,68.6505818 139.3051,65.8670041 139.3051,62.4312739 C139.3051,58.9965378 145.5621,50.2471566 145.5621,50.2471566 C145.5621,50.2471566 151.8181,58.9965378 151.8181,62.4312739" id="Fill-24" fill="#000000" opacity="0.203218006"></path>
                        <path d="M91.1004,186.290342 C91.1004,186.290342 117.2054,185.938418 117.3454,122.057298" id="Stroke-28" stroke="#000000" stroke-width="5" opacity="0.195963542"></path>
                        <path d="M205.7029,183.307937 C205.7029,183.307937 185.809442,182.986569 185.7029,124.653978" id="Stroke-30" stroke="#000000" stroke-width="5" opacity="0.199009487"></path>
                        <path d="M146.895647,68.6505818 C150.768333,96.4113204 161.0741,123.051234 154.4171,216.955228" id="Stroke-22" stroke="#000000" stroke-width="3" opacity="0.203497024"></path>
                        <g id="Pockets-and-hood" transform="translate(64.000000, 0.000000)">
                            <mask id="mask-24" fill="white">
                                <use xlink:href="#path-23"></use>
                            </mask>
                            <use id="Mask" fill="#EFEFEF" xlink:href="#path-23"></use>
                            <g id="Colors-/-Wear-/-White" mask="url(#mask-24)" fill="#EFEFEF" fill-rule="nonzero">
                                <g transform="translate(0.000000, -9.941349)" id="Color">
                                    <rect x="0" y="0" width="142" height="227"></rect>
                                </g>
                            </g>
                        </g>
                        <path d="M146.895647,68.6505818 C151.073021,93.8453402 161.146258,122.817413 154.489258,216.721408" id="Stroke-22" stroke="#000000" stroke-width="3" opacity="0.201474144"></path>
                    </g>
                </g>
            </g>
            <g id="Background-Object-/-Pluteus-/-1" transform="translate(500.000000, 350.000000) scale(-1, 1) translate(-500.000000, -350.000000) translate(0.000000, 175.000000)">
                <g id="Group-23" transform="translate(254.000000, 88.000000)">
                    <polygon id="Fill-1" fill="#DCEEFF" points="392.7334 0.5 382.3294 104.399 245.7284 104.399 256.1324 0.5"></polygon>
                    <polygon id="Stroke-2" stroke="#DCEEFF" stroke-width="5" points="392.7334 0.5 382.3294 104.399 245.7284 104.399 256.1324 0.5"></polygon>
                    <polygon id="Fill-4" fill="#FFFFFF" points="389.6768 0.5 379.2728 104.399 240.1308 104.399 250.5358 0.5"></polygon>
                    <polygon id="Stroke-5" stroke="#DCEEFF" stroke-width="5" points="389.6768 0.5 379.2728 104.399 240.1308 104.399 250.5358 0.5"></polygon>
                    <polygon id="Fill-7" fill="#CCE3FF" points="360.3398 20.8823 354.0178 84.0173 269.4688 84.0173 275.7908 20.8823"></polygon>
                    <polygon id="Fill-8" fill="#DCEEFF" points="105.024 107.219 123.588 107.219 123.588 34.706 105.024 34.706"></polygon>
                    <polygon id="Fill-9" fill="#CCE3FF" points="86.459 107.219 105.023 107.219 105.023 34.706 86.459 34.706"></polygon>
                    <polygon id="Fill-10" fill="#CCE3FF" points="123.588 107.219 142.151 107.219 142.151 34.706 123.588 34.706"></polygon>
                    <path d="M190.664,107.2187 L142.151,107.2187 L142.151,34.7057 L190.664,34.7057 C193.497,34.7057 195.793,37.0017 195.793,39.8347 L195.793,102.0907 C195.793,104.9227 193.497,107.2187 190.664,107.2187" id="Fill-11" fill="#B6D4FF"></path>
                    <polygon id="Fill-13" fill="#CCE3FF" points="150.101 52.45 187.844 52.45 187.844 45.27 150.101 45.27"></polygon>
                    <polygon id="Fill-15" fill="#CCE3FF" points="158.511 63.526 179.434 63.526 179.434 56.347 158.511 56.347"></polygon>
                    <polygon id="Fill-16" fill="#DCEEFF" points="0 124.995 423.178 124.995 423.178 107.219 0 107.219"></polygon>
                    <polygon id="Fill-17" fill="#CCE3FF" points="423.178 124.995 492.795 124.995 492.795 107.219 423.178 107.219"></polygon>
                    <polygon id="Fill-18" fill="#B6D4FF" points="103.1406 124.9951 136.1876 176.8411 136.1876 124.9951"></polygon>
                    <polygon id="Fill-19" fill="#CCE3FF" points="84.8525 124.9951 117.8995 176.8411 136.1875 176.8411 103.1405 124.9951"></polygon>
                    <polygon id="Fill-20" fill="#B6D4FF" points="345.5176 124.9951 378.5646 176.8411 378.5646 124.9951"></polygon>
                    <polygon id="Fill-21" fill="#CCE3FF" points="327.2295 124.9951 360.2765 176.8411 378.5645 176.8411 345.5175 124.9951"></polygon>
                </g>
            </g>
            <g id="Background-Object-/-Pluteus-/-3" transform="translate(500.000000, 561.000000) scale(-1, 1) translate(-500.000000, -561.000000) translate(0.000000, 386.000000)">
                <g id="Group-29" transform="translate(254.000000, 76.000000)">
                    <polygon id="Fill-1" fill="#DCEEFF" points="201.5303 130.663 298.0173 130.663 311.0473 0.5 214.5603 0.5"></polygon>
                    <polygon id="Stroke-2" stroke="#DCEEFF" stroke-width="5" points="201.5303 130.663 298.0173 130.663 311.0473 0.5 214.5603 0.5"></polygon>
                    <polygon id="Fill-4" fill="#FFFFFF" points="196.3223 130.663 294.6043 130.663 307.6353 0.5 209.3523 0.5"></polygon>
                    <polygon id="Stroke-5" stroke="#DCEEFF" stroke-width="5" points="196.3223 130.663 294.6043 130.663 307.6353 0.5 209.3523 0.5"></polygon>
                    <polygon id="Fill-7" fill="#DCEEFF" points="215.1465 113.4765 279.2215 113.4765 288.8105 17.6865 224.7355 17.6865"></polygon>
                    <polygon id="Fill-8" fill="#DCEEFF" points="456.3555 39.2128 447.3255 129.3938 328.7615 129.3938 337.7925 39.2128"></polygon>
                    <polygon id="Stroke-9" stroke="#DCEEFF" stroke-width="5" points="456.3555 39.2128 447.3255 129.3938 328.7615 129.3938 337.7925 39.2128"></polygon>
                    <polygon id="Fill-10" fill="#FFFFFF" points="453.7031 39.2128 444.6731 129.3938 323.9031 129.3938 332.9341 39.2128"></polygon>
                    <polygon id="Stroke-11" stroke="#DCEEFF" stroke-width="5" points="453.7031 39.2128 444.6731 129.3938 323.9031 129.3938 332.9341 39.2128"></polygon>
                    <polygon id="Fill-12" fill="#CCE3FF" points="428.2393 56.9042 422.7523 111.7022 349.3673 111.7022 354.8543 56.9042"></polygon>
                    <path d="M55.5517,95.6874 L55.5517,95.6874 C55.5517,102.5904 61.1487,108.1874 68.0527,108.1874 L180.5217,108.1874 L180.5217,83.1864 L68.0527,83.1864 C61.1487,83.1864 55.5517,88.7834 55.5517,95.6874" id="Fill-13" fill="#CCE3FF"></path>
                    <path d="M131.1973,95.6874 L131.1973,95.6874 C131.1973,99.6834 134.4363,102.9234 138.4333,102.9234 L180.2193,102.9234 C180.3863,102.9234 180.5213,102.7894 180.5213,102.6234 L180.5213,88.7504 C180.5213,88.5844 180.3863,88.4504 180.2193,88.4504 L138.4333,88.4504 C134.4363,88.4504 131.1973,91.6904 131.1973,95.6874" id="Fill-15" fill="#DCEEFF"></path>
                    <path d="M39.8545,108.1874 L39.8545,133.1884 L162.6135,133.1884 C169.5175,133.1884 175.1145,127.5914 175.1145,120.6884 C175.1145,113.7844 169.5175,108.1874 162.6135,108.1874 L39.8545,108.1874 Z" id="Fill-17" fill="#CCE3FF"></path>
                    <path d="M39.8545,113.5214 L39.8545,127.8554 L90.3285,127.8554 C94.2865,127.8554 97.4955,124.6464 97.4955,120.6884 C97.4955,116.7294 94.2865,113.5214 90.3285,113.5214 L39.8545,113.5214 Z" id="Fill-19" fill="#DCEEFF"></path>
                    <polygon id="Fill-21" fill="#DCEEFF" points="0 149.797 423.178 149.797 423.178 132.02 0 132.02"></polygon>
                    <polygon id="Fill-23" fill="#CCE3FF" points="423.178 149.797 492.795 149.797 492.795 132.02 423.178 132.02"></polygon>
                    <polygon id="Fill-24" fill="#B6D4FF" points="103.1406 149.7968 136.1876 201.6428 136.1876 149.7968"></polygon>
                    <polygon id="Fill-25" fill="#CCE3FF" points="84.8525 149.7968 117.8995 201.6428 136.1875 201.6428 103.1405 149.7968"></polygon>
                    <polygon id="Fill-26" fill="#B6D4FF" points="345.5176 149.7968 378.5646 201.6428 378.5646 149.7968"></polygon>
                    <polygon id="Fill-27" fill="#CCE3FF" points="327.2295 149.7968 360.2765 201.6428 378.5645 201.6428 345.5175 149.7968"></polygon>
                </g>
            </g>
        </g>
    </g>
</svg>