<svg id="ad1db818-b740-459f-8c8c-b7c337b4c82d" data-name="Layer 1" xmlns="http://www.w3.org/2000/svg" width="1082" height="530.8387" viewBox="0 0 1082 530.8387"><path d="M1140.86617,710.31293c7.50721,6.80881-305.26226,6.80885-297.73235-.00162C835.62666,703.50413,1148.39614,703.50409,1140.86617,710.31293Z" transform="translate(-59 -184.58065)" fill="#e6e6e6"/><path d="M1037.05067,511.58068c16.55328,23.39944,20.92584,156.57529,21.90034,199.264.02493.962.04994,1.874.06245,2.736h41.90163c.51225-.912.987-1.81151,1.43673-2.736,24.83617-49.02268,11.05631-107.80242,10.33176-110.77577,1.88639,9.34477-6.6463,36.42968-16.291,62.66506C1090.50844,582.06639,1040.19894,515.65343,1037.05067,511.58068Z" transform="translate(-59 -184.58065)" fill="#e6e6e6"/><path d="M250,251.27659c-32.80369,46.37075-41.46882,310.28582-43.4,394.88216-.04942,1.90637-.099,3.71362-.12376,5.4219H123.43966c-1.01514-1.80725-1.95594-3.58987-2.84717-5.4219C71.37456,549.01033,98.68216,432.52632,100.118,426.634c-3.73826,18.51856,13.171,72.19281,32.28388,124.18356C144.06255,390.95837,243.76106,259.34756,250,251.27659Z" transform="translate(-59 -184.58065)" fill="#e6e6e6"/><path d="M635.74088,648.84923c14.53577,16.76779-591.0615,16.76789-576.48176-.004C44.72344,632.08143,650.32071,632.08133,635.74088,648.84923Z" transform="translate(-59 -184.58065)" fill="#e6e6e6"/><path id="e84b1720-bcff-4cbb-a054-3015ec64150f" data-name="Path 40" d="M948.46705,639.45619c-2.32767.00009-2.37492,7.24922.00022,7.249l86.95417,0c1.01864.03284,1.85794-1.56323,1.87468-3.565.01911-2.04328-.83516-3.721-1.87468-3.684Z" transform="translate(-59 -184.58065)" fill="#3f3d56"/><path id="e860648b-2b37-4627-9c5b-8f6e964a3c31" data-name="Path 40" d="M975.92416,612.45619c-3.02149.00009-3.03793,7.24922.00023,7.249l32.01059,0c1.311.03284,2.39117-1.56323,2.41272-3.565.02461-2.04328-1.07488-3.721-2.41272-3.684Z" transform="translate(-59 -184.58065)" fill="#6c63ff"/><path id="a755faaa-e7b4-4234-ae1c-f54238f9c9ba" data-name="Path 40" d="M948.46705,667.45619c-2.32767.00009-2.37492,7.24922.00022,7.249l86.95417,0c1.01864.03284,1.85794-1.56323,1.87468-3.565.01911-2.04328-.83516-3.721-1.87468-3.684Z" transform="translate(-59 -184.58065)" fill="#3f3d56"/><path d="M1054,576.58065H930a5.00181,5.00181,0,0,0-5,5v124a5.00181,5.00181,0,0,0,5,5h124a5.00181,5.00181,0,0,0,5-5v-124A5.00181,5.00181,0,0,0,1054,576.58065Zm3,129a3.00883,3.00883,0,0,1-3,3H930a3.00883,3.00883,0,0,1-3-3v-124a3.00879,3.00879,0,0,1,3-3h124a3.00879,3.00879,0,0,1,3,3Z" transform="translate(-59 -184.58065)" fill="#3f3d56"/><path d="M882.752,478.153l10.05959-5.02979-8.383-22.63408-2.20928-11.41462a8.6307,8.6307,0,0,0-14.09023-4.91289h0a8.6307,8.6307,0,0,0-1.12266,11.94447l8.2009,10.25112Z" transform="translate(-59 -184.58065)" fill="#a0616a"/><path d="M879.39551,475.638l1.85526,5.80724,8.32625,26.08727a13.95,13.95,0,0,0,25.25769,2.9338l26.9923-46.2618a14.54466,14.54466,0,0,0,1.10113-2.26256,14.24352,14.24352,0,0,0-26.09487-11.35049l-16.47895,35.10736-7.54186-16.76555Z" transform="translate(-59 -184.58065)" fill="#e6e6e6"/><path d="M883.28109,644.1506l18.44258,1.6766,10.05964-72.932c33.15961,5.57858,64.4427,7.36569,91.50122.61725a17.08248,17.08248,0,0,0,12.14269-21.9392c-3.23838-9.66509-8.94382-20.0223-15.62256-30.65259l-44.42985,15.92768-1.6766,6.70639-47.39-5.99874a17.3938,17.3938,0,0,0-19.56526,16.5876Z" transform="translate(-59 -184.58065)" fill="#2f2e41"/><path d="M863.19637,658.28238h0a6.596,6.596,0,0,1,2.9516-6.46887l18.93145-9.29054,14.2732,1.80181,3.37094,12.08451a6.43113,6.43113,0,0,1-5.626,7.44135l-26.63369.05821A6.596,6.596,0,0,1,863.19637,658.28238Z" transform="translate(-59 -184.58065)" fill="#2f2e41"/><path d="M878.62231,634.82566l18.44258,1.6766,10.05964-72.932c33.15962,5.57858,64.44271,7.36568,91.50122.61725a17.08249,17.08249,0,0,0,12.1427-21.9392c-3.23839-9.66509-8.94383-20.0223-15.62257-30.6526L950.716,527.52339l-1.6766,6.70639L901.64938,528.231a17.3938,17.3938,0,0,0-19.56526,16.5876Z" transform="translate(-59 -184.58065)" fill="#2f2e41"/><path d="M858.5376,648.95745h0a6.596,6.596,0,0,1,2.9516-6.46888l18.93145-9.29053,14.27319,1.80181,3.37094,12.08451a6.43111,6.43111,0,0,1-5.626,7.44134l-26.63369.05822A6.596,6.596,0,0,1,858.5376,648.95745Z" transform="translate(-59 -184.58065)" fill="#2f2e41"/><circle cx="853.15428" cy="228.09577" r="22.63407" fill="#a0616a"/><polygon points="853.993 274.202 879.98 270.849 869.92 239.832 844.771 239.832 853.993 274.202" fill="#a0616a"/><path d="M905.92022,490.058a35.5038,35.5038,0,0,0,5.6564,10.12117,48.27589,48.27589,0,0,0,12.29322,10.72455c.81454.52789,1.65922,1.03323,2.53406,1.531l4.9927,4.25363L949.037,531.71169l48.62241-18.43986c-10.72455-23.83226-24.10381-42.67182-39.43643-57.846a27.65808,27.65808,0,0,0-29.55656-11.25249l-18.191,4.54776C904.0046,463.99333,901.59875,478.03627,905.92022,490.058Z" transform="translate(-59 -184.58065)" fill="#e6e6e6"/><path d="M866.31323,424.8387a1.74028,1.74028,0,0,0-2.17845-.21442c-.445.46952-15.00683,9.09814-14.09356,9.95409a1.74464,1.74464,0,0,0,.50639,1.4207l33.842,33.69536a1.747,1.747,0,0,0,1.25209.51c.68073.87008,11.77271-11.77018,12.33251-12.01227a1.755,1.755,0,0,0-.03594-2.469Z" transform="translate(-59 -184.58065)" fill="#3f3d56"/><path d="M853.449,434.21889l1.37716-.87806a1.31939,1.31939,0,0,0,1.88857,1.72275l8.91176-6.1268a1.32039,1.32039,0,0,0-.34672-2.3315c.35277-.11974.92307-.83637,1.30581-.38527l29.98,29.46211c1.068.51988-10.89324,10.88512-10.89971,11.29237-.89262.99512-31.64465-31.99224-32.29857-32.01494A.47838.47838,0,0,1,853.449,434.21889Z" transform="translate(-59 -184.58065)" fill="#fff"/><polygon points="829.051 264.596 819.854 273.267 797.978 251.655 809.08 244.428 829.051 264.596" fill="#6c63ff"/><path d="M857.82833,441.569c.5229-.38274-1.81229-2.08326-1.91288-2.36319a.32629.32629,0,0,0-.45028.00011c-.52291.38274,1.81228,2.08325,1.91288,2.36319a.32629.32629,0,0,0,.45028-.00011Z" transform="translate(-59 -184.58065)" fill="#e6e6e6"/><path d="M861.0509,444.3415c-.28781-.10622-1.97372-2.431-2.363-1.91316-.52316.38286,1.8122,2.08345,1.91277,2.36342C860.88794,445.08694,861.34731,444.6297,861.0509,444.3415Z" transform="translate(-59 -184.58065)" fill="#e6e6e6"/><path d="M885.68972,456.61973c-.04072,2.78741,4.33785,2.78745,4.29676-.00019C890.02722,453.83232,885.64865,453.83228,885.68972,456.61973Z" transform="translate(-59 -184.58065)" fill="#6c63ff"/><path d="M911.57662,500.17917a48.27589,48.27589,0,0,0,12.29322,10.72455c.81454.52789,1.65922,1.03323,2.53406,1.531l4.9927,4.25363c9.91-13.02481,9.35193-52.59694,9.35193-52.59694l-15.08372,1.50837Z" transform="translate(-59 -184.58065)" opacity="0.2"/><path d="M881.97551,489.79993l10.05959-5.02979-8.383-22.63408-2.20928-11.41462a8.6307,8.6307,0,0,0-14.09023-4.91289h0a8.6307,8.6307,0,0,0-1.12266,11.94447l8.2009,10.25112Z" transform="translate(-59 -184.58065)" fill="#a0616a"/><path d="M892.0351,480.57864,878.62231,487.285,888.80122,519.179a13.95274,13.95274,0,0,0,10.06046,9.33111h0a13.95273,13.95273,0,0,0,15.1961-6.39468l26.99149-46.26468a14.24252,14.24252,0,0,0-4.59237-19.36007h0a14.24252,14.24252,0,0,0-20.40242,5.74971l-16.47469,35.10429Z" transform="translate(-59 -184.58065)" fill="#e6e6e6"/><path d="M903.63489,403.86046a22.19608,22.19608,0,0,1-6.16446,3.63784,8.24473,8.24473,0,0,1-6.93881-.49816,7.91344,7.91344,0,0,1-3.23847-7.381A15.90622,15.90622,0,0,1,890.5699,391.91a33.00021,33.00021,0,0,1,53.37259-.295,18.51874,18.51874,0,0,1,3.97939,9.78664c.32355,6.288-3.97912,12.15783-3.51909,18.43734.3891,5.31117,4.20121,9.86092,8.71622,12.68486s9.73265,4.25573,14.78082,5.95158,10.15313,3.78852,13.88944,7.58325,5.79711,9.68328,3.74623,14.59793c-1.68522,4.03841-5.68979,6.60677-9.70522,8.346a47.327,47.327,0,0,1-33.94436,1.27409c-4.08586-1.41649-8.54751-4.25058-8.60962-8.57456-.02695-1.87668.81767-3.63867,1.32481-5.44573s.6021-3.96237-.66994-5.34243c-1.57763-1.71158-4.49308-1.31736-6.37859.04766s-3.11132,3.43549-4.66692,5.16712c-2.95369,3.28791-7.43133,5.38831-11.80753,4.769s-8.33158-4.34724-8.51259-8.76333c-.311-7.5861,9.19327-12.33565,10.22655-19.85748.69012-5.02369-2.58059-9.61963-5.41469-13.82457s-5.47-9.47328-3.48618-14.14" transform="translate(-59 -184.58065)" fill="#2f2e41"/><path d="M588.23276,645.68471H214.7712a6.92408,6.92408,0,0,1-6.91594-6.91594V319.41a6.92408,6.92408,0,0,1,6.91594-6.91594H588.23276a6.92409,6.92409,0,0,1,6.916,6.91594V638.76877A6.92409,6.92409,0,0,1,588.23276,645.68471ZM214.7712,315.26043a4.1541,4.1541,0,0,0-4.14956,4.14956V638.76877a4.1541,4.1541,0,0,0,4.14956,4.14956H588.23276a4.1541,4.1541,0,0,0,4.14957-4.14956V319.41a4.1541,4.1541,0,0,0-4.14957-4.14956Z" transform="translate(-59 -184.58065)" fill="#3f3d56"/><circle cx="213.79953" cy="404.31358" r="28.17189" fill="#e6e6e6"/><path d="M337.86318,570.113a4.69532,4.69532,0,0,0,0,9.39063H559.21377a4.69531,4.69531,0,0,0,0-9.39063Z" transform="translate(-59 -184.58065)" fill="#e6e6e6"/><path d="M337.86318,598.28486a4.69531,4.69531,0,0,0,0,9.39063H433.111a4.69532,4.69532,0,1,0,0-9.39063Z" transform="translate(-59 -184.58065)" fill="#e6e6e6"/><path d="M676.96268,534.29624H303.50111a6.92409,6.92409,0,0,1-6.91594-6.916V363.48592a6.92408,6.92408,0,0,1,6.91594-6.91594H676.96268a6.92408,6.92408,0,0,1,6.91594,6.91594V527.38029A6.92409,6.92409,0,0,1,676.96268,534.29624Z" transform="translate(-59 -184.58065)" fill="#6c63ff"/><path d="M379.5566,413.69648a4.69532,4.69532,0,0,0,0,9.39063H600.90719a4.69532,4.69532,0,0,0,0-9.39063Z" transform="translate(-59 -184.58065)" fill="#fff"/><path d="M379.5566,440.90275a4.69532,4.69532,0,0,0,0,9.39063H600.90719a4.69532,4.69532,0,0,0,0-9.39063Z" transform="translate(-59 -184.58065)" fill="#fff"/><path d="M379.5566,467.7791a4.69532,4.69532,0,0,0,0,9.39063h95.24783a4.69532,4.69532,0,1,0,0-9.39063Z" transform="translate(-59 -184.58065)" fill="#fff"/><circle cx="618.65027" cy="339.20471" r="28.17189" fill="#3f3d56"/><polygon points="616.302 351.661 607.36 340.165 612.56 336.12 616.794 341.564 631.096 326.466 635.879 330.997 616.302 351.661" fill="#fff"/><polygon points="572.159 49.65 526.381 60.126 507.039 23.647 546.183 8.365 572.159 49.65" fill="#2f2e41"/><path d="M669.1992,493.31907l17.15608-15.59017-36.99977-83.45934-32.33044-39.79632,52.822,22.863,5.49649,58.21449,26.26661,9.037-3.40457-72.68528A23.67842,23.67842,0,0,0,683.379,351.03825l-43.33615-17.40769-7.75888-32.5702-45.24224-.64746c-14.05881,24.46227-20.34076,45.99168-10.19522,61.32582l47.07511,45.91113Z" transform="translate(-59 -184.58065)" fill="#2f2e41"/><path d="M677.19579,482.63768s2.43837-7.28792,6.26111-5.61035,14.53,10.17537,14.53,10.17537,17.8851,2.52992,6.683,9.01123-15.58407,6.078-15.9416,5.16127-3.26353-2.95177-3.26353-2.95177l-4.226,2.70436-7.132.66926s-9.33768-15.818-6.33277-16.23732S677.3517,485.74536,677.19579,482.63768Z" transform="translate(-59 -184.58065)" fill="#2f2e41"/><path d="M688.47866,437.94617s7.43782-1.93345,8.118,2.18541-.59835,17.72856-.59835,17.72856,7.63928,16.36823-3.90473,10.51748-13.59712-9.74287-13.024-10.54271.69278-4.34553.69278-4.34553l-4.57227-2.06571-4.45258-5.61145s8.16017-16.45637,10.15128-14.16709S685.95949,439.77258,688.47866,437.94617Z" transform="translate(-59 -184.58065)" fill="#2f2e41"/><circle cx="533.49061" cy="29.66038" r="16.58164" fill="#ffb9b9"/><path d="M590.56448,268.881l40.2515-5.81076c-6.00867-10.8756-12.20363-20.78747-20.52938-19.67926-7.407-5.184-7.83409-13.51761-5.96076-22.88925l-20.14717,5.3857c1.77277,5.77694,1.08706,10.8496-3.63449,14.7661C587.14138,249.94048,591.4108,259.31475,590.56448,268.881Z" transform="translate(-59 -184.58065)" fill="#ffb9b9"/><path d="M587.52242,304.18057c14.30258,18.62212,28.97045,25.97987,44.74015-.63989l1.30011-11.87809c10.11951-12.762,7.15605-23.78965-5.18417-33.57438l-5.95207-13.99357-8.96865-1.446h0a9.13011,9.13011,0,0,1-7.54636,15.08282l-3.24269-.229a9.13011,9.13011,0,0,1-6.27381-3.14808L582.61681,238.362l-5.805,1.55177a3.27118,3.27118,0,0,0-2.41827,2.92976l-1.88222,26.65132C580.7973,278.67426,585.56429,290.408,587.52242,304.18057Z" transform="translate(-59 -184.58065)" fill="#e6e6e6"/><path d="M581.1198,292.83469,549.442,286.40253l21.03958-19.57675L562.474,252.34441l-34.00675,36.17037a4.836,4.836,0,0,0,3.09989,7.99932l46.05541,5.10045,1.88987,8.33467a7.08174,7.08174,0,0,0,10.72357,4.39892h0a7.08174,7.08174,0,0,0,1.24623-10.916Z" transform="translate(-59 -184.58065)" fill="#ffb9b9"/><path d="M630.37062,344.32437,626.166,355.2723a8.09732,8.09732,0,0,0,5.588,10.75688h0a8.09734,8.09734,0,0,0,9.96124-9.16656l-1.77944-10.83047,5.84842-43.31555-5.227-28.61373-11.92094,3.66053,3.96109,26.63551Z" transform="translate(-59 -184.58065)" fill="#ffb9b9"/><path d="M625.8727,280.81879l18.023-7.02921-10.0454-22.0111a14.24536,14.24536,0,0,0-12.09764-8.3048l-4.62159-.28013Z" transform="translate(-59 -184.58065)" fill="#e6e6e6"/><path d="M566.50369,271.838l19.216-6.50569-6.77507-23.05043a3.27117,3.27117,0,0,0-3.55238-2.32242h0a3.27117,3.27117,0,0,0-1.757.7979l-19.62986,17.41542C557.76068,264.355,561.759,264.51016,566.50369,271.838Z" transform="translate(-59 -184.58065)" fill="#e6e6e6"/><path d="M603.50654,187.32058s10.1409,1.9075,12.486,14.55507a23.21848,23.21848,0,0,1,.1986,6.458c-.23417,2.43453.10551,7.57652,5.39169,13.63115a132.54611,132.54611,0,0,1,9.625,12.3611h0l-10.59635,2.82088-4.73443-17.55619a89.81,89.81,0,0,0-10.49445-24.12052l-.09734-.15618s-3.51941,9.40374-12.95235,10.6929l2.90849-3.82932s-11.02717,6.37454-17.27469,8.32184a4.1048,4.1048,0,0,0-1.32458,7.13786q.06646.05228.13538.10463c4.59519,3.4902,13.96973,11.81815,10.26616,19.87433s.61537,9.525.61537,9.525l-7.96409-3.02978-3.64516-1.56094.36833,2.69513-17.79458.3728s-4.80856-.02921,3.73277-12.86474c0,0,2.061-4.81282.369-8.48965a19.53106,19.53106,0,0,1-1.97238-8.94938C561.2909,202.37394,566.74227,176.04747,603.50654,187.32058Z" transform="translate(-59 -184.58065)" fill="#2f2e41"/></svg>