<svg xmlns="http://www.w3.org/2000/svg" id="ff624502-9352-423b-a6a2-ce5f5205621e" width="805.947" height="735.268" data-name="Layer 1" viewBox="0 0 805.947 735.268"><rect width="357.795" height="229.148" x=".153" y="177.534" fill="#f2f2f2"/><rect width="337.333" height="186.85" x="10.384" y="206.275" fill="#fff"/><rect width="357.795" height="15.2" y="177.331" fill="#019c93"/><circle cx="11.296" cy="185.102" r="2.817" fill="#fff"/><circle cx="21.989" cy="185.102" r="2.817" fill="#fff"/><circle cx="32.683" cy="185.102" r="2.817" fill="#fff"/><rect width="86.679" height="148.076" x="41.035" y="225.662" fill="#f2f2f2"/><rect width="72.232" height="40.76" x="142.676" y="225.662" fill="#019c93"/><rect width="72.232" height="43.855" x="142.676" y="277.772" fill="#f2f2f2"/><rect width="72.232" height="40.76" x="142.676" y="332.978" fill="#f2f2f2"/><rect width="86.679" height="64.531" x="230.387" y="225.662" fill="#f2f2f2"/><rect width="86.679" height="64.531" x="230.387" y="309.207" fill="#f2f2f2"/><rect width="357.795" height="229.148" x="448.153" y="177.534" fill="#f2f2f2"/><rect width="337.333" height="186.85" x="458.384" y="206.275" fill="#fff"/><rect width="357.795" height="15.2" x="448" y="177.331" fill="#019c93"/><circle cx="459.296" cy="185.102" r="2.817" fill="#fff"/><circle cx="469.989" cy="185.102" r="2.817" fill="#fff"/><circle cx="480.683" cy="185.102" r="2.817" fill="#fff"/><rect width="86.679" height="148.076" x="678.308" y="225.662" fill="#f2f2f2"/><rect width="174.834" height="40.76" x="489.113" y="225.659" fill="#019c93"/><rect width="174.834" height="43.855" x="489.113" y="277.77" fill="#f2f2f2"/><rect width="174.834" height="40.76" x="489.113" y="332.976" fill="#f2f2f2"/><rect width="2" height="109.268" x="398.947" fill="#ccc"/><polygon fill="#ccc" points="600.947 177.268 598.947 177.268 598.947 110.268 200.947 110.268 200.947 177.268 198.947 177.268 198.947 108.268 600.947 108.268 600.947 177.268"/><path fill="#e6e6e6" d="M611.68875,387.83386l-1.50587-7.52935s-22.14933-7.52935-24.62749,7.52935Z" transform="translate(-197.02628 -82.36621)"/><polygon fill="#ffb8b8" points="372.154 720.046 357.633 720.045 350.725 664.036 372.156 664.037 372.154 720.046"/><path fill="#2f2e41" d="M572.88316,816.48776,526.0618,816.486v-.59222A18.22516,18.22516,0,0,1,544.286,797.66992h.00116l28.59689.00116Z" transform="translate(-197.02628 -82.36621)"/><polygon fill="#ffb8b8" points="422.075 720.046 436.596 720.045 443.504 664.036 422.073 664.037 422.075 720.046"/><path fill="#2f2e41" d="M615.39755,797.67108l28.5969-.00116h.00115a18.22516,18.22516,0,0,1,18.22418,18.22389v.59222l-46.82136.00173Z" transform="translate(-197.02628 -82.36621)"/><polygon fill="#2f2e41" points="435.745 337.091 452.309 335.585 462.85 385.279 461.344 430.455 444.78 490.69 422.192 477.137 434.239 415.396 435.745 337.091"/><polygon fill="#2f2e41" points="446.229 485.419 442.521 517.042 447.039 590.83 447.039 700.788 418.427 699.253 412.404 584.806 395.839 532.101 383.792 592.336 376.263 705.276 346.898 702.922 346.898 591.939 346.145 511.019 356.686 479.396 446.229 485.419"/><path fill="#2f2e41" d="M581.57136,389.33973s10.54108-15.0587,30.11739-4.51761l9.03522,12.047,28.61152,21.08217L643.312,488.72712l7.52935,88.8463-106.91674-1.50587,18.07043-88.8463V392.35147Z" transform="translate(-197.02628 -82.36621)"/><polygon points="442.521 360.58 451.155 463.818 440.262 407.867 442.521 360.58" opacity=".25"/><path fill="#ffb8b8" d="M561.00757,596.7716a11.10632,11.10632,0,0,0-2.99352-16.7651l3.21927-25.17493-14.82159-5.68767-4.0469,35.61573a11.16655,11.16655,0,0,0,18.64274,12.012Z" transform="translate(-197.02628 -82.36621)"/><rect width="24.094" height="10.541" x="542.419" y="561.009" fill="#e6e6e6" transform="translate(911.90513 1050.19259) rotate(-180)"/><path fill="#2f2e41" d="M577.80668,405.15136l-15.81163-12.79989s-11.294-.75294-12.79989,15.81163-3.33781,87.34043-3.33781,87.34043L540.16,566.2794l31.62326,1.50587,6.02347-76.6037Z" transform="translate(-197.02628 -82.36621)"/><circle cx="598.33" cy="341.707" r="30.239" fill="#ffb8b8" transform="translate(-185.52333 620.44441) rotate(-61.33681)"/><path fill="#2f2e41" d="M596.07082,368.38125a30.67347,30.67347,0,0,0,20.06795-57.65151,35.8683,35.8683,0,0,0-16.936-3.03924c-9.04372.47548-17.83367,3.818-26.88653,3.57174l-1.31214,2.10915-4.94513-1.1993-1.05965,3.92608-1.30256-.04509c-2.33327,4.336,1.42084,10.54382,6.34451,10.49128,1.94936-.0208,3.79255-.83294,5.69875-1.2414s4.151-.30665,5.46543,1.133c1.70825,1.871.96462,4.79061.60844,7.29894s.53342,5.887,3.06559,5.96885c1.2935.04183,2.52372-.88577,3.79472-.64189,1.4804.28407,2.22892,2.07169,2.01278,3.56352a14.18009,14.18009,0,0,1-1.77124,4.135c-3.67068,7.32733-.57119,17.29465,6.60746,21.24821" transform="translate(-197.02628 -82.36621)"/><path fill="#ccc" d="M787.47372,817.63379h-381a1,1,0,0,1,0-2h381a1,1,0,0,1,0,2Z" transform="translate(-197.02628 -82.36621)"/></svg>