<?xml version="1.0" encoding="UTF-8"?>
<svg width="2520px" height="1091px" viewBox="0 0 2520 1091" version="1.1" xmlns="http://www.w3.org/2000/svg" xmlns:xlink="http://www.w3.org/1999/xlink">
    <!-- Generator: Sketch 53.2 (72643) - https://sketchapp.com -->
    <title>Illustration 3</title>
    <desc>Created with Sketch.</desc>
    <defs>
        <path d="M128.641208,89.5534 L128.641208,100.209 C128.641208,108.606 121.878409,115.413 113.535935,115.413 L64.7796039,115.413 C56.4381234,115.413 49.6753247,108.606 49.6753247,100.209 L49.6753247,88 L44.7077922,88 L44.7077922,141.792329 C50.7677264,138.02902 57.2169998,136 63.9063117,136 C63.9727407,136 64.039146,136.0002 64.1055275,136.0006 L115.901556,136.0006 C115.967937,136.0002 116.034342,136 116.100771,136 C122.872197,136 129.397596,138.079023 135.522134,141.931375 L135.522134,89.5534 L128.641208,89.5534 L128.641208,89.5534 Z M128.641208,71.5534 L144.463693,71.5534 C149.401979,71.5534 153.405251,75.5828373 153.405251,80.5534 L153.405251,159.713764 C169.517223,182.619333 180.007083,219.97296 180.007083,262.164 C180.007083,331.843 151.396083,388.329 116.100771,388.329 C115.251999,388.329 114.407091,388.296333 113.566353,388.2316 L66.4407315,388.2316 C65.5999928,388.296333 64.7550845,388.329 63.9063117,388.329 C28.6119935,388.329 9.09494702e-13,331.843 9.09494702e-13,262.164 C9.09494702e-13,219.899669 10.5267013,182.489571 26.6862799,159.594525 L26.6862799,262.164 C26.6862799,266.188865 29.3111433,269.596654 32.9318395,270.747688 C35.0480536,300.783833 48.1097988,323.906 63.9056162,323.906 C81.1787201,323.906 95.1802071,296.263 95.1802071,262.164 C95.1802071,228.065 81.1787201,200.423 63.9056162,200.423 C56.6694063,200.423 50.0069798,205.275337 44.7077921,213.421891 L44.7077922,252.796 L64.0444091,252.796 C68.9826955,252.796 72.9859675,256.825437 72.9859675,261.796 C72.9859675,266.766563 68.9826955,270.796 64.0444091,270.796 L35.7662338,270.796 C30.8279474,270.796 26.8246753,266.766563 26.8246753,261.796 L26.8246753,79 C26.8246753,74.0294373 30.8279474,70 35.7662338,70 L49.6753247,70 L49.6753247,15.204 C49.6753247,6.807 56.4381234,0 64.7796039,0 L113.535935,0 C121.878409,0 128.641208,6.807 128.641208,15.204 L128.641208,71.5534 Z" id="path-1"></path>
        <path d="M63.2864225,124.414983 C62.9836006,124.422447 62.6798586,124.4262 62.3752401,124.4262 C42.3332401,124.4262 26.0862401,108.1782 26.0862401,88.1362 C26.0862401,68.0942 42.3332401,51.8462 62.3752401,51.8462 C66.6561128,51.8462 70.7638923,52.5874802 74.5772167,53.9486787 C92.4590984,21.7727795 126.794705,0 166.21564,0 C203.820064,0 236.7965,19.8110686 255.278377,49.5649887 C258.943845,48.3195218 262.872653,47.644 266.95924,47.644 C287.00124,47.644 303.24924,63.892 303.24924,83.934 C303.24924,102.995881 288.551543,118.624862 269.870921,120.107891 C262.449455,170.699186 218.869255,209.539 166.21564,209.539 C115.068219,209.539 72.4815646,172.886952 63.2864225,124.414983 L63.2864225,124.414983 Z M0.0755400901,224.623 C-1.02545991,209.875 10.0385401,197.028 24.7865401,195.927 L61.8375401,193.163 C76.5855401,192.062 89.4325401,203.126 90.5325401,217.873 L96.8345401,302.329 C97.9345401,317.077 86.8715401,329.924 72.1245401,331.025 L35.0725401,333.79 C20.3245401,334.89 7.47754009,323.826 6.37754009,309.079 L0.0755400901,224.623 Z M241.71514,217.9819 C241.79314,203.1929 253.84614,191.2689 268.63414,191.3479 L305.78814,191.5449 C320.57614,191.6249 332.50114,203.6769 332.42214,218.4649 L331.97114,303.1539 C331.89314,317.9429 319.84014,329.8679 305.05214,329.7889 L267.89814,329.5909 C253.11014,329.5119 241.18514,317.4599 241.26414,302.6709 L241.71514,217.9819 Z" id="path-3"></path>
        <path d="M73.7526,96.4496 L20.875,96.4496 C9.394,96.4496 -3.41060513e-13,87.0556 -3.41060513e-13,75.5746 L-3.41060513e-13,61.5016 C-3.41060513e-13,50.0206 9.394,40.6266 20.875,40.6266 L154.211,40.6266 C165.692,40.6266 175.086,50.0206 175.086,61.5016 L175.086,75.5746 C175.086,87.0556 165.692,96.4496 154.211,96.4496 L104.1116,96.4496 L104.1116,138.326 L73.7526,138.326 L73.7526,96.4496 Z M81.6138,10.538 C81.6138,16.358 76.8958,21.077 71.0758,21.077 C65.2558,21.077 60.5368,16.358 60.5368,10.538 C60.5368,4.718 65.2558,0 71.0758,0 C76.8958,0 81.6138,4.718 81.6138,10.538 Z" id="path-5"></path>
        <path d="M78.11,86.8289474 C71.51,91.2189474 59.51,91.7589474 49.29,91.1689474 L46.94,120.208947 C46.94,120.208947 30.35,112.968947 20.85,107.608947 C19.21,106.688947 17.79,105.818947 16.7,105.048947 C16.88,103.338947 17.29,99.3589474 17.81,94.3889474 L17.81,94.3689474 C18.75,85.4189474 20.03,73.2489474 20.87,65.2289474 C15.27,56.7389474 0.02,54.8289474 3.7658765e-13,42.8889474 C3.7658765e-13,39.3089474 2.09,33.1189474 9.81,33.1089474 C20.17,33.0889474 18.7,45.5089474 18.7,45.5089474 C30.41,50.0689474 46.59,10.1289474 53.5,1.20894744 C57.28,-3.67105256 82.11,7.79894744 82.11,7.79894744 L98.58,26.2289474 C98.9,28.4889474 97.74,73.7689474 78.11,86.8289474" id="path-7"></path>
        <path d="M218.440836,225.990359 C209.835073,211.98982 181.800895,165.583477 180.1617,152.5638 C178.1087,136.2548 179.9507,115.1948 179.9507,115.1948 L206.1747,99.5848 L212.8087,138.4038 L239.839583,223.242007 C245.146517,229.481196 251.808491,237.467261 252.7608,239.3365 C254.3738,242.5075 257.3598,258.2045 257.2178,261.3055 C257.0748,264.4065 247.7738,278.3425 247.7738,278.3425 C242.0018,276.9285 245.7718,269.7315 245.7718,269.7315 C245.7718,269.7315 240.6018,274.1035 238.4528,274.0295 C218.2128,273.3395 219.2978,263.0915 219.7758,261.8085 C220.8508,258.9265 226.2538,262.2225 226.2538,262.2225 C226.2538,262.2225 215.670888,240.752078 218.440836,225.990359 L218.440836,225.990359 Z M35.147221,216.78267 L40.5242,239.1965 C40.5242,239.1965 40.9382,244.2965 40.6712,250.2105 C40.4052,256.1255 40.0922,259.6995 42.7842,269.0405 C44.6602,275.5495 35.6992,272.3405 33.6242,268.5485 C31.4842,264.6385 32.4422,250.0785 27.5262,252.2485 C22.6112,254.4175 18.9302,268.6605 17.7182,282.4525 C17.5272,284.6195 15.6572,286.1295 14.4232,286.5735 C12.4232,287.2955 11.1052,278.4495 11.1052,278.4495 C11.1052,278.4495 9.6592,281.2705 6.9302,279.5905 C5.9652,278.9955 3.8052,272.7865 3.8052,272.7865 C3.8052,272.7865 1.8712,269.5955 1.1242,266.2465 C-0.1928,260.3315 -0.3298,249.7015 0.5912,246.7225 C2.68678692,239.946362 6.70400529,228.748178 10.6439341,222.35431 C10.486251,204.559163 10.1943138,134.612337 15.1736,121.7054 C20.8886,106.8914 31.2316,87.0304 31.2316,87.0304 L61.9086,107.5414 L45.4546,134.1864 L35.147221,216.78267 Z M147.9161,2.615 C147.9161,2.615 155.9701,8.307 161.9861,18.485 C170.2191,32.409 165.9151,44.422 153.2491,44.442 C139.6861,44.465 124.1231,39.849 117.5621,19.309 C114.2431,8.919 111.1081,0.714 111.1081,0.714 L147.9161,2.615 Z" id="path-9"></path>
        <path d="M90.5474372,0.839312677 C90.9521126,1.90663121 93.8737252,9.66694592 96.9538,19.309 C103.5148,39.849 119.0778,44.465 132.6408,44.442 C145.3068,44.422 149.6108,32.409 141.3778,18.485 C136.079041,9.52044425 129.199264,4.03599009 127.634135,2.85567369 C143.628613,3.93664063 153.588099,5.94497976 162.812,14.5966 C180.373,31.0666 193.656,78.4366 195.966,106.7566 L163.987,118.2966 L156.889,150.0466 L72.761,150.0466 C72.761,150.0466 73.668,140.5466 71.858,128.8566 C69.498,113.5666 60.983,102.1566 60.983,102.1566 L52.535,114.9966 L1.70530257e-13,84.0266 C17.2,52.6646 41.19,20.3266 57.185,10.0366 C68.9771024,2.44676509 80.0452429,0.793493938 90.5474372,0.839312677 L90.5474372,0.839312677 Z M95.5142735,0.972979409 L97.2368262,1.06194303 C96.6643057,1.02958957 96.0901309,0.99969008 95.5142741,0.972979438 L95.5142735,0.972979409 Z" id="path-11"></path>
        <path d="M331.320636,90.0096087 L336.932699,111.504944 C336.932699,111.504944 381.518791,92.1627883 405.57035,100.717366 L325.873141,151.088958 L305.776141,90.973366 L331.320636,90.0096087 Z M60.9851417,25.413432 L36.082166,50.5371456 C36.082166,50.5371456 38.3447291,64.217966 38.4550981,80.0657621 C38.6147388,103.003777 35.4761223,125.463854 35.4761223,125.463854 L0.000394174758,43.5385728 L52.3339913,1.13686838e-13 L60.9851417,25.413432 Z" id="path-13"></path>
        <path d="M286.341256,95.6518262 L311.616727,93.6651854 L316.238426,111.5282 L295.171756,120.683894 L286.341256,95.6518262 Z M31.2757961,1.13686838e-13 L34.0133398,31.839466 L15.3875971,50.5607961 L0.600131068,25.539568 L31.2757961,1.13686838e-13 Z" id="path-15"></path>
        <path d="M220.594121,104.387904 C225.688803,126.707929 231.759052,153.147015 238.982243,184.366374 C286.046709,387.720146 315.964573,499.941699 315.964573,499.941699 L311.687777,501.242476 L311.668068,501.25233 L288.963602,508.179951 L288.904476,508.189806 L270.693602,513.748655 C270.693602,513.748655 215.98223,383.434681 171.164579,262.599503 C162.453339,279.440559 152.382204,296.311177 140.744236,312.926569 C80.0413233,399.594759 25.438265,455.065001 25.438265,455.065001 L19.505935,444.126652 L19.4960806,444.116798 L6.06457573,419.353754 L5.9463233,419.135972 L0.0829737864,408.32573 C0.0829737864,408.32573 89.422572,313.674633 126.642565,132.403736 C119.734524,108.900631 115.152243,89.6747573 113.999282,77.0710194 C110.599524,39.8806311 134.654039,6.48417476 139.64035,0 L197.278553,0 L224.112197,9.85436893e-05 C224.693605,4.70063252 228.694479,46.3057782 220.594187,104.387429 L220.594121,104.387904 Z" id="path-17"></path>
        <path d="M108.368738,483.612783 L110.845122,460.7208 L125.390156,325.8612 C126.105481,319.2312 132.016845,314.4412 138.613728,315.1612 L189.521001,320.7312 C196.107949,321.4512 200.866845,327.4012 200.15152,334.0312 L186.371625,461.760832 C204.195061,465.880884 217.488109,481.94085 217.498044,501.1308 L217.498044,501.1518 L217.498044,513.3108 L105.162265,513.3108 L3.77298193e-12,513.3108 L1.31142857,501.1308 L5.68285714,460.7208 L20.2278916,325.8612 C20.9432162,319.2312 26.8545799,314.4412 33.451463,315.1612 L84.3587357,320.7312 C90.9456838,321.4512 95.7045799,327.4012 94.9892552,334.0312 L81.2093598,461.760832 C93.2027795,464.533221 103.144854,472.711964 108.368738,483.612783 Z M56.5366155,58.3918012 C48.8172607,52.6264875 43.7786472,43.4010735 43.744389,33.0386 C43.6857721,15.6076 57.8064799,1.2986 75.1242916,1.2406 L146.311019,0.9996 C163.628831,0.9416 177.844915,15.1546 177.902538,32.5846 C177.961155,50.0146 163.839454,64.3236 146.522636,64.3826 L79.3565666,64.6090415 L79.4800777,39.8266879 C79.5117309,33.4754932 74.4221633,28.3010048 68.1122101,28.2691447 C61.8022569,28.2372845 56.6613691,33.3601174 56.6297158,39.7113121 L56.5366155,58.3918012 Z M92.6882942,247.3105 C92.6882942,263.1905 79.8978916,276.0635 64.1220019,276.0635 C48.3451188,276.0635 35.5547162,263.1905 35.5547162,247.3105 C35.5547162,231.4305 48.3451188,218.5575 64.1220019,218.5575 C79.8978916,218.5575 92.6882942,231.4305 92.6882942,247.3105 Z M197.731736,247.3105 C197.731736,263.1905 184.941333,276.0635 169.165444,276.0635 C153.38856,276.0635 140.598158,263.1905 140.598158,247.3105 C140.598158,231.4305 153.38856,218.5575 169.165444,218.5575 C184.941333,218.5575 197.731736,231.4305 197.731736,247.3105 Z" id="path-19"></path>
        <path d="M253.929236,251.799746 L242.739164,261.788854 C242.227555,261.215736 241.419496,260.248435 240.412149,258.939366 C238.764812,256.798617 237.122145,254.428321 235.581599,251.873929 C231.421919,244.976727 228.717641,237.996318 228.24512,231.063732 C227.609807,221.742761 231.195621,213.455547 239.381416,207.482697 C247.574511,201.504437 256.114171,200.99006 263.422529,205.697687 C268.633083,209.054028 272.648834,214.620937 275.95263,221.787731 C277.621038,225.406945 279.001729,229.227383 280.12669,233.040781 C280.51939,234.37196 280.85356,235.61208 281.131192,236.733468 C281.303342,237.428805 281.421801,237.946981 281.488122,238.2598 L266.814278,241.3708 C266.781963,241.218378 266.701001,240.864225 266.570794,240.338303 C266.344497,239.424259 266.067504,238.396326 265.739656,237.284986 C264.805908,234.11976 263.664553,230.961574 262.33038,228.067405 C260.112179,223.25555 257.62252,219.804215 255.299696,218.307984 C253.367375,217.063293 251.549278,217.172804 248.222944,219.599932 C244.332618,222.438548 242.915296,225.714137 243.210398,230.043706 C243.493567,234.198208 245.389126,239.091116 248.426411,244.127264 C249.655325,246.164937 250.979938,248.076295 252.29988,249.791587 C252.756394,250.384837 253.17599,250.906963 253.546075,251.34998 C253.751808,251.596256 253.883716,251.748754 253.929236,251.799746 Z M68.6986403,108.235995 L68.0091,109.5992 C61.8591,121.7562 46.8831,126.6712 34.7271,120.5222 L32.6781,119.4862 C20.5221,113.3372 15.6071,98.3602 21.7561,86.2032 L56.5461,17.4242 C61.2258369,8.17053024 71.0216366,3.1128431 80.7946813,3.9367343 C85.4132311,2.04400652 90.4603371,0.9994 95.7395,0.9994 L163.4325,0.9994 C172.944886,0.9994 181.704031,4.39097585 188.560203,10.0246428 C197.600329,12.0281686 205.185559,19.0394483 207.4044,28.6193 L224.8024,103.7083 C227.8764,116.9793 219.5334,130.3533 206.2624,133.4283 L204.0254,133.9463 C191.385285,136.875119 178.651729,129.445725 174.811787,117.264982 C171.203503,118.352485 167.382957,118.9374 163.4325,118.9374 L95.7395,118.9374 C85.3175085,118.9374 75.7999275,114.866413 68.6986403,108.235995 L68.6986403,108.235995 Z M16.0359453,258.704077 L1.06205467,259.588723 C1.05197991,259.418193 1.0396332,259.150041 1.02818916,258.791811 C0.839021591,252.870341 1.37320748,245.787861 3.28966459,238.793157 C7.35953697,223.938897 16.7509104,214.322653 32.1425997,214.929228 C40.810895,215.271139 47.280032,218.887862 50.7385689,225.321582 C53.4322024,230.332396 53.9768029,236.351918 53.0285151,243.165805 C52.4377429,247.410777 51.2786279,251.820742 49.720391,256.272551 C48.9308553,258.528216 48.0868056,260.655049 47.2398108,262.598922 C46.7216956,263.788009 46.3068527,264.673479 46.0465563,265.197732 L32.6114437,258.527068 C32.6384626,258.472651 32.7108486,258.322793 32.8220735,258.085387 C33.0202967,257.662285 33.2446168,257.166858 33.4885047,256.607129 C34.1942466,254.987435 34.9029337,253.201689 35.5626188,251.317 C36.817351,247.73229 37.7335428,244.246549 38.1717004,241.098184 C39.2942982,233.031799 37.7516703,230.162136 31.5516599,229.917583 C24.3556321,229.633993 20.1807253,233.908865 17.7564863,242.756877 C16.9397517,245.737802 16.426692,248.999125 16.1748403,252.33829 C15.9997949,254.659122 15.9694429,256.713356 16.0205409,258.312864 C16.0275731,258.532991 16.0337026,258.666116 16.0359453,258.704077 Z" id="path-21"></path>
        <path d="M123.48623,13.5778193 C124.48534,5.91634114 131.037432,0 138.9713,0 C147.5953,0 154.5873,6.992 154.5873,15.617 C154.5873,24.242 147.5953,31.234 138.9713,31.234 C132.663123,31.234 127.228471,27.493833 124.763958,22.1101112 L113.873,13.7774518 L99.0533846,25.1159226 L84.2447538,13.7782053 L69.4317538,25.1162053 L54.6228153,13.7782524 L39.8109384,25.1161581 L31.6350272,18.857399 C30.143362,25.9273567 23.8695507,31.234 16.3556,31.234 C7.7306,31.234 0.7386,24.242 0.7386,15.617 C0.7386,6.992 7.7306,0 16.3556,0 C23.3866976,0 29.3319195,4.64653764 31.2891568,11.0364205 L39.8110616,17.5600419 L54.6231847,6.22194762 L69.4322462,17.5599947 L84.2452462,6.22199475 L99.0546154,17.5602774 L113.873,6.22274823 L123.48623,13.5778193 Z M133.3299,158.5838 L20.9199,158.5838 C11.9699,158.5838 4.7149,151.3288 4.7149,142.3788 L4.7149,68.1228 C4.7149,59.1728 11.9699,51.9168 20.9199,51.9168 L133.3299,51.9168 C142.2799,51.9168 149.5349,59.1728 149.5349,68.1228 L149.5349,142.3788 C149.5349,151.3288 142.2799,158.5838 133.3299,158.5838 Z M122.8524,173.282 L31.3964,173.282 C27.3384,173.282 24.0474,169.992 24.0474,165.933 C24.0474,161.874 27.3384,158.584 31.3964,158.584 L122.8524,158.584 C126.9114,158.584 130.2014,161.874 130.2014,165.933 C130.2014,169.992 126.9114,173.282 122.8524,173.282 Z" id="path-23"></path>
    </defs>
    <g id="Scene" stroke="none" stroke-width="1" fill="none" fill-rule="evenodd">
        <g id="Illustration-3" transform="translate(-170.000000, -74.000000)">
            <g id="Background-Object-/-Sofa-/-3" transform="translate(1326.000000, 175.000000)">
                <g id="Group-20" transform="translate(182.000000, 398.000000)">
                    <polygon id="Fill-1" fill="#B6D4FF" points="230.641 331.179 795.016 331.179 795.016 197.507 230.641 197.507"></polygon>
                    <path d="M388.9745,225.7942 L795.8625,225.7942 C817.0405,225.7942 834.7145,209.6232 836.5915,188.5272 L849.3165,45.5142 C851.4445,21.5952 832.5995,1.0002 808.5865,1.0002 L401.6985,1.0002 C380.5195,1.0002 362.8455,17.1712 360.9685,38.2672 L348.2455,181.2802 C346.1175,205.1992 364.9605,225.7942 388.9745,225.7942" id="Fill-2" fill="#B6D4FF"></path>
                    <path d="M54.0741,396.1243 L212.4351,396.1243 C235.8591,396.1243 254.2611,376.0683 252.2491,352.7293 L239.1391,200.6783 C237.3581,180.0153 220.0651,164.1493 199.3261,164.1493 L40.9651,164.1493 C17.5401,164.1493 -0.8619,184.2053 1.1501,207.5433 L14.2601,359.5953 C16.0421,380.2583 33.3341,396.1243 54.0741,396.1243" id="Fill-4" fill="#B6D4FF"></path>
                    <path d="M266.5546,225.7942 L718.5836,225.7942 C739.7626,225.7942 757.4366,209.6232 759.3136,188.5272 L772.0366,45.5142 C774.1646,21.5952 755.3216,1.0002 731.3076,1.0002 L279.2786,1.0002 C258.0996,1.0002 240.4256,17.1712 238.5486,38.2672 L225.8246,181.2802 C223.6976,205.1992 242.5406,225.7942 266.5546,225.7942" id="Fill-7" fill="#DCEEFF"></path>
                    <polygon id="Fill-9" fill="#CCE3FF" points="70.794 396.124 761.033 396.124 761.033 326.122 70.794 326.122"></polygon>
                    <path d="M165.0292,326.1219 L650.6622,326.1219 C674.7812,326.1219 694.3332,306.5699 694.3332,282.4519 C694.3332,258.3339 674.7812,238.7819 650.6622,238.7819 L165.0292,238.7819 C140.9112,238.7819 121.3592,258.3339 121.3592,282.4519 C121.3592,306.5699 140.9112,326.1219 165.0292,326.1219" id="Fill-11" fill="#DCEEFF"></path>
                    <polygon id="Fill-12" fill="#B6D4FF" points="892.204 452.8401 908.768 452.8401 901.768 396.1241 871.204 396.1241"></polygon>
                    <polygon id="Fill-13" fill="#B6D4FF" points="749.8456 452.8401 766.4086 452.8401 759.4086 396.1241 728.8456 396.1241"></polygon>
                    <polygon id="Fill-14" fill="#B6D4FF" points="73.4091 452.8401 56.8461 452.8401 63.8461 396.1241 94.4091 396.1241"></polygon>
                    <polygon id="Fill-15" fill="#B6D4FF" points="215.7684 452.8401 199.2044 452.8401 206.2044 396.1241 236.7684 396.1241"></polygon>
                    <path d="M54.0741,396.1243 L77.8031,396.1243 C101.2281,396.1243 119.6301,376.0683 117.6181,352.7293 L104.5091,200.6783 C102.7271,180.0153 85.4341,164.1493 64.6941,164.1493 L40.9651,164.1493 C17.5401,164.1493 -0.8619,184.2053 1.1501,207.5433 L14.2601,359.5953 C16.0421,380.2583 33.3341,396.1243 54.0741,396.1243" id="Fill-16" fill="#CCE3FF"></path>
                    <path d="M737.8876,396.1243 L916.2486,396.1243 C936.9886,396.1243 954.2816,380.2583 956.0626,359.5953 L969.1716,207.5433 C971.1846,184.2053 952.7836,164.1493 929.3586,164.1493 L750.9966,164.1493 C730.2576,164.1493 712.9646,180.0153 711.1836,200.6783 L698.0746,352.7293 C696.0616,376.0683 714.4626,396.1243 737.8876,396.1243" id="Fill-17" fill="#B6D4FF"></path>
                    <path d="M737.8876,396.1243 L761.6166,396.1243 C782.3576,396.1243 799.6506,380.2583 801.4316,359.5953 L814.5406,207.5433 C816.5526,184.2053 798.1516,164.1493 774.7266,164.1493 L750.9966,164.1493 C730.2576,164.1493 712.9646,180.0153 711.1836,200.6783 L698.0746,352.7293 C696.0616,376.0683 714.4626,396.1243 737.8876,396.1243" id="Fill-18" fill="#CCE3FF"></path>
                </g>
            </g>
            <g id="Background-Object-/-Sofa-/-2" transform="translate(800.000000, 822.000000) scale(-1, 1) translate(-800.000000, -822.000000) translate(0.000000, 197.000000)">
                <g id="Group-24" transform="translate(171.000000, 419.000000)">
                    <path d="M441.0262,347.2774 L1177.4702,347.2774 C1193.1282,347.2774 1206.5112,336.0074 1209.1772,320.5794 L1258.0582,37.6544 C1261.4572,17.9854 1246.3122,0.0004 1226.3522,0.0004 L489.9072,0.0004 C474.2512,0.0004 460.8672,11.2704 458.2012,26.6984 L409.3192,309.6234 C405.9212,329.2924 421.0652,347.2774 441.0262,347.2774" id="Fill-1" fill="#B6D4FF"></path>
                    <path d="M370.6404,347.2774 L1103.9094,347.2774 C1119.5664,347.2774 1132.9504,336.0074 1135.6164,320.5794 L1184.4974,37.6544 C1187.8954,17.9854 1172.7514,0.0004 1152.7904,0.0004 L419.5224,0.0004 C403.8654,0.0004 390.4814,11.2704 387.8154,26.6984 L338.9334,309.6234 C335.5364,329.2924 350.6794,347.2774 370.6404,347.2774" id="Fill-3" fill="#DCEEFF"></path>
                    <path d="M868.3172,347.2774 L1176.1102,347.2774 C1191.8252,347.2774 1204.5642,334.5384 1204.5642,318.8234 L1204.5642,253.2474 C1204.5642,237.5334 1191.8252,224.7944 1176.1102,224.7944 L868.3172,224.7944 C852.6022,224.7944 839.8632,237.5334 839.8632,253.2474 L839.8632,318.8234 C839.8632,334.5384 852.6022,347.2774 868.3172,347.2774" id="Fill-5" fill="#B6D4FF"></path>
                    <path d="M1139.5388,347.2774 L1139.5388,412.2574" id="Stroke-7" stroke="#CCE3FF" stroke-width="10"></path>
                    <path d="M911.1795,347.2774 L911.1795,412.2574" id="Stroke-9" stroke="#CCE3FF" stroke-width="10"></path>
                    <path d="M299.6756,347.2774 L299.6756,412.2574" id="Stroke-11" stroke="#CCE3FF" stroke-width="10"></path>
                    <path d="M71.3162,347.2774 L71.3162,412.2574" id="Stroke-13" stroke="#CCE3FF" stroke-width="10"></path>
                    <path d="M39.1639,347.2774 L942.1869,347.2774 C963.8169,347.2774 981.3509,329.7434 981.3509,308.1134 L981.3509,263.9574 C981.3509,242.3284 963.8169,224.7944 942.1869,224.7944 L39.1639,224.7944 C17.5339,224.7944 -0.0001,242.3284 -0.0001,263.9574 L-0.0001,308.1134 C-0.0001,329.7434 17.5339,347.2774 39.1639,347.2774" id="Fill-15" fill="#CCE3FF"></path>
                    <path d="M895.4119,224.794 L988.8099,224.794 C1007.1509,224.794 1022.9439,211.851 1026.5459,193.867 L1041.1289,121.063 C1045.8989,97.245 1027.6829,75.019 1003.3929,75.019 L909.9949,75.019 C891.6539,75.019 875.8609,87.962 872.2599,105.946 L857.6769,178.75 C852.9059,202.567 871.1219,224.794 895.4119,224.794" id="Fill-18" fill="#B6D4FF"></path>
                    <path d="M362.0271,224.794 L455.4251,224.794 C473.7661,224.794 489.5591,211.851 493.1611,193.867 L507.7441,121.063 C512.5141,97.245 494.2981,75.019 470.0081,75.019 L376.6101,75.019 C358.2691,75.019 342.4761,87.962 338.8751,105.946 L324.2921,178.75 C319.5211,202.567 337.7371,224.794 362.0271,224.794" id="Fill-20" fill="#B6D4FF"></path>
                    <path d="M764.4119,224.794 L857.8099,224.794 C876.1509,224.794 891.9439,211.851 895.5459,193.867 L910.1289,121.063 C914.8989,97.245 896.6829,75.019 872.3929,75.019 L778.9949,75.019 C760.6539,75.019 744.8609,87.962 741.2599,105.946 L726.6769,178.75 C721.9059,202.567 740.1219,224.794 764.4119,224.794" id="Fill-22" fill="#CCE3FF"></path>
                </g>
            </g>
            <g id="Person-/-Robot-/-3" transform="translate(538.000000, 364.000000)">
                <g id="Robot-/-Legs-/-3" transform="translate(51.000000, 389.000000)">
                    <g id="Group-13" transform="translate(117.233766, 23.000000)">
                        <g id="Legs-color">
                            <mask id="mask-2" fill="white">
                                <use xlink:href="#path-1"></use>
                            </mask>
                            <use id="Mask" fill="#6CA1FF" fill-rule="nonzero" xlink:href="#path-1"></use>
                            <g id="Colors-/-Skin-/-Light-Red" mask="url(#mask-2)" fill="#ED4848" fill-rule="nonzero">
                                <g transform="translate(0.000000, -9.000000)" id="Color">
                                    <rect x="0" y="0" width="180" height="403"></rect>
                                </g>
                            </g>
                        </g>
                        <path d="M33.0898636,270.385903 C33.9348937,270.652373 34.8338997,270.796 35.7662338,270.796 L64.0444091,270.796 C68.9826955,270.796 72.9859675,266.766563 72.9859675,261.796 C72.9859675,256.825437 68.9826955,252.796 64.0444091,252.796 L44.7077922,252.796 L44.7077922,213.236689 C50.0315838,204.946851 56.7529679,200 64.0593117,200 C81.3324156,200 95.3339026,227.642 95.3339026,261.741 C95.3339026,295.84 81.3324156,323.483 64.0593117,323.483 C48.2742281,323.483 35.2195021,300.392247 33.0898642,270.38591 L33.0898636,270.385903 Z" id="Path" fill="#19141E"></path>
                        <polygon id="Fill-10" fill="#19141E" points="49.4120455 58.15 128.377929 58.15 128.377929 30.928 49.4120455 30.928"></polygon>
                        <g id="Overlay" transform="translate(26.824675, 70.000000)" fill="#000000" opacity="0.395763579">
                            <path d="M109.29581,72.0108882 C109.028501,71.8299762 108.75712,71.6483683 108.481669,71.4660645 L108.481669,20 L101.337662,20 L101.337662,2 L117.423228,2 C122.361514,2 126.364786,6.02943725 126.364786,11 C126.507122,45.5416289 126.579044,71.5136232 126.580552,88.915983 C126.088575,88.2650666 125.591765,87.6272843 125.090248,87.0028903 C124.711137,86.4785431 124.340783,85.9619608 124.00021,85.5922852 C123.911822,85.4963439 123.826036,85.4023668 123.742628,85.3102046 C141.713281,107.639196 153.654802,147.148174 153.654802,192.164 C153.654802,261.843 125.043802,318.329 89.7484907,318.329 C88.8997178,318.329 88.0548101,318.296333 87.2140725,318.2316 L40.0884508,318.2316 C74.2079489,315.604571 101.460343,260.16733 101.460343,192.164 C101.460343,122.616146 72.9559516,66.2126726 37.7532468,66 L89.5492749,66.0006 C89.6156564,66.0002001 89.6820617,66 89.7484907,66 C96.5663573,66 103.134811,68.1076384 109.29581,72.0108882 L109.29581,72.0108882 Z M119.751768,80.7401238 C120.230509,81.2435912 120.705623,81.758732 121.177011,82.2853539 C120.756887,81.7941343 120.307687,81.2960876 119.751768,80.7401238 L119.751768,80.7401238 Z M17.8831169,182.796 L37.2197338,182.796 C42.1580201,182.796 46.1612922,186.825437 46.1612922,191.796 C46.1612922,196.766563 42.1580201,200.796 37.2197338,200.796 L8.94155844,200.796 C4.00327207,200.796 -1.20792265e-13,196.766563 -1.20792265e-13,191.796 L-1.20792265e-13,9 C-1.20792265e-13,4.02943725 4.00327207,2.84217094e-13 8.94155844,2.84217094e-13 L37.2197338,2.84217094e-13 C42.1580201,2.84217094e-13 46.1612922,4.02943725 46.1612922,9 C46.1612922,13.9705627 42.1580201,18 37.2197338,18 L17.8831169,18 L17.8831169,182.796 Z" id="Shape"></path>
                        </g>
                    </g>
                </g>
                <g id="Robot-/-Body-/-3" transform="translate(46.000000, 202.000000)">
                    <g id="Group-24" transform="translate(40.000000, 3.000000)">
                        <polyline id="Stroke-1" stroke="#19141E" stroke-width="15" points="43.0783 388.3777 22.0043 365.5247 52.5573 326.2587 89.2383 358.0817 76.0093 386.0207"></polyline>
                        <polyline id="Stroke-3" stroke="#19141E" stroke-width="15" points="271.9357 386.494 253.0447 361.807 287.0677 325.506 320.6777 360.555 304.9447 387.165"></polyline>
                        <path d="M287.4435,221.7064 L272.2985,110.6684" id="Stroke-5" stroke="#19141E" stroke-width="27" stroke-linecap="round"></path>
                        <path d="M45.5598,218.3235 L61.5258,107.4015" id="Stroke-13" stroke="#19141E" stroke-width="27" stroke-linecap="round"></path>
                        <path d="M224.007,156.4217 L180.89,156.4217 C174.465,156.4217 169.257,151.2137 169.257,144.7887 L169.257,101.6717 C169.257,95.2477 174.465,90.0397 180.89,90.0397 L224.007,90.0397 C230.431,90.0397 235.639,95.2477 235.639,101.6717 L235.639,144.7887 C235.639,151.2137 230.431,156.4217 224.007,156.4217" id="Fill-17" fill="#19141E"></path>
                        <path d="M213.007,156.4217 L180.89,156.4217 C174.465,156.4217 169.257,151.2137 169.257,144.7887 L169.257,101.6717 C169.257,95.2477 174.465,90.0397 180.89,90.0397 L213.007,90.0397 C219.431,90.0397 224.639,95.2477 224.639,101.6717 L224.639,144.7887 C224.639,151.2137 219.431,156.4217 213.007,156.4217" id="Fill-18" fill="#405FD3"></path>
                        <g id="Body-color" transform="translate(-0.000140, 18.460800)">
                            <mask id="mask-4" fill="white">
                                <use xlink:href="#path-3"></use>
                            </mask>
                            <use id="Mask" fill="#6CA1FF" xlink:href="#path-3"></use>
                            <g id="Colors-/-Skin-/-Light-Red" mask="url(#mask-4)" fill="#ED4848" fill-rule="nonzero">
                                <g transform="translate(0.000140, 7.539200)" id="Color">
                                    <rect x="0" y="0" width="332" height="326"></rect>
                                </g>
                            </g>
                        </g>
                        <polygon id="Fill-11" fill="#19141E" points="126.21 26.461 206.223 26.461 206.223 -5.68434189e-14 126.21 -5.68434189e-14"></polygon>
                        <path d="M213.007,156.4217 C219.431,156.4217 224.639,151.2137 224.639,144.7887 L224.639,101.6717 C224.639,95.2477 219.431,90.0397 213.007,90.0397 L224.007,90.0397 C230.431,90.0397 235.639,95.2477 235.639,101.6717 L235.639,144.7887 C235.639,151.2137 230.431,156.4217 224.007,156.4217 L213.007,156.4217 Z" id="Path" fill="#19141E"></path>
                        <g id="Overlay" transform="translate(16.000000, 66.500000)">
                            <path d="M-1.77458048e-12,174.9087 L6.652,259.3887 L-1.77458048e-12,174.9087 Z M16.4882,173.5 L23.1402,257.98 L16.4882,173.5 Z" id="Shape" stroke="#000000" stroke-width="9" opacity="0.401762463" stroke-linecap="round" stroke-linejoin="round"></path>
                            <path d="M197.05,89.882 L164.933,89.882 C158.508,89.882 153.3,84.674 153.3,78.249 L153.3,35.132 C153.3,28.708 158.508,23.5 164.933,23.5 L197.05,23.5 C203.474,23.5 208.682,28.708 208.682,35.132 L208.682,78.249 C208.682,84.674 203.474,89.882 197.05,89.882 Z M170.427,53.355 C175.081,53.355 178.855,49.582 178.855,44.927 C178.855,40.273 175.081,36.5 170.427,36.5 C165.773,36.5 162,40.273 162,44.927 C162,49.582 165.773,53.355 170.427,53.355 Z M194.3763,53.355 C199.0303,53.355 202.8043,49.582 202.8043,44.927 C202.8043,40.273 199.0303,36.5 194.3763,36.5 C189.7223,36.5 185.9483,40.273 185.9483,44.927 C185.9483,49.582 189.7223,53.355 194.3763,53.355 Z M170.427,77.7129 C175.081,77.7129 178.855,73.9399 178.855,69.2849 C178.855,64.6309 175.081,60.8579 170.427,60.8579 C165.773,60.8579 162,64.6309 162,69.2849 C162,73.9399 165.773,77.7129 170.427,77.7129 Z" id="Shape" fill="#000000" opacity="0.397763207"></path>
                            <path d="M9,39.79 C9,59.832 25.247,76.08 45.289,76.08 C65.331,76.08 81.579,59.832 81.579,39.79 C81.579,19.748 65.331,3.5 45.289,3.5 C25.247,3.5 9,19.748 9,39.79" id="Fill-14" fill="#000000" opacity="0.404203869"></path>
                            <path d="M226.45139,170.13439 L226.00039,254.82339 C225.92139,269.61239 237.84639,281.66439 252.63439,281.74339 L289.78839,281.94139 C304.57639,282.02039 316.62939,270.09539 316.70739,255.30639 L317.15839,170.61739 C317.23739,155.82939 305.31239,143.77739 290.52439,143.69739 L253.37039,143.50039 C238.58239,143.42139 226.52939,155.34539 226.45139,170.13439" id="Fill-16" fill="#000000" opacity="0.398763021"></path>
                            <path d="M239,1.9209887 C242.665468,0.675521796 246.594276,-2.84217094e-14 250.680863,-2.84217094e-14 C270.722863,-2.84217094e-14 286.970863,16.248 286.970863,36.29 C286.970863,55.3518808 272.273166,70.9808615 253.592544,72.4638908 C254.326941,67.4575846 254.707263,62.3362048 254.707263,57.126 C254.707263,36.8671246 248.957206,17.9510652 239,1.9209887 L239,1.9209887 Z" id="Path" fill="#000000" opacity="0.397856213"></path>
                            <path d="M170.427,77.705 C175.081,77.705 178.855,73.932 178.855,69.277 C178.855,64.623 175.081,60.85 170.427,60.85 C165.773,60.85 162,64.623 162,69.277 C162,73.932 165.773,77.705 170.427,77.705" id="Fill-19" fill="#000000" opacity="0.59812128"></path>
                        </g>
                    </g>
                </g>
                <g id="Robot-/-Head-/-3" transform="translate(159.000000, 30.000000)">
                    <g id="Group-15" transform="translate(0.000000, 37.000000)">
                        <path d="M72.728,12.4228 C72.728,12.4228 90.19,23.9718 92.111,43.9528" id="Stroke-1" stroke="#19141E" stroke-width="5" stroke-linecap="round"></path>
                        <g id="Face-color" transform="translate(0.000400, 0.000000)">
                            <mask id="mask-6" fill="white">
                                <use xlink:href="#path-5"></use>
                            </mask>
                            <use id="Mask" fill="#6CA1FF" xlink:href="#path-5"></use>
                            <g id="Colors-/-Skin-/-Light-Red" mask="url(#mask-6)" fill="#ED4848" fill-rule="nonzero">
                                <g transform="translate(20.999600, 0.000000)" id="Color">
                                    <rect x="0" y="0" width="154" height="141"></rect>
                                </g>
                            </g>
                        </g>
                        <g id="Overlay" transform="translate(73.753000, 96.326000)" fill="#000000" opacity="0.399042039">
                            <polygon id="Fill-5" points="1.93622895e-13 42 30.359 42 30.359 0 1.93622895e-13 0"></polygon>
                        </g>
                        <polygon id="Fill-7" fill="#000000" opacity="0.400367374" points="73.7534 124.7416 104.1124 114.7416 104.1124 96.1576 73.7534 96.1576"></polygon>
                        <path d="M20.8749,96.4496 L20.8749,96.4496 C9.3939,96.4496 -9.99999993e-05,87.0556 -9.99999993e-05,75.5746 L-9.99999993e-05,61.5016 C-9.99999993e-05,50.0206 9.3939,40.6266 20.8749,40.6266 C32.3559,40.6266 41.7499,50.0206 41.7499,61.5016 L41.7499,75.5746 C41.7499,87.0556 32.3559,96.4496 20.8749,96.4496" id="Fill-9" fill="#19141E"></path>
                        <path d="M53.6152,68.5385 C53.6152,77.3775 60.7812,84.5435 69.6202,84.5435 C78.4602,84.5435 85.6262,77.3775 85.6262,68.5385 C85.6262,59.6985 78.4602,52.5325 69.6202,52.5325 C60.7812,52.5325 53.6152,59.6985 53.6152,68.5385" id="Fill-10" fill="#FFFFFF"></path>
                        <path d="M64.3408,66.2895 C64.3408,70.3505 67.6328,73.6425 71.6938,73.6425 C75.7548,73.6425 79.0468,70.3505 79.0468,66.2895 C79.0468,62.2285 75.7548,58.9365 71.6938,58.9365 C67.6328,58.9365 64.3408,62.2285 64.3408,66.2895" id="Fill-11" fill="#19141E"></path>
                        <path d="M131.665,68.5385 C131.665,77.3775 138.831,84.5435 147.671,84.5435 C156.511,84.5435 163.677,77.3775 163.677,68.5385 C163.677,59.6985 156.511,52.5325 147.671,52.5325 C138.831,52.5325 131.665,59.6985 131.665,68.5385" id="Fill-12" fill="#FFFFFF"></path>
                        <path d="M142.3906,66.2895 C142.3906,70.3505 145.6826,73.6425 149.7436,73.6425 C153.8046,73.6425 157.0966,70.3505 157.0966,66.2895 C157.0966,62.2285 153.8046,58.9365 149.7436,58.9365 C145.6826,58.9365 142.3906,62.2285 142.3906,66.2895" id="Fill-13" fill="#19141E"></path>
                        <polyline id="Fill-14" fill="#19141E" points="104.9877 57.5678 119.3037 68.4308 104.9877 79.5088"></polyline>
                    </g>
                </g>
            </g>
            <g id="Person-/-Girl-/-8" transform="translate(1994.000000, 705.500000) scale(-1, 1) translate(-1994.000000, -705.500000) translate(1739.000000, 233.000000)">
                <g id="Girl-/-Head-/-8" transform="translate(95.000000, 33.000000)">
                    <g id="Group-27" transform="translate(62.000000, 1.000000)">
                        <path d="M164.0977,123.6001 C164.1597,164.7731 130.8307,198.2011 89.6587,198.2621 C48.4847,198.3231 15.0577,164.9961 14.9957,123.8221 C14.9347,82.6491 48.2627,49.2221 89.4357,49.1611 C130.6087,49.0991 164.0357,82.4271 164.0977,123.6001" id="Fill-1" fill="#19141E"></path>
                        <path d="M-2.20268248e-13,40.0854 C0.033,62.1904 17.98,80.0844 40.085,80.0504 C62.19,80.0184 80.084,62.0714 80.051,39.9654 C80.018,17.8604 62.071,-0.0326 39.966,0.0004 C17.86,0.0334 -0.033,17.9804 -2.20268248e-13,40.0854" id="Fill-3" fill="#19141E"></path>
                        <polygon id="Fill-6" fill="#19141E" points="15.0029 129.0366 15.1909 254.9456 164.2929 254.7236 164.1049 128.8146"></polygon>
                        <g id="Face-color" transform="translate(50.991600, 95.266753)">
                            <mask id="mask-8" fill="white">
                                <use xlink:href="#path-7"></use>
                            </mask>
                            <use id="Mask" fill="#E576C6" xlink:href="#path-7"></use>
                            <g id="Colors-/-Skin-/-Rose" mask="url(#mask-8)" fill="#E576C6" fill-rule="nonzero">
                                <g transform="translate(0.008400, 6.733247)" id="Color">
                                    <rect x="0" y="0" width="99" height="116"></rect>
                                </g>
                            </g>
                        </g>
                        <polygon id="Fill-11" fill="#405FD3" points="128.3926 144.5024 135.7926 162.4424 127.2076 162.2704"></polygon>
                        <path d="M120.5142,145.2802 C120.3292,148.8642 118.2222,151.6562 115.8062,151.5172 C113.3902,151.3782 111.5812,148.3602 111.7652,144.7762 C111.9502,141.1922 114.0572,138.3992 116.4732,138.5392 C118.8892,138.6782 120.6982,141.6962 120.5142,145.2802" id="Fill-13" fill="#0D0B6D"></path>
                        <path d="M143.2012,144.708 C143.0162,148.291 140.9092,151.084 138.4932,150.945 C136.0772,150.806 134.2682,147.787 134.4522,144.204 C134.6372,140.62 136.7442,137.827 139.1602,137.966 C141.5762,138.105 143.3852,141.124 143.2012,144.708" id="Fill-15" fill="#0D0B6D"></path>
                        <path d="M127.4834,102.8637 C127.4904,107.8207 128.3254,112.5847 129.8484,117.0007 C130.0504,117.5507 130.2534,118.1217 130.4874,118.6707 C131.9564,122.3697 133.9134,125.7977 136.2734,128.8557 C142.6384,137.0887 151.9604,142.6587 162.5154,143.7767 C163.0564,143.8317 163.5874,143.8757 164.1284,143.8967 L164.1054,128.8147 L164.0944,128.8147 C164.1044,128.3427 164.1044,127.8837 164.1034,127.4127 C164.0754,108.7977 157.9514,91.6937 147.7164,78.2187 C145.8144,75.7097 143.7634,73.3357 141.5854,71.0957 C136.6494,75.4207 132.7434,81.0107 130.3024,87.4067 C128.4754,92.1757 127.4754,97.3907 127.4834,102.8637" id="Fill-17" fill="#19141E"></path>
                        <path d="M69.6333,101.9912 C69.6493,112.7642 79.4123,121.8302 92.7353,124.5952 C93.7903,124.8202 94.8633,125.0002 95.9643,125.1352 C97.7313,125.3712 99.5533,125.4822 101.4033,125.4792 C118.9313,125.4532 133.1233,114.8972 133.1033,101.8972 C133.1013,100.6472 132.9703,99.4192 132.7093,98.2262 C130.3153,86.9682 117.1773,78.3732 101.3333,78.3972 C83.9723,78.4232 69.8913,88.7852 69.6423,101.6162 C69.6333,101.7412 69.6333,101.8662 69.6333,101.9912" id="Fill-19" fill="#19141E"></path>
                        <path d="M125.1011,170.8633 C125.1011,170.8633 119.5071,172.6693 113.9021,166.4363" id="Stroke-21" stroke="#1C295E" stroke-width="3"></path>
                        <path d="M100.2774,186.4331 C100.2774,186.4331 87.3474,186.8151 81.8354,183.8041 L99.5904,194.9521 L100.2774,186.4331 Z" id="Fill-23" fill="#000000" opacity="0.401343936"></path>
                        <path d="M116.4497,198.0854 C116.4497,198.0854 113.0677,197.9334 107.8667,198.2624 C100.5867,198.7214 99.2847,198.7344 99.2847,198.7344 L100.1407,188.1304 L119.8017,190.7204 L116.4497,198.0854 Z" id="Fill-25" fill="#19141E"></path>
                    </g>
                </g>
                <g id="Girl-/-Body-/-8" transform="translate(104.000000, 212.000000)">
                    <g id="Group-23" transform="translate(7.000000, 19.000000)">
                        <g id="Skin-color">
                            <mask id="mask-10" fill="white">
                                <use xlink:href="#path-9"></use>
                            </mask>
                            <use id="Mask" fill="#E576C6" xlink:href="#path-9"></use>
                            <g id="Colors-/-Skin-/-Rose" mask="url(#mask-10)" fill="#E576C6" fill-rule="nonzero">
                                <g transform="translate(-2.000000, -2.000000)" id="Color">
                                    <rect x="0" y="0" width="259" height="289"></rect>
                                </g>
                            </g>
                        </g>
                        <path d="M230.3868,234.0974 C230.3868,234.0974 233.2268,244.8264 242.9738,248.1694 C246.3828,249.3384 245.5308,263.1384 253.8858,261.4874" id="Stroke-6" stroke="#000000" stroke-width="3" opacity="0.146833147"></path>
                        <g id="T-shirt" transform="translate(20.608300, 0.000000)">
                            <mask id="mask-12" fill="white">
                                <use xlink:href="#path-11"></use>
                            </mask>
                            <use id="Mask" fill="#72A065" xlink:href="#path-11"></use>
                            <g id="Colors-/-Wear-/-Green" mask="url(#mask-12)" fill="#72A065" fill-rule="nonzero">
                                <g transform="translate(0.391700, 0.000000)" id="Color">
                                    <rect x="0" y="0" width="196" height="150"></rect>
                                </g>
                            </g>
                        </g>
                        <path d="M177.9024,150.6848 C181.1104,109.9418 202.3154,100.3268 186.3154,54.6338" id="Stroke-15" stroke="#000000" stroke-width="4" opacity="0.204148065"></path>
                        <path d="M147.9161,2.615 C147.9161,2.615 155.9701,8.307 161.9861,18.485 C170.2191,32.409 165.9151,44.422 153.2491,44.442 C139.6861,44.465 124.1231,39.849 117.5621,19.309 C114.2431,8.919 111.1081,0.714 111.1081,0.714" id="Stroke-19" stroke="#000000" stroke-width="4" opacity="0.204148065"></path>
                        <path d="M103.1612,75.634 L83.6742,105.159" id="Stroke-21" stroke="#000000" stroke-width="4" opacity="0.204148065"></path>
                    </g>
                </g>
                <g id="Girl-/-Legs-/-8" transform="translate(9.000000, 329.000000)">
                    <g id="Group-15" transform="translate(36.000000, 52.000000)">
                        <g id="Shoes-color" transform="translate(0.000000, 399.710843)">
                            <mask id="mask-14" fill="white">
                                <use xlink:href="#path-13"></use>
                            </mask>
                            <use id="Mask" fill="#0D0B6D" xlink:href="#path-13"></use>
                            <g id="Colors-/-Wear-/-Dark-Plum" mask="url(#mask-14)" fill="#0D0B6D" fill-rule="nonzero">
                                <g transform="translate(-0.985437, 19.099836)" id="Color">
                                    <rect x="0" y="0" width="407" height="132"></rect>
                                </g>
                            </g>
                        </g>
                        <g id="Skin-color" transform="translate(20.694175, 399.687685)">
                            <mask id="mask-16" fill="white">
                                <use xlink:href="#path-15"></use>
                            </mask>
                            <use id="Mask" fill="#CF3E83" xlink:href="#path-15"></use>
                            <g id="Colors-/-Skin-/-Pink" mask="url(#mask-16)" fill="#CF3E83" fill-rule="nonzero">
                                <g transform="translate(-4.927184, 5.326878)" id="Color">
                                    <rect x="0" y="0" width="336" height="115"></rect>
                                </g>
                            </g>
                        </g>
                        <g id="Pants" transform="translate(22.665049, -0.000197)">
                            <mask id="mask-18" fill="white">
                                <use xlink:href="#path-17"></use>
                            </mask>
                            <use id="Mask" fill="#101016" xlink:href="#path-17"></use>
                            <g id="Colors-/-Wear-/-Black" mask="url(#mask-18)" fill="#19141E" fill-rule="nonzero">
                                <g transform="translate(-1.970874, 0.000197)" id="Color">
                                    <rect x="0" y="0" width="316" height="513"></rect>
                                </g>
                            </g>
                        </g>
                        <g id="Overlay" transform="translate(136.336561, -0.000197)" fill="#FFFFFF" opacity="0.145182292">
                            <path d="M202.29306,499.941699 L198.016264,501.242476 L197.996555,501.25233 L175.292089,508.179951 L175.232963,508.189806 L157.022089,513.748655 C157.022089,513.748655 102.310633,383.434481 57.492963,262.599223 C39.784662,214.844951 23.6136426,168.568835 12.9709242,132.403301 C6.06301155,108.900631 1.48072999,89.6747573 0.327768829,77.0710194 C-3.07198845,39.8806311 20.9825261,6.48417476 25.9688368,-5.68434189e-14 L83.6070407,-5.68434189e-14 C86.4943708,13.5596117 93.1066523,43.8617961 106.922478,104.38733 C112.017186,126.707476 118.087478,153.146748 125.31073,184.366374 C172.375196,387.720146 202.29306,499.941699 202.29306,499.941699" id="Fill-12"></path>
                        </g>
                    </g>
                </g>
            </g>
            <g id="Background-Object-/-Pluteus-/-1" transform="translate(1518.000000, 0.000000)">
                <g id="Group-23" transform="translate(254.000000, 88.000000)">
                    <polygon id="Fill-1" fill="#DCEEFF" points="392.7334 0.5 382.3294 104.399 245.7284 104.399 256.1324 0.5"></polygon>
                    <polygon id="Stroke-2" stroke="#DCEEFF" stroke-width="5" points="392.7334 0.5 382.3294 104.399 245.7284 104.399 256.1324 0.5"></polygon>
                    <polygon id="Fill-4" fill="#FFFFFF" points="389.6768 0.5 379.2728 104.399 240.1308 104.399 250.5358 0.5"></polygon>
                    <polygon id="Stroke-5" stroke="#DCEEFF" stroke-width="5" points="389.6768 0.5 379.2728 104.399 240.1308 104.399 250.5358 0.5"></polygon>
                    <polygon id="Fill-7" fill="#CCE3FF" points="360.3398 20.8823 354.0178 84.0173 269.4688 84.0173 275.7908 20.8823"></polygon>
                    <polygon id="Fill-8" fill="#DCEEFF" points="105.024 107.219 123.588 107.219 123.588 34.706 105.024 34.706"></polygon>
                    <polygon id="Fill-9" fill="#CCE3FF" points="86.459 107.219 105.023 107.219 105.023 34.706 86.459 34.706"></polygon>
                    <polygon id="Fill-10" fill="#CCE3FF" points="123.588 107.219 142.151 107.219 142.151 34.706 123.588 34.706"></polygon>
                    <path d="M190.664,107.2187 L142.151,107.2187 L142.151,34.7057 L190.664,34.7057 C193.497,34.7057 195.793,37.0017 195.793,39.8347 L195.793,102.0907 C195.793,104.9227 193.497,107.2187 190.664,107.2187" id="Fill-11" fill="#B6D4FF"></path>
                    <polygon id="Fill-13" fill="#CCE3FF" points="150.101 52.45 187.844 52.45 187.844 45.27 150.101 45.27"></polygon>
                    <polygon id="Fill-15" fill="#CCE3FF" points="158.511 63.526 179.434 63.526 179.434 56.347 158.511 56.347"></polygon>
                    <polygon id="Fill-16" fill="#DCEEFF" points="0 124.995 423.178 124.995 423.178 107.219 0 107.219"></polygon>
                    <polygon id="Fill-17" fill="#CCE3FF" points="423.178 124.995 492.795 124.995 492.795 107.219 423.178 107.219"></polygon>
                    <polygon id="Fill-18" fill="#B6D4FF" points="103.1406 124.9951 136.1876 176.8411 136.1876 124.9951"></polygon>
                    <polygon id="Fill-19" fill="#CCE3FF" points="84.8525 124.9951 117.8995 176.8411 136.1875 176.8411 103.1405 124.9951"></polygon>
                    <polygon id="Fill-20" fill="#B6D4FF" points="345.5176 124.9951 378.5646 176.8411 378.5646 124.9951"></polygon>
                    <polygon id="Fill-21" fill="#CCE3FF" points="327.2295 124.9951 360.2765 176.8411 378.5645 176.8411 345.5175 124.9951"></polygon>
                </g>
            </g>
            <g id="Background-Object-/-Pluteus-/-3" transform="translate(1052.000000, 175.000000) scale(-1, 1) translate(-1052.000000, -175.000000) translate(552.000000, 0.000000)">
                <g id="Group-29" transform="translate(254.000000, 76.000000)">
                    <polygon id="Fill-1" fill="#DCEEFF" points="201.5303 130.663 298.0173 130.663 311.0473 0.5 214.5603 0.5"></polygon>
                    <polygon id="Stroke-2" stroke="#DCEEFF" stroke-width="5" points="201.5303 130.663 298.0173 130.663 311.0473 0.5 214.5603 0.5"></polygon>
                    <polygon id="Fill-4" fill="#FFFFFF" points="196.3223 130.663 294.6043 130.663 307.6353 0.5 209.3523 0.5"></polygon>
                    <polygon id="Stroke-5" stroke="#DCEEFF" stroke-width="5" points="196.3223 130.663 294.6043 130.663 307.6353 0.5 209.3523 0.5"></polygon>
                    <polygon id="Fill-7" fill="#DCEEFF" points="215.1465 113.4765 279.2215 113.4765 288.8105 17.6865 224.7355 17.6865"></polygon>
                    <polygon id="Fill-8" fill="#DCEEFF" points="456.3555 39.2128 447.3255 129.3938 328.7615 129.3938 337.7925 39.2128"></polygon>
                    <polygon id="Stroke-9" stroke="#DCEEFF" stroke-width="5" points="456.3555 39.2128 447.3255 129.3938 328.7615 129.3938 337.7925 39.2128"></polygon>
                    <polygon id="Fill-10" fill="#FFFFFF" points="453.7031 39.2128 444.6731 129.3938 323.9031 129.3938 332.9341 39.2128"></polygon>
                    <polygon id="Stroke-11" stroke="#DCEEFF" stroke-width="5" points="453.7031 39.2128 444.6731 129.3938 323.9031 129.3938 332.9341 39.2128"></polygon>
                    <polygon id="Fill-12" fill="#CCE3FF" points="428.2393 56.9042 422.7523 111.7022 349.3673 111.7022 354.8543 56.9042"></polygon>
                    <path d="M55.5517,95.6874 L55.5517,95.6874 C55.5517,102.5904 61.1487,108.1874 68.0527,108.1874 L180.5217,108.1874 L180.5217,83.1864 L68.0527,83.1864 C61.1487,83.1864 55.5517,88.7834 55.5517,95.6874" id="Fill-13" fill="#CCE3FF"></path>
                    <path d="M131.1973,95.6874 L131.1973,95.6874 C131.1973,99.6834 134.4363,102.9234 138.4333,102.9234 L180.2193,102.9234 C180.3863,102.9234 180.5213,102.7894 180.5213,102.6234 L180.5213,88.7504 C180.5213,88.5844 180.3863,88.4504 180.2193,88.4504 L138.4333,88.4504 C134.4363,88.4504 131.1973,91.6904 131.1973,95.6874" id="Fill-15" fill="#DCEEFF"></path>
                    <path d="M39.8545,108.1874 L39.8545,133.1884 L162.6135,133.1884 C169.5175,133.1884 175.1145,127.5914 175.1145,120.6884 C175.1145,113.7844 169.5175,108.1874 162.6135,108.1874 L39.8545,108.1874 Z" id="Fill-17" fill="#CCE3FF"></path>
                    <path d="M39.8545,113.5214 L39.8545,127.8554 L90.3285,127.8554 C94.2865,127.8554 97.4955,124.6464 97.4955,120.6884 C97.4955,116.7294 94.2865,113.5214 90.3285,113.5214 L39.8545,113.5214 Z" id="Fill-19" fill="#DCEEFF"></path>
                    <polygon id="Fill-21" fill="#DCEEFF" points="0 149.797 423.178 149.797 423.178 132.02 0 132.02"></polygon>
                    <polygon id="Fill-23" fill="#CCE3FF" points="423.178 149.797 492.795 149.797 492.795 132.02 423.178 132.02"></polygon>
                    <polygon id="Fill-24" fill="#B6D4FF" points="103.1406 149.7968 136.1876 201.6428 136.1876 149.7968"></polygon>
                    <polygon id="Fill-25" fill="#CCE3FF" points="84.8525 149.7968 117.8995 201.6428 136.1875 201.6428 103.1405 149.7968"></polygon>
                    <polygon id="Fill-26" fill="#B6D4FF" points="345.5176 149.7968 378.5646 201.6428 378.5646 149.7968"></polygon>
                    <polygon id="Fill-27" fill="#CCE3FF" points="327.2295 149.7968 360.2765 201.6428 378.5645 201.6428 345.5175 149.7968"></polygon>
                </g>
            </g>
            <g id="Background-Object-/-Flower-/-3" transform="translate(2131.000000, 454.000000)">
                <g id="Group-16" transform="translate(387.000000, 135.000000)">
                    <path d="M163.0419,56.1488 C163.0419,56.1488 86.3679,225.3798 77.2129,409.3798 C77.2129,409.3798 120.1269,222.9188 163.0419,56.1488" id="Fill-1" fill="#DCEEFF"></path>
                    <path d="M25.8553,186.2006 C25.8553,186.2006 81.0423,187.6366 89.4443,371.6366 C89.4443,371.6366 65.8933,232.7646 25.8553,186.2006" id="Fill-3" fill="#DCEEFF"></path>
                    <path d="M82.2098,0.9994 C82.2098,0.9994 114.4258,195.6734 82.7158,393.7654 C82.7158,393.7654 84.5998,186.8714 82.2098,0.9994" id="Fill-5" fill="#DCEEFF"></path>
                    <path d="M125.6669,445.8588 L45.9899,445.8588 C45.3919,445.8588 44.7959,445.8478 44.2019,445.8258 C7.8709,444.4678 -12.3421,398.5138 8.2339,365.3598 L26.4869,335.9518 L145.1699,335.9518 L163.4219,365.3598 C183.9989,398.5138 163.7859,444.4678 127.4549,445.8258 C126.8609,445.8478 126.2659,445.8588 125.6669,445.8588" id="Fill-8" fill="#ECF6FF"></path>
                    <path d="M-0.0001,403.5893 L171.6569,403.5893" id="Stroke-11" stroke="#B6D4FF" stroke-width="9"></path>
                    <path d="M3.9842,375.1669 L168.2252,375.1669" id="Stroke-14" stroke="#B6D4FF" stroke-width="9"></path>
                </g>
            </g>
            <g id="Background-Object-/-Pluteus-/-2" transform="translate(552.000000, 304.000000) scale(-1, 1) translate(-552.000000, -304.000000) translate(52.000000, 129.000000)">
                <g id="Group-21" transform="translate(254.000000, 101.000000)">
                    <path d="M460.5146,36.4915 C457.0356,65.6915 432.1816,88.3455 402.0406,88.3455 C371.8996,88.3455 347.0456,65.6915 343.5666,36.4915 L460.5146,36.4915 Z" id="Fill-1" fill="#ECF6FF"></path>
                    <g id="Group-5" transform="translate(117.000000, 0.924000)" fill="#ECF6FF">
                        <path d="M117.125,0.0758 C113.646,29.2758 88.792,51.9298 58.65,51.9298 C28.51,51.9298 3.656,29.2758 0.177,0.0758 L117.125,0.0758 Z" id="Fill-3"></path>
                    </g>
                    <path d="M234.125,36.4915 C230.646,65.6915 205.792,88.3455 175.65,88.3455 C145.51,88.3455 120.656,65.6915 117.177,36.4915 L234.125,36.4915 Z" id="Fill-6" fill="#ECF6FF"></path>
                    <polygon id="Fill-8" fill="#DCEEFF" points="270.8193 44.7151 318.5643 44.7151 305.7083 87.0051 283.6753 87.0051"></polygon>
                    <polygon id="Fill-10" fill="#DCEEFF" points="39.4346 44.7151 87.1796 44.7151 74.3236 87.0051 52.2906 87.0051"></polygon>
                    <polygon id="Fill-12" fill="#DCEEFF" points="270.8193 17.0994 318.5643 17.0994 305.7083 59.3904 283.6753 59.3904"></polygon>
                    <polygon id="Fill-14" fill="#DCEEFF" points="0 97.078 423.178 97.078 423.178 79.302 0 79.302"></polygon>
                    <polygon id="Fill-16" fill="#CCE3FF" points="423.178 97.078 492.795 97.078 492.795 79.302 423.178 79.302"></polygon>
                    <polygon id="Fill-17" fill="#B6D4FF" points="103.1406 97.0784 136.1876 148.9244 136.1876 97.0784"></polygon>
                    <polygon id="Fill-18" fill="#CCE3FF" points="84.8525 97.0784 117.8995 148.9244 136.1875 148.9244 103.1405 97.0784"></polygon>
                    <polygon id="Fill-19" fill="#B6D4FF" points="345.5176 97.0784 378.5646 148.9244 378.5646 97.0784"></polygon>
                    <polygon id="Fill-20" fill="#CCE3FF" points="327.2295 97.0784 360.2765 148.9244 378.5645 148.9244 345.5175 97.0784"></polygon>
                </g>
            </g>
            <g id="Person-/-Robot-/-4" transform="translate(924.000000, 300.000000)">
                <g id="Robot-/-Legs-/-4" transform="translate(51.000000, 337.000000)">
                    <g id="Group-35" transform="translate(91.402597, 14.000000)">
                        <path d="M168.066526,257.4883 L155.051591,378.1243" id="Stroke-1" stroke="#19141E" stroke-width="23" stroke-linecap="round"></path>
                        <path d="M66.2709565,257.4883 L53.2560214,378.1243" id="Stroke-2" stroke="#19141E" stroke-width="23" stroke-linecap="round"></path>
                        <path d="M149.573197,41.2251 L167.583483,241.0781" id="Stroke-3" stroke="#19141E" stroke-width="23" stroke-linecap="round"></path>
                        <path d="M56.6295171,39.7113121 C56.6611704,33.3601174 61.8020582,28.2372845 68.1120114,28.2691447 C74.4219646,28.3010048 79.5115322,33.4754932 79.479879,39.8266879 L78.4863725,239.172688 C78.4547192,245.523883 73.3138314,250.646715 67.0038782,250.614855 C60.6939251,250.582995 55.6043574,245.408507 55.6360106,239.057312 L56.6295171,39.7113121 Z" id="Stroke-8" fill="#19141E" fill-rule="nonzero"></path>
                        <g id="Legs-color" transform="translate(-0.000199, 0.000000)">
                            <mask id="mask-20" fill="white">
                                <use xlink:href="#path-19"></use>
                            </mask>
                            <use id="Mask" fill="#6CA1FF" xlink:href="#path-19"></use>
                            <g id="Colors-/-Skin-/-Yellow" mask="url(#mask-20)" fill="#F6B852" fill-rule="nonzero">
                                <g transform="translate(0.000199, 0.000000)" id="Color">
                                    <rect x="0" y="0" width="218" height="514"></rect>
                                </g>
                            </g>
                        </g>
                        <path d="M112.259249,501.041221 C112.255999,494.76422 110.831545,488.822106 108.292208,483.523204 L110.768592,460.631221 L125.313626,325.771621 C126.028951,319.141621 131.940314,314.351621 138.537197,315.071621 L189.44447,320.641621 C196.031418,321.361621 200.790314,327.311621 200.07499,333.941621 L186.295094,461.671253 C204.118531,465.791305 217.411579,481.851271 217.421514,501.041221 L217.421514,513.221221 L-1.49213975e-13,513.221221 L1.31142857,501.041221 L112.259249,501.041221 Z" id="Path" fill="#000000" opacity="0.39718192"></path>
                        <path d="M197.714747,247.253 C197.714747,263.133 184.924344,276.006 169.148455,276.006 C153.371571,276.006 140.581169,263.133 140.581169,247.253 C140.581169,231.373 153.371571,218.5 169.148455,218.5 C184.924344,218.5 197.714747,231.373 197.714747,247.253" id="Fill-23" fill="#000000" opacity="0.401204427"></path>
                        <path d="M45.2507435,342.306 C45.2507435,346.893 41.5568864,350.611 36.9996721,350.611 C32.4424578,350.611 28.7476071,346.893 28.7476071,342.306 C28.7476071,337.719 32.4424578,334 36.9996721,334 C41.5568864,334 45.2507435,337.719 45.2507435,342.306 Z M42.3343052,369.3905 C42.3343052,373.9775 38.6404481,377.6965 34.0832338,377.6965 C29.5260195,377.6965 25.8311688,373.9775 25.8311688,369.3905 C25.8311688,364.8035 29.5260195,361.0855 34.0832338,361.0855 C38.6404481,361.0855 42.3343052,364.8035 42.3343052,369.3905 Z" id="Shape" fill="#000000" opacity="0.596656436"></path>
                        <path d="M36.6136948,471.926 C36.6136948,477.961 31.753461,482.853 25.7586429,482.853 C19.7628312,482.853 14.9025974,477.961 14.9025974,471.926 C14.9025974,465.892 19.7628312,461 25.7586429,461 C31.753461,461 36.6136948,465.892 36.6136948,471.926" id="Fill-25" fill="#000000" opacity="0.396019345"></path>
                    </g>
                </g>
                <g id="Robot-/-Body-/-4" transform="translate(46.000000, 152.000000)">
                    <g id="Group-18" transform="translate(74.000000, 65.000000)">
                        <path d="M199.8381,113.6274 L244.6701,210.4384" id="Stroke-1" stroke="#19141E" stroke-width="16" stroke-linecap="round"></path>
                        <polygon id="Fill-8" fill="#19141E" points="112.201 135 146.971 135 146.971 107 112.201 107"></polygon>
                        <path d="M31.3176,220.4594 L40.9346,114.9144" id="Stroke-12" stroke="#19141E" stroke-width="16" stroke-linecap="round"></path>
                        <g id="Body-color">
                            <mask id="mask-22" fill="white">
                                <use xlink:href="#path-21"></use>
                            </mask>
                            <use id="Mask" fill="#6CA1FF" fill-rule="nonzero" xlink:href="#path-21"></use>
                            <g id="Colors-/-Skin-/-Yellow" mask="url(#mask-22)" fill="#F6B852" fill-rule="nonzero">
                                <g transform="translate(-1.000000, -1.000000)" id="Color">
                                    <rect x="0" y="0" width="282" height="279"></rect>
                                </g>
                            </g>
                        </g>
                        <path d="M130.3557,80.2821 L163.5857,80.2821 C170.1867,80.2821 175.5857,74.8821 175.5857,68.2821 L175.5857,48.7951 C175.5857,42.1951 170.1867,36.7951 163.5857,36.7951 L130.3557,36.7951 C123.7547,36.7951 118.3557,42.1951 118.3557,48.7951 L118.3557,68.2821 C118.3557,74.8821 123.7547,80.2821 130.3557,80.2821" id="Fill-11" fill="#19141E"></path>
                        <g id="Overlay" transform="translate(1.000000, 4.000000)" fill="#000000" fill-rule="nonzero" opacity="0.399181548">
                            <path d="M252.75567,247.263185 L241.565599,257.252293 C241.053989,256.679175 240.245931,255.711874 239.238583,254.402805 C237.591246,252.262056 235.94858,249.89176 234.408034,247.337368 C230.248354,240.440166 227.544076,233.459757 227.071554,226.527171 C226.436241,217.2062 230.022055,208.918986 238.20785,202.946136 C246.400946,196.967876 254.940605,196.453499 262.248963,201.161126 C267.459517,204.517467 271.475268,210.084376 274.779064,217.25117 C276.447473,220.870383 277.828164,224.690822 278.953124,228.50422 C279.345825,229.835399 279.679995,231.075518 279.957626,232.196907 C280.129776,232.892244 280.248235,233.41042 280.314556,233.723239 L265.640713,236.834239 C265.608398,236.681816 265.527435,236.327664 265.397229,235.801742 C265.170932,234.887698 264.893939,233.859765 264.566091,232.748425 C263.632342,229.583199 262.490987,226.425013 261.156814,223.530844 C258.938613,218.718989 256.448955,215.267654 254.12613,213.771423 C252.193809,212.526732 250.375713,212.636243 247.049378,215.063371 C243.159053,217.901987 241.741731,221.177576 242.036832,225.507145 C242.320001,229.661647 244.215561,234.554555 247.252845,239.590703 C248.48176,241.628376 249.806372,243.539734 251.126314,245.255026 C251.582828,245.848276 252.002424,246.370402 252.37251,246.813419 C252.578243,247.059695 252.710151,247.212192 252.75567,247.263185 Z M189.505724,104.356526 C188.480766,108.411615 190.143011,112.829754 193.896413,115.130357 C198.519413,117.963357 204.563413,116.512357 207.396413,111.889357 C210.229413,107.266357 208.778413,101.222357 204.155413,98.3893572 C201.382923,96.6903599 198.099356,96.532506 195.304023,97.6752965 C199.721018,91.278749 202.313713,83.5378627 202.313713,75.2207572 L202.313713,36.6677572 C202.313713,24.3495788 196.626492,13.2950505 187.748417,6 C196.788543,8.00352582 204.373772,15.0148055 206.592613,24.5946572 L223.990613,99.6836572 C227.064613,112.954657 218.721613,126.328657 205.450613,129.403657 L203.213613,129.921657 C190.573498,132.850476 177.839943,125.421082 174,113.240339 C179.841319,111.479807 185.126355,108.402117 189.505724,104.356526 L189.505724,104.356526 Z M55.4416368,13.5746117 C61.5896368,1.41761173 76.5676368,-3.49738827 88.7236368,2.65161173 L90.7716368,3.68761173 C102.927637,9.83661173 107.843637,24.8136117 101.694637,36.9706117 L66.9046368,105.749612 C60.7546368,117.906612 45.7786368,122.821612 33.6226368,116.672612 L31.5736368,115.636612 C19.4176368,109.487612 14.5026368,94.5106117 20.6516368,82.3536117 L55.4416368,13.5746117 Z M54.2473368,94.7729117 C55.8143368,89.5829117 52.8793368,84.1039117 47.6893368,82.5359117 C42.4993368,80.9679117 37.0203368,83.9029117 35.4523368,89.0939117 C33.8843368,94.2839117 36.8203368,99.7619117 42.0103368,101.330912 C47.2003368,102.897912 52.6793368,99.9629117 54.2473368,94.7729117 Z M86.8938368,30.2309117 C88.4618368,25.0409117 85.5258368,19.5629117 80.3358368,17.9939117 C75.1458368,16.4259117 69.6668368,19.3619117 68.0988368,24.5519117 C66.5308368,29.7419117 69.4668368,35.2199117 74.6568368,36.7889117 C79.8468368,38.3569117 85.3258368,35.4209117 86.8938368,30.2309117 Z M15.0435035,254.801975 L0.0696128003,255.68662 C0.0595380417,255.516091 0.0471913351,255.247938 0.0357472979,254.889708 C-0.153420274,248.968239 0.38076561,241.885759 2.29722272,234.891055 C6.36709511,220.036795 15.7584685,210.42055 31.1501578,211.027125 C39.8184532,211.369037 46.2875901,214.985759 49.746127,221.41948 C52.4397605,226.430293 52.984361,232.449816 52.0360732,239.263703 C51.445301,243.508675 50.286186,247.91864 48.7279492,252.370448 C47.9384134,254.626114 47.0943638,256.752946 46.247369,258.696819 C45.7292537,259.885906 45.3144109,260.771377 45.0541144,261.295629 L31.6190019,254.624966 C31.6460207,254.570548 31.7184067,254.420691 31.8296316,254.183285 C32.0278549,253.760182 32.2521749,253.264755 32.4960629,252.705027 C33.2018047,251.085332 33.9104918,249.299586 34.5701769,247.414897 C35.8249091,243.830187 36.741101,240.344447 37.1792585,237.196082 C38.3018563,229.129696 36.7592284,226.260033 30.559218,226.01548 C23.3631903,225.73189 19.1882834,230.006763 16.7640444,238.854774 C15.9473099,241.8357 15.4342502,245.097023 15.1823984,248.436188 C15.007353,250.75702 14.9770011,252.811254 15.028099,254.410762 C15.0351312,254.630889 15.0412607,254.764013 15.0435035,254.801975 Z" id="Shape"></path>
                        </g>
                        <g id="Overlay-parts" transform="translate(36.000000, 21.550000)" fill="#000000" opacity="0.601771763">
                            <path d="M19.2171225,77.2011225 C17.6491225,82.3911225 12.1701225,85.3261225 6.98012252,83.7591225 C1.79012252,82.1901225 -1.14587748,76.7121225 0.42212252,71.5221225 C1.99012252,66.3311225 7.46912252,63.3961225 12.6591225,64.9641225 C17.8491225,66.5321225 20.7841225,72.0111225 19.2171225,77.2011225 Z M51.8636225,12.6591225 C50.2956225,17.8491225 44.8166225,20.7851225 39.6266225,19.2171225 C34.4366225,17.6481225 31.5006225,12.1701225 33.0686225,6.98012252 C34.6366225,1.79012252 40.1156225,-1.14587748 45.3056225,0.42212252 C50.4956225,1.99112252 53.4316225,7.46912252 51.8636225,12.6591225 Z M172.388167,94.3978904 C169.555167,99.0208904 163.511167,100.47189 158.888167,97.6388904 C154.266167,94.8058904 152.815167,88.7618904 155.648167,84.1388904 C158.480167,79.5168904 164.524167,78.0648904 169.147167,80.8978904 C173.770167,83.7308904 175.221167,89.7748904 172.388167,94.3978904 Z" id="Shape"></path>
                        </g>
                    </g>
                </g>
                <g id="Robot-/-Head-/-4" transform="translate(159.000000, 40.000000)">
                    <g id="Group-24" transform="translate(-3.000000, 16.000000)">
                        <path d="M160.971,97.1281 L160.971,27.2821" id="Stroke-1" stroke="#19141E" stroke-width="7"></path>
                        <path d="M167.2562,126.7741 L138.3762,126.7741 L138.3762,83.7271 L167.2562,83.7271 C179.0942,83.7271 188.7792,93.4121 188.7792,105.2501 C188.7792,117.0881 179.0942,126.7741 167.2562,126.7741" id="Fill-5" fill="#19141E"></path>
                        <g id="Face-color" transform="translate(22.000000, -0.000100)">
                            <mask id="mask-24" fill="white">
                                <use xlink:href="#path-23"></use>
                            </mask>
                            <use id="Mask" fill="#6CA1FF" xlink:href="#path-23"></use>
                            <g id="Colors-/-Skin-/-Yellow" mask="url(#mask-24)" fill="#F6B852" fill-rule="nonzero">
                                <g transform="translate(-1.000000, 0.000100)" id="Color">
                                    <rect x="0" y="0" width="156" height="173"></rect>
                                </g>
                            </g>
                        </g>
                        <g id="Overlay" transform="translate(46.047400, 6.221848)" fill="#000000">
                            <polygon id="Stroke-21" fill-rule="nonzero" opacity="0.404366629" points="30.5754153 7.55630476 15.7635384 18.8942105 7.58809805 12.6955108 7.20296621 4.78755179 15.7636616 11.3380943 30.5757847 -3.55271368e-15 45.3848462 11.3380471 60.1978462 4.71243264e-05 75.0072154 11.3383298 89.8256 0.000800608925 99.3069 7.55550415 100.883752 15.9392852 89.8256 7.55550415 75.0059846 18.893975 60.1973538 7.55625763 45.3843538 18.8942576"></polygon>
                            <path d="M98.805,167.060052 L7.349,167.060052 C3.291,167.060052 -6.82121026e-13,163.770052 -6.82121026e-13,159.711052 C-6.82121026e-13,155.652052 3.291,152.362052 7.349,152.362052 L98.805,152.362052 C102.864,152.362052 106.154,155.652052 106.154,159.711052 C106.154,163.770052 102.864,167.060052 98.805,167.060052" id="Fill-9" opacity="0.39562407"></path>
                        </g>
                        <path d="M21.5238,126.7741 L50.4028,126.7741 L50.4028,83.7271 L21.5238,83.7271 C9.6858,83.7271 -0.0002,93.4121 -0.0002,105.2501 C-0.0002,117.0881 9.6858,126.7741 21.5238,126.7741" id="Fill-11" fill="#19141E"></path>
                        <path d="M160.971,105.2501 C160.971,121.7101 150.311,135.0541 137.162,135.0541 C124.013,135.0541 113.354,121.7101 113.354,105.2501 C113.354,88.7901 124.013,75.4461 137.162,75.4461 C150.311,75.4461 160.971,88.7901 160.971,105.2501" id="Fill-14" fill="#19141E"></path>
                        <polygon id="Fill-16" fill="#19141E" points="125.974 135.054 137.162 135.054 137.162 75.446 125.974 75.446"></polygon>
                        <path d="M149.7825,105.2501 C149.7825,121.7101 139.1235,135.0541 125.9735,135.0541 C112.8245,135.0541 102.1655,121.7101 102.1655,105.2501 C102.1655,88.7901 112.8245,75.4461 125.9735,75.4461 C139.1235,75.4461 149.7825,88.7901 149.7825,105.2501" id="Fill-18" fill="#FFFFFF"></path>
                        <path d="M138.1624,103.2501 C138.1624,109.0441 134.4104,113.7421 129.7814,113.7421 C125.1524,113.7421 121.4004,109.0441 121.4004,103.2501 C121.4004,97.4561 125.1524,92.7581 129.7814,92.7581 C134.4104,92.7581 138.1624,97.4561 138.1624,103.2501" id="Fill-19" fill="#19141E"></path>
                        <path d="M38.3553,97.1281 L38.3553,30.5" id="Stroke-20" stroke="#19141E" stroke-width="7"></path>
                    </g>
                </g>
            </g>
        </g>
    </g>
</svg>