<svg xmlns="http://www.w3.org/2000/svg" xmlns:svg="http://www.w3.org/2000/svg" id="effd0595-b14c-4c7e-b56f-e463e9379f7d" width="930" height="788" data-name="Layer 1" version="1.1" viewBox="0 0 930 788"><metadata id="metadata561"/><defs id="defs559"><filter style="color-interpolation-filters:sRGB" id="filter5833"><feColorMatrix id="feColorMatrix5831" result="color2" values="0 0 -1 0 1 0 -1 0 0 1 -1 0 0 0 1 -0.21 -0.72 -0.07 2 0"/></filter><filter style="color-interpolation-filters:sRGB" id="filter5837"><feColorMatrix id="feColorMatrix5835" result="color2" values="0 0 -1 0 1 0 -1 0 0 1 -1 0 0 0 1 -0.21 -0.72 -0.07 2 0"/></filter><filter style="color-interpolation-filters:sRGB" id="filter5841"><feColorMatrix id="feColorMatrix5839" result="color2" values="0 0 -1 0 1 0 -1 0 0 1 -1 0 0 0 1 -0.21 -0.72 -0.07 2 0"/></filter><filter style="color-interpolation-filters:sRGB" id="filter5845"><feColorMatrix id="feColorMatrix5843" result="color2" values="0 0 -1 0 1 0 -1 0 0 1 -1 0 0 0 1 -0.21 -0.72 -0.07 2 0"/></filter><filter style="color-interpolation-filters:sRGB" id="filter5849"><feColorMatrix id="feColorMatrix5847" result="color2" values="0 0 -1 0 1 0 -1 0 0 1 -1 0 0 0 1 -0.21 -0.72 -0.07 2 0"/></filter><filter style="color-interpolation-filters:sRGB" id="filter5853"><feColorMatrix id="feColorMatrix5851" result="color2" values="0 0 -1 0 1 0 -1 0 0 1 -1 0 0 0 1 -0.21 -0.72 -0.07 2 0"/></filter><filter style="color-interpolation-filters:sRGB" id="filter5857"><feColorMatrix id="feColorMatrix5855" result="color2" values="0 0 -1 0 1 0 -1 0 0 1 -1 0 0 0 1 -0.21 -0.72 -0.07 2 0"/></filter><filter style="color-interpolation-filters:sRGB" id="filter5861"><feColorMatrix id="feColorMatrix5859" result="color2" values="0 0 -1 0 1 0 -1 0 0 1 -1 0 0 0 1 -0.21 -0.72 -0.07 2 0"/></filter><filter style="color-interpolation-filters:sRGB" id="filter5865"><feColorMatrix id="feColorMatrix5863" result="color2" values="0 0 -1 0 1 0 -1 0 0 1 -1 0 0 0 1 -0.21 -0.72 -0.07 2 0"/></filter><filter style="color-interpolation-filters:sRGB" id="filter5869"><feColorMatrix id="feColorMatrix5867" result="color2" values="0 0 -1 0 1 0 -1 0 0 1 -1 0 0 0 1 -0.21 -0.72 -0.07 2 0"/></filter><filter style="color-interpolation-filters:sRGB" id="filter5873"><feColorMatrix id="feColorMatrix5871" result="color2" values="0 0 -1 0 1 0 -1 0 0 1 -1 0 0 0 1 -0.21 -0.72 -0.07 2 0"/></filter><filter style="color-interpolation-filters:sRGB" id="filter5877"><feColorMatrix id="feColorMatrix5875" result="color2" values="0 0 -1 0 1 0 -1 0 0 1 -1 0 0 0 1 -0.21 -0.72 -0.07 2 0"/></filter><filter style="color-interpolation-filters:sRGB" id="filter5881"><feColorMatrix id="feColorMatrix5879" result="color2" values="0 0 -1 0 1 0 -1 0 0 1 -1 0 0 0 1 -0.21 -0.72 -0.07 2 0"/></filter><filter style="color-interpolation-filters:sRGB" id="filter5885"><feColorMatrix id="feColorMatrix5883" result="color2" values="0 0 -1 0 1 0 -1 0 0 1 -1 0 0 0 1 -0.21 -0.72 -0.07 2 0"/></filter><filter style="color-interpolation-filters:sRGB" id="filter5889"><feColorMatrix id="feColorMatrix5887" result="color2" values="0 0 -1 0 1 0 -1 0 0 1 -1 0 0 0 1 -0.21 -0.72 -0.07 2 0"/></filter><filter style="color-interpolation-filters:sRGB" id="filter5893"><feColorMatrix id="feColorMatrix5891" result="color2" values="0 0 -1 0 1 0 -1 0 0 1 -1 0 0 0 1 -0.21 -0.72 -0.07 2 0"/></filter><filter style="color-interpolation-filters:sRGB" id="filter5897"><feColorMatrix id="feColorMatrix5895" result="color2" values="0 0 -1 0 1 0 -1 0 0 1 -1 0 0 0 1 -0.21 -0.72 -0.07 2 0"/></filter><filter style="color-interpolation-filters:sRGB" id="filter5901"><feColorMatrix id="feColorMatrix5899" result="color2" values="0 0 -1 0 1 0 -1 0 0 1 -1 0 0 0 1 -0.21 -0.72 -0.07 2 0"/></filter><filter style="color-interpolation-filters:sRGB" id="filter5905"><feColorMatrix id="feColorMatrix5903" result="color2" values="0 0 -1 0 1 0 -1 0 0 1 -1 0 0 0 1 -0.21 -0.72 -0.07 2 0"/></filter><filter id="filter3250" style="color-interpolation-filters:sRGB"><feColorMatrix id="feColorMatrix3246" result="color1" type="hueRotate" values="180"/><feColorMatrix id="feColorMatrix3248" result="color2" values="0 0 1 0 0 0 1 0 0 0 1 0 0 0 0 -0.21 -0.72 -0.07 2 0"/></filter><filter id="filter3256" style="color-interpolation-filters:sRGB"><feColorMatrix id="feColorMatrix3252" result="color1" type="hueRotate" values="180"/><feColorMatrix id="feColorMatrix3254" result="color2" values="0 0 1 0 0 0 1 0 0 0 1 0 0 0 0 -0.21 -0.72 -0.07 2 0"/></filter><filter id="filter3262" style="color-interpolation-filters:sRGB"><feColorMatrix id="feColorMatrix3258" result="color1" type="hueRotate" values="180"/><feColorMatrix id="feColorMatrix3260" result="color2" values="0 0 1 0 0 0 1 0 0 0 1 0 0 0 0 -0.21 -0.72 -0.07 2 0"/></filter></defs><title id="title442">process</title><circle id="circle444" cx="748.166" cy="49.477" r="14.756" fill="#f1f1f1"/><circle id="circle446" cx="661.166" cy="620.477" r="14.756" fill="#f1f1f1"/><circle id="circle448" cx="294.166" cy="191.477" r="14.756" fill="#f1f1f1"/><ellipse id="ellipse450" cx="157" cy="765" fill="#f1f1f1" rx="157" ry="23"/><path id="path452" fill="#6c63ff" d="M374.93615,654.976,414.351,642.62838a144.4615,144.4615,0,0,0-14.72211-46.99462l-39.41484,12.34757A88.61133,88.61133,0,0,1,374.93615,654.976Z" transform="translate(-135 -56)" style="filter:url(#filter5849)"/><circle id="circle454" cx="145.2" cy="266.353" r="36.8" fill="#2f2e41"/><polygon id="polygon456" fill="#9f616a" points="105.5 727.5 98.5 757.5 115.5 757.5 122.5 723.5 105.5 727.5"/><polygon id="polygon458" fill="#9f616a" points="187.5 727.5 187.5 755.5 204.5 757.5 204.5 727.5 187.5 727.5"/><path id="path460" fill="#9f616a" d="M235.5,465.5s2,43,4,46,20,46,20,46l9-28s-14-23-12-36,.74-28.99711.74-28.99711Z" transform="translate(-135 -56)"/><circle id="circle462" cx="157.5" cy="277.5" r="28" fill="#9f616a"/><path id="path464" fill="#9f616a" d="M269.5,336.5s1,40-6,46,40,1,40,1-10-28-2-34S269.5,336.5,269.5,336.5Z" transform="translate(-135 -56)"/><path id="path466" fill="#2f2e41" d="M306.5,381.5s-6-11-14-10-34,3-35,5-4,9-6,11-17,5-18,17,36,85,36,85-5,17-4,21-5,16-4,21-15,35-7,74v63s-27,109-19,117,35,3,40,0,26-154,26-154l10-51,1,112s-2,94,5,97,34,4,36-2c1.55984-4.67951,9.2024-129.18869,12.49082-183.76643a203.90452,203.90452,0,0,0-4.40285-56.17549C357.42589,528.6804,351.3835,506.5015,344.5,497.5c-13-17-21-71-21-71l17-31s-10-10-16-10S306.5,381.5,306.5,381.5Z" transform="translate(-135 -56)"/><path id="path468" fill="#2f2e41" d="M239.5,397.5l-5.27357,3.58937S230.5,465.5,233.5,469.5s23.85728,2.04776,25.42864-1.47612S239.5,397.5,239.5,397.5Z" transform="translate(-135 -56)"/><path id="path470" fill="#9f616a" d="M321.5,457.5s1,42,7,54,28,62,28,62-1.277,55.0315,9.86148,41.51575S370.5,569.5,370.5,569.5l-19-74s-10-33-9-43S321.5,457.5,321.5,457.5Z" transform="translate(-135 -56)"/><path id="path472" fill="#2f2e41" d="M339.5,795.29921s1-.79921,4,2.20079,11,7,10,18-7,13-7,13v-3h-3v5s-5,16-28,6c0,0-1-8,0-13s1-29,4-28,11,2,13,6S340.5,804.09843,339.5,795.29921Z" transform="translate(-135 -56)"/><path id="path474" fill="#2f2e41" d="M236.5,796.29921s-1-.79921-4,2.20079-11,7-10,18,7,13,7,13v-3h3v5s5,16,28,6c0,0,1-8,0-13s-1-29-4-28-11,2-13,6S235.5,805.09843,236.5,796.29921Z" transform="translate(-135 -56)"/><path id="path476" fill="#2f2e41" d="M326.5,392.5l14,3s0,22,4,31,11,30,8,31-31,15-33,7S312.5,392.5,326.5,392.5Z" transform="translate(-135 -56)"/><circle id="circle478" cx="105.334" cy="217.9" r="36.8" fill="#2f2e41"/><path id="path480" fill="#2f2e41" d="M208.59183,304.3723a36.80186,36.80186,0,0,0,56.82871-19.323A36.80188,36.80188,0,1,1,193.634,269.958,36.7883,36.7883,0,0,0,208.59183,304.3723Z" transform="translate(-135 -56)"/><circle id="circle482" cx="135.387" cy="272.486" r="26.987" fill="#2f2e41"/><ellipse id="ellipse484" cx="158.08" cy="262.366" fill="#2f2e41" rx="23.92" ry="18.707"/><ellipse id="ellipse486" cx="164.46" cy="281.535" fill="#a0616a" rx="4.54" ry="8.032"/><rect id="rect488" width="534" height="429" x="468.235" y="145.388" fill="#f1f1f1" transform="matrix(0.95775, 0.2876, -0.2876, 0.95775, -0.4351, -252.24625)"/><line id="line490" x1="611.165" x2="732.305" y1="141.893" y2="190.858" fill="none" stroke="#3f3d56" stroke-miterlimit="10" stroke-width="2"/><polygon id="polygon492" fill="#3f3d56" points="614.244 151.96 616.058 151.113 611.876 142.182 621.09 138.664 620.374 136.795 609.153 141.082 614.244 151.96"/><polygon id="polygon494" fill="#3f3d56" points="723.096 195.958 722.38 194.089 731.593 190.572 727.412 181.64 729.226 180.793 734.316 191.673 723.096 195.958"/><circle id="circle496" cx="671.735" cy="166.375" r="11" fill="#3f3d56"/><line id="line498" x1="601.934" x2="713.537" y1="481.351" y2="413.4" fill="none" stroke="#3f3d56" stroke-miterlimit="10" stroke-width="2"/><polygon id="polygon500" fill="#3f3d56" points="611.848 484.891 612.251 482.93 602.59 480.953 605.268 471.461 603.341 470.919 600.082 482.48 611.848 484.891"/><polygon id="polygon502" fill="#3f3d56" points="712.13 423.833 710.203 423.291 712.882 413.801 703.22 411.822 703.624 409.862 715.391 412.274 712.13 423.833"/><circle id="circle504" cx="657.735" cy="447.375" r="11" fill="#3f3d56"/><line id="line506" x1="461.716" x2="461.755" y1="266.044" y2="396.706" fill="none" stroke="#3f3d56" stroke-miterlimit="10" stroke-width="2"/><polygon id="polygon508" fill="#3f3d56" points="453.538 272.674 455.003 274.038 461.714 266.812 468.431 274.034 469.895 272.669 461.713 263.875 453.538 272.674"/><polygon id="polygon510" fill="#3f3d56" points="453.573 390.082 455.038 388.717 461.753 395.939 468.466 388.713 469.931 390.077 461.754 398.875 453.573 390.082"/><circle id="circle512" cx="461.735" cy="331.375" r="11" fill="#3f3d56"/><rect style="filter:url(#filter3250)" id="rect514" width="182" height="226" x="369" fill="#3f3d56"/><path id="path516" fill="#ff6584" d="M583.6211,140.13446H542.31744a144.46152,144.46152,0,0,1,0-49.24667H583.6211A88.6115,88.6115,0,0,0,583.6211,140.13446Z" transform="translate(-135 -56)" style="filter:url(#filter5905)"/><path id="path518" fill="#6c63ff" d="M606.3789,165.11221h41.30366a144.46152,144.46152,0,0,0,0-49.24667H606.3789A88.6115,88.6115,0,0,1,606.3789,165.11221Z" transform="translate(-135 -56)" style="filter:url(#filter5901)"/><path id="path520" fill="#6c63ff" d="M567.3789,247.11221h41.30366a144.46152,144.46152,0,0,0,0-49.24667H567.3789A88.6115,88.6115,0,0,1,567.3789,247.11221Z" transform="translate(-135 -56)" style="filter:url(#filter5897)"/><rect style="filter:url(#filter3256)" id="rect522" width="182" height="226" x="748" y="215" fill="#3f3d56"/><rect id="rect524" width="130" height="6" x="774" y="263" fill="#6c63ff" style="filter:url(#filter5873)"/><rect id="rect526" width="130" height="6" x="774" y="284" fill="#6c63ff" style="filter:url(#filter5869)"/><rect id="rect528" width="130" height="6" x="774" y="305" fill="#6c63ff" style="filter:url(#filter5865)"/><rect id="rect530" width="130" height="6" x="774" y="326" fill="#6c63ff" style="filter:url(#filter5861)"/><rect id="rect532" width="130" height="6" x="774" y="347" fill="#6c63ff" style="filter:url(#filter5857)"/><rect id="rect534" width="68" height="24" x="805" y="369" fill="#6c63ff" style="filter:url(#filter5853)"/><rect style="filter:url(#filter3262)" id="rect536" width="182" height="226" x="385" y="447" fill="#3f3d56"/><rect id="rect538" width="130" height="6" x="411.297" y="572.806" fill="#6c63ff" style="filter:url(#filter5833)"/><rect id="rect540" width="130" height="6" x="411.297" y="593.806" fill="#6c63ff" style="filter:url(#filter5837)"/><rect id="rect542" width="130" height="6" x="411.297" y="614.806" fill="#6c63ff" style="filter:url(#filter5841)"/><rect id="rect544" width="130" height="6" x="411.297" y="635.806" fill="#6c63ff" style="filter:url(#filter5845)"/><path id="path546" fill="#6c63ff" d="M586.1211,583.44057H544.81744a144.46158,144.46158,0,0,1,0-49.24668H586.1211A88.61154,88.61154,0,0,0,586.1211,583.44057Z" opacity=".3" transform="translate(-135 -56)" style="filter:url(#filter5893)"/><rect id="rect548" width="76" height="5" x="468.297" y="482.806" fill="#6c63ff" opacity=".3" style="filter:url(#filter5889)"/><rect id="rect550" width="76" height="5" x="468.297" y="500.806" fill="#6c63ff" opacity=".3" style="filter:url(#filter5885)"/><rect id="rect552" width="76" height="5" x="468.297" y="518.806" fill="#6c63ff" opacity=".3" style="filter:url(#filter5881)"/><rect id="rect554" width="76" height="5" x="468.297" y="536.806" fill="#6c63ff" opacity=".3" style="filter:url(#filter5877)"/></svg>