<?xml version="1.0" encoding="UTF-8"?>
<svg width="1924px" height="1045px" viewBox="0 0 1924 1045" version="1.1" xmlns="http://www.w3.org/2000/svg" xmlns:xlink="http://www.w3.org/1999/xlink">
    <!-- Generator: Sketch 53.2 (72643) - https://sketchapp.com -->
    <title>Illustration 5</title>
    <desc>Created with Sketch.</desc>
    <defs>
        <path d="M70.3400911,114.774 L69.4867966,85.4718797 C69.4867966,85.4718797 105.28479,88.3070506 112.942009,84.3501266 C112.942009,84.3501266 122.301331,36.3860316 111.138516,9.82448734 L110.912406,8.79018987 L35.3702692,0 L31.9384766,44.246157 C29.3938464,36.7811886 7.58929658,27.1871203 2.09985822,37.8781329 C-9.79691575,61.0440759 32.7403993,76.6424241 32.7403993,76.6424241 L28.4209884,115.1265" id="path-1"></path>
        <path d="M360.762316,114.958214 L367.729765,137.417756 C367.729765,137.417756 422.137403,115.09091 450.124459,123.5625 L355.814345,178.199319 L331.261905,116.516643 L360.762316,114.958214 Z M76.7575942,28.7611041 L44.9661031,55.2833377 C44.9661031,55.2833377 48.6161964,74.0892506 49.6985964,91.7158655 C51.2640676,117.230408 48.4869098,140.068083 48.4869098,140.068083 L0.000400888889,45.3800277 L67.5030742,6.31088724e-30 L76.7575942,28.7611041 Z" id="path-3"></path>
        <path d="M302.755799,116.43932 L330.920248,108.822771 L339.667643,137.464149 L315.527117,147.53308 L302.755799,116.43932 Z M38.9966671,3.97903932e-13 L40.6773938,35.5705028 L16.9036804,55.3302303 L0.118462667,26.6539319 L38.9966671,3.97903932e-13 Z" id="path-5"></path>
        <path d="M162.206697,109.138003 C154.431461,83.5153203 148.939515,64.4338138 147.134508,56.1010642 C139.109714,19.0529469 139.126752,1.34651494 139.126752,0.000598628454 L166.948113,0.000598628454 L271.76054,0.000199542818 C271.190049,9.91008693 272.841779,36.1901392 269.108668,72.5775229 L350.491891,435.615199 L358.704922,434.183023 L365.849764,462.400373 L276.832386,480.166668 L265.987339,450.35098 L271.305277,449.423646 C259.424165,413.660914 233.476564,334.271884 208.300834,255.736075 C205.159183,260.967967 201.862086,266.218115 198.401882,271.480199 C151.489069,342.820416 104.665495,384.096997 79.0150793,403.488684 L82.8063731,408.911125 L57.0753198,425.28062 L0.488850889,344.773074 L25.4542064,326.884061 L29.6640437,332.905116 C60.1155483,304.894549 120.945913,239.03089 156.807656,133.214985 C159.211194,126.126787 160.945592,117.965846 162.206697,109.138003 L162.206697,109.138003 Z" id="path-7"></path>
        <path d="M285.216537,65.7313782 C274.180118,87.4016409 235.438085,158.537498 207.8186,147.191531 C187.1396,138.695654 162.3836,68.2621906 162.3836,68.2621906 L202.6246,44.3134809 L220.7066,92.7159208 L257.627928,52.6054152 C256.374235,44.6573319 255.370014,34.2675516 257.8693,30.6048578 C262.1243,24.3706378 283.6523,5.16295749 283.6523,5.16295749 L287.571948,37.7069615 L288.256612,34.9634797 C288.255921,34.8106965 288.292724,34.6453309 288.3703,34.4665748 C288.377756,34.4494131 288.385493,34.4321988 288.393508,34.4149325 L289.978345,28.064411 C289.313031,27.7286469 289.04079,27.25013 289.3284,26.5877575 C289.561846,26.0501254 290.070971,25.4608743 290.782649,24.8415272 L296.1936,3.15957684 C296.1936,3.15957684 297.969276,3.94940708 300.572631,5.13282269 C304.759977,4.26932449 319.923564,14.5777435 320.153653,14.7343755 L320.1566,14.7362777 C323.2446,16.7305123 315.9006,49.6910548 309.9356,55.8139317 C305.6919,60.169928 292.487002,63.9258449 285.216537,65.7313782 L285.216537,65.7313782 Z M38.6859101,212.706451 L41.1509,217.385606 C41.1509,217.385606 43.3819,221.209049 45.7179,227.882677 C48.0529,234.55531 47.0829,238.638222 52.1349,249.119387 C57.8699,261.017193 47.6119,256.111137 43.9339,250.917777 C41.0629,246.863694 41.3889,241.385017 37.6669,238.929504 C36.4199,240.919762 33.5699,243.764976 31.9799,260.931697 C31.6949,264.010533 33.0909,273.997612 33.0909,273.997612 C33.1209,276.989958 33.5049,283.230143 30.0979,284.182524 C29.2539,284.419128 28.1549,283.485636 28.1549,283.485636 C28.1549,283.485636 28.4849,287.390598 25.0039,288.168011 C23.6349,288.473211 20.9159,280.041953 20.9159,280.041953 C20.9159,280.041953 20.5019,284.323692 17.9019,284.799882 C17.1669,284.93409 8.4889,260.506208 8.4889,260.506208 L9.0109,266.023656 L10.1629,271.674319 C10.1629,271.674319 10.0699,274.716372 7.6269,275.254199 C6.6569,275.467938 4.7949,270.394867 3.0499,264.426082 C0.3359,255.138873 0.3909,248.160046 1.1899,241.219991 C2.1539,232.833469 1.7249,230.01609 5.4579,219.731765 C5.9043173,218.501808 6.50350333,217.089486 7.17268594,215.637288 C5.12447241,197.956588 -0.647281686,146.202808 0.0601,130.3145 C0.9171,111.043195 21.3351,68.2625883 21.3351,68.2625883 L62.7881,91.4368669 L39.9401,133.06726 L38.6859101,212.706451 L38.6859101,212.706451 Z M137.858,21.0061871 C113.848,19.5945156 103.718,4.67255074 101.408,0.636363059 C116.642,-0.415431662 118.234,-0.261340753 138.526,1.84026042 C146.756,2.69322816 152.528,4.44389972 158.118,5.97486746 C159.328,10.0806446 161.048,22.3582106 137.858,21.0061871 Z" id="path-9"></path>
        <path d="M189.244745,43.7138035 L189.3883,43.6858663 L205.7423,81.283054 L182.400673,94.8875062 L177.5277,176.9749 L44.5377,176.9749 L42.3077,96.0224956 L0.2577,64.5780088 C0.2577,64.5780088 20.0877,24.8126129 54.0177,8.98598534 C64.9877,3.86619062 75.048,1.45024399 84.408,0.525698534 C85.1754049,0.449927119 84.5697696,0.471310759 84.6629639,0.833279696 C84.715857,1.03871793 84.901062,1.34487933 85.1159668,1.69222584 C85.3308716,2.03957235 85.3308716,1.92704652 86.3843994,3.48086772 C87.4379272,5.03468891 88.9994954,6.58357045 91.354248,8.98598534 C93.3073684,10.9786385 96.0053096,12.9296279 98.6523437,14.4088883 C101.666006,16.0930338 104.623858,17.2176477 106.521729,18.0160252 C108.234577,18.7365692 109.678711,19.1145249 111.074585,19.446065 C115.01748,20.3825591 118.087169,20.6726104 124.349121,20.998943 C125.109071,21.0385467 129.509325,20.7128092 130.283203,20.5590058 C131.387031,20.3396267 132.375977,20.1414254 133.624146,19.8010265 C134.872314,19.4606275 137.974173,18.0131188 140.027588,15.4633363 C140.89856,14.3818263 141.725934,10.8248193 141.471191,8.2042827 C141.216449,5.58374605 140.073661,5.57818342 141.118,5.86420293 C159.488,10.8647015 176.8487,21.1740792 186.9977,39.4562199 C187.815831,40.9289577 188.563411,42.3474911 189.244745,43.7138035 Z" id="path-11"></path>
        <polygon id="path-13" points="0.8872 0.233621701 45.1692 0.233621701 45.1692 72.5965021 0.8872 72.5965021"></polygon>
        <polygon id="path-15" points="0.9044 0.233621701 20.0754 0.233621701 20.0754 72.5965021 0.9044 72.5965021"></polygon>
        <path d="M215.391,107.69 C215.391,115.3 214.601,122.73 213.09,129.9 C202.861,178.72 159.561,195.38 107.691,195.38 C48.22,195.38 4.26325641e-14,167.17 4.26325641e-14,107.69 C4.26325641e-14,48.21 48.22,5.68434189e-14 107.691,5.68434189e-14 C148.58,5.68434189e-14 184.151,22.78 202.391,56.35 C210.68,71.61 215.391,89.1 215.391,107.69" id="path-17"></path>
        <path d="M45.8354489,0.594517892 C58.4286635,11.4276038 77.0676542,21.5010228 98.9482254,28.3499916 C97.5548773,43.1748106 92.929673,68.7260585 78.9772,78.0071 C72.3862,82.3901 60.3832,82.9301 50.1582,82.3401 L47.8132,111.3831 L17.4202,99.4801 C17.4202,99.4801 25.0062,64.1821 20.9442,57.6951 C15.4892,48.9561 0.8942,46.1401 0.8772,34.0631 C0.8712,30.4861 2.9622,24.2931 10.6832,24.2811 C21.0472,24.2661 19.5702,36.6821 19.5702,36.6821 C29.1038477,40.390715 38.8217002,14.9870254 45.8354489,0.594517892 Z" id="path-19"></path>
        <path d="M237.081915,77.3175527 C236.421545,70.8498676 236.163366,63.1115789 238.218675,60.3401 C241.989675,55.2541 260.634675,39.8791 260.634675,39.8791 L261.628651,52.7095408 L266.042175,37.647 C266.042175,37.647 270.929751,39.0955322 275.661175,41.5710695 C279.882456,43.779694 283.887405,46.9616308 285.637175,48.205 C288.144175,49.987 280.856175,77.405 275.661175,82.339 C272.094114,85.7254772 261.576703,88.3514801 255.335378,89.6647351 C243.414798,108.915679 211.644654,157.015479 194.093175,153.0472 C175.859175,148.9252 158.942175,85.1872 158.942175,85.1872 L189.697175,70.2052 L203.088175,111.4782 L237.081915,77.3175527 L237.081915,77.3175527 Z M28.0950538,216.999658 L35.5805864,236.143683 C35.5805864,236.143683 36.7177293,241.072206 37.3532313,246.897025 C37.9878079,252.721924 38.2315929,256.265208 42.0886342,265.005202 C44.7766303,271.095531 36.0779726,269.276493 33.6111477,265.874052 C31.0678545,262.365044 29.7814976,247.981695 25.5942765,250.82776 C21.4070555,253.673824 20.1453645,268.149952 21.0820655,281.819774 C21.2288694,283.96676 19.7381029,285.71954 18.6721425,286.337358 C16.9430528,287.338061 14.4198925,278.87876 14.4198925,278.87876 C14.4198925,278.87876 13.5123718,281.851176 10.7590057,280.60979 C9.78427671,280.170509 6.8803087,274.415003 6.8803087,274.415003 C6.8803087,274.415003 4.63180216,271.578622 3.44919664,268.411545 C1.36158696,262.820072 -0.342766516,252.442253 0.0590974091,249.392871 C1.00821472,242.206222 3.14389163,230.076137 5.95130582,223.356332 C4.29393215,206.089183 -2.05957468,136.764647 1.4453069,123.59567 C5.45661263,108.527289 13.3166331,88.1080879 13.3166331,88.1080879 L43.4769073,105.846708 L30.5473626,133.449214 L28.0950538,216.999658 L28.0950538,216.999658 Z M132.335775,1.776 C132.335775,1.776 140.389775,7.468 146.405775,17.646 C154.638775,31.57 150.334775,43.583 137.667775,43.603 C124.106775,43.626 108.542775,39.01 101.981775,18.47 C98.6627753,8.08 95.5277753,-1.98951966e-13 95.5277753,-1.98951966e-13 L132.335775,1.776 Z" id="path-21"></path>
        <path d="M32.8798492,27.7759519 C29.0390623,25.2709217 24.3469975,22.5836207 22.4736,23.0206 C20.1871258,23.5539315 24.4292812,29.5989243 27.4610971,33.5105582 C22.5634122,35.4758485 16.0709901,38.4184914 15.034,40.5682 C14.3155273,42.0576133 17.1219542,42.544235 20.5989417,42.6100235 C17.3993856,44.1444441 14.6073476,45.8030842 13.9579,47.1502 C13.1258516,48.8750588 17.0212144,49.2550258 21.2107558,49.1939731 C17.5108429,50.882156 14.0442997,52.8007061 13.3104,54.3221 C12.0718575,56.8911451 21.3199865,56.4767063 26.4072873,56.0652765 L25.094,61.8052 C24.723,63.4302 23.243,64.5582 21.577,64.4852 L3.475,63.6942 C1.321,63.6002 -0.221,61.5762 0.26,59.4742 L13.086,3.4162 C13.458,1.7912 14.937,0.6642 16.602,0.7362 L34.705,1.5272 C36.859,1.6222 38.4,3.6462 37.92,5.7472 L32.8798492,27.7759519 Z" id="path-23"></path>
        <path d="M102.630318,1.1280359 L90.4991,0.5427 C90.4991,0.5427 93.6341,8.6227 96.9531,19.0127 C103.5141,39.5527 119.0781,44.1687 132.6391,44.1457 C145.3061,44.1257 149.6101,32.1127 141.3771,18.1887 C136.078299,9.22407368 129.198456,3.73960374 127.633398,2.55934582 C143.628039,3.64068783 153.587872,5.64885073 162.811,14.2997 C180.372,30.7707 194.592,61.1347 200.439,91.1327 L168.348,105.4537 L156.918,149.6207 L72.933,148.3407 C72.933,148.3407 73.668,140.2507 71.857,128.5607 C69.498,113.2707 60.982,101.8607 60.982,101.8607 L52.535,114.7007 L0,83.7307 C17.199,52.3677 41.189,20.0297 57.184,9.7397 C68.4838099,2.46731608 78.8297714,0.641925166 88.9390687,0.5427 C93.5362515,0.497577555 98.1518563,0.8103254 102.630318,1.1280359 Z" id="path-25"></path>
        <path d="M30.0845656,4.57408689 L53.4241721,4.06784918 L56.0080328,30.0634967 L58.5450738,60.0271115 L2.84217094e-14,60.0271115 C7.80230328,35.1580623 30.3206148,31.2534967 30.3206148,31.2534967 L30.0845656,4.57408689 Z M178.431624,9.79311475 L176.030165,30.7517459 C176.030165,30.7517459 220.705886,42.4634918 237.500493,59.8833361 L155.150542,60.0267213 L157.337411,-2.84217094e-14 L178.431624,9.79311475 Z" id="path-27"></path>
        <path d="M3.04913115,-5.68434189e-14 L25.8161721,7.99933607 L25.687418,33.7033361 L-3.55271368e-13,32.5133361 L3.04913115,-5.68434189e-14 Z M126.712858,7.00890492 L148.841006,15.8041754 L148.650801,33.2025607 L126.032998,32.3715115 L126.712858,7.00890492 Z" id="path-29"></path>
        <path d="M4.58686475,499.418712 C5.63055328,466.908302 12.3706352,261.545516 19.2960451,139.36568 C24.0950615,54.6805975 60.0096516,8.05600738 66.7497336,9.75409836e-05 L152.322439,9.75409836e-05 C152.478504,1.08182705 163.997119,82.6173107 166.10498,253.22527 C167.997275,406.014442 166.046455,489.529032 165.802602,499.350434 L165.802446,499.35541 L168.535408,499.351019 L168.552966,512.50442 L124.241072,512.575625 L124.223515,499.422224 L125.751394,499.419769 L125.751299,499.418712 L103.24957,232.049122 L96.5094877,152.026499 L45.3492418,499.350434 L45.3489109,499.352691 L47.5616664,499.349068 L46.7891418,512.50247 L0.911715574,512.576601 L1.68424016,499.424175 L4.5868406,499.419423 L4.58686475,499.418712 Z" id="path-31"></path>
    </defs>
    <g id="Scene" stroke="none" stroke-width="1" fill="none" fill-rule="evenodd">
        <g id="Illustration-5" transform="translate(-211.000000, -231.000000)">
            <g id="Background-Object-/-Closet-/-3" transform="translate(678.000000, 0.000000)">
                <g id="Group-55" transform="translate(224.000000, 230.000000)">
                    <path d="M377.0155,71.7797 L375.2415,71.7797 C350.7305,71.7797 330.8595,51.9097 330.8595,27.3987 L330.8595,0.9997 L421.3975,0.9997 L421.3975,27.3987 C421.3975,51.9097 401.5275,71.7797 377.0155,71.7797" id="Fill-1" fill="#DCEEFF"></path>
                    <polygon id="Fill-4" fill="#B6D4FF" points="49.3534 789.4257 28.8674 789.4257 28.8674 739.8317 59.9214 739.8317"></polygon>
                    <polygon id="Fill-6" fill="#ECF6FF" points="8.38 739.832 364.199 739.832 364.199 84.814 8.38 84.814"></polygon>
                    <polygon id="Fill-8" fill="#ECF6FF" points="28.8671 789.4257 8.3801 789.4257 8.3801 739.8317 38.4741 739.8317"></polygon>
                    <polygon id="Fill-9" fill="#CCE3FF" points="380.6698 789.4257 364.1988 789.4257 364.1988 739.8317 388.3938 739.8317"></polygon>
                    <polygon id="Fill-10" fill="#ECF6FF" points="343.7128 789.4257 364.1988 789.4257 364.1988 739.8317 334.1058 739.8317"></polygon>
                    <polygon id="Fill-11" fill="#B6D4FF" points="174.0702 789.4257 153.5832 789.4257 153.5832 739.8317 181.7562 739.8317"></polygon>
                    <polygon id="Fill-12" fill="#B6D4FF" points="470.0477 789.4257 451.1787 789.4257 444.0997 739.8317 470.0477 739.8317"></polygon>
                    <polygon id="Fill-13" fill="#CCE3FF" points="488.9159 789.4257 470.0479 789.4257 463.8539 739.8317 488.9159 739.8317"></polygon>
                    <polygon id="Fill-14" fill="#C5E0FC" points="153.5829 789.4257 133.0969 789.4257 125.4109 739.8317 153.5829 739.8317"></polygon>
                    <polygon id="Fill-15" fill="#B6D4FF" points="23.427 461.154 349.152 461.154 349.152 345.393 23.427 345.393"></polygon>
                    <polygon id="Fill-16" fill="#CCE3FF" points="23.427 461.154 124.194 461.154 124.194 345.393 23.427 345.393"></polygon>
                    <polygon id="Fill-17" fill="#B6D4FF" points="23.427 588.059 349.152 588.059 349.152 472.297 23.427 472.297"></polygon>
                    <polygon id="Fill-18" fill="#CCE3FF" points="23.427 588.059 124.194 588.059 124.194 472.297 23.427 472.297"></polygon>
                    <polygon id="Fill-19" fill="#B6D4FF" points="23.427 714.965 349.152 714.965 349.152 599.203 23.427 599.203"></polygon>
                    <polygon id="Fill-20" fill="#CCE3FF" points="23.427 714.965 124.194 714.965 124.194 599.203 23.427 599.203"></polygon>
                    <polygon id="Fill-21" fill="#B6D4FF" points="23.427 211.894 349.152 211.894 349.152 96.133 23.427 96.133"></polygon>
                    <polygon id="Fill-22" fill="#CCE3FF" points="23.427 211.894 124.194 211.894 124.194 96.133 23.427 96.133"></polygon>
                    <polygon id="Fill-23" fill="#B6D4FF" points="23.427 334.249 349.152 334.249 349.152 223.83 23.427 223.83"></polygon>
                    <polygon id="Fill-24" fill="#CCE3FF" points="23.427 334.249 124.194 334.249 124.194 223.83 23.427 223.83"></polygon>
                    <polygon id="Fill-25" fill="#CCE3FF" points="364.199 739.832 488.916 739.832 488.916 84.814 364.199 84.814"></polygon>
                    <polygon id="Fill-26" fill="#E6F4FF" points="0 84.814 352.426 84.814 352.426 63.564 0 63.564"></polygon>
                    <polygon id="Fill-27" fill="#CCE3FF" points="352.426 84.814 497.083 84.814 497.083 63.564 352.426 63.564"></polygon>
                    <path d="M304.7372,557.4355 L304.7372,557.4365 C304.7372,563.0735 300.1672,567.6435 294.5292,567.6435 L212.5192,567.6435 L212.5192,547.2285 L294.5292,547.2285 C300.1672,547.2285 304.7372,551.7985 304.7372,557.4355" id="Fill-28" fill="#CCE3FF"></path>
                    <path d="M248.9169,557.4355 L248.9169,557.4365 C248.9169,560.7005 246.2709,563.3455 243.0079,563.3455 L212.6419,563.3455 C212.5739,563.3455 212.5199,563.2905 212.5199,563.2225 L212.5199,551.6495 C212.5199,551.5815 212.5739,551.5265 212.6419,551.5265 L243.0079,551.5265 C246.2709,551.5265 248.9169,554.1715 248.9169,557.4355" id="Fill-29" fill="#DCEEFF"></path>
                    <path d="M316.3212,567.6435 L316.3212,588.0595 L226.7162,588.0595 C221.0792,588.0595 216.5082,583.4895 216.5082,577.8515 C216.5082,572.2135 221.0792,567.6435 226.7162,567.6435 L316.3212,567.6435 Z" id="Fill-30" fill="#CCE3FF"></path>
                    <path d="M316.3212,571.9989 L316.3212,583.7039 L279.6382,583.7039 C276.4062,583.7039 273.7862,581.0839 273.7862,577.8519 C273.7862,574.6189 276.4062,571.9989 279.6382,571.9989 L316.3212,571.9989 Z" id="Fill-31" fill="#DCEEFF"></path>
                    <path d="M315.9403,526.8124 L315.9403,547.2284 L232.2153,547.2284 C226.5783,547.2284 222.0073,542.6584 222.0073,537.0204 C222.0073,531.3824 226.5783,526.8124 232.2153,526.8124 L315.9403,526.8124 Z" id="Fill-32" fill="#CCE3FF"></path>
                    <path d="M315.9403,531.1679 L315.9403,542.8729 L285.1373,542.8729 C281.9053,542.8729 279.2843,540.2529 279.2843,537.0209 C279.2843,533.7879 281.9053,531.1679 285.1373,531.1679 L315.9403,531.1679 Z" id="Fill-33" fill="#DCEEFF"></path>
                    <polygon id="Fill-34" fill="#DCEEFF" points="100.833 461.38 156.971 461.38 156.971 382.895 100.833 382.895"></polygon>
                    <polygon id="Fill-35" fill="#DCEEFF" points="100.833 380.123 156.971 380.123 156.971 375.273 100.833 375.273"></polygon>
                    <path d="M159.0936,393.703 L98.7096,393.703 C95.3696,393.703 92.6626,390.995 92.6626,387.655 L92.6626,386.17 C92.6626,382.83 95.3696,380.123 98.7096,380.123 L159.0936,380.123 C162.4336,380.123 165.1406,382.83 165.1406,386.17 L165.1406,387.655 C165.1406,390.995 162.4336,393.703 159.0936,393.703" id="Fill-36" fill="#E6F4FF"></path>
                    <polygon id="Fill-37" fill="#ECF6FF" points="56.368 714.965 143.08 714.965 143.08 654.16 56.368 654.16"></polygon>
                    <polygon id="Fill-38" fill="#CCE3FF" points="143.08 714.965 207.004 714.965 207.004 654.16 143.08 654.16"></polygon>
                    <path d="M126.0565,684.5624 L74.1915,684.5624 C74.1915,679.2394 78.5055,674.9244 83.8285,674.9244 L116.4185,674.9244 C121.7415,674.9244 126.0565,679.2394 126.0565,684.5624" id="Fill-39" fill="#CCE3FF"></path>
                    <polygon id="Fill-40" fill="#ECF6FF" points="179.676 714.965 266.388 714.965 266.388 654.16 179.676 654.16"></polygon>
                    <polygon id="Fill-41" fill="#CCE3FF" points="266.387 714.965 330.311 714.965 330.311 654.16 266.387 654.16"></polygon>
                    <path d="M249.3641,684.5624 L197.4991,684.5624 C197.4991,679.2394 201.8131,674.9244 207.1361,674.9244 L239.7261,674.9244 C245.0491,674.9244 249.3641,679.2394 249.3641,684.5624" id="Fill-42" fill="#CCE3FF"></path>
                    <polygon id="Fill-43" fill="#ECF6FF" points="79.788 211.894 166.5 211.894 166.5 151.09 79.788 151.09"></polygon>
                    <polygon id="Fill-44" fill="#CCE3FF" points="166.5 211.894 230.424 211.894 230.424 151.09 166.5 151.09"></polygon>
                    <path d="M149.4764,181.4926 L97.6114,181.4926 L97.6114,181.4926 C97.6114,176.1696 101.9254,171.8546 107.2484,171.8546 L139.8384,171.8546 C145.1614,171.8546 149.4764,176.1696 149.4764,181.4926 Z" id="Fill-45" fill="#CCE3FF"></path>
                    <path d="M263.7274,319.0067 L271.7114,241.1977 L296.6794,241.1977 L304.6644,319.0067 C305.5004,327.1597 299.1024,334.2487 290.9054,334.2487 L277.4854,334.2487 C269.2894,334.2487 262.8904,327.1597 263.7274,319.0067" id="Fill-46" fill="#CCE3FF"></path>
                    <polygon id="Fill-47" fill="#DCEEFF" points="70.058 588.059 90.182 588.059 90.182 511.185 70.058 511.185"></polygon>
                    <polygon id="Fill-48" fill="#ECF6FF" points="49.933 588.059 70.057 588.059 70.057 511.185 49.933 511.185"></polygon>
                    <polygon id="Fill-49" fill="#ECF6FF" points="90.182 588.059 110.306 588.059 110.306 511.185 90.182 511.185"></polygon>
                    <path d="M163.326,588.0595 L110.306,588.0595 L110.306,511.1855 L163.326,511.1855 C166.158,511.1855 168.454,513.4815 168.454,516.3135 L168.454,582.9305 C168.454,585.7635 166.158,588.0595 163.326,588.0595" id="Fill-50" fill="#DCEEFF"></path>
                    <polygon id="Fill-51" fill="#CCE3FF" points="118.923 529.996 159.838 529.996 159.838 522.385 118.923 522.385"></polygon>
                    <polygon id="Fill-52" fill="#CCE3FF" points="128.039 541.739 150.721 541.739 150.721 534.128 128.039 534.128"></polygon>
                    <path d="M229.2128,467.4726 L229.2128,467.4726 C204.7008,467.4726 184.8308,447.6016 184.8308,423.0906 L184.8308,410.3496 L273.5948,410.3496 L273.5948,423.0906 C273.5948,447.6016 253.7248,467.4726 229.2128,467.4726" id="Fill-53" fill="#ECF6FF"></path>
                    <path d="M275.6552,298.8651 C275.6552,313.8161 267.7572,326.9341 255.9092,334.2491 L212.4162,334.2491 C200.5682,326.9341 192.6702,313.8161 192.6702,298.8651 C192.6702,291.9081 194.3822,285.3571 197.3992,279.6041 L270.9262,279.6041 C273.9432,285.3571 275.6552,291.9081 275.6552,298.8651" id="Fill-54" fill="#DCEEFF"></path>
                </g>
            </g>
            <g id="Background-Object-/-Chair-/-5" transform="translate(499.500000, 918.000000) scale(-1, 1) translate(-499.500000, -918.000000) translate(27.000000, 560.000000)">
                <g id="Group-14" transform="translate(185.000000, 143.000000)">
                    <polygon id="Fill-1" fill="#B6D4FF" points="480.8133 340.6099 518.5573 429.3129 535.6733 429.3129 512.9663 336.2619"></polygon>
                    <polygon id="Fill-2" fill="#B6D4FF" points="288 340.6099 325.743 429.3129 342.859 429.3129 320.152 336.2619"></polygon>
                    <polygon id="Fill-3" fill="#B6D4FF" points="0 429.313 17.116 429.313 54.859 340.61 22.707 336.262"></polygon>
                    <polygon id="Fill-4" fill="#B6D4FF" points="192.8133 429.313 209.9293 429.313 247.6733 340.61 215.5203 336.262"></polygon>
                    <path d="M21.0471,133.0201 L21.0471,347.8001 L244.2601,348.2771 L280.9671,135.8161 L21.0471,133.0201 Z M38.0471,150.2041 L260.8161,152.6001 L229.9501,331.2471 L38.0471,330.8371 L38.0471,150.2041 Z" id="Fill-5" fill="#B6D4FF"></path>
                    <polygon id="Fill-6" fill="#CCE3FF" points="313.9578 0.9994 253.9588 348.2774 515.7078 348.2774 575.7088 0.9994"></polygon>
                    <polygon id="Fill-7" fill="#DCEEFF" points="243.5724 0.9994 183.5724 348.2774 442.1474 348.2774 502.1474 0.9994"></polygon>
                    <path d="M179.4611,348.2774 L487.2551,348.2774 C502.9691,348.2774 515.7081,335.5384 515.7081,319.8234 L515.7081,254.2474 C515.7081,238.5324 502.9691,225.7934 487.2551,225.7934 L179.4611,225.7934 C163.7461,225.7934 151.0071,238.5324 151.0071,254.2474 L151.0071,319.8234 C151.0071,335.5384 163.7461,348.2774 179.4611,348.2774" id="Fill-8" fill="#CCE3FF"></path>
                    <polygon id="Fill-10" fill="#DCEEFF" points="19.891 348.277 292.495 348.277 292.495 225.793 19.891 225.793"></polygon>
                    <path d="M292.4953,133.0201 L292.4953,347.8001 L515.7083,348.2771 L552.4163,135.8161 L292.4953,133.0201 Z M309.4953,150.2041 L532.2643,152.6001 L501.3983,331.2471 L309.4953,330.8371 L309.4953,150.2041 Z" id="Fill-12" fill="#B6D4FF"></path>
                </g>
            </g>
            <g id="Person-/-Man-/-5" transform="translate(500.000000, 321.000000)">
                <g id="Man-/-Head-/-5" transform="translate(245.000000, 69.000000)">
                    <g id="Group-23" transform="translate(38.000000, 52.000000)">
                        <g id="Face-color" transform="translate(0.000000, 24.984129)">
                            <mask id="mask-2" fill="white">
                                <use xlink:href="#path-1"></use>
                            </mask>
                            <use id="Mask" fill="#CE3D29" xlink:href="#path-1"></use>
                            <g id="Colors-/-Skin-/-Rose" mask="url(#mask-2)" fill="#E576C6" fill-rule="nonzero">
                                <g transform="translate(0.000000, 0.003213)" id="Color">
                                    <rect x="0" y="0" width="117" height="117"></rect>
                                </g>
                            </g>
                        </g>
                        <polygon id="Fill-4" fill="#000000" opacity="0.403343564" points="69.4870658 110.455652 45.3480726 105.307367 69.3713192 121.44919"></polygon>
                        <polygon id="Fill-6" fill="#405FD3" points="89.3985274 62.5716057 97.7394589 82.8559728 87.7430822 82.9826943"></polygon>
                        <path d="M79.8879274,68.33565 C80.3850096,71.0673019 78.5608795,73.6820487 75.815263,74.1755487 C73.0687493,74.6699411 70.4397767,72.8565741 69.9435918,70.1249222 C69.4465096,67.3932703 71.2706397,64.7794158 74.0162562,64.2850234 C76.7627699,63.790631 79.3917425,65.6039981 79.8879274,68.33565" id="Fill-8" fill="#0D0B6D"></path>
                        <path d="M106.12319,68.33565 C106.620272,71.0673019 104.796142,73.6820487 102.050525,74.1755487 C99.3040116,74.6699411 96.675039,72.8565741 96.1788541,70.1249222 C95.6817719,67.3932703 97.5059021,64.7794158 100.251518,64.2850234 C102.998032,63.790631 105.627005,65.6039981 106.12319,68.33565" id="Fill-10" fill="#0D0B6D"></path>
                        <path d="M39.1141416,80.1371699 C38.9748388,79.796922 38.8199248,79.444917 38.6488582,79.0808316 C32.8817265,66.8065003 23.9361455,61.648749 18.0602842,59.5083713 C14.8493953,54.7838169 12.3180077,49.5001827 11.4774842,43.9353323 C8.81262123,26.3281804 13.4720938,10.2354399 23.8677514,5.62349051 C34.3908199,0.954427215 59.3167103,3.2952057 87.30495,3.2952057 C120.910039,3.2952057 122.761087,0.000446202532 122.761087,0.000446202532 C122.761087,0.000446202532 152.384135,41.5722437 97.6925322,40.3639272 C69.0322445,39.7303196 52.7236418,40.4451361 52.7236418,40.4451361 L39.1141416,80.1371699 Z" id="Combined-Shape" fill="#19141E"></path>
                        <g id="Group-22" transform="translate(73.547945, 84.490019)">
                            <path d="M9.40457466,11.4156823 C9.40457466,11.4156823 14.5512596,15.6153405 20.9397527,12.9238468" id="Fill-19" fill="#FFFFFF"></path>
                            <path d="M9.40457466,11.4156823 C9.40457466,11.4156823 14.5512596,15.6153405 20.9397527,12.9238468" id="Stroke-21" stroke="#252535" stroke-width="4"></path>
                            <path d="M0.715865068,7.03290253 C0.715865068,7.03290253 3.49916644,-0.203610127 16.6817144,0.338972152 C29.8642623,0.880662025 31.4990705,9.8475481 31.4990705,9.8475481 L0.715865068,7.03290253 Z" id="Fill-17" fill="#19141E"></path>
                        </g>
                    </g>
                </g>
                <g id="Man-/-Legs-/-5" transform="translate(53.000000, 249.000000)">
                    <g id="Group-18" transform="translate(46.000000, 181.237430)">
                        <g id="Shoes" transform="translate(0.000000, 343.056108)">
                            <mask id="mask-4" fill="white">
                                <use xlink:href="#path-3"></use>
                            </mask>
                            <use id="Mask" fill="#0D0B6D" xlink:href="#path-3"></use>
                            <g id="Colors-/-Wear-/-Dark-Cream" mask="url(#mask-4)" fill="#EA847A" fill-rule="nonzero">
                                <g transform="translate(0.000000, 23.104963)" id="Color">
                                    <rect x="0" y="0" width="450" height="155"></rect>
                                </g>
                            </g>
                        </g>
                        <g id="Leg-skin" transform="translate(28.062222, 343.009215)">
                            <mask id="mask-6" fill="white">
                                <use xlink:href="#path-5"></use>
                            </mask>
                            <use id="Mask" fill="#CF3E83" xlink:href="#path-5"></use>
                            <g id="Colors-/-Skin-/-Pink" mask="url(#mask-6)" fill="#CF3E83" fill-rule="nonzero">
                                <g transform="translate(-9.020000, 3.197574)" id="Color">
                                    <rect x="0" y="0" width="375" height="145"></rect>
                                </g>
                            </g>
                        </g>
                        <g id="Pants" transform="translate(27.000000, 0.000000)">
                            <mask id="mask-8" fill="white">
                                <use xlink:href="#path-7"></use>
                            </mask>
                            <use id="Mask" fill="#101016" xlink:href="#path-7"></use>
                            <g id="Colors-/-Wear-/-Black" mask="url(#mask-8)" fill="#19141E" fill-rule="nonzero">
                                <g transform="translate(-3.000000, 0.000000)" id="Color">
                                    <rect x="0" y="0" width="369" height="480"></rect>
                                </g>
                            </g>
                        </g>
                        <path d="M298.305277,449.423646 C272.822557,372.719405 182.631075,95.325155 174.134508,56.1010642 C166.109714,19.0529469 166.126752,1.34651494 166.126752,0.000598628454 L279.838885,0.000598628454 L377.491891,435.615199 L385.704922,434.183023 L392.849764,462.400373 L303.832386,480.166668 L292.987339,450.35098 L298.305277,449.423646 Z" id="Mask" fill-opacity="0.1" fill="#FFFFFF"></path>
                    </g>
                </g>
                <g id="Man-/-Body-/-5" transform="translate(186.000000, 212.000000)">
                    <g id="Group-36" transform="translate(17.000000, 20.876833)">
                        <g id="Skin-color" transform="translate(0.000000, 20.766168)">
                            <mask id="mask-10" fill="white">
                                <use xlink:href="#path-9"></use>
                            </mask>
                            <use id="Mask" fill="#E576C6" xlink:href="#path-9"></use>
                            <g id="Colors-/-Skin-/-Rose" mask="url(#mask-10)" fill="#E576C6" fill-rule="nonzero">
                                <g transform="translate(0.000000, 0.110665)" id="Color">
                                    <rect x="0" y="0" width="321" height="288"></rect>
                                </g>
                            </g>
                        </g>
                        <g id="T-Shirt" transform="translate(17.000000, 20.876833)">
                            <mask id="mask-12" fill="white">
                                <use xlink:href="#path-11"></use>
                            </mask>
                            <use id="Mask" fill="#5E93D1" xlink:href="#path-11"></use>
                            <g id="Colors-/-Wear-/-Dark-Cyan" mask="url(#mask-12)" fill="#1E9DBC" fill-rule="nonzero">
                                <rect id="Color" x="0" y="0" width="206" height="177"></rect>
                            </g>
                        </g>
                        <polyline id="Stroke-16" stroke="#000000" stroke-width="5" opacity="0.200520833" points="59.3058 116.895054 69.9728 124.113467 95.6138 94.3411152"></polyline>
                        <g id="Group-22" transform="translate(270.000000, 0.760513)">
                            <mask id="mask-14" fill="white">
                                <use xlink:href="#path-13"></use>
                            </mask>
                            <g id="Clip-21"></g>
                            <path d="M32.8337402,63.5072983 L30.9762,72.5965021 L0.8872,72.5965021 L15.0802,0.233422874 L45.1692,0.233422874 C44.3892632,4.20993452 42.5522842,13.5757805 39.6582632,28.3309609 L33.7416992,25.5964397 L31.8989258,25.0871174 L30.4483,25.1683144 L29.8194916,25.5964397 L29.8194916,27.3546217 L36.2513428,36.5790091 L31.3311941,38.7166661 L23.7609863,42.6768194 L21.5737305,44.1870778 L20.7262883,44.9696921 L20.0343,45.5878712 L19.5932617,46.1186751 L19.3284,46.5934126 L19.2145833,47.2098935 L19.3284,47.4826981 L19.4599915,47.6924895 L19.6513977,47.881954 L22.1326904,48.7561442 L27.7929688,47.2098935 L33.387207,47.2098935 L25.920166,48.7561442 L21,51.6917527 L19.3284,53.2632916 L18.3836,54.4180997 L18.3836,55.4746161 L20.0343,56.2153577 L30.4483,55.0232789 L27,56.8939878 L24.7148437,58.3070214 L22.6201172,59.3846481 L21,61.4690305 L21,62.4976301 L21.5737305,63.1017321 L23.0282,63.8730589 L25.2460937,63.8730589 L29.7142474,63.8730589 L32.8337402,63.5072983 Z" id="Fill-20" fill="#5E93D1" mask="url(#mask-14)"></path>
                        </g>
                        <g id="Group-25" transform="translate(265.000000, 0.760513)">
                            <mask id="mask-16" fill="white">
                                <use xlink:href="#path-15"></use>
                            </mask>
                            <g id="Clip-24"></g>
                            <polygon id="Fill-23" fill="#020101" mask="url(#mask-16)" points="5.8834 72.5965021 0.9044 72.5965021 15.0974 0.233422874 20.0754 0.233422874"></polygon>
                        </g>
                        <path d="M290.2574,9.39596657 C289.8414,11.5094974 288.6084,13.0494123 287.5034,12.833685 C286.3994,12.6189519 285.8404,10.7310897 286.2564,8.61755894 C286.6724,6.50303402 287.9054,4.9641132 289.0104,5.17884633 C290.1154,5.39457361 290.6734,7.28243578 290.2574,9.39596657" id="Fill-34" fill="#020101"></path>
                    </g>
                </g>
            </g>
            <g id="Background-Object-/-Flower-/-1" transform="translate(1267.000000, 696.000000)">
                <g id="Group-24" transform="translate(362.000000, 135.000000)">
                    <path d="M156.8544,55.3337 C156.8544,85.8937 138.2744,110.6667 115.3544,110.6667 C92.4344,110.6667 73.8544,85.8937 73.8544,55.3337 C73.8544,24.7737 92.4344,0.0007 115.3544,0.0007 C138.2744,0.0007 156.8544,24.7737 156.8544,55.3337" id="Fill-1" fill="#CCE3FF"></path>
                    <path d="M115.6645,345.9631 L115.6645,58.1471" id="Stroke-3" stroke="#DCEEFF" stroke-width="9"></path>
                    <path d="M70.9711,136.6169 C90.5681,156.2149 94.5401,184.0159 79.8421,198.7149 C65.1441,213.4119 37.3421,209.4409 17.7441,189.8439 C-1.8529,170.2459 -5.8239,142.4439 8.8731,127.7459 C23.5721,113.0479 51.3731,117.0199 70.9711,136.6169" id="Fill-5" fill="#CCE3FF"></path>
                    <path d="M210.9008,176.8811 C226.7038,192.6841 222.4338,222.5761 201.3628,243.6471 C180.2928,264.7171 150.4008,268.9871 134.5978,253.1841" id="Fill-8" fill="#CCE3FF"></path>
                    <path d="M189.6108,204.7185 L116.8928,277.6445" id="Stroke-10" stroke="#DCEEFF" stroke-width="9"></path>
                    <path d="M168.5986,134.9797 L115.4566,187.4967" id="Stroke-12" stroke="#DCEEFF" stroke-width="9"></path>
                    <path d="M60.2778,250.2575 L115.7948,306.3995" id="Stroke-14" stroke="#DCEEFF" stroke-width="9"></path>
                    <path d="M41.1411,160.3908 L115.3541,235.4878" id="Stroke-16" stroke="#DCEEFF" stroke-width="9"></path>
                    <path d="M137.9184,444.8088 L93.4114,444.8088 C59.2264,444.8088 31.2574,416.8398 31.2574,382.6548 L31.2574,324.1688 L200.0724,324.1688 L200.0724,382.6548 C200.0724,416.8398 172.1034,444.8088 137.9184,444.8088" id="Fill-18" fill="#ECF6FF"></path>
                    <path d="M200.0722,356.676 L31.2572,356.676" id="Stroke-20" stroke="#DCEEFF" stroke-width="9"></path>
                    <path d="M200.0722,389.2819 L31.2572,389.2819" id="Stroke-22" stroke="#DCEEFF" stroke-width="9"></path>
                </g>
            </g>
            <g id="Background-Object-/-Lamp" transform="translate(1449.000000, 588.000000)">
                <g id="Group-17" transform="translate(263.000000, 31.000000)">
                    <path d="M285.5502,183.9348 C285.5502,183.9348 289.5062,163.3308 303.0192,164.6508 C331.2102,167.4068 296.6812,257.9848 354.6912,263.8018 C412.6992,269.6178 418.7242,178.8818 418.7242,178.8818" id="Stroke-1" stroke="#CCE3FF" stroke-width="7"></path>
                    <path d="M287.6352,123.6199 L287.6352,653.3189" id="Stroke-3" stroke="#DCEEFF" stroke-width="15"></path>
                    <path d="M418.7241,178.8816 L72.5541,29.6646" id="Stroke-5" stroke="#DCEEFF" stroke-width="15"></path>
                    <path d="M220.9682,653.3191 L354.3022,653.3191 L354.3022,646.7551 C354.3022,638.2661 347.4202,631.3841 338.9312,631.3841 L236.3382,631.3841 C227.8502,631.3841 220.9682,638.2661 220.9682,646.7551 L220.9682,653.3191 Z" id="Fill-7" fill="#DCEEFF"></path>
                    <polygon id="Fill-10" fill="#B6D4FF" points="0.0004 105.7766 113.4424 130.4736 117.1104 98.7766 9.8414 75.4236"></polygon>
                    <path d="M50.7094,58.2908 L84.5304,65.6538 L94.1864,21.3058 C96.1164,12.4368 90.4914,3.6808 81.6224,1.7498 L79.9194,1.3788 C71.0504,-0.5522 62.2944,5.0728 60.3634,13.9428 L50.7094,58.2908 Z" id="Fill-12" fill="#B6D4FF"></path>
                    <polygon id="Fill-15" fill="#B6D4FF" points="117.1108 98.7766 83.4568 54.6436 58.7968 49.2746 9.8408 75.4236"></polygon>
                </g>
            </g>
            <g id="Background-Object-/-Pluteus-/-2" transform="translate(500.000000, 450.000000) scale(-1, 1) translate(-500.000000, -450.000000) translate(0.000000, 275.000000)">
                <g id="Group-21" transform="translate(254.000000, 101.000000)">
                    <path d="M460.5146,36.4915 C457.0356,65.6915 432.1816,88.3455 402.0406,88.3455 C371.8996,88.3455 347.0456,65.6915 343.5666,36.4915 L460.5146,36.4915 Z" id="Fill-1" fill="#ECF6FF"></path>
                    <g id="Group-5" transform="translate(117.000000, 0.924000)" fill="#ECF6FF">
                        <path d="M117.125,0.0758 C113.646,29.2758 88.792,51.9298 58.65,51.9298 C28.51,51.9298 3.656,29.2758 0.177,0.0758 L117.125,0.0758 Z" id="Fill-3"></path>
                    </g>
                    <path d="M234.125,36.4915 C230.646,65.6915 205.792,88.3455 175.65,88.3455 C145.51,88.3455 120.656,65.6915 117.177,36.4915 L234.125,36.4915 Z" id="Fill-6" fill="#ECF6FF"></path>
                    <polygon id="Fill-8" fill="#DCEEFF" points="270.8193 44.7151 318.5643 44.7151 305.7083 87.0051 283.6753 87.0051"></polygon>
                    <polygon id="Fill-10" fill="#DCEEFF" points="39.4346 44.7151 87.1796 44.7151 74.3236 87.0051 52.2906 87.0051"></polygon>
                    <polygon id="Fill-12" fill="#DCEEFF" points="270.8193 17.0994 318.5643 17.0994 305.7083 59.3904 283.6753 59.3904"></polygon>
                    <polygon id="Fill-14" fill="#DCEEFF" points="0 97.078 423.178 97.078 423.178 79.302 0 79.302"></polygon>
                    <polygon id="Fill-16" fill="#CCE3FF" points="423.178 97.078 492.795 97.078 492.795 79.302 423.178 79.302"></polygon>
                    <polygon id="Fill-17" fill="#B6D4FF" points="103.1406 97.0784 136.1876 148.9244 136.1876 97.0784"></polygon>
                    <polygon id="Fill-18" fill="#CCE3FF" points="84.8525 97.0784 117.8995 148.9244 136.1875 148.9244 103.1405 97.0784"></polygon>
                    <polygon id="Fill-19" fill="#B6D4FF" points="345.5176 97.0784 378.5646 148.9244 378.5646 97.0784"></polygon>
                    <polygon id="Fill-20" fill="#CCE3FF" points="327.2295 97.0784 360.2765 148.9244 378.5645 148.9244 345.5175 97.0784"></polygon>
                </g>
            </g>
            <g id="Background-Object-/-Picture-/-5" transform="translate(1489.000000, 275.000000)">
                <g id="Group-8" transform="translate(146.000000, 92.000000)">
                    <polygon id="Fill-1" fill="#DCEEFF" points="11.971 165.94 207.049 165.94 207.049 0.5 11.971 0.5"></polygon>
                    <polygon id="Stroke-2" stroke="#DCEEFF" stroke-width="5" points="11.971 165.94 207.049 165.94 207.049 0.5 11.971 0.5"></polygon>
                    <polygon id="Fill-4" fill="#FFFFFF" points="0.5 166.162 195.578 166.162 195.578 0.722 0.5 0.722"></polygon>
                    <polygon id="Stroke-5" stroke="#DCEEFF" stroke-width="5" points="0.5 166.162 195.578 166.162 195.578 0.722 0.5 0.722"></polygon>
                    <polygon id="Fill-7" fill="#DCEEFF" points="33.726 131.983 159.573 131.983 159.573 34.457 33.726 34.457"></polygon>
                </g>
            </g>
            <g id="Background-Object-/-Picture-/-1" transform="translate(1314.000000, 136.000000)">
                <g id="Group-8" transform="translate(183.000000, 122.000000)">
                    <polygon id="Fill-1" fill="#DCEEFF" points="7.865 105.747 133.12 105.747 133.12 0.499 7.865 0.499"></polygon>
                    <polygon id="Stroke-2" stroke="#DCEEFF" stroke-width="5" points="7.865 105.747 133.12 105.747 133.12 0.499 7.865 0.499"></polygon>
                    <polygon id="Fill-4" fill="#FFFFFF" points="0.5 105.889 125.754 105.889 125.754 0.641 0.5 0.641"></polygon>
                    <polygon id="Stroke-5" stroke="#DCEEFF" stroke-width="5" points="0.5 105.889 125.754 105.889 125.754 0.641 0.5 0.641"></polygon>
                    <polygon id="Fill-7" fill="#DCEEFF" points="21.833 84.145 102.636 84.145 102.636 22.102 21.833 22.102"></polygon>
                </g>
            </g>
            <g id="Person-/-Girl-/-4" transform="translate(1406.000000, 826.500000) scale(-1, 1) translate(-1406.000000, -826.500000) translate(1151.000000, 354.000000)">
                <g id="Girl-/-Head-/-4" transform="translate(96.000000, 20.000000)">
                    <g id="Group-21" transform="translate(35.000000, 6.000000)">
                        <g id="Hair-color" transform="translate(0.999500, -0.000300)">
                            <mask id="mask-18" fill="white">
                                <use xlink:href="#path-17"></use>
                            </mask>
                            <use id="Mask" fill="#EACB47" xlink:href="#path-17"></use>
                            <g id="Colors-/-Skin-/-Yellow" mask="url(#mask-18)" fill="#F6B852" fill-rule="nonzero">
                                <g transform="translate(0.000500, 0.000300)" id="Color">
                                    <rect x="0" y="0" width="215" height="215"></rect>
                                </g>
                            </g>
                        </g>
                        <path d="M127.1581,179.3401 C127.1581,179.3401 114.2271,179.7221 108.7161,176.7111 L126.4711,187.8591 L127.1581,179.3401 Z" id="Fill-4" fill="#CF3E83"></path>
                        <g id="Face-color" transform="translate(77.000000, 97.000000)">
                            <mask id="mask-20" fill="white">
                                <use xlink:href="#path-19"></use>
                            </mask>
                            <use id="Combined-Shape" fill="#5E93D1" xlink:href="#path-19"></use>
                            <g id="Colors-/-Skin-/-Violet" mask="url(#mask-20)" fill="#A47EF1" fill-rule="nonzero">
                                <g transform="translate(-2.000000, -27.000000)" id="Color">
                                    <rect x="0" y="0" width="101" height="143"></rect>
                                </g>
                            </g>
                        </g>
                        <polygon id="Fill-9" fill="#2437A8" points="155.2665 133.6589 162.6665 151.5989 154.0815 151.4269"></polygon>
                        <path d="M147.3885,134.4372 C147.2035,138.0212 145.0965,140.8132 142.6805,140.6742 C140.2645,140.5352 138.4555,137.5172 138.6395,133.9332 C138.8245,130.3492 140.9325,127.5562 143.3475,127.6952 C145.7635,127.8352 147.5735,130.8532 147.3885,134.4372" id="Fill-11" fill="#1D1D23"></path>
                        <path d="M170.0751,133.8645 C169.8901,137.4485 167.7831,140.2405 165.3671,140.1015 C162.9511,139.9625 161.1421,136.9445 161.3271,133.3605 C161.5121,129.7765 163.6191,126.9835 166.0351,127.1235 C168.4511,127.2625 170.2601,130.2805 170.0751,133.8645" id="Fill-13" fill="#1D1D23"></path>
                        <path d="M151.9755,160.0203 C151.9755,160.0203 146.3815,161.8253 140.7765,155.5933" id="Stroke-15" stroke="#24242B" stroke-width="3"></path>
                        <path d="M127.1366,179.3396 C127.1366,179.3396 114.2056,179.7216 108.6946,176.7116 L126.4496,187.8586 L127.1366,179.3396 Z" id="Fill-17" fill="#000000" opacity="0.399018787"></path>
                    </g>
                </g>
                <g id="Girl-/-Body-/-4" transform="translate(105.000000, 199.000000)">
                    <g id="Group-39" transform="translate(21.000000, 21.000000)">
                        <g id="Skin-color" transform="translate(0.950225, 0.542700)">
                            <mask id="mask-22" fill="white">
                                <use xlink:href="#path-21"></use>
                            </mask>
                            <use id="Mask" fill="#E576C6" xlink:href="#path-21"></use>
                            <g id="Colors-/-Skin-/-Violet" mask="url(#mask-22)" fill="#A47EF1" fill-rule="nonzero">
                                <g transform="translate(0.049775, 0.457300)" id="Color">
                                    <rect x="0" y="0" width="285" height="286"></rect>
                                </g>
                            </g>
                        </g>
                        <path d="M277.189584,42.5024069 C274.412117,40.9101116 271.769005,39.7184402 270.4736,40.0206 C268.207192,40.5492511 272.355327,46.4932493 275.381003,50.4070872 L275.346823,50.5564743 C270.463004,52.5214591 264.062945,55.4351689 263.034,57.5682 C262.315527,59.0576133 265.121954,59.544235 268.598942,59.6100235 C265.399386,61.1444441 262.607348,62.8030842 261.9579,64.1502 C261.125852,65.8750588 265.021214,66.2550258 269.210756,66.1939731 C265.510843,67.882156 262.0443,69.8007061 261.3104,71.3221 C260.37508,73.262186 265.420242,73.5008102 270.137602,73.3241747 L268.9251,78.6236 C268.5541,80.2486 267.0741,81.3766 265.4081,81.3036 L247.3061,80.5116 C245.1521,80.4176 243.6101,78.3946 244.0911,76.2926 L256.9171,20.2346 C257.2891,18.6096 258.7681,17.4816 260.4331,17.5546 L278.5361,18.3456 C280.6901,18.4406 282.2311,20.4636 281.7511,22.5656 L277.189584,42.5024069 L277.189584,42.5024069 Z" id="Path" fill="#020101"></path>
                        <g id="Phone-color" transform="translate(248.000000, 17.000000)">
                            <mask id="mask-24" fill="white">
                                <use xlink:href="#path-23"></use>
                            </mask>
                            <use id="Mask" fill="#5E93D1" xlink:href="#path-23"></use>
                            <g id="Colors-/-Wear-/-Lignt-Blue" mask="url(#mask-24)" fill="#5E93D1" fill-rule="nonzero">
                                <g transform="translate(0.000000, -1.000000)" id="Color">
                                    <rect x="0" y="0" width="38" height="68"></rect>
                                </g>
                            </g>
                        </g>
                        <path d="M265.7538,25.1634 C265.3318,27.0004 264.2488,28.3054 263.3338,28.0764 C262.4198,27.8474 262.0198,26.1724 262.4408,24.3354 C262.8628,22.4974 263.9468,21.1934 264.8608,21.4224 C265.7758,21.6514 266.1758,23.3264 265.7538,25.1634" id="Fill-20" fill="#020101"></path>
                        <path d="M263.6366,34.6703 C263.2146,36.5073 262.1316,37.8123 261.2166,37.5833 C260.3016,37.3543 259.9026,35.6793 260.3236,33.8423 C260.7456,32.0043 261.8286,30.7003 262.7436,30.9293 C263.6586,31.1583 264.0586,32.8333 263.6366,34.6703" id="Fill-22" fill="#020101"></path>
                        <g id="T-shirt-color" transform="translate(5.978900, 0.000000)">
                            <mask id="mask-26" fill="white">
                                <use xlink:href="#path-25"></use>
                            </mask>
                            <use id="Mask" fill="#5E93D1" xlink:href="#path-25"></use>
                            <g id="Colors-/-Wear-/-Cream" mask="url(#mask-26)" fill="#FCBDA4" fill-rule="nonzero">
                                <g transform="translate(0.021100, -3.000000)" id="Color">
                                    <rect x="0" y="0" width="200" height="153"></rect>
                                </g>
                            </g>
                        </g>
                        <path d="M163.2724,150.3885 C166.4804,109.6455 187.6854,100.0305 171.6854,54.3375" id="Stroke-31" stroke="#000000" stroke-width="3" opacity="0.20296224"></path>
                        <path d="M133.286,2.3187 C133.286,2.3187 141.34,8.0107 147.356,18.1887 C155.589,32.1127 151.285,44.1257 138.618,44.1457 C125.057,44.1687 109.493,39.5527 102.932,19.0127 C99.613,8.6227 96.478,0.5427 96.478,0.5427" id="Stroke-35" stroke="#000000" stroke-width="3" opacity="0.202055432"></path>
                        <path d="M88.5311,73.3378 L69.0441,102.8628" id="Stroke-37" stroke="#000000" stroke-width="3" opacity="0.20296224"></path>
                    </g>
                </g>
                <g id="Girl-/-Legs-/-4" transform="translate(7.000000, 316.000000)">
                    <g id="Group-19" transform="translate(111.000000, 52.000000)">
                        <g id="Shoes" transform="translate(-0.000098, 489.520253)">
                            <mask id="mask-28" fill="white">
                                <use xlink:href="#path-27"></use>
                            </mask>
                            <use id="Mask" fill="#0D0B6D" xlink:href="#path-27"></use>
                            <g id="Colors-/-Wear-/-Dark-Plum" mask="url(#mask-28)" fill="#0D0B6D" fill-rule="nonzero">
                                <g transform="translate(0.000098, 30.373189)" id="Color">
                                    <rect x="0" y="0" width="237" height="29"></rect>
                                </g>
                            </g>
                        </g>
                        <g id="Skin-color" transform="translate(30.139676, 487.070219)">
                            <mask id="mask-30" fill="white">
                                <use xlink:href="#path-29"></use>
                            </mask>
                            <use id="Mask" fill="#CF3E83" xlink:href="#path-29"></use>
                            <g id="Colors-/-Skin-/-Violet" mask="url(#mask-30)" fill="#A47EF1" fill-rule="nonzero">
                                <g transform="translate(0.098029, 25.019945)" id="Color">
                                    <rect x="0" y="0" width="148" height="9"></rect>
                                </g>
                            </g>
                        </g>
                        <g id="Pants" transform="translate(20.483607, 0.000000)">
                            <mask id="mask-32" fill="white">
                                <use xlink:href="#path-31"></use>
                            </mask>
                            <use id="Mask" fill="#2B2A38" xlink:href="#path-31"></use>
                            <g id="Colors-/-Wear-/-Dark-Grey" mask="url(#mask-32)" fill="#2F2F3D" fill-rule="nonzero">
                                <g transform="translate(-4.877049, 0.000000)" id="Color">
                                    <rect x="0" y="0" width="179" height="512"></rect>
                                </g>
                            </g>
                        </g>
                        <polygon id="Fill-17" fill="#0A0A0F" opacity="0.398065476" points="116.993094 152.029328 126.199988 73.7487869 123.73025 232.047074"></polygon>
                    </g>
                </g>
            </g>
        </g>
    </g>
</svg>