<?xml version="1.0" encoding="UTF-8"?>
<svg width="1208px" height="1038px" viewBox="0 0 1208 1038" version="1.1" xmlns="http://www.w3.org/2000/svg" xmlns:xlink="http://www.w3.org/1999/xlink">
    <!-- Generator: Sketch 53.2 (72643) - https://sketchapp.com -->
    <title>Illustration 10</title>
    <desc>Created with Sketch.</desc>
    <defs>
        <path d="M21.6325,65.0153079 C25.6945,71.5023079 24.0305,80.0493079 21.7155,85.0433079 C20.9335,86.7603079 15.8495,101.148308 15.1085,101.800308 C12.2265,104.327308 47.5025,119.703308 47.5025,119.703308 L49.8465,90.6603079 C60.0725,91.2503079 72.0745,90.7103079 78.6665,86.3263079 C98.3015,73.2663079 99.4635,27.9823079 99.1425,25.7183079 L82.6745,7.29530794 C82.6745,7.29530794 53.6535,-3.61969206 49.8735,1.25230794 C42.9605,10.1783079 30.9705,49.5583079 19.2585,45.0013079 C19.2585,45.0013079 20.7355,32.5853079 10.3725,32.6013079 C2.6515,32.6123079 0.5595,38.8063079 0.5655,42.3833079 C0.5835,54.4603079 16.1785,56.2763079 21.6325,65.0153079" id="path-1"></path>
        <path d="M219.6679,6.8336 C221.8189,1.7746 233.1209,0.3546 233.1209,0.3546 C233.1209,0.3546 251.1579,21.1166 252.7719,24.2876 C254.3859,27.4576 257.3709,43.1546 257.2289,46.2566 C257.0859,49.3576 247.7849,63.2926 247.7849,63.2926 C242.0139,61.8796 245.7829,54.6826 245.7829,54.6826 C245.7829,54.6826 240.6139,59.0536 238.4649,58.9796 C218.2249,58.2906 219.3089,48.0416 219.7879,46.7586 C220.8629,43.8766 226.2649,47.1726 226.2649,47.1726 C226.2649,47.1726 213.5149,21.3036 219.6679,6.8336 Z M37.7289,0.8595 L41.7329,25.7545 C41.7329,25.7545 41.7579,30.8715 41.0429,36.7485 C40.3289,42.6255 39.7449,46.1665 41.7199,55.6845 C43.0969,62.3165 34.4049,58.4365 32.6239,54.4985 C30.7879,50.4375 32.8479,35.9925 27.7819,37.7815 C22.7159,39.5715 17.9639,53.4945 15.7079,67.1545 C15.3539,69.3005 13.3739,70.6645 12.1099,71.0145 C10.0609,71.5815 9.4179,62.6615 9.4179,62.6615 C9.4179,62.6615 7.7619,65.3635 5.1689,63.4815 C4.2509,62.8155 2.5689,56.4595 2.5689,56.4595 C2.5689,56.4595 0.8829,53.1315 0.3929,49.7355 C-0.4711,43.7375 0.1989,33.1275 1.3439,30.2275 C4.1159,23.2035 9.4399,11.3485 14.0669,5.5765 C18.6449,-0.1345 26.6539,5.9755 37.7289,0.8595 Z" id="path-3"></path>
        <path d="M100.809258,20.791676 L103.6756,0 L147.3656,6.024 L144.983008,23.3023816 C157.808141,24.5408977 166.538942,27.0439576 174.7088,34.5449 C200.9488,58.6349 202.8788,148.8149 202.8788,148.8149 L230.6088,243.5649 L207.7888,246.4249 C207.7888,246.4249 169.5888,195.8049 161.1488,168.5849 L82.8988,168.5849 C82.8988,168.5849 83.6388,160.4949 81.7988,148.8049 C79.3788,133.5149 70.6888,122.1149 70.6888,122.1149 L54.9688,141.4549 L27.7288,237.9349 L2.6988,242.4249 C2.6988,242.4249 -4.8112,163.5549 10.3788,120.4849 C23.6588,82.8149 47.8888,41.9049 66.8088,29.9849 C78.8196128,22.414074 90.1020776,20.7539258 100.809258,20.791676 Z" id="path-5"></path>
        <path d="M31.3264,1.567 L55.6614,0.347 L58.2624,31.066 L0.2424,31.066 C12.9424,6.089 31.3264,1.567 31.3264,1.567 Z M170.5217,1.4899 C170.5217,1.4899 216.3237,13.4969 233.5417,31.3539 L151.1147,31.5019 L153.3567,0.9629 L170.5217,1.4899 Z" id="path-7"></path>
        <path d="M39.157651,305.02023 C34.1785861,310.23968 24.5793285,317.796171 10.5576,318.0741 C-2.20609993,318.32758 21.1235105,302.313866 25.1772814,299.592646 L0.9426,29.501 L64.6196,0 L44.8726,306.068 L39.157651,305.02023 L39.157651,305.02023 Z M168.506074,302.732863 L201.3357,316.9812 C181.216411,319.183727 161.012319,310.773854 150.590985,305.4593 L144.0866,305.4593 L84.1926,39.6123 L138.9626,37.0553 C138.9626,37.0553 144.7046,97.0933 151.2996,162.6893 C158.651622,235.802875 166.62158,290.225442 168.506074,302.732863 Z" id="path-9"></path>
        <path d="M57.3,-2.84217094e-14 C57.3,-2.84217094e-14 40.327,8.116 25.558,52.166 C5.791,111.124 -7.531753e-13,289.705 -7.531753e-13,289.705 L190.332,289.705 L141.283,1.28 L57.3,-2.84217094e-14 Z" id="path-11"></path>
    </defs>
    <g id="Scene" stroke="none" stroke-width="1" fill="none" fill-rule="evenodd">
        <g id="Illustration-10" transform="translate(-343.000000, -175.000000)">
            <g id="Background-Object-/-Table-/-2" transform="translate(408.000000, 453.000000)">
                <g id="Group-36" transform="translate(170.000000, 97.000000)">
                    <path d="M162.3041,156.9291 L116.3901,59.6121" id="Stroke-1" stroke="#CCE3FF" stroke-width="12"></path>
                    <path d="M213.2675,4.2084 L116.3905,59.6114" id="Stroke-2" stroke="#CCE3FF" stroke-width="12"></path>
                    <path d="M212.1405,5.4047 L251.6575,5.4047" id="Stroke-4" stroke="#CCE3FF" stroke-width="12"></path>
                    <path d="M132.7607,165.7797 L218.9207,165.7797 C218.9207,157.9427 212.5677,151.5897 204.7307,151.5897 L146.9507,151.5897 C139.1137,151.5897 132.7607,157.9427 132.7607,165.7797" id="Fill-6" fill="#DCEEFF"></path>
                    <path d="M287.9599,37.8549 C287.9599,17.8059 271.7069,1.5529 251.6579,1.5529 C231.6079,1.5529 215.3549,17.8059 215.3549,37.8549" id="Fill-8" fill="#DCEEFF"></path>
                    <polygon id="Fill-10" fill="#B6D4FF" points="32.8852 522.8969 41.0222 522.8969 91.0222 189.7869 62.8852 189.7869"></polygon>
                    <polygon id="Fill-12" fill="#B6D4FF" points="175.332 522.8969 183.469 522.8969 233.469 189.7869 205.332 189.7869"></polygon>
                    <polygon id="Fill-14" fill="#DCEEFF" points="374.9223 63.7992 496.5633 63.7992 468.0213 157.8952 346.3813 157.8952"></polygon>
                    <polygon id="Fill-16" fill="#FFFFFF" points="488.0004 69.852 463.6344 150.195 354.7804 150.195 379.1464 69.852"></polygon>
                    <polygon id="Fill-18" fill="#B6D4FF" points="468.1323 94.5805 466.9713 98.4215 377.6193 98.4215 378.7793 94.5805"></polygon>
                    <polygon id="Fill-20" fill="#B6D4FF" points="462.4321 102.4057 461.2711 106.2467 374.8441 106.2467 376.0041 102.4057"></polygon>
                    <polygon id="Fill-22" fill="#B6D4FF" points="435.3559 110.2309 434.1959 114.0729 372.1439 114.0729 373.3039 110.2309"></polygon>
                    <polygon id="Fill-24" fill="#DCEEFF" points="257.436 165.633 379.076 165.633 379.076 157.895 257.436 157.895"></polygon>
                    <polygon id="Fill-26" fill="#ECF6FF" points="379.076 165.633 467.978 165.633 467.978 157.895 379.076 157.895"></polygon>
                    <polygon id="Fill-27" fill="#ECF6FF" points="496.4623 63.7992 503.9373 63.7992 475.3963 157.8952 467.9213 157.8952"></polygon>
                    <polygon id="Fill-28" fill="#B6D4FF" points="0 189.787 459.5 189.787 459.5 165.634 0 165.634"></polygon>
                    <polygon id="Fill-29" fill="#DCEEFF" points="426.269 189.787 605.539 189.787 605.539 165.634 426.269 165.634"></polygon>
                    <polygon id="Fill-30" fill="#DCEEFF" points="582.7885 522.8969 590.9255 522.8969 560.9255 189.7869 532.7885 189.7869"></polygon>
                    <polygon id="Fill-31" fill="#DCEEFF" points="439.7924 522.8969 447.9294 522.8969 417.9294 189.7869 389.7924 189.7869"></polygon>
                    <polygon id="Fill-32" fill="#B6D4FF" points="472.5942 79.4008 471.4342 83.2428 382.0812 83.2428 383.2412 79.4008"></polygon>
                    <polygon id="Fill-33" fill="#B6D4FF" points="460.7036 87.226 459.5436 91.068 379.9406 91.068 381.1016 87.226"></polygon>
                    <polygon id="Fill-34" fill="#B6D4FF" points="442.1088 68.8432 426.9058 70.6842 425.6878 68.7722 426.4898 67.0282 425.3328 65.6402 439.5358 63.7992 441.6808 65.0802 439.8848 66.8752"></polygon>
                </g>
            </g>
            <g id="Background-Object-/-Chair-/-2" transform="translate(0.000000, 480.000000)">
                <g id="Group-14" transform="translate(343.000000, 123.000000)">
                    <path d="M259.6459,231.9397 L259.6459,233.5997 C259.6459,247.4497 248.9009,258.6687 235.6579,258.6687 L47.7539,258.6687 C18.7699,258.6687 -3.5351,230.8597 0.4649,199.6997 L21.6789,26.0797 C23.5159,11.6997 34.8359,0.9997 48.2129,0.9997 L103.9039,0.9997 C117.2719,0.9997 128.5909,11.6997 130.4389,26.0797 L151.6529,199.6997 C151.8149,200.9397 151.9299,202.1797 151.9979,203.4097 L152.1119,203.3897 C152.1119,203.3897 156.0359,231.9397 192.5109,231.9397 L259.6459,231.9397 Z" id="Fill-1" fill="#DCEEFF"></path>
                    <path d="M59.6068,454.2415 C59.6068,463.0965 52.4268,470.2755 43.5718,470.2755 C34.7158,470.2755 27.5378,463.0965 27.5378,454.2415 C27.5378,445.3865 34.7158,438.2065 43.5718,438.2065 C52.4268,438.2065 59.6068,445.3865 59.6068,454.2415" id="Fill-4" fill="#B6D4FF"></path>
                    <path d="M205.9232,457.4563 L47.4622,457.4563 C41.3932,457.4563 36.4272,452.4903 36.4272,446.4213 C36.4272,440.3523 41.3932,435.3853 47.4622,435.3853 L205.9232,435.3853 C211.9922,435.3853 216.9582,440.3523 216.9582,446.4213 C216.9582,452.4903 211.9922,457.4563 205.9232,457.4563" id="Fill-6" fill="#CCE3FF"></path>
                    <polygon id="Fill-8" fill="#CCE3FF" points="118.562 452.208 134.824 452.208 134.824 258 118.562 258"></polygon>
                    <polygon id="Fill-10" fill="#CCE3FF" points="182.4135 258.0003 126.6925 283.3763 70.9725 258.0003"></polygon>
                    <path d="M127.9252,457.4563 L107.3632,457.4563 C101.2932,457.4563 96.3272,452.4903 96.3272,446.4213 C96.3272,440.3523 101.2932,435.3853 107.3632,435.3853 L127.9252,435.3853 C133.9942,435.3853 138.9602,440.3523 138.9602,446.4213 C138.9602,452.4903 133.9942,457.4563 127.9252,457.4563" id="Fill-11" fill="#B6D4FF"></path>
                    <path d="M114.4369,454.2415 C114.4369,463.0965 107.2579,470.2755 98.4029,470.2755 C89.5459,470.2755 82.3679,463.0965 82.3679,454.2415 C82.3679,445.3865 89.5459,438.2065 98.4029,438.2065 C107.2579,438.2065 114.4369,445.3865 114.4369,454.2415" id="Fill-12" fill="#B6D4FF"></path>
                    <path d="M226.9096,454.2415 C226.9096,463.0965 219.7306,470.2755 210.8746,470.2755 C202.0186,470.2755 194.8406,463.0965 194.8406,454.2415 C194.8406,445.3865 202.0186,438.2065 210.8746,438.2065 C219.7306,438.2065 226.9096,445.3865 226.9096,454.2415" id="Fill-13" fill="#B6D4FF"></path>
                </g>
            </g>
            <g id="Background-Object-/-Closet-/-1" transform="translate(907.000000, 0.000000)">
                <g id="Group-36" transform="translate(302.000000, 174.000000)">
                    <polygon id="Fill-1" fill="#DCEEFF" points="0 900.576 26.534 900.576 26.534 814.374 0 814.374"></polygon>
                    <polygon id="Fill-2" fill="#DCEEFF" points="221.017 900.576 247.551 900.576 247.551 814.374 221.017 814.374"></polygon>
                    <polygon id="Fill-3" fill="#B6D4FF" points="94.112 900.576 120.645 900.576 120.645 814.374 94.112 814.374"></polygon>
                    <polygon id="Fill-4" fill="#B6D4FF" points="315.128 900.576 341.662 900.576 341.662 814.374 315.128 814.374"></polygon>
                    <polygon id="Fill-5" fill="#B6D4FF" points="93.959 829.669 341.508 829.669 341.508 97.411 93.959 97.411"></polygon>
                    <polygon id="Fill-6" fill="#DCEEFF" points="0.499 829.669 248.05 829.669 248.05 97.411 0.499 97.411"></polygon>
                    <path d="M168.9657,47.6177 C168.9657,68.6577 157.8507,87.1177 141.1787,97.4107 L79.9747,97.4107 C63.3017,87.1177 52.1867,68.6577 52.1867,47.6177 C52.1867,37.8267 54.5957,28.6087 58.8417,20.5137 L162.3117,20.5137 C166.5567,28.6087 168.9657,37.8267 168.9657,47.6177" id="Fill-7" fill="#DCEEFF"></path>
                    <polygon id="Fill-9" fill="#DCEEFF" points="184.488 97.398 209.723 97.398 209.723 1 184.488 1"></polygon>
                    <polygon id="Fill-11" fill="#CCE3FF" points="159.252 97.398 184.487 97.398 184.487 1 159.252 1"></polygon>
                    <polygon id="Fill-12" fill="#CCE3FF" points="209.723 97.398 234.958 97.398 234.958 1 209.723 1"></polygon>
                    <path d="M302.748,97.398 L234.958,97.398 L234.958,1 L302.748,1 C305.58,1 307.876,3.295 307.876,6.128 L307.876,92.27 C307.876,95.102 305.58,97.398 302.748,97.398" id="Fill-13" fill="#B6D4FF"></path>
                    <polygon id="Fill-14" fill="#CCE3FF" points="257.197 39.314 285.638 39.314 285.638 29.769 257.197 29.769"></polygon>
                    <polygon id="Fill-15" fill="#CCE3FF" points="22.659 805.54 225.985 805.54 225.985 594.779 22.659 594.779"></polygon>
                    <polygon id="Fill-16" fill="#B6D4FF" points="22.66 805.54 92.807 805.54 92.807 594.779 22.66 594.779"></polygon>
                    <polygon id="Fill-17" fill="#CCE3FF" points="22.659 568.624 225.985 568.624 225.985 357.864 22.659 357.864"></polygon>
                    <polygon id="Fill-18" fill="#B6D4FF" points="22.66 568.624 92.807 568.624 92.807 357.864 22.66 357.864"></polygon>
                    <polygon id="Fill-19" fill="#CCE3FF" points="22.659 331.708 225.985 331.708 225.985 120.948 22.659 120.948"></polygon>
                    <polygon id="Fill-20" fill="#B6D4FF" points="22.66 331.708 92.807 331.708 92.807 120.948 22.66 120.948"></polygon>
                    <polygon id="Fill-21" fill="#DCEEFF" points="71.343 805.54 91.467 805.54 91.467 728.666 71.343 728.666"></polygon>
                    <polygon id="Fill-22" fill="#CCE3FF" points="51.219 805.54 71.343 805.54 71.343 728.666 51.219 728.666"></polygon>
                    <polygon id="Fill-23" fill="#CCE3FF" points="91.467 805.54 111.591 805.54 111.591 728.666 91.467 728.666"></polygon>
                    <path d="M164.6112,805.5396 L111.5902,805.5396 L111.5902,728.6656 L164.6112,728.6656 C167.4442,728.6656 169.7402,730.9616 169.7402,733.7936 L169.7402,800.4106 C169.7402,803.2436 167.4442,805.5396 164.6112,805.5396" id="Fill-24" fill="#B6D4FF"></path>
                    <polygon id="Fill-25" fill="#CCE3FF" points="120.208 747.476 161.123 747.476 161.123 739.865 120.208 739.865"></polygon>
                    <polygon id="Fill-26" fill="#CCE3FF" points="129.325 759.219 152.006 759.219 152.006 751.608 129.325 751.608"></polygon>
                    <path d="M141.7811,299.0679 C140.2211,312.1779 133.5811,323.7379 123.8821,331.7079 L60.4511,331.7079 C50.7521,323.7379 44.1111,312.1779 42.5421,299.0679 L141.7811,299.0679 Z" id="Fill-27" fill="#DCEEFF"></path>
                    <path d="M141.7811,271.8199 C138.8291,296.5969 117.7391,315.8199 92.1631,315.8199 C66.5861,315.8199 45.4971,296.5969 42.5441,271.8199 L141.7811,271.8199 Z" id="Fill-28" fill="#DCEEFF"></path>
                    <path d="M141.7811,244.6119 C140.2211,257.7219 133.5811,269.2819 123.8821,277.2519 L60.4511,277.2519 C50.7521,269.2819 44.1111,257.7219 42.5421,244.6119 L141.7811,244.6119 Z" id="Fill-29" fill="#DCEEFF"></path>
                    <path d="M141.7811,217.3629 C138.8291,242.1409 117.7391,261.3639 92.1631,261.3639 C66.5861,261.3639 45.4971,242.1409 42.5441,217.3629 L141.7811,217.3629 Z" id="Fill-30" fill="#DCEEFF"></path>
                    <path d="M109.1054,517.9938 C109.1054,537.2888 107.0484,554.9368 103.6184,568.6238 L67.6744,568.6238 C64.2514,554.9368 62.1864,537.2888 62.1864,517.9938" id="Fill-31" fill="#ECF6FF"></path>
                    <path d="M107.327,526.4723 C115.477,528.0813 120.78,535.9933 119.171,544.1433 C117.561,552.2933 109.65,557.5963 101.5,555.9873" id="Stroke-32" stroke="#ECF6FF" stroke-width="8"></path>
                    <path d="M181.1054,517.9938 C181.1054,537.2888 179.0484,554.9368 175.6184,568.6238 L139.6744,568.6238 C136.2514,554.9368 134.1864,537.2888 134.1864,517.9938" id="Fill-33" fill="#ECF6FF"></path>
                    <path d="M171.535,526.4723 C179.685,528.0813 184.988,535.9933 183.379,544.1433 C181.769,552.2933 173.858,557.5963 165.708,555.9873" id="Stroke-34" stroke="#ECF6FF" stroke-width="8"></path>
                </g>
            </g>
            <g id="Background-Object-/-Pluteus-/-4" transform="translate(632.000000, 222.000000) scale(-1, 1) translate(-632.000000, -222.000000) translate(132.000000, 47.000000)">
                <g id="Group-7" transform="translate(254.000000, 140.000000)">
                    <polygon id="Fill-1" fill="#DCEEFF" points="0 17.7762 423.177 17.7762 423.177 0.0002 0 0.0002"></polygon>
                    <polygon id="Fill-2" fill="#CCE3FF" points="423.177 17.7762 492.795 17.7762 492.795 0.0002 423.177 0.0002"></polygon>
                    <polygon id="Fill-3" fill="#B6D4FF" points="103.1409 17.7759 136.1869 69.6219 136.1869 17.7759"></polygon>
                    <polygon id="Fill-4" fill="#CCE3FF" points="84.8529 17.7759 117.8989 69.6219 136.1869 69.6219 103.1409 17.7759"></polygon>
                    <polygon id="Fill-5" fill="#B6D4FF" points="345.5172 17.7759 378.5642 69.6219 378.5642 17.7759"></polygon>
                    <polygon id="Fill-6" fill="#CCE3FF" points="327.2292 17.7759 360.2762 69.6219 378.5642 69.6219 345.5172 17.7759"></polygon>
                </g>
            </g>
            <g id="Person-/-Girl-/-5" transform="translate(620.000000, 289.000000)">
                <g id="Girl-/-Head-/-5" transform="translate(73.000000, 0.000000)">
                    <g id="Group-31" transform="translate(-3.000000, 47.000000)">
                        <path d="M224.6989,64.1168 C224.6989,99.5278 193.0849,128.2338 154.0869,128.2338 C115.0889,128.2338 83.4749,99.5278 83.4749,64.1168 C83.4749,28.7058 115.0889,-0.0002 154.0869,-0.0002 C193.0849,-0.0002 224.6989,28.7058 224.6989,64.1168" id="Fill-1" fill="#FCBDA4"></path>
                        <path d="M98.9626,222.754 L46.9076,215.41 C17.2136,211.221 -3.6544,183.499 0.5356,153.805 C4.7246,124.111 32.4466,103.243 62.1406,107.432 L114.1956,114.776 C143.8896,118.965 164.7566,146.688 160.5676,176.381 C156.3786,206.075 128.6566,226.943 98.9626,222.754" id="Fill-4" fill="#FCBDA4"></path>
                        <path d="M107.0597,133.0587 L63.9397,126.9757 C42.6777,123.9757 27.7357,104.1247 30.7357,82.8627 C33.7347,61.6007 53.5857,46.6587 74.8477,49.6587 L117.9667,55.7417 C139.2287,58.7407 154.1717,78.5917 151.1717,99.8537 C148.1727,121.1167 128.3217,136.0587 107.0597,133.0587" id="Fill-7" fill="#FCBDA4"></path>
                        <path d="M93.4904,73.8766 L93.4904,73.8766 C74.6114,71.2126 61.3434,53.5866 64.0064,34.7076 L64.0074,34.7076 C66.6704,15.8286 84.2964,2.5606 103.1754,5.2246 C122.0544,7.8876 135.3234,25.5136 132.6594,44.3936 C129.9954,63.2726 112.3694,76.5406 93.4904,73.8766" id="Fill-9" fill="#FCBDA4"></path>
                        <path d="M164.8463,140.8947 C164.8463,140.8947 151.9163,141.2767 146.4043,138.2667 L164.1593,149.4137 L164.8463,140.8947 Z" id="Fill-11" fill="#CF3E83"></path>
                        <g id="Face-color" transform="translate(115.000000, 50.234792)">
                            <mask id="mask-2" fill="white">
                                <use xlink:href="#path-1"></use>
                            </mask>
                            <use id="Mask" fill="#ED4848" xlink:href="#path-1"></use>
                            <g id="Colors-/-Skin-/-Pink" mask="url(#mask-2)" fill="#CF3E83" fill-rule="nonzero">
                                <g transform="translate(-2.000000, 13.765208)" id="Color">
                                    <rect x="0" y="0" width="107" height="109"></rect>
                                </g>
                            </g>
                        </g>
                        <polygon id="Fill-15" fill="#405FD3" points="192.9557 95.214 200.3557 113.154 191.7707 112.982"></polygon>
                        <path d="M185.0773,95.9918 C184.8923,99.5758 182.7853,102.3678 180.3693,102.2288 C177.9533,102.0898 176.1443,99.0718 176.3283,95.4878 C176.5133,91.9038 178.6203,89.1118 181.0363,89.2508 C183.4523,89.3898 185.2613,92.4088 185.0773,95.9918" id="Fill-17" fill="#0D0B6D"></path>
                        <path d="M207.7643,95.4196 C207.5793,99.0036 205.4723,101.7956 203.0563,101.6566 C200.6403,101.5176 198.8313,98.4996 199.0153,94.9156 C199.2003,91.3316 201.3073,88.5386 203.7233,88.6776 C206.1393,88.8166 207.9483,91.8356 207.7643,95.4196" id="Fill-19" fill="#0D0B6D"></path>
                        <path d="M189.6642,121.5748 C189.6642,121.5748 184.0702,123.3808 178.4652,117.1478" id="Stroke-21" stroke="#1C295E" stroke-width="3"></path>
                        <path d="M164.8253,140.8947 C164.8253,140.8947 151.8943,141.2767 146.3833,138.2657 L164.1383,149.4127 L164.8253,140.8947 Z" id="Fill-23" fill="#000000" opacity="0.401762463"></path>
                        <path d="M167.6315,52.0475 C169.0955,56.8845 171.4065,61.2615 174.3665,65.0725 C174.7495,65.5425 175.1375,66.0335 175.5545,66.4925 C178.2455,69.6205 181.3885,72.3235 184.8615,74.5335 C194.2275,80.4775 206.0365,82.8515 217.8845,80.4695 C218.4905,80.3455 219.0825,80.2145 219.6795,80.0575 L215.2225,65.3395 L215.2105,65.3425 C215.0825,64.8805 214.9465,64.4315 214.8085,63.9715 C209.3075,45.8065 197.5965,31.1225 182.4675,21.3325 C179.6545,19.5075 176.7195,17.8645 173.6845,16.3945 C169.5685,22.2395 166.9495,28.9825 166.1655,36.0295 C165.5725,41.2865 166.0145,46.7075 167.6315,52.0475" id="Fill-25" fill="#FCBDA4"></path>
                        <path d="M134.2585,95.1876 C134.2585,95.1876 168.6615,100.6666 180.7025,57.4366 C193.1585,12.7176 115.5655,42.5996 115.5655,42.5996 L138.7855,70.3946 L134.2585,95.1876 Z" id="Fill-27" fill="#FCBDA4"></path>
                        <path d="M146.3893,131.504 C146.3893,143.529 136.6403,153.278 124.6153,153.278 C112.5893,153.278 102.8413,143.529 102.8413,131.504 C102.8413,119.479 112.5893,109.73 124.6153,109.73 C136.6403,109.73 146.3893,119.479 146.3893,131.504" id="Fill-29" fill="#FCBDA4"></path>
                    </g>
                </g>
                <g id="Girl-/-Body-/-7" transform="translate(82.000000, 179.000000)">
                    <g id="Group-21" transform="translate(6.000000, 9.000000)">
                        <path d="M220.9442,249.9679 C220.9442,249.9679 182.1112,187.9069 180.1732,172.5149 C178.1202,156.2049 179.9622,135.1459 179.9622,135.1459 L206.1852,119.5349 L212.8202,158.3539 L241.1172,247.1659" id="Fill-1" fill="#E576C6"></path>
                        <g id="Skin-color" transform="translate(0.000000, 235.000000)">
                            <mask id="mask-4" fill="white">
                                <use xlink:href="#path-3"></use>
                            </mask>
                            <use id="Mask" fill="#E576C6" xlink:href="#path-3"></use>
                            <g id="Colors-/-Skin-/-Pink" mask="url(#mask-4)" fill="#CF3E83" fill-rule="nonzero">
                                <g transform="translate(-2.000000, 0.000000)" id="Color">
                                    <rect x="0" y="0" width="259" height="71"></rect>
                                </g>
                            </g>
                        </g>
                        <path d="M230.3983,254.0479 C230.3983,254.0479 233.2383,264.7769 242.9853,268.1199 C246.3943,269.2889 245.5423,283.0879 253.8963,281.4379" id="Stroke-5" stroke="#000000" stroke-width="3" opacity="0.152413504"></path>
                        <path d="M12.6991,237.9814 C12.6991,237.9814 11.4701,153.472999 17.1851,139.556897 C22.9001,125.639855 33.2431,106.9814 33.2431,106.9814 L63.9201,126.24956 L47.4661,151.281257 L36.1251,236.657712" id="Fill-10" fill="#E576C6"></path>
                        <g id="Sweater-color" transform="translate(10.000000, -0.000300)">
                            <mask id="mask-6" fill="white">
                                <use xlink:href="#path-5"></use>
                            </mask>
                            <use id="Mask" fill="#C83820" xlink:href="#path-5"></use>
                            <g id="Colors-/-Wear-/-Yellow" mask="url(#mask-6)" fill="#F6B852" fill-rule="nonzero">
                                <g transform="translate(-2.000000, 0.000300)" id="Color">
                                    <rect x="0" y="0" width="234" height="246"></rect>
                                </g>
                            </g>
                        </g>
                        <path d="M178.9135,169.6349 C182.1215,128.8919 204.3265,120.2769 188.3265,74.5849" id="Stroke-14" stroke="#000000" stroke-width="3" opacity="0.195893787"></path>
                        <path d="M100.1727,92.5846 L80.6857,122.1096" id="Stroke-19" stroke="#000000" stroke-width="3" opacity="0.195893787"></path>
                    </g>
                </g>
                <g id="Girl-/-Legs-/-5" transform="translate(-16.000000, 296.000000)">
                    <g id="Group-17" transform="translate(142.000000, 51.000000)">
                        <g id="Shoes" transform="translate(23.000000, 545.000000)">
                            <mask id="mask-8" fill="white">
                                <use xlink:href="#path-7"></use>
                            </mask>
                            <use id="Mask" fill="#0D0B6D" xlink:href="#path-7"></use>
                            <g id="Colors-/-Wear-/-Dark-Plum" mask="url(#mask-8)" fill="#0D0B6D" fill-rule="nonzero">
                                <g transform="translate(-5.000000, -2.000000)" id="Color">
                                    <rect x="0" y="0" width="239" height="34"></rect>
                                </g>
                            </g>
                        </g>
                        <g id="Skin-color" transform="translate(33.000000, 244.553300)">
                            <mask id="mask-10" fill="white">
                                <use xlink:href="#path-9"></use>
                            </mask>
                            <use id="Mask" fill="#E576C6" xlink:href="#path-9"></use>
                            <g id="Colors-/-Skin-/-Pink" mask="url(#mask-10)" fill="#CF3E83" fill-rule="nonzero">
                                <g transform="translate(-10.000000, 45.446700)" id="Color">
                                    <rect x="0" y="0" width="211" height="273"></rect>
                                </g>
                            </g>
                        </g>
                        <g id="Skirt-color" transform="translate(0.000000, -0.000400)">
                            <mask id="mask-12" fill="white">
                                <use xlink:href="#path-11"></use>
                            </mask>
                            <use id="Mask" fill="#2F2F3D" xlink:href="#path-11"></use>
                            <g id="Colors-/-Wear-/-Blue" mask="url(#mask-12)" fill="#2437A8" fill-rule="nonzero">
                                <g transform="translate(0.000000, 0.000400)" id="Color">
                                    <rect x="0" y="0" width="190" height="295"></rect>
                                </g>
                            </g>
                        </g>
                    </g>
                </g>
            </g>
        </g>
    </g>
</svg>