<svg xmlns="http://www.w3.org/2000/svg" width="804.739" height="610.284" viewBox="0 0 804.739 610.284"><g id="Group_42" data-name="Group 42" transform="translate(-194 -123)"><ellipse id="Ellipse_218" cx="76.325" cy="17.583" fill="#e6e6e6" data-name="Ellipse 218" rx="76.325" ry="17.583" transform="translate(835.095 698.117)"/><path id="Path_1092" fill="#a0616a" d="M708.42,143.137v23l12,30,19-34v-26Z" data-name="Path 1092" transform="translate(202 123)"/><path id="Path_1093" fill="#a0616a" d="M856.55,466.495l-3,22s-7,24,3,24,10-26,10-26l2-15Z" data-name="Path 1093" transform="translate(0.369 -21.858)"/><path id="Path_1094" fill="#a0616a" d="M977.55,463.495l-3,22s-7,24,3,24,10-26,10-26l2-15Z" data-name="Path 1094" transform="translate(0.369 -21.858)"/><path id="Path_1095" fill="#2f2e41" d="M885.05,440.995l-4.706,1.3s-12.294,79.7-13.294,121.7-3,148-3,148h32l21-180,10,180h34s14-236,5-255S885.05,440.995,885.05,440.995Z" data-name="Path 1095" transform="translate(0.369 -21.858)"/><path id="Path_1096" fill="#2f2e41" d="M866.05,709.995l-9,14s-25,21-3,20,31-11,31-11v3l12-4-2-22Z" data-name="Path 1096" transform="translate(0.369 -21.858)"/><path id="Path_1097" fill="#2f2e41" d="M958.05,709.995l9,14s25,21,3,20-31-11-31-11v3l-12-4,2-22Z" data-name="Path 1097" transform="translate(0.369 -21.858)"/><circle id="Ellipse_219" cx="22" cy="22" r="22" fill="#a0616a" data-name="Ellipse 219" transform="translate(900.92 227.636)"/><path id="Path_1098" fill="#575a89" d="M719.42,181.137l-11-22.524-5,11.524-2,99,46-103-8-8.847Z" data-name="Path 1098" transform="translate(202 123)"/><path id="Path_1099" fill="#d1d1d1" d="M982.05,330.995l-36.464-23.83s-2.536,22.83-25.536,20.83S907.8,308.653,907.8,308.653L871.05,328.995l14,78-6,45s54-6,66,3a51.277,51.277,0,0,0,24,10l-2-77Z" data-name="Path 1099" transform="translate(0.369 -21.858)"/><path id="Path_1100" fill="#d1d1d1" d="M971.05,334.995l6.918-6.668,5.082,3.668s5,6,9,24,2,98,2,98l-22-3,1-33-9-44Z" data-name="Path 1100" transform="translate(0.369 -21.858)"/><path id="Path_1101" fill="#d1d1d1" d="M878.05,327.995l-3.778-.784-3.222,1.784s-9,12-9,23-9,105-9,105l20,9,14-71Z" data-name="Path 1101" transform="translate(0.369 -21.858)"/><path id="Path_1102" fill="#575a89" d="M997.05,455.995s-20-12-27-4,4,16,4,16S1005.05,479.995,997.05,455.995Z" data-name="Path 1102" transform="translate(0.369 -21.858)"/><path id="Path_1103" fill="#575a89" d="M875.05,461.995s-20-12-27-4,4,16,4,16S883.05,485.995,875.05,461.995Z" data-name="Path 1103" transform="translate(0.369 -21.858)"/><path id="Path_1104" fill="#2f2e41" d="M941.817,255.364s5.754-11-6.905-12c0,0-11.508-7-20.715,1,0,0-8.056-2-10.358,4,0,0-1.151-3,2.3-5,0,0-8.056-2-8.056,8,0,0-3.453,10,0,19s4.6,10,4.6,10-5.674-18.869,8.137-19.869,29.266-9.631,30.417,1.369,3.453,14,3.453,14S955.052,259.864,941.817,255.364Z" data-name="Path 1104" transform="translate(0.369 -21.858)"/><path id="Path_1105" fill="#3f3b56" d="M462.071,669.478h-.137c-5.113,0-10.289-.152-15.382-.453l.076-1.286c5.069.3,10.219.451,15.307.451h.137Zm15.524-.47-.077-1.286c5.123-.307,10.3-.774,15.387-1.388l.155,1.279C487.947,668.231,482.744,668.7,477.6,669.009Zm-46.51-1.362c-5.12-.612-10.287-1.388-15.356-2.307l.23-1.269c5.043.914,10.184,1.687,15.279,2.3Zm77.328-2.358-.232-1.269c5.046-.92,10.129-2.009,15.107-3.234l.308,1.251c-5,1.231-10.112,2.325-15.184,3.251ZM400.541,662.1c-5.007-1.226-10.042-2.623-14.964-4.151l.383-1.231c4.9,1.521,9.907,2.91,14.889,4.131Zm138.015-4.234-.384-1.231c4.89-1.524,9.8-3.221,14.6-5.045l.458,1.206C548.408,654.63,543.47,656.337,538.556,657.869Zm-167.691-4.981c-4.822-1.826-9.657-3.828-14.371-5.949l.529-1.176c4.69,2.111,9.5,4.1,14.3,5.919Zm196.688-6.032-.53-1.176c4.668-2.1,9.334-4.382,13.868-6.767l.6,1.14C576.934,642.451,572.245,644.74,567.553,646.856Zm-225.038-6.729c-4.572-2.4-9.126-4.972-13.537-7.643l.667-1.1c4.389,2.657,8.92,5.216,13.469,7.606ZM595,632.419l-.667-1.1c4.384-2.656,8.745-5.481,12.959-8.395l.733,1.06C603.786,626.91,599.4,629.749,595,632.419Zm-279.064-8.38c-4.246-2.934-8.456-6.035-12.513-9.214l.8-1.015c4.036,3.165,8.225,6.249,12.45,9.169Zm304.584-9.266-.8-1.015c4.046-3.175,8.037-6.5,11.863-9.9l.856.964c-3.846,3.41-7.857,6.756-11.923,9.947Zm-329.03-9.9c-3.861-3.42-7.667-7-11.312-10.644l.911-.911c3.627,3.624,7.414,7.188,11.255,10.591Zm352.258-10.7-.911-.911c3.632-3.632,7.2-7.417,10.6-11.251l.964.856c-3.416,3.853-7,7.657-10.65,11.306Zm-374.22-11.248c-3.424-3.859-6.772-7.869-9.951-11.918l1.013-.8c3.164,4.028,6.5,8.018,9.9,11.858ZM664.349,570.95l-1.015-.8c3.175-4.047,6.261-8.235,9.174-12.445l1.06.733C670.642,562.674,667.54,566.883,664.349,570.95ZM250.357,558.526c-2.935-4.24-5.777-8.62-8.444-13.018l1.1-.67c2.655,4.378,5.482,8.736,8.4,12.955ZM682.021,545.4l-1.1-.667c2.662-4.393,5.223-8.923,7.612-13.465l1.14.6C687.27,536.43,684.7,540.983,682.021,545.4ZM234.27,532.006c-2.4-4.557-4.691-9.246-6.809-13.935l1.174-.531c2.108,4.666,4.387,9.331,6.775,13.864Zm462.219-14.115-1.176-.529c2.116-4.7,4.11-9.506,5.926-14.3l1.206.458c-1.827,4.814-3.831,9.649-5.957,14.368ZM221.51,503.755c-1.834-4.82-3.543-9.757-5.079-14.675l1.23-.385c1.529,4.893,3.229,9.806,5.053,14.6Zm486.01-14.94-1.231-.383c1.524-4.9,2.917-9.907,4.139-14.886l1.251.307C710.45,478.857,709.051,483.891,707.52,488.814ZM212.255,474.122c-1.234-5-2.33-10.107-3.259-15.183l1.268-.232c.925,5.05,2.016,10.132,3.243,15.105Zm502.668-15.456-1.269-.232c.916-5.043,1.692-10.182,2.3-15.276l1.279.154C716.623,448.43,715.844,453.6,714.923,458.665Zm-508.26-15.078c-.619-5.112-1.091-10.314-1.4-15.464l1.286-.078c.31,5.123.78,10.3,1.4,15.386Zm511.962-15.742-1.286-.076c.3-5.114.458-10.309.458-15.444v-.545h1.289v.545C719.086,417.486,718.931,422.707,718.625,427.846ZM206.07,412.6h-1.289v-.273c0-5.071.149-10.2.444-15.246l1.286.076c-.293,5.021-.442,10.125-.442,15.171Zm511.235-16.263c-.316-5.129-.792-10.306-1.412-15.385l1.279-.156c.624,5.105,1.1,10.307,1.42,15.462Zm-509.429-14.57-1.28-.152c.61-5.12,1.383-10.287,2.3-15.357l1.269.229c-.913,5.045-1.683,10.186-2.289,15.28ZM713.554,365.68c-.933-5.057-2.029-10.139-3.26-15.1l1.251-.31c1.237,4.99,2.339,10.1,3.277,15.179ZM213.376,351.371l-1.252-.306c1.223-5,2.617-10.04,4.144-14.966l1.231.381c-1.519,4.9-2.906,9.911-4.122,14.891ZM706.124,335.7c-1.533-4.894-3.239-9.805-5.068-14.6l1.2-.459c1.839,4.815,3.554,9.751,5.1,14.67ZM222.531,321.841l-1.206-.456c1.825-4.824,3.824-9.66,5.942-14.375l1.176.529C226.335,312.23,224.346,317.042,222.531,321.841Zm472.59-14.976c-2.112-4.664-4.4-9.326-6.791-13.857l1.14-.6c2.406,4.553,4.7,9.239,6.824,13.927ZM235.21,293.628l-1.142-.6c2.392-4.561,4.961-9.117,7.636-13.541l1.1.667C240.147,284.557,237.591,289.09,235.21,293.628Zm445.5-14.045c-2.66-4.372-5.492-8.728-8.417-12.945l1.06-.735c2.94,4.239,5.785,8.616,8.458,13.011ZM251.2,267.168l-1.061-.733c2.926-4.239,6.024-8.45,9.207-12.517l1.015.794C257.2,258.76,254.114,262.95,251.2,267.168Zm411.91-12.95c-3.176-4.032-6.512-8.018-9.915-11.848l.964-.856c3.42,3.847,6.772,7.853,9.963,11.907ZM270.256,242.836l-.965-.855c3.416-3.86,7-7.668,10.637-11.316l.913.91C277.216,235.206,273.655,238.994,270.256,242.836Zm372.334-11.7c-3.642-3.628-7.432-7.188-11.267-10.579l.853-.965c3.854,3.408,7.665,6.985,11.323,10.632ZM292.079,220.97l-.856-.964c3.847-3.418,7.855-6.768,11.912-9.958l.8,1.013C299.9,214.235,295.908,217.569,292.079,220.97Zm327.361-10.3c-4.039-3.16-8.231-6.24-12.461-9.155l.733-1.061c4.25,2.929,8.463,6.025,12.521,9.2Zm-303.085-8.788-.734-1.06c4.236-2.935,8.614-5.779,13.016-8.451l.669,1.1c-4.379,2.659-8.736,5.489-12.951,8.41Zm277.633-8.755c-4.4-2.656-8.934-5.209-13.476-7.59l.6-1.142c4.566,2.393,9.123,4.959,13.545,7.628Zm-251.253-7.264-.6-1.14c4.555-2.4,9.242-4.7,13.931-6.817l.531,1.174c-4.666,2.11-9.329,4.392-13.86,6.783ZM566.6,178.779c-4.691-2.1-9.5-4.091-14.305-5.9l.456-1.206c4.826,1.822,9.662,3.818,14.377,5.934Zm-195.76-5.624-.459-1.2c4.822-1.837,9.759-3.548,14.674-5.086l.385,1.23C380.546,169.624,375.634,171.327,370.837,173.155Zm166.811-5.3c-4.9-1.516-9.912-2.9-14.893-4.115l.306-1.252c5,1.22,10.041,2.612,14.968,4.136Zm-137.333-3.92-.31-1.251c5.006-1.238,10.114-2.337,15.181-3.267l.233,1.268c-5.041.925-10.123,2.019-15.1,3.251Zm107.326-3.4c-5.038-.909-10.179-1.677-15.281-2.281l.151-1.28c5.128.607,10.295,1.378,15.359,2.292Zm-76.949-2.183-.156-1.28c5.109-.622,10.311-1.1,15.463-1.412l.078,1.286c-5.126.313-10.3.785-15.385,1.4ZM476.97,156.9c-4.978-.288-10.036-.434-15.036-.434h-.41v-1.289h.41c5.024,0,10.109.147,15.11.437Z" data-name="Path 1105" transform="translate(0.219 -22.174)"/><rect id="Rectangle_316" width="152.813" height="114.61" fill="#019c93" data-name="Rectangle 316" transform="translate(568.796 553.255)"/><rect id="Rectangle_317" width="114.61" height="7.641" fill="#fff" data-name="Rectangle 317" transform="translate(587.897 583.818)"/><rect id="Rectangle_318" width="114.61" height="7.641" fill="#fff" data-name="Rectangle 318" transform="translate(587.897 606.74)"/><rect id="Rectangle_319" width="114.61" height="7.641" fill="#fff" data-name="Rectangle 319" transform="translate(587.897 629.662)"/><rect id="Rectangle_320" width="106.739" height="80.054" fill="#e6e6e6" data-name="Rectangle 320" transform="translate(202 123)"/><rect id="Rectangle_321" width="80.054" height="5.337" fill="#fff" data-name="Rectangle 321" transform="translate(215.342 144.348)"/><rect id="Rectangle_322" width="80.054" height="5.337" fill="#fff" data-name="Rectangle 322" transform="translate(215.342 160.358)"/><rect id="Rectangle_323" width="80.054" height="5.337" fill="#fff" data-name="Rectangle 323" transform="translate(215.342 176.369)"/><rect id="Rectangle_324" width="106.739" height="80.054" fill="#019c93" data-name="Rectangle 324" transform="translate(247.364 164.361)"/><rect id="Rectangle_325" width="80.054" height="5.337" fill="#fff" data-name="Rectangle 325" transform="translate(260.706 185.709)"/><rect id="Rectangle_326" width="80.054" height="5.337" fill="#fff" data-name="Rectangle 326" transform="translate(260.706 201.72)"/><rect id="Rectangle_327" width="80.054" height="5.337" fill="#fff" data-name="Rectangle 327" transform="translate(260.706 217.73)"/><path id="Subtraction_1" fill="#e6e6e6" d="M1321-3027H1030v-218h291v218Zm-288-215v212h285v-212Z" data-name="Subtraction 1" transform="translate(-713 3526)"/><g id="Group_41" data-name="Group 41" transform="translate(-9.234 -16.468)"><ellipse id="Ellipse_220" cx="55.409" cy="55.409" fill="#019c93" data-name="Ellipse 220" rx="55.409" ry="55.409" transform="translate(416.234 351.468)"/><path id="Path_1106" fill="#fff" d="M469.052,399.483H450.213V380.644a4.433,4.433,0,0,0-4.433-4.433h0a4.433,4.433,0,0,0-4.433,4.433v18.839H422.508a4.433,4.433,0,0,0-4.433,4.433h0a4.433,4.433,0,0,0,4.433,4.433h18.839v18.839a4.433,4.433,0,0,0,4.433,4.433h0a4.433,4.433,0,0,0,4.433-4.433V408.349h18.839a4.433,4.433,0,0,0,4.433-4.433h0a4.433,4.433,0,0,0-4.433-4.433Z" data-name="Path 1106" transform="translate(25.6 2.741)"/></g><rect id="Rectangle_341" width="106.739" height="80.054" fill="#e6e6e6" data-name="Rectangle 341" transform="translate(194 534)"/><rect id="Rectangle_342" width="80.054" height="5.337" fill="#fff" data-name="Rectangle 342" transform="translate(207.342 555.348)"/><rect id="Rectangle_343" width="80.054" height="5.337" fill="#fff" data-name="Rectangle 343" transform="translate(207.342 571.358)"/><rect id="Rectangle_344" width="80.054" height="5.337" fill="#fff" data-name="Rectangle 344" transform="translate(207.342 587.369)"/></g></svg>