<?xml version="1.0" encoding="UTF-8" standalone="no"?>
<svg
   xmlns:dc="http://purl.org/dc/elements/1.1/"
   xmlns:cc="http://creativecommons.org/ns#"
   xmlns:rdf="http://www.w3.org/1999/02/22-rdf-syntax-ns#"
   xmlns:svg="http://www.w3.org/2000/svg"
   xmlns="http://www.w3.org/2000/svg"
   xmlns:sodipodi="http://sodipodi.sourceforge.net/DTD/sodipodi-0.dtd"
   xmlns:inkscape="http://www.inkscape.org/namespaces/inkscape"
   inkscape:version="1.0rc1 (09960d6, 2020-04-09)"
   sodipodi:docname="server2.svg"
   version="1.1"
   viewBox="0 0 888 710.80704"
   height="710.80704"
   width="888"
   data-name="Layer 1"
   id="b5d1da7b-a9c6-4711-8d73-fa7937ec989e">
  <metadata
     id="metadata543">
    <rdf:RDF>
      <cc:Work
         rdf:about="">
        <dc:format>image/svg+xml</dc:format>
        <dc:type
           rdf:resource="http://purl.org/dc/dcmitype/StillImage" />
      </cc:Work>
    </rdf:RDF>
  </metadata>
  <defs
     id="defs541" />
  <sodipodi:namedview
     inkscape:current-layer="b5d1da7b-a9c6-4711-8d73-fa7937ec989e"
     inkscape:window-maximized="0"
     inkscape:window-y="23"
     inkscape:window-x="0"
     inkscape:cy="355.40353"
     inkscape:cx="444"
     inkscape:zoom="1.0340359"
     showgrid="false"
     id="namedview539"
     inkscape:window-height="1005"
     inkscape:window-width="1680"
     inkscape:pageshadow="2"
     inkscape:pageopacity="0"
     guidetolerance="10"
     gridtolerance="10"
     objecttolerance="10"
     borderopacity="1"
     bordercolor="#666666"
     pagecolor="#ffffff" />
  <title
     id="title412">server_cluster</title>
  <path
     id="path414"
     fill="#ccc"
     transform="translate(-156 -94.59648)"
     d="M600.93555,699.40352a260.06372,260.06372,0,1,1,183.89355-76.1709A258.36518,258.36518,0,0,1,600.93555,699.40352Zm0-518.12891c-142.29688,0-258.06446,115.76758-258.06446,258.06494s115.76758,258.064,258.06446,258.064S859,581.63692,859,439.33955,743.23242,181.27461,600.93555,181.27461Z" />
  <rect
     id="rect416"
     fill="#2f2e41"
     transform="translate(1051.40391 -87.19257) rotate(90)"
     height="195"
     width="262"
     y="509.90391"
     x="469" />
  <rect
     id="rect418"
     fill="#3f3d56"
     height="104"
     width="262"
     y="373.80743"
     x="313" />
  <rect
     id="rect420"
     fill="#3f3d56"
     height="104"
     width="262"
     y="489.80743"
     x="313" />
  <rect
     id="rect422"
     fill="#3f3d56"
     height="104"
     width="262"
     y="605.80743"
     x="313" />
  <rect
     id="rect424"
     fill="#218774"
     height="16"
     width="262"
     y="417.90372"
     x="313" />
  <rect
     id="rect426"
     fill="#218774"
     height="16"
     width="262"
     y="533.90372"
     x="313" />
  <rect
     id="rect428"
     fill="#218774"
     height="16"
     width="262"
     y="649.90372"
     x="313" />
  <circle
     id="circle430"
     fill="#218774"
     r="6"
     cy="388.80743"
     cx="524" />
  <circle
     id="circle432"
     fill="#218774"
     r="6"
     cy="388.80743"
     cx="545" />
  <circle
     id="circle434"
     fill="#218774"
     r="6"
     cy="388.80743"
     cx="566" />
  <circle
     id="circle436"
     fill="#218774"
     r="6"
     cy="502.80743"
     cx="524" />
  <circle
     id="circle438"
     fill="#218774"
     r="6"
     cy="502.80743"
     cx="545" />
  <circle
     id="circle440"
     fill="#218774"
     r="6"
     cy="502.80743"
     cx="566" />
  <circle
     id="circle442"
     fill="#218774"
     r="6"
     cy="616.80743"
     cx="524" />
  <circle
     id="circle444"
     fill="#218774"
     r="6"
     cy="616.80743"
     cx="545" />
  <circle
     id="circle446"
     fill="#218774"
     r="6"
     cy="616.80743"
     cx="566" />
  <path
     id="path450"
     fill="#e6e6e6"
     transform="translate(-156 -94.59648)"
     d="M397.8787,365.66116v185.9917a14.67525,14.67525,0,0,1-14.67227,14.67231H310.928a14.67656,14.67656,0,0,1-14.6784-14.67231V365.66116a14.67655,14.67655,0,0,1,14.6784-14.67228h8.76786a6.9778,6.9778,0,0,0,6.4551,9.60614h41.20843a6.97774,6.97774,0,0,0,6.45506-9.60614h9.392A14.67524,14.67524,0,0,1,397.8787,365.66116Z" />
  <rect
     id="rect452"
     fill="#fff"
     height="128"
     width="92"
     y="291.91002"
     x="145.06414" />
  <rect
     id="rect454"
     fill="#e6e6e6"
     height="2.09827"
     width="36.71978"
     y="379.92719"
     x="171.18557" />
  <rect
     id="rect456"
     fill="#218774"
     height="2.09827"
     width="56.81724"
     y="387.63152"
     x="171.14869" />
  <rect
     id="rect458"
     fill="#e6e6e6"
     height="2.09827"
     width="44.5883"
     y="394.89011"
     x="171.14869" />
  <rect
     id="rect460"
     fill="#e6e6e6"
     height="2.09827"
     width="26.22841"
     y="402.1487"
     x="171.14869" />
  <rect
     id="rect462"
     fill="#e6e6e6"
     height="2.09827"
     width="39.34262"
     y="409.40729"
     x="171.14869" />
  <rect
     id="rect464"
     fill="#e6e6e6"
     height="4.19655"
     width="4.19655"
     y="379.32379"
     x="154.53324" />
  <rect
     id="rect466"
     fill="#218774"
     height="4.19655"
     width="4.19655"
     y="386.58238"
     x="154.53324" />
  <rect
     id="rect468"
     fill="#e6e6e6"
     height="4.19655"
     width="4.19655"
     y="393.84097"
     x="154.53324" />
  <rect
     id="rect470"
     fill="#e6e6e6"
     height="4.19655"
     width="4.19655"
     y="401.09956"
     x="154.53324" />
  <rect
     id="rect472"
     fill="#e6e6e6"
     height="4.19655"
     width="4.19655"
     y="408.35815"
     x="154.53324" />
  <rect
     id="rect474"
     fill="#e6e6e6"
     height="36.99753"
     width="36.99753"
     y="307.91002"
     x="172.75082" />
  <rect
     id="rect476"
     fill="#e6e6e6"
     height="157.47494"
     width="245.88383"
     y="0.13939"
     x="321.11058" />
  <rect
     id="rect478"
     fill="#fff"
     height="77.03517"
     width="203.86136"
     y="44.19534"
     x="339.64671" />
  <rect
     id="rect480"
     fill="#e6e6e6"
     height="2.79582"
     width="48.92684"
     y="57.54179"
     x="376.78939" />
  <rect
     id="rect482"
     fill="#218774"
     height="2.79582"
     width="75.70547"
     y="67.80733"
     x="376.74025" />
  <rect
     id="rect484"
     fill="#e6e6e6"
     height="2.79582"
     width="59.41117"
     y="77.47895"
     x="376.74025" />
  <rect
     id="rect486"
     fill="#e6e6e6"
     height="2.79582"
     width="34.94775"
     y="87.15058"
     x="376.74025" />
  <rect
     id="rect488"
     fill="#e6e6e6"
     height="2.79582"
     width="52.42162"
     y="96.8222"
     x="376.74025" />
  <rect
     id="rect490"
     fill="#e6e6e6"
     height="5.59164"
     width="5.59164"
     y="56.7378"
     x="354.60119" />
  <rect
     id="rect492"
     fill="#218774"
     height="5.59164"
     width="5.59164"
     y="66.40942"
     x="354.60119" />
  <rect
     id="rect494"
     fill="#e6e6e6"
     height="5.59164"
     width="5.59164"
     y="76.08104"
     x="354.60119" />
  <rect
     id="rect496"
     fill="#e6e6e6"
     height="5.59164"
     width="5.59164"
     y="85.75267"
     x="354.60119" />
  <rect
     id="rect498"
     fill="#e6e6e6"
     height="5.59164"
     width="5.59164"
     y="95.42429"
     x="354.60119" />
  <rect
     id="rect500"
     fill="#e6e6e6"
     height="50.05873"
     width="50.05873"
     y="53.8475"
     x="483.44507" />
  <rect
     id="rect502"
     fill="#218774"
     height="10.44604"
     width="245.88383"
     x="321.00559" />
  <circle
     id="circle504"
     fill="#fff"
     r="2.09686"
     cy="5.34057"
     cx="328.76825" />
  <circle
     id="circle506"
     fill="#fff"
     r="2.09686"
     cy="5.34057"
     cx="336.11718" />
  <circle
     id="circle508"
     fill="#fff"
     r="2.09686"
     cy="5.34057"
     cx="343.46611" />
  <rect
     id="rect510"
     fill="#e6e6e6"
     height="31"
     width="60"
     y="294.80743"
     x="671.64772" />
  <rect
     id="rect512"
     fill="#e6e6e6"
     height="31"
     width="60"
     y="405.80743"
     x="671.64772" />
  <circle
     id="circle514"
     fill="#e6e6e6"
     r="50"
     cy="365.80743"
     cx="701.64772" />
  <circle
     id="circle516"
     fill="#fff"
     r="39"
     cy="365.80743"
     cx="701.64772" />
  <rect
     id="rect518"
     fill="#e2e2e2"
     height="1.72839"
     width="30.24683"
     y="355.12175"
     x="688.87659" />
  <rect
     id="rect520"
     fill="#218774"
     height="1.72839"
     width="46.80151"
     y="361.46796"
     x="688.84621" />
  <rect
     id="rect522"
     fill="#e2e2e2"
     height="1.72839"
     width="36.72829"
     y="367.44701"
     x="688.84621" />
  <rect
     id="rect524"
     fill="#e2e2e2"
     height="1.72839"
     width="21.60488"
     y="373.42605"
     x="688.84621" />
  <rect
     id="rect526"
     fill="#e2e2e2"
     height="1.72839"
     width="32.40732"
     y="379.4051"
     x="688.84621" />
  <rect
     id="rect528"
     fill="#e2e2e2"
     height="3.45678"
     width="3.45678"
     y="354.62472"
     x="675.15972" />
  <rect
     id="rect530"
     fill="#218774"
     height="3.45678"
     width="3.45678"
     y="360.60376"
     x="675.15972" />
  <rect
     id="rect532"
     fill="#e2e2e2"
     height="3.45678"
     width="3.45678"
     y="366.58281"
     x="675.15972" />
  <rect
     id="rect534"
     fill="#e2e2e2"
     height="3.45678"
     width="3.45678"
     y="372.56186"
     x="675.15972" />
  <rect
     id="rect536"
     fill="#e2e2e2"
     height="3.45678"
     width="3.45678"
     y="378.54091"
     x="675.15972" />
</svg>
