<?xml version="1.0" encoding="UTF-8"?>
<svg width="2268px" height="1136px" viewBox="0 0 2268 1136" version="1.1" xmlns="http://www.w3.org/2000/svg" xmlns:xlink="http://www.w3.org/1999/xlink">
    <!-- Generator: Sketch 53.2 (72643) - https://sketchapp.com -->
    <title>Illustration 13</title>
    <desc>Created with Sketch.</desc>
    <defs>
        <path d="M78.1010289,86.3309627 C71.2310289,90.2709627 59.5000289,91.2509627 49.2810289,90.6609627 L46.9310289,119.700963 L13.5610289,105.970963 C13.5610289,105.970963 16.7610289,73.9309627 18.1510289,61.6309627 C11.4410289,55.5409627 0.0210289214,52.7209627 2.89213793e-05,42.3809627 C-0.00897107862,38.8109627 2.08002892,32.6109627 9.80002892,32.6009627 C20.1700289,32.5909627 18.6910289,45.0009627 18.6910289,45.0009627 C30.4010289,49.5609627 42.3910289,10.1809627 49.3110289,1.25096271 C53.0900289,-3.61903729 82.1110289,7.30096271 82.1110289,7.30096271 L99.5610289,11.9709627 C99.5610289,11.9709627 100.170029,73.6609627 78.1010289,86.3309627" id="path-1"></path>
        <path d="M326.125385,87.8257692 L331.649423,108.799808 C331.649423,108.799808 375.537885,89.9276923 399.210962,98.2748077 L320.763846,147.423846 L300.981154,88.7661538 L326.125385,87.8257692 Z M60.0290385,24.7971154 L35.5165385,49.3115385 C35.5165385,49.3115385 37.7434615,62.6605769 37.8521154,78.1230769 C38.0098077,100.505769 34.9203846,122.420192 34.9203846,122.420192 L0.000192307692,42.4817308 L51.5136538,-1.13686838e-13 L60.0290385,24.7971154 Z" id="path-3"></path>
        <path d="M276.000577,76.3916346 L301.740962,71.5925962 L311.457308,108.823365 L290.721731,117.757981 L276.000577,76.3916346 Z M30.9626923,0 L33.6569231,31.0673077 L15.3242308,49.3346154 L0.768461538,24.9192308 L30.9626923,0 Z" id="path-5"></path>
        <path d="M170.349216,319.820569 C130.390279,399.349311 61.6028846,466.770192 61.6028846,466.770192 L0.0163461538,375.442308 C0.0163461538,375.442308 82.063987,303.404229 120.785268,144.328191 C114.276346,118.1925 109.650385,96.6636538 108.026346,82.8655769 C102.699423,37.6828846 129.573462,7.25980769 136.785,0.000192307692 L140.093263,0.000192307692 L221.121154,0 C222.852874,6.44226959 229.718188,42.5572651 227.343311,95.7586714 C234.496538,119.529038 242.871538,148.221346 252.573462,182.663654 C307.804231,378.721346 333.419615,465.182885 333.419615,465.182885 L228.420577,502.634808 C228.420577,502.634808 198.280996,412.383299 170.349214,319.820563 L170.349216,319.820569 Z" id="path-7"></path>
        <polygon id="path-9" points="0.218 140 45.603 140 45.603 0 0.218 0"></polygon>
        <path d="M227.310745,228.596757 L206.52335,237.361828 C206.576656,234.175983 207.069616,231.143532 208.1967,228.4934 C210.3477,223.4344 221.6497,222.0134 221.6497,222.0134 C221.6497,222.0134 224.118318,224.855267 227.310745,228.596757 L227.310745,228.596757 Z M233.744388,236.222913 C237.415845,240.638571 240.658112,244.685097 241.3007,245.9464 C242.9147,249.1174 245.8997,264.8144 245.7577,267.9154 C245.6147,271.0164 236.3137,284.9524 236.3137,284.9524 C230.5427,283.5384 234.3117,276.3414 234.3117,276.3414 C234.3117,276.3414 229.1417,280.7124 226.9937,280.6394 C206.7527,279.9494 207.8377,269.7014 208.3157,268.4184 C209.3907,265.5364 214.7937,268.8314 214.7937,268.8314 C214.7937,268.8314 209.569963,258.233986 207.42313,246.810818 L233.744388,236.222913 L233.744388,236.222913 Z M137.6576,22.6301 C120.1446,20.9861 112.3396,6.3341 109.4906,0.7341 C115.7096,0.6641 121.7056,1.4011 127.5166,1.7401 C139.1916,2.4181 148.0906,2.7271 155.4046,4.0421 C155.8906,5.7961 159.5216,24.6731 137.6576,22.6301 Z M36.7625631,229.353669 L39.5883,238.3898 C39.5883,238.3898 40.3453,243.4508 40.4793,249.3698 C40.6123,255.2878 40.5413,258.8758 43.8583,268.0128 C46.1703,274.3798 37.0133,271.7838 34.6873,268.1418 C32.2873,264.3848 32.2593,249.7938 27.5013,252.2908 C22.7443,254.7868 20.0333,269.2468 19.7553,283.0878 C19.7123,285.2628 17.9483,286.8958 16.7473,287.4228 C14.8003,288.2778 12.8883,279.5418 12.8883,279.5418 C12.8883,279.5418 11.6353,282.4528 8.7993,280.9608 C7.7963,280.4338 5.2213,274.3838 5.2213,274.3838 C5.2213,274.3838 3.0763,271.3318 2.1063,268.0398 C0.3923,262.2278 -0.4627,251.6308 0.2553,248.5968 C1.17216233,244.720445 3.64387067,237.637551 5.77478187,231.810044 L36.7625631,229.353669 Z" id="path-11"></path>
        <path d="M189.6351,24.7962 L234.5061,5.8762 L237.9101,14.9382 L192.2701,33.2972 L189.6351,24.7962 Z M0.3187,4.7581 L50.9357,0.3741 L50.9357,9.9131 L0.4747,13.9131 L0.3187,4.7581 Z" id="path-13"></path>
        <path d="M78.11,86.8289474 C71.51,91.2189474 59.51,91.7589474 49.29,91.1689474 L46.94,120.208947 C46.94,120.208947 30.35,112.968947 20.85,107.608947 C19.21,106.688947 17.79,105.818947 16.7,105.048947 C16.88,103.338947 17.29,99.3589474 17.81,94.3889474 L17.81,94.3689474 C18.75,85.4189474 20.03,73.2489474 20.87,65.2289474 C15.27,56.7389474 0.02,54.8289474 3.7658765e-13,42.8889474 C3.7658765e-13,39.3089474 2.09,33.1189474 9.81,33.1089474 C20.17,33.0889474 18.7,45.5089474 18.7,45.5089474 C30.41,50.0689474 46.59,10.1289474 53.5,1.20894744 C57.28,-3.67105256 82.11,7.79894744 82.11,7.79894744 L98.58,26.2289474 C98.9,28.4889474 97.74,73.7689474 78.11,86.8289474" id="path-15"></path>
        <path d="M218.440836,225.990359 C209.835073,211.98982 181.800895,165.583477 180.1617,152.5638 C178.1087,136.2548 179.9507,115.1948 179.9507,115.1948 L206.1747,99.5848 L212.8087,138.4038 L239.839583,223.242007 C245.146517,229.481196 251.808491,237.467261 252.7608,239.3365 C254.3738,242.5075 257.3598,258.2045 257.2178,261.3055 C257.0748,264.4065 247.7738,278.3425 247.7738,278.3425 C242.0018,276.9285 245.7718,269.7315 245.7718,269.7315 C245.7718,269.7315 240.6018,274.1035 238.4528,274.0295 C218.2128,273.3395 219.2978,263.0915 219.7758,261.8085 C220.8508,258.9265 226.2538,262.2225 226.2538,262.2225 C226.2538,262.2225 215.670888,240.752078 218.440836,225.990359 L218.440836,225.990359 Z M35.147221,216.78267 L40.5242,239.1965 C40.5242,239.1965 40.9382,244.2965 40.6712,250.2105 C40.4052,256.1255 40.0922,259.6995 42.7842,269.0405 C44.6602,275.5495 35.6992,272.3405 33.6242,268.5485 C31.4842,264.6385 32.4422,250.0785 27.5262,252.2485 C22.6112,254.4175 18.9302,268.6605 17.7182,282.4525 C17.5272,284.6195 15.6572,286.1295 14.4232,286.5735 C12.4232,287.2955 11.1052,278.4495 11.1052,278.4495 C11.1052,278.4495 9.6592,281.2705 6.9302,279.5905 C5.9652,278.9955 3.8052,272.7865 3.8052,272.7865 C3.8052,272.7865 1.8712,269.5955 1.1242,266.2465 C-0.1928,260.3315 -0.3298,249.7015 0.5912,246.7225 C2.68678692,239.946362 6.70400529,228.748178 10.6439341,222.35431 C10.486251,204.559163 10.1943138,134.612337 15.1736,121.7054 C20.8886,106.8914 31.2316,87.0304 31.2316,87.0304 L61.9086,107.5414 L45.4546,134.1864 L35.147221,216.78267 Z M147.9161,2.615 C147.9161,2.615 155.9701,8.307 161.9861,18.485 C170.2191,32.409 165.9151,44.422 153.2491,44.442 C139.6861,44.465 124.1231,39.849 117.5621,19.309 C114.2431,8.919 111.1081,0.714 111.1081,0.714 L147.9161,2.615 Z" id="path-17"></path>
        <path d="M90.5474372,0.839312677 C90.9521126,1.90663121 93.8737252,9.66694592 96.9538,19.309 C103.5148,39.849 119.0778,44.465 132.6408,44.442 C145.3068,44.422 149.6108,32.409 141.3778,18.485 C136.079041,9.52044425 129.199264,4.03599009 127.634135,2.85567369 C143.628613,3.93664063 153.588099,5.94497976 162.812,14.5966 C180.373,31.0666 193.656,78.4366 195.966,106.7566 L163.987,118.2966 L156.889,150.0466 L72.761,150.0466 C72.761,150.0466 73.668,140.5466 71.858,128.8566 C69.498,113.5666 60.983,102.1566 60.983,102.1566 L52.535,114.9966 L1.70530257e-13,84.0266 C17.2,52.6646 41.19,20.3266 57.185,10.0366 C68.9771024,2.44676509 80.0452429,0.793493938 90.5474372,0.839312677 L90.5474372,0.839312677 Z M95.5142735,0.972979409 L97.2368262,1.06194303 C96.6643057,1.02958957 96.0901309,0.99969008 95.5142741,0.972979438 L95.5142735,0.972979409 Z" id="path-19"></path>
        <path d="M331.320636,90.0096087 L336.932699,111.504944 C336.932699,111.504944 381.518791,92.1627883 405.57035,100.717366 L325.873141,151.088958 L305.776141,90.973366 L331.320636,90.0096087 Z M60.9851417,25.413432 L36.082166,50.5371456 C36.082166,50.5371456 38.3447291,64.217966 38.4550981,80.0657621 C38.6147388,103.003777 35.4761223,125.463854 35.4761223,125.463854 L0.000394174758,43.5385728 L52.3339913,1.13686838e-13 L60.9851417,25.413432 Z" id="path-21"></path>
        <path d="M286.341256,95.6518262 L311.616727,93.6651854 L316.238426,111.5282 L295.171756,120.683894 L286.341256,95.6518262 Z M31.2757961,1.13686838e-13 L34.0133398,31.839466 L15.3875971,50.5607961 L0.600131068,25.539568 L31.2757961,1.13686838e-13 Z" id="path-23"></path>
        <path d="M220.594121,104.387904 C225.688803,126.707929 231.759052,153.147015 238.982243,184.366374 C286.046709,387.720146 315.964573,499.941699 315.964573,499.941699 L311.687777,501.242476 L311.668068,501.25233 L288.963602,508.179951 L288.904476,508.189806 L270.693602,513.748655 C270.693602,513.748655 215.98223,383.434681 171.164579,262.599503 C162.453339,279.440559 152.382204,296.311177 140.744236,312.926569 C80.0413233,399.594759 25.438265,455.065001 25.438265,455.065001 L19.505935,444.126652 L19.4960806,444.116798 L6.06457573,419.353754 L5.9463233,419.135972 L0.0829737864,408.32573 C0.0829737864,408.32573 89.422572,313.674633 126.642565,132.403736 C119.734524,108.900631 115.152243,89.6747573 113.999282,77.0710194 C110.599524,39.8806311 134.654039,6.48417476 139.64035,0 L197.278553,0 L224.112197,9.85436893e-05 C224.693605,4.70063252 228.694479,46.3057782 220.594187,104.387429 L220.594121,104.387904 Z" id="path-25"></path>
    </defs>
    <g id="Scene" stroke="none" stroke-width="1" fill="none" fill-rule="evenodd">
        <g id="Illustration-13" transform="translate(-171.000000, -95.000000)">
            <g id="Background-Object-/-Tree-/-1" transform="translate(905.000000, 0.000000)">
                <g id="Group-10" transform="translate(329.000000, 94.000000)">
                    <path d="M286.0377,248.8296 C286.0377,354.7606 242.2217,450.9706 143.0187,450.9706 C43.8157,450.9706 -0.0003,354.7606 -0.0003,248.8296 C-0.0003,124.5666 74.9647,0.9996 143.0187,0.9996 C211.0727,0.9996 286.0377,124.5666 286.0377,248.8296" id="Fill-1" fill="#ECF6FF"></path>
                    <path d="M143.0192,225.9854 L143.0192,527.6604" id="Stroke-4" stroke="#DCEEFF" stroke-width="8" stroke-linecap="square"></path>
                    <path d="M146.0192,363.8711 L184.7282,320.4071" id="Stroke-6" stroke="#DCEEFF" stroke-width="8" stroke-linecap="square"></path>
                    <path d="M137.3141,304.8643 L98.6041,261.3993" id="Stroke-8" stroke="#DCEEFF" stroke-width="8" stroke-linecap="square"></path>
                </g>
            </g>
            <g id="Background-Object-/-Tree-/-2" transform="translate(905.000000, 66.000000)">
                <g id="Group-14" transform="translate(165.621164, 81.292800)">
                    <path d="M27.4376796,216.771923 C23.5264246,207.918483 2.08837164,209.417261 2.08528169,184.729946 C2.07971979,147.558579 69.7946743,151.801222 73.7875039,123.793984 C77.7809515,95.7872128 34.2683166,96.4562432 32.9210997,72.8336768 C31.5738828,49.2106432 64.6604182,0.4672 114.860317,0.4672 C154.443775,0.4672 121.658818,38.0777344 153.603927,54.8969344 C185.549654,71.7161344 222.035131,50.1688704 240.092164,76.6170624 C264.96562,113.048384 201.362767,156.801664 207.637832,184.729946 C213.912897,212.658694 251.198052,206.05529 252.339479,236.74192 C253.480287,267.429018 199.318458,272.829382 204.421197,299.143021 C207.637832,315.73049 241.914615,310.192301 243.712346,342.900038 C245.235072,370.592384 127.466065,404.858234 38.9990256,348.506438 C-49.4686315,292.154176 42.3664499,250.563098 27.4376796,216.771923" id="Fill-1" fill="#CCE3FF"></path>
                    <path d="M124.942443,149.694758 L124.942443,421.851839" id="Stroke-4" stroke="#ECF6FF" stroke-width="8" stroke-linecap="square"></path>
                    <path d="M126.796411,333.968202 L173.055391,298.996413" id="Stroke-6" stroke="#ECF6FF" stroke-width="8" stroke-linecap="square"></path>
                    <path d="M127.414401,234.353734 L150.930752,216.575839" id="Stroke-8" stroke="#ECF6FF" stroke-width="8" stroke-linecap="square"></path>
                    <path d="M122.470486,273.933002 L85.5839331,246.046769" id="Stroke-10" stroke="#ECF6FF" stroke-width="8" stroke-linecap="square"></path>
                    <path d="M123.322013,187.832013 L105.399702,174.283213" id="Stroke-12" stroke="#ECF6FF" stroke-width="8" stroke-linecap="square"></path>
                </g>
            </g>
            <g id="Background-Object-/-Cloud-/-2" transform="translate(783.000000, 417.000000)" fill="#ECF6FF">
                <g id="Group-3" transform="translate(145.000000, 97.000000)">
                    <path d="M0,155.0774 C0,155.0774 67.29,0.0004 174.663,0.0004 C261.751,0.0004 271.47,109.7844 351.303,107.0774 C431.137,104.3704 471.598,54.2314 543.608,54.2314 C634.47,54.2314 709.507,155.0774 709.507,155.0774 L0,155.0774 Z" id="Fill-1"></path>
                </g>
            </g>
            <g id="Background-Object-/-Car-/-1" transform="translate(0.000000, 247.000000)">
                <g id="Group-44" transform="translate(171.000000, 409.000000)">
                    <polygon id="Fill-1" fill="#ECF6FF" points="698.0383 370.2872 698.0383 370.2762 679.9283 229.9572 899.4873 229.9572 917.5983 370.2872"></polygon>
                    <g id="Group-43" transform="translate(0.000000, 0.448000)">
                        <g id="Group-4" transform="translate(361.000000, 316.000000)" fill="#B6D4FF">
                            <path d="M117.8976,59.2034 C117.8976,91.6764 91.5736,118.0004 59.1006,118.0004 C26.6286,118.0004 0.3046,91.6764 0.3046,59.2034 C0.3046,26.7304 26.6286,0.4064 59.1006,0.4064 C91.5736,0.4064 117.8976,26.7304 117.8976,59.2034" id="Fill-2"></path>
                        </g>
                        <g id="Group-7" transform="translate(818.000000, 316.000000)" fill="#B6D4FF">
                            <path d="M118.3703,59.2034 C118.3703,91.6764 92.0463,118.0004 59.5733,118.0004 C27.1003,118.0004 0.7763,91.6764 0.7763,59.2034 C0.7763,26.7304 27.1003,0.4064 59.5733,0.4064 C92.0463,0.4064 118.3703,26.7304 118.3703,59.2034" id="Fill-5"></path>
                        </g>
                        <path d="M730.6496,369.8441 L86.3796,369.8441 C47.2996,369.8441 14.2906,340.8231 9.2906,302.0641 L0.000599999999,230.0741 L124.3706,229.5141 L124.3596,229.4641 L90.5806,0.0541 L596.9796,0.0541 L679.2806,227.7341 L679.9296,229.5141 L730.6496,369.8441 Z" id="Fill-8" fill="#CCE3FF"></path>
                        <polygon id="Fill-10" fill="#FFFFFF" points="730.6496 369.8441 578.9506 369.8441 564.7006 330.4341 558.7696 314.0141 528.2296 229.5141 445.2906 0.0541 596.9796 0.0541 679.2806 227.7341 679.9296 229.5141"></polygon>
                        <polygon id="Fill-12" fill="#FFFFFF" points="478.59 229.4642 319.83 229.4642 286.05 0.0542 395.66 0.0542 428.95 92.1532 440.42 123.8732 467.59 199.0332 470.44 206.9032"></polygon>
                        <path d="M773.0099,369.8343 L521.0099,369.8343 L521.0099,229.5143 L672.7329,229.5143 C719.7209,229.5143 759.4029,264.4033 765.4169,311.0063 L773.0099,369.8343 Z" id="Fill-14" fill="#CCE3FF"></path>
                        <polygon id="Fill-16" fill="#CCE3FF" points="813.7004 229.514 813.7004 369.834 773.0104 369.834 754.8994 229.514"></polygon>
                        <g id="Group-20" transform="translate(754.000000, 229.000000)" fill="#ECF6FF">
                            <path d="M19.0099,140.8392 L19.0099,140.8282 L0.8999,0.5092 L152.5939,0.5092 C191.4049,0.5092 224.1789,29.3252 229.1469,67.8172 L238.5709,140.8392 L19.0099,140.8392 Z" id="Fill-18"></path>
                        </g>
                        <path d="M121.0548,371.0404 C121.0548,331.9354 154.3058,300.2344 195.3238,300.2344 C236.3408,300.2344 269.5918,331.9354 269.5918,371.0404 L121.0548,371.0404 Z" id="Fill-21" fill="#FFFFFF"></path>
                        <path d="M578.5266,371.0404 C578.5266,331.9354 611.7776,300.2344 652.7956,300.2344 C693.8126,300.2344 727.0636,331.9354 727.0636,371.0404 L578.5266,371.0404 Z" id="Fill-23" fill="#FFFFFF"></path>
                        <g id="Group-27" transform="translate(593.000000, 316.000000)" fill="#B6D4FF">
                            <path d="M118.592,59.2034 C118.592,91.6764 92.268,118.0004 59.795,118.0004 C27.323,118.0004 0.999,91.6764 0.999,59.2034 C0.999,26.7304 27.323,0.4064 59.795,0.4064 C92.268,0.4064 118.592,26.7304 118.592,59.2034" id="Fill-25"></path>
                        </g>
                        <path d="M967.0324,298.9408 C967.0324,312.9398 957.7854,324.2888 946.3784,324.2888 C934.9704,324.2888 925.7224,312.9398 925.7224,298.9408 C925.7224,284.9408 934.9704,273.5918 946.3784,273.5918 C957.7854,273.5918 967.0324,284.9408 967.0324,298.9408" id="Fill-28" fill="#FFFFFF"></path>
                        <path d="M836.5627,298.9408 C836.5627,312.9398 827.3157,324.2888 815.9077,324.2888 C804.4997,324.2888 795.2527,312.9398 795.2527,298.9408 C795.2527,284.9408 804.4997,273.5918 815.9077,273.5918 C827.3157,273.5918 836.5627,284.9408 836.5627,298.9408" id="Fill-30" fill="#FFFFFF"></path>
                        <g id="Group-34" transform="translate(136.000000, 316.000000)" fill="#B6D4FF">
                            <path d="M118.1193,59.2034 C118.1193,91.6764 91.7963,118.0004 59.3233,118.0004 C26.8503,118.0004 0.5263,91.6764 0.5263,59.2034 C0.5263,26.7304 26.8503,0.4064 59.3233,0.4064 C91.7963,0.4064 118.1193,26.7304 118.1193,59.2034" id="Fill-32"></path>
                        </g>
                        <polygon id="Fill-35" fill="#CCE3FF" points="862.659 309.893 905.649 309.893 905.649 287.989 862.659 287.989"></polygon>
                        <polygon id="Fill-37" fill="#FFFFFF" points="347.1203 229.4642 347.1203 229.4842 235.2903 229.4842 201.5103 0.0542 313.3303 0.0542"></polygon>
                        <polygon id="Fill-38" fill="#FFFFFF" points="193.3097 229.4642 81.4797 229.4642 3.3747 229.5132 94.9137 0.0522 159.5197 0.0542"></polygon>
                        <polyline id="Stroke-39" stroke="#CCE3FF" stroke-width="7" points="679.9279 229.5101 679.2779 227.7311 596.9799 0.0541"></polyline>
                        <path d="M5.048,269.2005 L602.795,269.2005" id="Stroke-40" stroke="#FFFFFF" stroke-width="3"></path>
                        <polyline id="Stroke-41" stroke="#CCE3FF" stroke-width="7" points="3.3752 229.513 94.9142 0.052 595.6282 0.052"></polyline>
                        <path d="M490.4523,217.3822 L422.1443,217.3822 C404.4723,217.3822 390.1443,203.0552 390.1443,185.3822 C390.1443,167.7092 404.4723,153.3822 422.1443,153.3822 L490.4523,153.3822 L490.4523,217.3822 Z" id="Fill-42" fill="#B6D4FF"></path>
                    </g>
                </g>
            </g>
            <g id="Background-Object-/-Car-/-2" transform="translate(1275.000000, 193.000000)">
                <g id="Group-27" transform="translate(171.000000, 355.000000)">
                    <path d="M408.8997,484.0334 C408.8997,516.5054 382.5757,542.8294 350.1027,542.8294 C317.6307,542.8294 291.3067,516.5054 291.3067,484.0334 C291.3067,451.5614 317.6307,425.2374 350.1027,425.2374 C382.5757,425.2374 408.8997,451.5614 408.8997,484.0334" id="Fill-1" fill="#B6D4FF"></path>
                    <path d="M886.3724,484.0334 C886.3724,516.5054 860.0484,542.8294 827.5754,542.8294 C795.1024,542.8294 768.7784,516.5054 768.7784,484.0334 C768.7784,451.5614 795.1024,425.2374 827.5754,425.2374 C860.0484,425.2374 886.3724,451.5614 886.3724,484.0334" id="Fill-3" fill="#B6D4FF"></path>
                    <polygon id="Fill-5" fill="#CCE3FF" points="730.6497 478.6701 18.0407 478.6701 0.000700000001 338.9001 124.3707 338.3401 74.6207 0.5001 557.8097 0.5001 679.2797 336.5601 679.9297 338.3401"></polygon>
                    <polygon id="Fill-7" fill="#FFFFFF" points="730.6497 478.6701 578.9497 478.6701 564.6997 439.2601 558.7697 422.8401 528.2297 338.3401 406.1097 0.5001 557.8097 0.5001 679.2797 336.5601 679.9297 338.3401"></polygon>
                    <polygon id="Fill-9" fill="#FFFFFF" points="478.5901 338.2902 319.8301 338.2902 270.0901 0.5002 356.4891 0.5002 428.9491 200.9802 440.4201 232.7002 467.5901 307.8602 470.4401 315.7302"></polygon>
                    <polygon id="Fill-11" fill="#CCE3FF" points="521.008 478.668 813.704 478.668 813.704 338.344 521.008 338.344"></polygon>
                    <polygon id="Fill-13" fill="#ECF6FF" points="992.5735 478.6691 773.0155 478.6691 754.9025 338.3431 974.4605 338.3431"></polygon>
                    <path d="M51.0569,479.8703 C51.0569,440.7653 84.3079,409.0643 125.3259,409.0643 C166.3429,409.0643 199.5939,440.7653 199.5939,479.8703 L51.0569,479.8703 Z" id="Fill-14" fill="#FFFFFF"></path>
                    <path d="M528.5286,479.8703 C528.5286,440.7653 561.7796,409.0643 602.7976,409.0643 C643.8146,409.0643 677.0656,440.7653 677.0656,479.8703 L528.5286,479.8703 Z" id="Fill-15" fill="#FFFFFF"></path>
                    <path d="M661.5941,484.0334 C661.5941,516.5054 635.2701,542.8294 602.7971,542.8294 C570.3241,542.8294 544.0011,516.5054 544.0011,484.0334 C544.0011,451.5614 570.3241,425.2374 602.7971,425.2374 C635.2701,425.2374 661.5941,451.5614 661.5941,484.0334" id="Fill-16" fill="#B6D4FF"></path>
                    <path d="M967.0345,407.7707 C967.0345,421.7697 957.7875,433.1187 946.3805,433.1187 C934.9725,433.1187 925.7245,421.7697 925.7245,407.7707 C925.7245,393.7707 934.9725,382.4227 946.3805,382.4227 C957.7875,382.4227 967.0345,393.7707 967.0345,407.7707" id="Fill-17" fill="#FFFFFF"></path>
                    <path d="M836.5648,407.7707 C836.5648,421.7697 827.3168,433.1187 815.9098,433.1187 C804.5018,433.1187 795.2548,421.7697 795.2548,407.7707 C795.2548,393.7707 804.5018,382.4227 815.9098,382.4227 C827.3168,382.4227 836.5648,393.7707 836.5648,407.7707" id="Fill-18" fill="#FFFFFF"></path>
                    <path d="M467.5941,315.7297 L435.7931,315.7297 C426.9001,315.7297 419.6911,308.5207 419.6911,299.6267 L419.6911,215.5537 C419.6911,206.6607 426.9001,199.4507 435.7931,199.4507 L467.5941,199.4507 L467.5941,315.7297 Z" id="Fill-19" fill="#B6D4FF"></path>
                    <polygon id="Fill-20" fill="#B6D4FF" points="467.594 315.73 487.656 315.73 487.656 265.779 467.594 265.779"></polygon>
                    <path d="M184.1214,484.0334 C184.1214,516.5054 157.7984,542.8294 125.3254,542.8294 C92.8524,542.8294 66.5284,516.5054 66.5284,484.0334 C66.5284,451.5614 92.8524,425.2374 125.3254,425.2374 C157.7984,425.2374 184.1214,451.5614 184.1214,484.0334" id="Fill-21" fill="#B6D4FF"></path>
                    <path d="M440.4183,315.7297 L440.4183,199.4507" id="Stroke-22" stroke="#FFFFFF" stroke-width="3"></path>
                    <polygon id="Fill-23" fill="#CCE3FF" points="862.661 418.723 905.651 418.723 905.651 396.818 862.661 396.818"></polygon>
                    <polygon id="Fill-24" fill="#FFFFFF" points="281.8802 338.2902 170.0502 338.2902 120.3102 0.5002 232.1302 0.5002"></polygon>
                    <polyline id="Stroke-25" stroke="#CCE3FF" stroke-width="7" points="679.93 338.3405 679.28 336.5605 555.81 0.5005 78.24 0.5005"></polyline>
                    <path d="M5.0501,378.0305 L602.7971,378.0305" id="Stroke-26" stroke="#FFFFFF" stroke-width="3"></path>
                </g>
            </g>
            <g id="Person-/-Girl-/-1" transform="translate(666.000000, 356.000000)">
                <g id="Girl-/-Head-/-1" transform="translate(93.000000, -10.000000)">
                    <g id="Group-23" transform="translate(87.000000, 48.000000)">
                        <path d="M137.8864,68.1934 C137.9434,105.3594 107.1334,135.5324 69.0704,135.5874 C31.0064,135.6434 0.1044,105.5594 0.0474,68.3944 C-0.0096,31.2284 30.8004,1.0554 68.8644,0.9994 C106.9274,0.9444 137.8294,31.0274 137.8864,68.1934" id="Fill-1" fill="#19141E"></path>
                        <polygon id="Fill-4" fill="#19141E" points="-0.0003 68.5108 0.1047 143.5638 137.9447 143.3468 137.8397 68.2938"></polygon>
                        <path d="M80.0192,136.151 C80.0192,136.151 67.0882,136.533 61.5772,133.522 L79.3322,144.67 L80.0192,136.151 Z" id="Fill-7" fill="#CF3E83"></path>
                        <g id="Face-color" transform="translate(30.739471, 45.488937)">
                            <mask id="mask-2" fill="white">
                                <use xlink:href="#path-1"></use>
                            </mask>
                            <use id="Mask" fill="#5E93D1" xlink:href="#path-1"></use>
                            <g id="Colors-/-Skin-/-Rose" mask="url(#mask-2)" fill="#E576C6" fill-rule="nonzero">
                                <g transform="translate(0.260529, 9.511063)" id="Color">
                                    <rect x="0" y="0" width="99" height="110"></rect>
                                </g>
                            </g>
                        </g>
                        <polygon id="Fill-11" fill="#2437A8" points="108.1286 90.4698 115.5286 108.4098 106.9426 108.2378"></polygon>
                        <path d="M100.2497,91.2481 C100.0647,94.8321 97.9577,97.6241 95.5417,97.4851 C93.1257,97.3461 91.3167,94.3281 91.5017,90.7441 C91.6857,87.1601 93.7937,84.3671 96.2097,84.5061 C98.6247,84.6461 100.4347,87.6641 100.2497,91.2481" id="Fill-13" fill="#0D0B6D"></path>
                        <path d="M122.9362,90.6754 C122.7522,94.2594 120.6442,97.0514 118.2282,96.9124 C115.8132,96.7734 114.0032,93.7554 114.1882,90.1714 C114.3732,86.5874 116.4802,83.7944 118.8962,83.9344 C121.3122,84.0734 123.1212,87.0914 122.9362,90.6754" id="Fill-15" fill="#0D0B6D"></path>
                        <path d="M104.8366,116.8311 C104.8366,116.8311 99.2426,118.6361 93.6376,112.4041" id="Stroke-17" stroke="#1C295E" stroke-width="3"></path>
                        <path d="M79.9978,136.1505 C79.9978,136.1505 67.0668,136.5325 61.5558,133.5225 L79.3108,144.6695 L79.9978,136.1505 Z" id="Fill-19" fill="#000000" opacity="0.39515904"></path>
                        <path d="M51.2057,90.8541 C51.2057,90.8541 106.9427,87.7691 133.2197,53.7691 C149.4057,32.8231 56.0227,27.2561 56.0227,27.2561 L51.2057,90.8541 Z" id="Fill-21" fill="#19141E"></path>
                    </g>
                </g>
                <g id="Girl-/-Legs-/-1" transform="translate(4.000000, 286.000000)">
                    <g id="Group-16" transform="translate(37.000000, 51.000000)">
                        <g id="Shoes-color" transform="translate(0.000000, 390.393654)">
                            <mask id="mask-4" fill="white">
                                <use xlink:href="#path-3"></use>
                            </mask>
                            <use id="Mask" fill="#0D0B6D" xlink:href="#path-3"></use>
                            <g id="Colors-/-Wear-/-Dark-Plum" mask="url(#mask-4)" fill="#0D0B6D" fill-rule="nonzero">
                                <g transform="translate(-11.538462, 20.183269)" id="Color">
                                    <rect x="0" y="0" width="411" height="127"></rect>
                                </g>
                            </g>
                        </g>
                        <g id="Skin-color" transform="translate(20.192308, 390.371058)">
                            <mask id="mask-6" fill="white">
                                <use xlink:href="#path-5"></use>
                            </mask>
                            <use id="Mask" fill="#CF3E83" xlink:href="#path-5"></use>
                            <g id="Colors-/-Skin-/-Pink" mask="url(#mask-6)" fill="#CF3E83" fill-rule="nonzero">
                                <g transform="translate(-4.807692, 0.975096)" id="Color">
                                    <rect x="0" y="0" width="335" height="116"></rect>
                                </g>
                            </g>
                        </g>
                        <g id="Pants-color" transform="translate(22.115385, 0.960962)">
                            <mask id="mask-8" fill="white">
                                <use xlink:href="#path-7"></use>
                            </mask>
                            <use id="Mask" fill="#0D0B6D" xlink:href="#path-7"></use>
                            <g id="Colors-/-Wear-/-Dark-Plum" mask="url(#mask-8)" fill="#0D0B6D" fill-rule="nonzero">
                                <g transform="translate(-2.884615, 0.000577)" id="Color">
                                    <rect x="0" y="0" width="337" height="503"></rect>
                                </g>
                            </g>
                        </g>
                        <g id="Overlay" transform="translate(129.448071, 0.961154)" fill="#FFFFFF" opacity="0.14687965">
                            <path d="M226.086929,465.182692 L121.087891,502.634615 C121.087891,502.634615 89.5484678,408.191346 61.0965447,313.442308 C43.3282755,254.336538 25.2696217,191.740385 13.452314,144.326923 C6.94366011,118.192308 2.31769857,96.6634615 0.693660112,82.8653846 C-4.63326297,37.6826923 22.2407755,7.25961538 29.452314,0 L88.904237,0 C93.8475063,13.3557692 103.808083,42 120.010968,95.7596154 C127.163852,119.528846 135.538852,148.221154 145.240775,182.663462 C200.471545,378.721154 226.086929,465.182692 226.086929,465.182692" id="Fill-13"></path>
                        </g>
                    </g>
                </g>
                <g id="Girl-/-Body-/-1" transform="translate(102.000000, 169.000000)">
                    <g id="Group-35" transform="translate(10.000000, 12.000000)">
                        <path d="M217.3021,238.4094 C217.3021,238.4094 178.4691,176.3484 176.5311,160.9554 C174.4781,144.6464 176.3211,123.5864 176.3211,123.5864 L202.5441,107.9764 L209.1791,146.7944 L237.4761,235.6064" id="Fill-1" fill="#E576C6"></path>
                        <path d="M9.057,234.8655 C9.057,234.8655 7.828,144.9115 13.543,130.0975 C19.258,115.2835 29.602,95.4225 29.602,95.4225 L60.279,115.9325 L43.825,142.5775 L32.484,233.4565" id="Fill-8" fill="#E576C6"></path>
                        <path d="M148.9066,26.8601 L153.4966,157.9801 L132.1966,157.6601 L134.0366,27.3501 L133.2976,26.8101 L134.0666,26.8601 C134.0666,26.8601 122.0076,14.3601 117.3266,9.6601 C120.4066,9.8701 123.4466,10.1001 126.4366,10.2601 C134.5766,10.6801 141.5166,10.9601 147.5876,11.4201 C148.3466,12.4501 150.0366,15.2601 149.8376,19.7601 C149.6666,23.4301 149.3966,25.2101 149.1966,26.0701 C149.0566,26.6701 148.9466,26.8201 148.9166,26.8501 L148.9066,26.8601 Z" id="Fill-10" fill="#CE3D29"></path>
                        <path d="M96.5316,81.0256 L77.0446,110.5506" id="Stroke-14" stroke="#FF9929" stroke-width="3"></path>
                        <g id="Shirt-color" transform="translate(116.000000, 18.477000)">
                            <mask id="mask-10" fill="white">
                                <use xlink:href="#path-9"></use>
                            </mask>
                            <use id="Mask" fill="#FCBDA4" xlink:href="#path-9"></use>
                            <g id="Colors-/-Wear-/-Cream" mask="url(#mask-10)" fill="#FCBDA4" fill-rule="nonzero">
                                <g transform="translate(-12.000000, 3.523000)" id="Color">
                                    <rect x="0" y="0" width="70" height="136"></rect>
                                </g>
                            </g>
                        </g>
                        <g id="Skin-color" transform="translate(0.000000, 8.000000)">
                            <mask id="mask-12" fill="white">
                                <use xlink:href="#path-11"></use>
                            </mask>
                            <use id="Mask" fill="#E576C6" xlink:href="#path-11"></use>
                            <g id="Colors-/-Skin-/-Rose" mask="url(#mask-12)" fill="#E576C6" fill-rule="nonzero">
                                <g transform="translate(-11.000000, -8.000000)" id="Color">
                                    <rect x="0" y="0" width="265" height="296"></rect>
                                </g>
                            </g>
                        </g>
                        <path d="M32.771794,269.595947 C33.322263,272.30071 33.8658385,274.85587 34.6873,276.1418 C37.0133,279.7838 46.1703,282.3798 43.8583,276.0128 C40.5413,266.8758 40.6123,263.2878 40.4793,257.3698 C40.3453,251.4508 39.5883,246.3898 39.5883,246.3898 L36.6676363,237.050112 L37.7462,228.0398 L0.2862,231.0998 C0.2862,231.0998 1.5572,151.9998 16.7362,108.9198 C30.0172,71.2498 54.2462,30.3398 73.1662,18.4298 C74.2972,17.7198 75.4272,17.0498 76.5472,16.4398 L72.8172,11.3698 L113.8472,-0.0002 C113.8472,-0.0002 112.5872,4.9298 116.8972,9.2298 C117.0262,9.3698 117.1772,9.5098 117.3262,9.6598 C122.0072,14.3598 134.0672,26.8598 134.0672,26.8598 L133.2972,26.8098 L134.0362,27.3498 L132.1962,157.6598 L129.6372,339.7098 L24.7572,336.5498 L32.771794,269.595947 L32.771794,269.595947 Z" id="Path" fill="#CE3D29"></path>
                        <path d="M218.9261,248.7073 C218.9261,248.7073 221.7671,259.4363 231.5141,262.7793 C234.9221,263.9483 234.0711,277.7483 242.4251,276.0973" id="Stroke-6" stroke="#000000" stroke-width="3" opacity="0.146600632"></path>
                        <g id="Sleeve-color" transform="translate(4.000000, 226.000000)">
                            <mask id="mask-14" fill="white">
                                <use xlink:href="#path-13"></use>
                            </mask>
                            <use id="Mask" fill="#FCBDA4" xlink:href="#path-13"></use>
                            <g id="Colors-/-Wear-/-Cream" mask="url(#mask-14)" fill="#FCBDA4" fill-rule="nonzero">
                                <g transform="translate(-3.000000, -4.000000)" id="Color">
                                    <rect x="0" y="0" width="241" height="37"></rect>
                                </g>
                            </g>
                        </g>
                        <path d="M241.8265,230.47 L191.3065,251.77 L170.8375,59.54 L164.3475,25.3 L171.8165,24.54 L178.6375,20.92 C179.4565,21.56 180.2665,22.25 181.0665,22.99 C207.3065,47.07 211.1375,134.99 211.1375,134.99 L241.8265,230.47 Z" id="Fill-12" fill="#CE3D29"></path>
                        <path d="M191.307,251.7698 L190.017,252.3198 L170.117,185.6598 L176.067,158.3098 L153.496,157.9798 L148.907,26.8598 L148.916,26.8498 C148.947,26.8198 149.057,26.6698 149.197,26.0698 C149.397,25.2098 149.666,23.4298 149.837,19.7598 C150.036,15.2598 148.347,12.4498 147.587,11.4198 C147.367,11.1298 147.227,10.9798 147.227,10.9798 L147.967,3.9998 L180.327,20.0298 L178.637,20.9198 L171.817,24.5398 L164.347,25.2998 L170.837,59.5398 L191.307,251.7698 Z" id="Fill-20" fill="#CE3D29"></path>
                        <path d="M148.9164,26.8499 L149.1964,26.0699 C149.0574,26.6699 148.9464,26.8199 148.9164,26.8499" id="Fill-21" fill="#CE3D29"></path>
                        <polygon id="Fill-22" fill="#CE3D29" points="200.6771 339.7097 159.8571 339.7097 153.4961 157.9807 176.0671 158.3097 170.1161 185.6597 190.0171 252.3197 191.3071 251.7697"></polygon>
                        <path d="M72.8158,11.3674 C72.8158,11.3674 86.3258,28.6864 101.7568,31.7634 C116.3578,34.6754 134.0678,26.8574 134.0678,26.8574" id="Stroke-24" stroke="#000000" stroke-width="3" opacity="0.204589844"></path>
                        <path d="M180.3275,20.0344 C180.3275,20.0344 179.1405,28.6304 173.5275,30.7844 C163.6915,34.5574 150.8745,26.2064 150.8745,26.2064" id="Stroke-25" stroke="#000000" stroke-width="3" opacity="0.204589844"></path>
                        <path d="M191.3314,251.9509 L179.9264,88.4769" id="Stroke-26" stroke="#000000" stroke-width="3" opacity="0.201264881"></path>
                        <path d="M167.4027,95.9421 C167.2987,99.3801 164.9127,102.0981 162.0717,102.0131 C159.2307,101.9271 157.0117,99.0701 157.1167,95.6321 C157.2197,92.1941 159.6067,89.4761 162.4467,89.5621 C165.2877,89.6471 167.5067,92.5041 167.4027,95.9421" id="Fill-27" fill="#000000" opacity="0.201264881"></path>
                        <path d="M164.8402,50.0828 C164.7362,53.5208 162.3502,56.2388 159.5102,56.1538 C156.6692,56.0678 154.4502,53.2108 154.5542,49.7728 C154.6572,46.3348 157.0442,43.6168 159.8852,43.7028 C162.7262,43.7878 164.9442,46.6448 164.8402,50.0828" id="Fill-28" fill="#000000" opacity="0.201264881"></path>
                        <path d="M169.9642,141.8015 C169.8602,145.2395 167.4742,147.9575 164.6332,147.8725 C161.7932,147.7865 159.5742,144.9295 159.6782,141.4915 C159.7812,138.0535 162.1682,135.3355 165.0082,135.4215 C167.8492,135.5065 170.0682,138.3635 169.9642,141.8015" id="Fill-29" fill="#000000" opacity="0.201264881"></path>
                        <polyline id="Stroke-32" stroke="#000000" stroke-width="3" opacity="0.19656808" points="96.5316 74.78 77.0446 133.092 68.3726 224.887 4.3186 230.758"></polyline>
                        <path d="M69.7885,209.8982 L11.9625,214.9892" id="Stroke-33" stroke="#000000" stroke-width="3" opacity="0.201264881"></path>
                        <path d="M191.3314,238.4094 L228.1674,221.7594" id="Stroke-34" stroke="#000000" stroke-width="3" opacity="0.201264881"></path>
                    </g>
                </g>
            </g>
            <g id="Person-/-Girl-/-8" transform="translate(1801.000000, 770.500000) scale(-1, 1) translate(-1801.000000, -770.500000) translate(1546.000000, 298.000000)">
                <g id="Girl-/-Head-/-8" transform="translate(95.000000, 33.000000)">
                    <g id="Group-27" transform="translate(62.000000, 1.000000)">
                        <path d="M164.0977,123.6001 C164.1597,164.7731 130.8307,198.2011 89.6587,198.2621 C48.4847,198.3231 15.0577,164.9961 14.9957,123.8221 C14.9347,82.6491 48.2627,49.2221 89.4357,49.1611 C130.6087,49.0991 164.0357,82.4271 164.0977,123.6001" id="Fill-1" fill="#19141E"></path>
                        <path d="M-2.20268248e-13,40.0854 C0.033,62.1904 17.98,80.0844 40.085,80.0504 C62.19,80.0184 80.084,62.0714 80.051,39.9654 C80.018,17.8604 62.071,-0.0326 39.966,0.0004 C17.86,0.0334 -0.033,17.9804 -2.20268248e-13,40.0854" id="Fill-3" fill="#19141E"></path>
                        <polygon id="Fill-6" fill="#19141E" points="15.0029 129.0366 15.1909 254.9456 164.2929 254.7236 164.1049 128.8146"></polygon>
                        <g id="Face-color" transform="translate(50.991600, 95.266753)">
                            <mask id="mask-16" fill="white">
                                <use xlink:href="#path-15"></use>
                            </mask>
                            <use id="Mask" fill="#E576C6" xlink:href="#path-15"></use>
                            <g id="Colors-/-Skin-/-Rose" mask="url(#mask-16)" fill="#E576C6" fill-rule="nonzero">
                                <g transform="translate(0.008400, 6.733247)" id="Color">
                                    <rect x="0" y="0" width="99" height="116"></rect>
                                </g>
                            </g>
                        </g>
                        <polygon id="Fill-11" fill="#405FD3" points="128.3926 144.5024 135.7926 162.4424 127.2076 162.2704"></polygon>
                        <path d="M120.5142,145.2802 C120.3292,148.8642 118.2222,151.6562 115.8062,151.5172 C113.3902,151.3782 111.5812,148.3602 111.7652,144.7762 C111.9502,141.1922 114.0572,138.3992 116.4732,138.5392 C118.8892,138.6782 120.6982,141.6962 120.5142,145.2802" id="Fill-13" fill="#0D0B6D"></path>
                        <path d="M143.2012,144.708 C143.0162,148.291 140.9092,151.084 138.4932,150.945 C136.0772,150.806 134.2682,147.787 134.4522,144.204 C134.6372,140.62 136.7442,137.827 139.1602,137.966 C141.5762,138.105 143.3852,141.124 143.2012,144.708" id="Fill-15" fill="#0D0B6D"></path>
                        <path d="M127.4834,102.8637 C127.4904,107.8207 128.3254,112.5847 129.8484,117.0007 C130.0504,117.5507 130.2534,118.1217 130.4874,118.6707 C131.9564,122.3697 133.9134,125.7977 136.2734,128.8557 C142.6384,137.0887 151.9604,142.6587 162.5154,143.7767 C163.0564,143.8317 163.5874,143.8757 164.1284,143.8967 L164.1054,128.8147 L164.0944,128.8147 C164.1044,128.3427 164.1044,127.8837 164.1034,127.4127 C164.0754,108.7977 157.9514,91.6937 147.7164,78.2187 C145.8144,75.7097 143.7634,73.3357 141.5854,71.0957 C136.6494,75.4207 132.7434,81.0107 130.3024,87.4067 C128.4754,92.1757 127.4754,97.3907 127.4834,102.8637" id="Fill-17" fill="#19141E"></path>
                        <path d="M69.6333,101.9912 C69.6493,112.7642 79.4123,121.8302 92.7353,124.5952 C93.7903,124.8202 94.8633,125.0002 95.9643,125.1352 C97.7313,125.3712 99.5533,125.4822 101.4033,125.4792 C118.9313,125.4532 133.1233,114.8972 133.1033,101.8972 C133.1013,100.6472 132.9703,99.4192 132.7093,98.2262 C130.3153,86.9682 117.1773,78.3732 101.3333,78.3972 C83.9723,78.4232 69.8913,88.7852 69.6423,101.6162 C69.6333,101.7412 69.6333,101.8662 69.6333,101.9912" id="Fill-19" fill="#19141E"></path>
                        <path d="M125.1011,170.8633 C125.1011,170.8633 119.5071,172.6693 113.9021,166.4363" id="Stroke-21" stroke="#1C295E" stroke-width="3"></path>
                        <path d="M100.2774,186.4331 C100.2774,186.4331 87.3474,186.8151 81.8354,183.8041 L99.5904,194.9521 L100.2774,186.4331 Z" id="Fill-23" fill="#000000" opacity="0.401343936"></path>
                        <path d="M116.4497,198.0854 C116.4497,198.0854 113.0677,197.9334 107.8667,198.2624 C100.5867,198.7214 99.2847,198.7344 99.2847,198.7344 L100.1407,188.1304 L119.8017,190.7204 L116.4497,198.0854 Z" id="Fill-25" fill="#19141E"></path>
                    </g>
                </g>
                <g id="Girl-/-Body-/-8" transform="translate(104.000000, 212.000000)">
                    <g id="Group-23" transform="translate(7.000000, 19.000000)">
                        <g id="Skin-color">
                            <mask id="mask-18" fill="white">
                                <use xlink:href="#path-17"></use>
                            </mask>
                            <use id="Mask" fill="#E576C6" xlink:href="#path-17"></use>
                            <g id="Colors-/-Skin-/-Rose" mask="url(#mask-18)" fill="#E576C6" fill-rule="nonzero">
                                <g transform="translate(-2.000000, -2.000000)" id="Color">
                                    <rect x="0" y="0" width="259" height="289"></rect>
                                </g>
                            </g>
                        </g>
                        <path d="M230.3868,234.0974 C230.3868,234.0974 233.2268,244.8264 242.9738,248.1694 C246.3828,249.3384 245.5308,263.1384 253.8858,261.4874" id="Stroke-6" stroke="#000000" stroke-width="3" opacity="0.146833147"></path>
                        <g id="T-shirt" transform="translate(20.608300, 0.000000)">
                            <mask id="mask-20" fill="white">
                                <use xlink:href="#path-19"></use>
                            </mask>
                            <use id="Mask" fill="#72A065" xlink:href="#path-19"></use>
                            <g id="Colors-/-Wear-/-Green" mask="url(#mask-20)" fill="#72A065" fill-rule="nonzero">
                                <g transform="translate(0.391700, 0.000000)" id="Color">
                                    <rect x="0" y="0" width="196" height="150"></rect>
                                </g>
                            </g>
                        </g>
                        <path d="M177.9024,150.6848 C181.1104,109.9418 202.3154,100.3268 186.3154,54.6338" id="Stroke-15" stroke="#000000" stroke-width="4" opacity="0.204148065"></path>
                        <path d="M147.9161,2.615 C147.9161,2.615 155.9701,8.307 161.9861,18.485 C170.2191,32.409 165.9151,44.422 153.2491,44.442 C139.6861,44.465 124.1231,39.849 117.5621,19.309 C114.2431,8.919 111.1081,0.714 111.1081,0.714" id="Stroke-19" stroke="#000000" stroke-width="4" opacity="0.204148065"></path>
                        <path d="M103.1612,75.634 L83.6742,105.159" id="Stroke-21" stroke="#000000" stroke-width="4" opacity="0.204148065"></path>
                    </g>
                </g>
                <g id="Girl-/-Legs-/-8" transform="translate(9.000000, 329.000000)">
                    <g id="Group-15" transform="translate(36.000000, 52.000000)">
                        <g id="Shoes-color" transform="translate(0.000000, 399.710843)">
                            <mask id="mask-22" fill="white">
                                <use xlink:href="#path-21"></use>
                            </mask>
                            <use id="Mask" fill="#0D0B6D" xlink:href="#path-21"></use>
                            <g id="Colors-/-Wear-/-Dark-Plum" mask="url(#mask-22)" fill="#0D0B6D" fill-rule="nonzero">
                                <g transform="translate(-0.985437, 19.099836)" id="Color">
                                    <rect x="0" y="0" width="407" height="132"></rect>
                                </g>
                            </g>
                        </g>
                        <g id="Skin-color" transform="translate(20.694175, 399.687685)">
                            <mask id="mask-24" fill="white">
                                <use xlink:href="#path-23"></use>
                            </mask>
                            <use id="Mask" fill="#CF3E83" xlink:href="#path-23"></use>
                            <g id="Colors-/-Skin-/-Pink" mask="url(#mask-24)" fill="#CF3E83" fill-rule="nonzero">
                                <g transform="translate(-4.927184, 5.326878)" id="Color">
                                    <rect x="0" y="0" width="336" height="115"></rect>
                                </g>
                            </g>
                        </g>
                        <g id="Pants" transform="translate(22.665049, -0.000197)">
                            <mask id="mask-26" fill="white">
                                <use xlink:href="#path-25"></use>
                            </mask>
                            <use id="Mask" fill="#101016" xlink:href="#path-25"></use>
                            <g id="Colors-/-Wear-/-Black" mask="url(#mask-26)" fill="#19141E" fill-rule="nonzero">
                                <g transform="translate(-1.970874, 0.000197)" id="Color">
                                    <rect x="0" y="0" width="316" height="513"></rect>
                                </g>
                            </g>
                        </g>
                        <g id="Overlay" transform="translate(136.336561, -0.000197)" fill="#FFFFFF" opacity="0.145182292">
                            <path d="M202.29306,499.941699 L198.016264,501.242476 L197.996555,501.25233 L175.292089,508.179951 L175.232963,508.189806 L157.022089,513.748655 C157.022089,513.748655 102.310633,383.434481 57.492963,262.599223 C39.784662,214.844951 23.6136426,168.568835 12.9709242,132.403301 C6.06301155,108.900631 1.48072999,89.6747573 0.327768829,77.0710194 C-3.07198845,39.8806311 20.9825261,6.48417476 25.9688368,-5.68434189e-14 L83.6070407,-5.68434189e-14 C86.4943708,13.5596117 93.1066523,43.8617961 106.922478,104.38733 C112.017186,126.707476 118.087478,153.146748 125.31073,184.366374 C172.375196,387.720146 202.29306,499.941699 202.29306,499.941699" id="Fill-12"></path>
                        </g>
                    </g>
                </g>
            </g>
        </g>
    </g>
</svg>