<svg xmlns="http://www.w3.org/2000/svg" xmlns:svg="http://www.w3.org/2000/svg" id="b3df86d2-2022-47c6-a781-bb5144daf06b" width="802.027" height="590.916" data-name="Layer 1" version="1.1" viewBox="0 0 802.027 590.916"><metadata id="metadata8189"/><defs id="defs8187"><filter id="filter8193" style="color-interpolation-filters:sRGB"><feColorMatrix id="feColorMatrix8191" result="color2" values="0 0 -1 0 1 0 -1 0 0 1 -1 0 0 0 1 -0.21 -0.72 -0.07 2 0"/></filter><filter id="filter8197" style="color-interpolation-filters:sRGB"><feColorMatrix id="feColorMatrix8195" result="color2" values="0 0 -1 0 1 0 -1 0 0 1 -1 0 0 0 1 -0.21 -0.72 -0.07 2 0"/></filter><filter id="filter8221" style="color-interpolation-filters:sRGB"><feColorMatrix id="feColorMatrix8217" result="color1" type="hueRotate" values="180"/><feColorMatrix id="feColorMatrix8219" result="color2" values="0 0 1 0 0 0 1 0 0 0 1 0 0 0 0 -0.21 -0.72 -0.07 2 0"/></filter><filter id="filter8227" style="color-interpolation-filters:sRGB"><feColorMatrix id="feColorMatrix8223" result="color1" type="hueRotate" values="180"/><feColorMatrix id="feColorMatrix8225" result="color2" values="0 0 1 0 0 0 1 0 0 0 1 0 0 0 0 -0.21 -0.72 -0.07 2 0"/></filter><filter id="filter8233" style="color-interpolation-filters:sRGB"><feColorMatrix id="feColorMatrix8229" result="color1" type="hueRotate" values="180"/><feColorMatrix id="feColorMatrix8231" result="color2" values="0 0 1 0 0 0 1 0 0 0 1 0 0 0 0 -0.21 -0.72 -0.07 2 0"/></filter><filter id="filter8279" style="color-interpolation-filters:sRGB"><feColorMatrix id="feColorMatrix8275" result="color1" type="hueRotate" values="180"/><feColorMatrix id="feColorMatrix8277" result="fbSourceGraphic" values="0 0 1 0 0 0 1 0 0 0 1 0 0 0 0 -0.21 -0.72 -0.07 2 0"/><feColorMatrix id="feColorMatrix8281" in="fbSourceGraphic" result="fbSourceGraphicAlpha" values="0 0 0 -1 0 0 0 0 -1 0 0 0 0 -1 0 0 0 0 1 0"/><feColorMatrix id="feColorMatrix8283" in="fbSourceGraphic" result="color1" type="hueRotate" values="180"/><feColorMatrix id="feColorMatrix8285" result="fbSourceGraphic" values="0 0 1 0 0 0 1 0 0 0 1 0 0 0 0 -0.21 -0.72 -0.07 2 0"/><feColorMatrix id="feColorMatrix8287" in="fbSourceGraphic" result="fbSourceGraphicAlpha" values="0 0 0 -1 0 0 0 0 -1 0 0 0 0 -1 0 0 0 0 1 0"/><feColorMatrix id="feColorMatrix8289" in="fbSourceGraphic" result="fbSourceGraphic" values="0 0 -1 0 1 0 -1 0 0 1 -1 0 0 0 1 -0.21 -0.72 -0.07 2 0"/><feColorMatrix id="feColorMatrix8291" in="fbSourceGraphic" result="fbSourceGraphicAlpha" values="0 0 0 -1 0 0 0 0 -1 0 0 0 0 -1 0 0 0 0 1 0"/><feColorMatrix id="feColorMatrix8293" in="fbSourceGraphic" result="fbSourceGraphic" values="0 0 -1 0 1 0 -1 0 0 1 -1 0 0 0 1 -0.21 -0.72 -0.07 2 0"/><feColorMatrix id="feColorMatrix8295" in="fbSourceGraphic" result="fbSourceGraphicAlpha" values="0 0 0 -1 0 0 0 0 -1 0 0 0 0 -1 0 0 0 0 1 0"/><feColorMatrix id="feColorMatrix8297" in="fbSourceGraphic" result="color1" type="hueRotate" values="180"/><feColorMatrix id="feColorMatrix8299" result="fbSourceGraphic" values="0 0 -1 0 1 0 -1 0 0 1 -1 0 0 0 1 -0.21 -0.72 -0.07 2 0"/><feColorMatrix id="feColorMatrix8301" in="fbSourceGraphic" result="fbSourceGraphicAlpha" values="0 0 0 -1 0 0 0 0 -1 0 0 0 0 -1 0 0 0 0 1 0"/><feColorMatrix id="feColorMatrix8303" in="fbSourceGraphic" result="color1" type="hueRotate" values="180"/><feColorMatrix id="feColorMatrix8305" result="fbSourceGraphic" values="0 0 -1 0 1 0 -1 0 0 1 -1 0 0 0 1 -0.21 -0.72 -0.07 2 0"/><feColorMatrix id="feColorMatrix8307" in="fbSourceGraphic" result="fbSourceGraphicAlpha" values="0 0 0 -1 0 0 0 0 -1 0 0 0 0 -1 0 0 0 0 1 0"/><feColorMatrix id="feColorMatrix8309" in="fbSourceGraphic" result="fbSourceGraphic" values="0 0 -1 0 1 0 -1 0 0 1 -1 0 0 0 1 -0.21 -0.72 -0.07 2 0"/><feColorMatrix id="feColorMatrix8311" in="fbSourceGraphic" result="fbSourceGraphicAlpha" values="0 0 0 -1 0 0 0 0 -1 0 0 0 0 -1 0 0 0 0 1 0"/><feColorMatrix id="feColorMatrix8313" in="fbSourceGraphic" result="color2" values="0 0 -1 0 1 0 -1 0 0 1 -1 0 0 0 1 -0.21 -0.72 -0.07 2 0"/></filter><filter id="filter8383" style="color-interpolation-filters:sRGB"><feColorMatrix id="feColorMatrix8381" result="color2" values="0 0 -1 0 1 0 -1 0 0 1 -1 0 0 0 1 -0.21 -0.72 -0.07 2 0"/></filter></defs><title id="title8036">researching</title><rect id="rect8038" width="337.121" height="9.889" x="464.906" y="218.808" fill="#e6e6e6"/><rect id="rect8040" width="85.404" height="85.404" x="492.774" y="136.101" fill="#e6e6e6"/><rect id="rect8042" width="51.242" height="51.242" x="509.855" y="153.182" fill="#ccc"/><rect id="rect8044" width="21.576" height="85.404" x="684.259" y="136.101" fill="#e6e6e6"/><rect id="rect8046" width="21.576" height="9.889" x="684.259" y="149.586" fill="#ccc"/><rect id="rect8048" width="21.576" height="9.889" x="684.259" y="192.737" fill="#ccc"/><rect id="rect8050" width="21.576" height="85.404" x="650.997" y="136.101" fill="#e6e6e6"/><rect id="rect8052" width="21.576" height="9.889" x="650.997" y="149.586" fill="#ccc"/><rect id="rect8054" width="21.576" height="9.889" x="650.997" y="192.737" fill="#ccc"/><rect id="rect8056" width="21.576" height="85.404" x="921.902" y="290.643" fill="#e6e6e6" transform="translate(-250.05651 293.89202) rotate(-26.3396)"/><rect id="rect8058" width="21.576" height="9.889" x="911.133" y="306.647" fill="#ccc" transform="translate(-241.52311 286.85528) rotate(-26.3396)"/><rect id="rect8060" width="21.576" height="9.889" x="930.279" y="345.319" fill="#ccc" transform="translate(-256.69359 299.36504) rotate(-26.3396)"/><polygon id="polygon8062" fill="#e6e6e6" points="524.688 170.382 535.554 189.201 546.419 208.02 524.688 208.02 502.958 208.02 513.823 189.201 524.688 170.382"/><polygon id="polygon8064" fill="#e6e6e6" points="543.567 173.978 554.432 192.797 565.298 211.616 543.567 211.616 521.837 211.616 532.702 192.797 543.567 173.978"/><circle id="circle8066" cx="551.209" cy="162.171" r="6.293" fill="#e6e6e6"/><rect id="rect8068" width="337.121" height="9.889" x="663.892" y="237.602" fill="#e6e6e6" transform="translate(1465.91899 330.55131) rotate(-180)"/><rect id="rect8070" width="85.404" height="85.404" x="887.741" y="154.895" fill="#e6e6e6" transform="translate(1661.89893 240.65226) rotate(-180)"/><rect id="rect8072" width="51.242" height="51.242" x="904.821" y="171.976" fill="#ccc" transform="translate(1661.89893 240.65226) rotate(-180)"/><rect id="rect8074" width="21.576" height="85.404" x="760.084" y="154.895" fill="#e6e6e6" transform="translate(1342.75729 240.65226) rotate(-180)"/><rect id="rect8076" width="21.576" height="9.889" x="760.084" y="168.38" fill="#ccc" transform="translate(1342.75729 192.10677) rotate(-180)"/><rect id="rect8078" width="21.576" height="9.889" x="760.084" y="211.531" fill="#ccc" transform="translate(1342.75729 278.40986) rotate(-180)"/><rect id="rect8080" width="21.576" height="85.404" x="793.347" y="154.895" fill="#e6e6e6" transform="translate(1409.28259 240.65226) rotate(-180)"/><rect id="rect8082" width="21.576" height="9.889" x="793.347" y="168.38" fill="#ccc" transform="translate(1409.28259 192.10677) rotate(-180)"/><rect id="rect8084" width="21.576" height="9.889" x="793.347" y="211.531" fill="#ccc" transform="translate(1409.28259 278.40986) rotate(-180)"/><rect id="rect8086" width="21.576" height="85.404" x="721.427" y="154.895" fill="#e6e6e6" transform="translate(1101.7535 545.01488) rotate(-153.6604)"/><rect id="rect8088" width="21.576" height="9.889" x="732.197" y="170.9" fill="#ccc" transform="translate(1131.82608 508.54612) rotate(-153.6604)"/><rect id="rect8090" width="21.576" height="9.889" x="713.051" y="209.571" fill="#ccc" transform="translate(1078.36372 573.37946) rotate(-153.6604)"/><polygon id="polygon8092" fill="#e6e6e6" points="742.244 34.634 731.379 53.453 720.514 72.272 742.244 72.272 763.975 72.272 753.109 53.453 742.244 34.634"/><polygon id="polygon8094" fill="#e6e6e6" points="723.365 38.23 712.5 57.049 701.635 75.868 723.365 75.868 745.096 75.868 734.231 57.049 723.365 38.23"/><circle id="circle8096" cx="715.724" cy="26.424" r="6.293" fill="#e6e6e6"/><rect id="rect8098" width="337.121" height="9.889" x="663.892" y="509.097" fill="#e6e6e6" transform="translate(1465.91899 873.5416) rotate(-180)"/><rect id="rect8100" width="85.404" height="85.404" x="887.741" y="426.39" fill="#e6e6e6" transform="translate(1661.89893 783.64254) rotate(-180)"/><rect id="rect8102" width="51.242" height="51.242" x="904.821" y="443.471" fill="#ccc" transform="translate(1661.89893 783.64254) rotate(-180)"/><rect id="rect8104" width="21.576" height="85.404" x="760.084" y="426.39" fill="#e6e6e6" transform="translate(1342.75729 783.64254) rotate(-180)"/><rect id="rect8106" width="21.576" height="9.889" x="760.084" y="439.875" fill="#ccc" transform="translate(1342.75729 735.09706) rotate(-180)"/><rect id="rect8108" width="21.576" height="9.889" x="760.084" y="483.027" fill="#ccc" transform="translate(1342.75729 821.40015) rotate(-180)"/><rect id="rect8110" width="21.576" height="85.404" x="793.347" y="426.39" fill="#e6e6e6" transform="translate(1409.28259 783.64254) rotate(-180)"/><rect id="rect8112" width="21.576" height="9.889" x="793.347" y="439.875" fill="#ccc" transform="translate(1409.28259 735.09706) rotate(-180)"/><rect id="rect8114" width="21.576" height="9.889" x="793.347" y="483.027" fill="#ccc" transform="translate(1409.28259 821.40015) rotate(-180)"/><rect id="rect8116" width="21.576" height="85.404" x="721.427" y="426.39" fill="#e6e6e6" transform="translate(981.29362 1059.81853) rotate(-153.6604)"/><rect id="rect8118" width="21.576" height="9.889" x="732.197" y="442.395" fill="#ccc" transform="translate(1011.3662 1023.34977) rotate(-153.6604)"/><rect id="rect8120" width="21.576" height="9.889" x="713.051" y="481.067" fill="#ccc" transform="translate(957.90384 1088.18312) rotate(-153.6604)"/><polygon id="polygon8122" fill="#e6e6e6" points="742.244 306.129 731.379 324.948 720.514 343.768 742.244 343.768 763.975 343.768 753.109 324.948 742.244 306.129"/><polygon id="polygon8124" fill="#e6e6e6" points="723.365 309.725 712.5 328.544 701.635 347.364 723.365 347.364 745.096 347.364 734.231 328.544 723.365 309.725"/><circle id="circle8126" cx="715.724" cy="297.919" r="6.293" fill="#e6e6e6"/><ellipse id="ellipse8128" cx="397.129" cy="562.711" fill="#e6e6e6" rx="397.129" ry="28.205"/><path style="filter:url(#filter8383)" id="path8130" fill="#6c63ff" d="M906.37333,733.04786c-64.75515-11.52541-135.56743-9.60949-209.84681,0,33.85544-28.5813,63.07462-57.16255,29.21918-85.74385,66.03927,13.624,75.28918,12.24508,148.75216,0C857.45856,675.88531,889.334,704.46656,906.37333,733.04786Z" transform="translate(-198.98652 -154.54184)"/><path style="filter:url(#filter8279)" id="path8132" d="M906.37333,733.04786c-64.75515-11.52541-135.56743-9.60949-209.84681,0,33.85544-28.5813,63.07462-57.16255,29.21918-85.74385,66.03927,13.624,75.28918,12.24508,148.75216,0C857.45856,675.88531,889.334,704.46656,906.37333,733.04786Z" opacity=".2" transform="translate(-198.98652 -154.54184)"/><path style="filter:url(#filter8197)" id="path8134" fill="#6c63ff" d="M890.57841,720.85416c-55.00706-9.19982-115.15943-7.6705-178.257,0C741.08036,698.04,765.901,675.22584,737.142,652.41166c56.09788,10.875,63.95533,9.77428,126.35937,0C849.02715,675.22584,876.10416,698.04,890.57841,720.85416Z" transform="translate(-198.98652 -154.54184)"/><circle id="circle8136" cx="670.64" cy="500.244" r="29.309" fill="#2f2e41"/><polygon id="polygon8138" fill="#a0616a" points="537.591 466.249 557.899 469.634 568.053 498.967 538.72 517.019 504.873 466.249 536.463 466.249 537.591 466.249"/><circle id="circle8140" cx="595.13" cy="463.993" r="47.385" fill="#a0616a"/><path id="path8142" fill="#2f2e41" d="M532.37217,445.91877s-115.07728,12.41029-135.385,10.15388-29.33342-4.51284-29.33342-4.51284-13.53851,18.05134-6.76925,25.9488A48.82193,48.82193,0,0,0,374.423,488.7907s12.41029-3.38463,21.436,0,100.41057,18.05133,116.20549,4.51283S532.37217,445.91877,532.37217,445.91877Z" transform="translate(-198.98652 -154.54184)"/><path id="path8144" fill="#2f2e41" d="M540.26963,697.50929s-75.59-21.436-89.12848-116.20549v-9.02567S436.185,598.51641,430.83339,603.868c-6.20515,6.20514-28.20522,62.05147-27.077,67.69251s0,7.89746,0,7.89746l-32.71805-3.38462V665.91945s17.48724-52.4617,18.61545-64.872,43.436-98.71825,43.436-98.71825,15.79492-32.71805,42.87193,0,29.33342,55.28222,29.33342,55.28222l34.97447,67.69252Z" transform="translate(-198.98652 -154.54184)"/><path id="path8146" fill="#2f2e41" d="M371.03833,448.17519l-36.10267-12.4103s-33.84626-24.82059-25.9488,0,44.00013,78.9746,54.154,73.33356,22.36551-19.64318,19.64432-21.66778S362.01266,470.73936,371.03833,448.17519Z" transform="translate(-198.98652 -154.54184)"/><path id="path8148" fill="#2f2e41" d="M375.4022,659.25875l-29.14381,14.233s-35.24366,5.4221-15.58854,15.58855,73.87615,21.01064,76.5872,11.522,1.63541-25.2364-1.21558-24.81793S383.53535,678.23611,375.4022,659.25875Z" transform="translate(-198.98652 -154.54184)"/><path style="filter:url(#filter8227)" id="path8150" fill="#575a89" d="M525.60291,623.04752s-14.66671,63.17969,10.15388,76.71819S734.32151,715.56063,747.86,690.74s6.76926-24.82059,6.76926-24.82059l-36.10268-40.61551L747.86,623.04752s0-9.02567-10.15387-10.15387-41.74372-12.4103-68.82073-4.51284-42.87193-15.79492-42.87193-15.79492Z" transform="translate(-198.98652 -154.54184)"/><polygon id="polygon8152" fill="#3f3d56" points="307.437 271.069 288.257 375.993 420.258 360.198 443.95 265.428 307.437 271.069"/><polygon id="polygon8154" fill="#fff" points="311.386 275.018 295.591 368.659 415.745 354.557 438.873 269.377 311.386 275.018"/><polygon id="polygon8156" fill="#b3b3b3" points="292.77 377.121 288.257 375.993 286.001 380.505 322.104 480.916 325.499 479.618 326.616 473.019 292.77 377.121"/><polygon id="polygon8158" fill="#d0cde1" points="288.257 374.864 324.36 479.788 460.873 459.48 420.258 360.198 288.257 374.864"/><polygon id="polygon8160" fill="#3f3d56" points="306.309 371.48 306.309 377.121 406.719 365.839 405.591 360.198 306.309 371.48"/><polygon id="polygon8162" fill="#3f3d56" points="308.565 382.762 324.36 426.762 427.027 414.352 408.976 372.608 308.565 382.762"/><path id="path8164" fill="#a0616a" d="M636.16736,599.35514l-3.38463-9.02567s-25.94879-45.12834-39.4873-36.10267,28.20522,53.0258,28.20522,53.0258h13.5385Z" transform="translate(-198.98652 -154.54184)"/><path id="path8166" fill="#a0616a" d="M550.4235,606.12439l-3.38462-13.5385s-9.02567-41.74372,6.76925-39.4873,20.30776,41.74372,20.30776,41.74372l-1.12821,9.02567Z" transform="translate(-198.98652 -154.54184)"/><path style="filter:url(#filter8221)" id="path8168" fill="#575a89" d="M577.50051,600.48335s-29.33342-4.51283-30.46163,2.25642-6.76925,108.308,21.436,111.69265,168.10309,18.05134,153.43638-16.92313-37.23089-30.46163-37.23089-30.46163L588.7826,677.20154Z" transform="translate(-198.98652 -154.54184)"/><polygon style="filter:url(#filter8233)" id="polygon8170" fill="#575a89" points="467.078 458.916 437.181 438.044 417.437 453.275 442.258 480.352 467.078 458.916"/><polygon id="polygon8172" points="386.976 479.224 391.488 522.096 469.335 517.583 401.642 516.455 386.976 479.224" opacity=".2"/><circle id="circle8174" cx="618.521" cy="472.603" r="56.41" fill="#2f2e41"/><polygon style="filter:url(#filter8193)" id="polygon8176" fill="#6c63ff" points="328.309 307.736 398.258 305.301 405.027 279.531 332.822 281.71 328.309 307.736"/><polygon id="polygon8178" fill="#e6e6e6" points="310.258 322.403 416.309 319.018 417.437 314.505 311.386 318.239 310.258 322.403"/><polygon id="polygon8180" fill="#e6e6e6" points="308.001 333.685 414.053 330.3 415.181 325.787 309.129 329.521 308.001 333.685"/><polygon id="polygon8182" fill="#e6e6e6" points="306.873 342.71 412.924 339.326 414.053 334.813 308.001 338.546 306.873 342.71"/></svg>