<svg xmlns="http://www.w3.org/2000/svg" xmlns:svg="http://www.w3.org/2000/svg" xmlns:xlink="http://www.w3.org/1999/xlink" id="fd1e300e-6133-4b79-9025-3394cccdd89f" width="868" height="731" data-name="Layer 1" version="1.1" viewBox="0 0 868 731"><metadata id="metadata515"/><defs id="defs364"><linearGradient id="06147ff9-8cd2-48ac-a1c1-caecd7b6d6a5" x1="731.5" x2="731.5" y1="630" y2="105" gradientUnits="userSpaceOnUse"><stop id="stop331" offset="0" stop-color="gray" stop-opacity=".25"/><stop id="stop333" offset=".54" stop-color="gray" stop-opacity=".12"/><stop id="stop335" offset="1" stop-color="gray" stop-opacity=".1"/></linearGradient><linearGradient id="a49b107c-cf66-4ec6-8282-86ab0caa351c" x1="136.5" x2="136.5" y1="632" y2="107" xlink:href="#06147ff9-8cd2-48ac-a1c1-caecd7b6d6a5"/><linearGradient id="1f9811ff-c8f4-40a6-be63-e60ca0341cbe" x1="136.5" x2="136.5" y1="190" y2="159" gradientUnits="userSpaceOnUse"><stop id="stop339" offset="0" stop-opacity=".12"/><stop id="stop341" offset=".55" stop-opacity=".09"/><stop id="stop343" offset="1" stop-opacity=".02"/></linearGradient><linearGradient id="b9a200bd-353c-4381-b6e1-073e5213fd80" x1="732.5" x2="732.5" y1="237" y2="206" xlink:href="#1f9811ff-c8f4-40a6-be63-e60ca0341cbe"/><linearGradient id="bd740118-0fc8-46fe-baa7-1287731d1ce1" x1="731.5" x2="731.5" y1="285" y2="254" xlink:href="#1f9811ff-c8f4-40a6-be63-e60ca0341cbe"/><linearGradient id="be3dcc85-6798-4804-ad40-40dd5e1bf54d" x1="731.5" x2="731.5" y1="333" y2="302" xlink:href="#1f9811ff-c8f4-40a6-be63-e60ca0341cbe"/><linearGradient id="7951aed1-d6b7-43ca-8fc6-4bf3d931fa96" x1="731.5" x2="731.5" y1="381" y2="350" xlink:href="#1f9811ff-c8f4-40a6-be63-e60ca0341cbe"/><linearGradient id="f7ec873f-c4fc-49e9-9fd3-dd83f2d4e56d" x1="731.5" x2="731.5" y1="429" y2="398" xlink:href="#1f9811ff-c8f4-40a6-be63-e60ca0341cbe"/><linearGradient id="ccdfa92b-51d8-4ad9-a821-9e1bef0af2d7" x1="731.5" x2="731.5" y1="477" y2="446" xlink:href="#1f9811ff-c8f4-40a6-be63-e60ca0341cbe"/><linearGradient id="073d1fbf-61de-45f9-b512-c4899ce091e5" x1="731.5" x2="731.5" y1="525" y2="494" xlink:href="#1f9811ff-c8f4-40a6-be63-e60ca0341cbe"/><linearGradient id="24835175-14ba-470d-95d2-6a8277fcc694" x1="731.5" x2="731.5" y1="573" y2="542" xlink:href="#1f9811ff-c8f4-40a6-be63-e60ca0341cbe"/><linearGradient id="5ff08f58-18b8-40ea-89dd-f61e941fbca5" x1="731.5" x2="731.5" xlink:href="#1f9811ff-c8f4-40a6-be63-e60ca0341cbe"/><linearGradient id="35037972-f4cb-4e52-85d9-6feea861c78a" x1="51" x2="222" y1="223.5" y2="223.5" xlink:href="#1f9811ff-c8f4-40a6-be63-e60ca0341cbe"/><linearGradient id="c11cf938-6a5f-4793-b594-126852022070" x1="51" x2="222" y1="270.5" y2="270.5" xlink:href="#1f9811ff-c8f4-40a6-be63-e60ca0341cbe"/><linearGradient id="68e8be81-276e-4a4c-a07a-ad0995a3c0be" x1="51" x2="222" y1="317.5" y2="317.5" xlink:href="#1f9811ff-c8f4-40a6-be63-e60ca0341cbe"/><linearGradient id="0822cc54-0c46-479a-a5ec-03e9a82962c7" x1="51" x2="222" y1="365.5" y2="365.5" xlink:href="#1f9811ff-c8f4-40a6-be63-e60ca0341cbe"/><linearGradient id="7019b20f-90f6-479e-a238-57a05bc6be32" x1="51" x2="222" y1="413.5" y2="413.5" xlink:href="#1f9811ff-c8f4-40a6-be63-e60ca0341cbe"/><linearGradient id="d42fcc48-79e2-414c-a733-2be802693088" x1="51" x2="222" y1="461.5" y2="461.5" xlink:href="#1f9811ff-c8f4-40a6-be63-e60ca0341cbe"/><linearGradient id="0c4558fc-2870-4523-bb15-f13635f1ebad" x1="132" x2="735" y1="664" y2="664" xlink:href="#06147ff9-8cd2-48ac-a1c1-caecd7b6d6a5"/><linearGradient id="5f8c78d2-e119-41dc-88f5-5bfd3b7b4286" x1="435" x2="435" y1="89" y2="50" xlink:href="#06147ff9-8cd2-48ac-a1c1-caecd7b6d6a5"/><linearGradient id="0b3309b2-8c80-4e02-ba09-43858a03760e" x1="601" x2="601" y1="704.8" y2="406" xlink:href="#06147ff9-8cd2-48ac-a1c1-caecd7b6d6a5"/><filter id="filter717" style="color-interpolation-filters:sRGB"><feColorMatrix id="feColorMatrix713" result="color1" type="hueRotate" values="180"/><feColorMatrix id="feColorMatrix715" result="color2" values="0 0 1 0 0 0 1 0 0 0 1 0 0 0 0 -0.21 -0.72 -0.07 2 0"/></filter><filter id="filter723" style="color-interpolation-filters:sRGB"><feColorMatrix id="feColorMatrix719" result="color1" type="hueRotate" values="180"/><feColorMatrix id="feColorMatrix721" result="color2" values="0 0 1 0 0 0 1 0 0 0 1 0 0 0 0 -0.21 -0.72 -0.07 2 0"/></filter><filter id="filter729" style="color-interpolation-filters:sRGB"><feColorMatrix id="feColorMatrix725" result="color1" type="hueRotate" values="180"/><feColorMatrix id="feColorMatrix727" result="color2" values="0 0 1 0 0 0 1 0 0 0 1 0 0 0 0 -0.21 -0.72 -0.07 2 0"/></filter><filter id="filter735" style="color-interpolation-filters:sRGB"><feColorMatrix id="feColorMatrix731" result="color1" type="hueRotate" values="180"/><feColorMatrix id="feColorMatrix733" result="color2" values="0 0 1 0 0 0 1 0 0 0 1 0 0 0 0 -0.21 -0.72 -0.07 2 0"/></filter><filter id="filter741" style="color-interpolation-filters:sRGB"><feColorMatrix id="feColorMatrix737" result="color1" type="hueRotate" values="180"/><feColorMatrix id="feColorMatrix739" result="color2" values="0 0 1 0 0 0 1 0 0 0 1 0 0 0 0 -0.21 -0.72 -0.07 2 0"/></filter><filter id="filter747" style="color-interpolation-filters:sRGB"><feColorMatrix id="feColorMatrix743" result="color1" type="hueRotate" values="180"/><feColorMatrix id="feColorMatrix745" result="color2" values="0 0 1 0 0 0 1 0 0 0 1 0 0 0 0 -0.21 -0.72 -0.07 2 0"/></filter><filter id="filter753" style="color-interpolation-filters:sRGB"><feColorMatrix id="feColorMatrix749" result="color1" type="hueRotate" values="180"/><feColorMatrix id="feColorMatrix751" result="color2" values="0 0 1 0 0 0 1 0 0 0 1 0 0 0 0 -0.21 -0.72 -0.07 2 0"/></filter></defs><title id="title366">welcome</title><rect style="filter:url(#filter717)" id="rect368" width="731" height="731" x="69" fill="#6c63ff" opacity=".2"/><rect style="filter:url(#filter729)" id="rect370" width="510" height="595.5" x="179" y="68.25" fill="#6c63ff" opacity=".5"/><rect id="rect372" width="273" height="525" x="595" y="105" fill="url(#06147ff9-8cd2-48ac-a1c1-caecd7b6d6a5)"/><rect id="rect374" width="273" height="525" y="107" fill="url(#a49b107c-cf66-4ec6-8282-86ab0caa351c)"/><rect style="filter:url(#filter735)" id="rect376" width="255" height="506" x="604" y="113" fill="#6c63ff"/><rect style="filter:url(#filter741)" id="rect378" width="255" height="506" x="175" y="197.5" fill="#6c63ff" transform="translate(439 816.5) rotate(-180)"/><rect id="rect380" width="171" height="31" x="51" y="159" fill="url(#1f9811ff-c8f4-40a6-be63-e60ca0341cbe)"/><rect id="rect382" width="171" height="31" x="647" y="206" fill="url(#b9a200bd-353c-4381-b6e1-073e5213fd80)"/><rect id="rect384" width="171" height="31" x="646" y="254" fill="url(#bd740118-0fc8-46fe-baa7-1287731d1ce1)"/><rect id="rect386" width="171" height="31" x="646" y="302" fill="url(#be3dcc85-6798-4804-ad40-40dd5e1bf54d)"/><rect id="rect388" width="171" height="31" x="646" y="350" fill="url(#7951aed1-d6b7-43ca-8fc6-4bf3d931fa96)"/><rect id="rect390" width="171" height="31" x="646" y="398" fill="url(#f7ec873f-c4fc-49e9-9fd3-dd83f2d4e56d)"/><rect id="rect392" width="171" height="31" x="646" y="446" fill="url(#ccdfa92b-51d8-4ad9-a821-9e1bef0af2d7)"/><rect id="rect394" width="171" height="31" x="646" y="494" fill="url(#073d1fbf-61de-45f9-b512-c4899ce091e5)"/><rect id="rect396" width="171" height="31" x="646" y="542" fill="url(#24835175-14ba-470d-95d2-6a8277fcc694)"/><rect id="rect398" width="171" height="31" x="646" y="159" fill="url(#5ff08f58-18b8-40ea-89dd-f61e941fbca5)"/><rect id="rect400" width="171" height="31" x="51" y="208" fill="url(#35037972-f4cb-4e52-85d9-6feea861c78a)"/><rect id="rect402" width="171" height="31" x="51" y="255" fill="url(#c11cf938-6a5f-4793-b594-126852022070)"/><rect id="rect404" width="171" height="31" x="51" y="302" fill="url(#68e8be81-276e-4a4c-a07a-ad0995a3c0be)"/><rect id="rect406" width="171" height="31" x="51" y="350" fill="url(#0822cc54-0c46-479a-a5ec-03e9a82962c7)"/><rect id="rect408" width="171" height="31" x="51" y="398" fill="url(#7019b20f-90f6-479e-a238-57a05bc6be32)"/><rect id="rect410" width="164" height="24" x="55" y="163" fill="#fff"/><rect id="rect412" width="164" height="24" x="54.5" y="210" fill="#fff"/><rect id="rect414" width="164" height="24" x="54.5" y="258" fill="#fff"/><rect id="rect416" width="164" height="24" x="54.5" y="306" fill="#fff"/><rect id="rect418" width="164" height="24" x="54.5" y="354" fill="#fff"/><rect id="rect420" width="164" height="24" x="54.5" y="402" fill="#fff"/><rect id="rect422" width="171" height="31" x="51" y="446" fill="url(#d42fcc48-79e2-414c-a733-2be802693088)"/><rect id="rect424" width="164" height="24" x="54.5" y="450" fill="#fff"/><rect id="rect426" width="164" height="24" x="54.5" y="450" fill="#fff"/><rect id="rect428" width="164" height="24" x="54.5" y="498" fill="#fff"/><rect id="rect430" width="164" height="24" x="54.5" y="546" fill="#fff"/><rect id="rect432" width="164" height="24" x="650" y="162" fill="#fff"/><rect id="rect434" width="164" height="24" x="650" y="210" fill="#fff"/><rect id="rect436" width="164" height="24" x="650" y="258" fill="#fff"/><rect id="rect438" width="164" height="24" x="650" y="306" fill="#fff"/><rect id="rect440" width="164" height="24" x="650" y="354" fill="#fff"/><rect id="rect442" width="164" height="24" x="650" y="402" fill="#fff"/><rect id="rect444" width="164" height="24" x="650" y="450" fill="#fff"/><rect id="rect446" width="164" height="24" x="650" y="498" fill="#fff"/><rect id="rect448" width="164" height="24" x="650" y="546" fill="#fff"/><rect id="rect450" width="603" height="38" x="132" y="645" fill="url(#0c4558fc-2870-4523-bb15-f13635f1ebad)"/><rect style="filter:url(#filter723)" id="rect452" width="594" height="30" x="137" y="649" fill="#6c63ff"/><rect id="rect454" width="602" height="39" x="134" y="50" fill="url(#5f8c78d2-e119-41dc-88f5-5bfd3b7b4286)"/><rect style="filter:url(#filter747)" id="rect456" width="594" height="30" x="137" y="53" fill="#6c63ff"/><rect style="filter:url(#filter753)" id="rect458" width="292" height="506" x="289" y="113" fill="#263238" opacity=".5"/><path id="path460" fill="url(#0b3309b2-8c80-4e02-ba09-43858a03760e)" d="M825.66,417.55c7,9.38-3.48,20.46-3.48,20.46l1.76.61c-2.59,2.87-12.82,15.82-52.26,74.4-50.5,75-118.55,93.71-118.55,93.71h0a84,84,0,0,0-27.73-14.31v-7.08a83,83,0,0,0,55.3-53.48,85.08,85.08,0,0,0,9.14-38.44c0-48-39.77-86.94-88.82-86.94s-88.82,38.93-88.82,86.94a85.08,85.08,0,0,0,9.14,38.44,83,83,0,0,0,55.3,53.48v7.08a84,84,0,0,0-27.73,14.31h0S480.83,588,430.33,513c-39.44-58.58-49.67-71.54-52.26-74.4l1.76-.61s-10.45-11.08-3.48-20.46-46.15-20.46-40.06,0,13.93,30.69,13.93,30.69S461.42,623.6,519.47,652.58a80.43,80.43,0,0,0-2.06,18.12V704.8H684.59V670.7a80.43,80.43,0,0,0-2.06-18.12c58-29,169.25-204.35,169.25-204.35s7.84-10.23,13.93-30.69S818.69,408.17,825.66,417.55Z" transform="translate(-166 -84.5)"/><circle id="circle462" cx="435" cy="413.47" r="85.06" fill="#263238"/><circle id="circle464" cx="435" cy="426.82" r="80.06" fill="#f8c198"/><circle id="circle466" cx="403.31" cy="409.3" r="10.01" fill="#263238"/><circle id="circle468" cx="468.36" cy="409.3" r="10.01" fill="#263238"/><path id="path470" fill="#fff" d="M624.35,548c0,6-10.45,15.85-23.35,15.85S577.65,554,577.65,548s10.45-5.84,23.35-5.84S624.35,542,624.35,548Z" transform="translate(-166 -84.5)"/><circle id="circle472" cx="405.81" cy="409.3" r="3.34" fill="#fff"/><circle id="circle474" cx="471.69" cy="409.3" r="3.34" fill="#fff"/><path id="path476" fill="#263238" d="M609,466.88c-4.88,0-9.26-4.24-9.78-9.09a12,12,0,0,1,7-11.75,3.42,3.42,0,0,1,1.47-.38c1.68,0,2.51,2,3.05,3.59,1.68,4.92,4.66,9.72,9.34,12s11.22,1.11,13.69-3.47c-6.62-2.95-9.45-12.21-5.6-18.35,1.49-2.37,3.81-4.38,4.28-7.14.86-5-4.62-8.64-9.47-10.14-14-4.33-62.8-4.81-65.49,16.08C554.67,460.27,593.63,469.8,609,466.88Z" transform="translate(-166 -84.5)"/><ellipse id="ellipse478" cx="524.27" cy="512.15" fill="#f8c198" rx="5" ry="14.18" transform="translate(-317.38 143.66) rotate(-21.53)"/><ellipse id="ellipse480" cx="677.73" cy="512.15" fill="#f8c198" rx="14.18" ry="5" transform="translate(-213.42 870.11) rotate(-68.47)"/><path style="fill:#bccecd;fill-opacity:1" id="path482" fill="#ff9800" d="M650.91,608.84s65.17-18.3,113.54-91.69,50.87-73.59,50.87-73.59l25.85,10.21S721.09,647.25,669.39,657.26,650.91,608.84,650.91,608.84Z" transform="translate(-166 -84.5)"/><path id="path484" fill="#f8c198" d="M812.83,443.77s10-10.84,3.34-20,44.2-20,38.36,0-13.34,30-13.34,30Z" transform="translate(-166 -84.5)"/><path style="fill:#bccecd;fill-opacity:1" id="path486" fill="#ff9800" d="M551.09,608.84s-65.17-18.3-113.54-91.69-50.87-73.59-50.87-73.59l-25.85,10.21s120.09,193.48,171.8,203.49S551.09,608.84,551.09,608.84Z" transform="translate(-166 -84.5)"/><path id="path488" fill="#f8c198" d="M389.17,443.77s-10-10.84-3.34-20-44.2-20-38.36,0,13.34,30,13.34,30Z" transform="translate(-166 -84.5)"/><g id="g498" opacity=".2"><path id="path490" fill="#fff" d="M628.29,427.27c-.48,2.76-2.8,4.76-4.28,7.14-3.37,5.38-1.62,13.16,3.32,17a12.79,12.79,0,0,1,.85-11.14c1.49-2.37,3.81-4.38,4.28-7.14.54-3.13-1.41-5.73-4.13-7.6A6,6,0,0,1,628.29,427.27Z" transform="translate(-166 -84.5)"/><path id="path492" fill="#fff" d="M607.46,446.51c-.32-.75-.62-1.51-.88-2.27-.54-1.59-1.37-3.54-3.05-3.59a3.42,3.42,0,0,0-1.47.38,12,12,0,0,0-7,11.75,10.53,10.53,0,0,0,4.47,7.35,9.4,9.4,0,0,1-.3-1.51,12,12,0,0,1,7-11.75A3.87,3.87,0,0,1,607.46,446.51Z" transform="translate(-166 -84.5)"/><path id="path494" fill="#fff" d="M600.41,462.35c-12.16.51-31.78-4.13-41.45-14,7.22,15.36,37.05,21.79,50,19.32A10.08,10.08,0,0,1,600.41,462.35Z" transform="translate(-166 -84.5)"/><path id="path496" fill="#fff" d="M628.68,454.11c-2.92,3.43-8.58,4.15-12.75,2.12a14.54,14.54,0,0,1-3.7-2.61,17.84,17.84,0,0,0,7.87,8.44c4.68,2.27,11.22,1.11,13.69-3.47A11.88,11.88,0,0,1,628.68,454.11Z" transform="translate(-166 -84.5)"/></g><path id="path500" fill="#fff" d="M837.85,453.77S717.76,647.25,666,657.26a60.33,60.33,0,0,1-9.07,1.11,53.05,53.05,0,0,0,12.41-1.11c51.71-10,171.8-203.49,171.8-203.49l-2.68-.95C838.09,453.45,837.85,453.77,837.85,453.77Z" opacity=".2" transform="translate(-166 -84.5)"/><path id="path502" fill="#fff" d="M364.15,453.77S484.24,647.25,536,657.26a60.33,60.33,0,0,0,9.07,1.11,53.05,53.05,0,0,1-12.41-1.11c-51.71-10-171.8-203.49-171.8-203.49l2.68-.95C363.91,453.45,364.15,453.77,364.15,453.77Z" opacity=".2" transform="translate(-166 -84.5)"/><path style="fill:#bccecd;fill-opacity:1" id="path504" fill="#ff9800" d="M435,506.88h0a80.06,80.06,0,0,1,80.06,80.06V620.3a0,0,0,0,1,0,0H354.94a0,0,0,0,1,0,0V586.94A80.06,80.06,0,0,1,435,506.88Z"/><path id="path506" fill="#fff" d="M601.83,591.8h0a80.93,80.93,0,0,0-8.72.47c1,0,1.91-.06,2.88-.06h0a80.06,80.06,0,0,1,80.06,80.06v32.94h5.84V671.86A80.06,80.06,0,0,0,601.83,591.8Z" opacity=".2" transform="translate(-166 -84.5)"/><path id="path508" fill="#fff" d="M600.17,591.8h0a80.93,80.93,0,0,1,8.72.47c-1,0-1.91-.06-2.88-.06h0a80.06,80.06,0,0,0-80.06,80.06v32.94h-5.84V671.86A80.06,80.06,0,0,1,600.17,591.8Z" opacity=".2" transform="translate(-166 -84.5)"/><rect id="rect510" width="46.7" height="56.29" x="411.65" y="484.78" fill="#f8c198" rx="23.35" ry="23.35"/></svg>